<svg xmlns="http://www.w3.org/2000/svg" viewBox="0 0 72 72"><g fill="none" stroke="#000" stroke-linejoin="round" stroke-width="2"><path d="M59.035 60.137h-46.07a.97.97 0 0 1-.965-.965v-46.07a.97.97 0 0 1 .965-.965h46.07a.97.97 0 0 1 .965.965v46.07a.97.97 0 0 1-.965.965Z"/><g stroke-linecap="round"><path d="m33.287 43.637-6.429-15-6.428 15M22.572 40.046h8.572M46.655 36.137h-5.72v-7.472h5.72a3.736 3.736 0 0 1 3.736 3.736h0a3.736 3.736 0 0 1-3.736 3.736M46.655 43.61h-5.72v-7.473h5.72a3.736 3.736 0 0 1 3.736 3.736h0a3.736 3.736 0 0 1-3.736 3.736"/></g></g><path fill="#d22f27" d="M59.035 60.137h-46.07a.97.97 0 0 1-.965-.965v-46.07a.97.97 0 0 1 .965-.965h46.07a.97.97 0 0 1 .965.965v46.07a.97.97 0 0 1-.965.965"/><g fill="none" stroke="#fff" stroke-linejoin="round" stroke-width="2"><path d="M59.035 60.137h-46.07a.97.97 0 0 1-.965-.965v-46.07a.97.97 0 0 1 .965-.965h46.07a.97.97 0 0 1 .965.965v46.07a.97.97 0 0 1-.965.965Z"/><g stroke-linecap="round"><path d="m33.287 43.637-6.429-15-6.428 15M22.572 40.046h8.572M46.655 36.137h-5.72v-7.472h5.72a3.736 3.736 0 0 1 3.736 3.736h0a3.736 3.736 0 0 1-3.736 3.736M46.655 43.61h-5.72v-7.473h5.72a3.736 3.736 0 0 1 3.736 3.736h0a3.736 3.736 0 0 1-3.736 3.736"/></g></g></svg>