<svg xmlns="http://www.w3.org/2000/svg" viewBox="0 0 72 72"><g fill="none" stroke="#000" stroke-linejoin="round" stroke-width="2"><path d="M59.035 60h-46.07a.97.97 0 0 1-.965-.965v-46.07a.97.97 0 0 1 .965-.965h46.07a.97.97 0 0 1 .965.965v46.07a.97.97 0 0 1-.965.965Z"/><path stroke-linecap="round" d="M32.07 42.578a5.3 5.3 0 0 1-3.538 1.343h0a5.334 5.334 0 0 1-5.334-5.334v-4.268a5.334 5.334 0 0 1 5.334-5.334h0a5.3 5.3 0 0 1 3.538 1.343M42.401 29.049v14.936h6.401"/></g><path fill="#d22f27" d="M59.035 60.453h-46.07a.97.97 0 0 1-.965-.965v-46.07a.97.97 0 0 1 .965-.965h46.07a.97.97 0 0 1 .965.965v46.07a.97.97 0 0 1-.965.965"/><g fill="none" stroke="#fff" stroke-linejoin="round" stroke-width="2"><path d="M59.035 60h-46.07a.97.97 0 0 1-.965-.965v-46.07a.97.97 0 0 1 .965-.965h46.07a.97.97 0 0 1 .965.965v46.07a.97.97 0 0 1-.965.965Z"/><path stroke-linecap="round" d="M32.07 42.578a5.3 5.3 0 0 1-3.538 1.343h0a5.334 5.334 0 0 1-5.334-5.334v-4.268a5.334 5.334 0 0 1 5.334-5.334h0a5.3 5.3 0 0 1 3.538 1.343M42.401 29.049v14.936h6.401"/></g></svg>