<svg xmlns="http://www.w3.org/2000/svg" viewBox="0 0 72 72"><path fill="#fff" d="M5 17h62v38H5z"/><path fill="#d22f27" stroke="#d22f27" stroke-miterlimit="10" stroke-width="2" d="M67 33H39V17h-6v16H5v6h28v16h6V39h28z"/><path fill="#d22f27" stroke="#d22f27" stroke-miterlimit="10" stroke-width="2" d="M5 17h31v19H5z"/><path fill="none" stroke="#fcea2b" stroke-linecap="round" stroke-linejoin="round" stroke-width="1.5" d="M16.5 31.834h11.053M27.5 28.834a1.5 1.5 0 0 1 0 3M16.5 29.584v2.25M23 31.834l.492 1.336-2.742.914M12 34.084l4.5-2.25M25.25 31.834l3.453 1.324-1.203.926M27.5 28.834c-1.5 0-3 .75-4.5.75-1.193 0-2.25-.211-2.25-.994M12.75 29.584v.43c0 .194.118.367.297.44l3.453 1.38M16.5 23.834h11.053M27.5 20.834a1.5 1.5 0 0 1 0 3M16.5 21.584v2.25M23 23.834l.492 1.336-2.742.914M12 26.084l4.5-2.25M25.25 23.834l3.453 1.324-1.203.926M27.5 20.834c-1.5 0-3 .75-4.5.75-1.193 0-2.25-.211-2.25-.994M12.75 21.584v.43c0 .194.118.367.297.44l3.453 1.38"/><path fill="none" stroke="#000" stroke-linecap="round" stroke-linejoin="round" stroke-width="2" d="M5 17h62v38H5z"/></svg>