<svg xmlns="http://www.w3.org/2000/svg" viewBox="0 0 72 72"><path fill="#1e50a0" d="M5 17h62v38H5z"/><g fill="#f1b31c" stroke="#f1b31c" stroke-linecap="round" stroke-linejoin="round"><path d="m35.105 26.794.919-2.695.792 2.654-2.2-1.599 2.768-.067zM35.105 47.901l.919-2.695.792 2.653-2.2-1.598 2.768-.067zM26.093 31.922l.918-2.695.793 2.653-2.201-1.598 2.768-.067zM44.371 42.475l.919-2.695.792 2.654-2.2-1.599 2.768-.067zM29.838 28.242l.919-2.695.792 2.653-2.201-1.598 2.768-.067zM40.391 46.52l.919-2.694.792 2.653-2.201-1.599 2.769-.066zM45.659 37.347l.919-2.694.792 2.653-2.201-1.599 2.768-.066zM24.552 37.347l.919-2.694.792 2.653-2.2-1.599 2.768-.066zM40.281 28.216l.919-2.694.792 2.653-2.2-1.599 2.768-.066zM29.728 46.495l.919-2.695.792 2.654-2.201-1.599 2.769-.067zM44.13 31.886l.918-2.695.793 2.654-2.201-1.599 2.768-.067zM25.851 42.439l.919-2.694.792 2.653-2.201-1.599 2.768-.066z"/></g><path fill="none" stroke="#000" stroke-linecap="round" stroke-linejoin="round" stroke-width="2" d="M5 17h62v38H5z"/></svg>