<svg xmlns="http://www.w3.org/2000/svg" viewBox="0 0 72 72"><path fill="#fff" d="M5.197 17.245h61.606v37.759H5.197z"/><path fill="#fff" d="M66.803 44.074a42 42 0 0 1-6.16.994c-1.56-.05-4.602-1.043-6.161-.994s-4.602 1.043-6.16.994-4.602-1.043-6.161-.994-4.602 1.043-6.16.994-4.602-1.043-6.162-.994-4.6 1.041-6.16.994-4.601-1.035-6.16-.994-4.601.994-6.161.994a51 51 0 0 1-6.16-.994v-1.987c2.03.458 4.088.79 6.16.993 1.56 0 4.6-.952 6.16-.993s4.602.946 6.16.993 4.602-.945 6.161-.993 4.602.944 6.161.993 4.601-.944 6.16-.993 4.602.944 6.161.993 4.602-.944 6.16-.993 4.602.944 6.161.993a42 42 0 0 0 6.161-.993z"/><path fill="#1e50a0" d="M66.803 46.061a42 42 0 0 1-6.16.994c-1.56-.05-4.602-1.043-6.161-.994s-4.602 1.043-6.16.994-4.602-1.043-6.161-.994-4.602 1.043-6.16.994-4.602-1.043-6.162-.994-4.6 1.042-6.16.994-4.601-1.035-6.16-.994-4.601.994-6.161.994a51 51 0 0 1-6.16-.994v-1.987c2.03.458 4.088.79 6.16.994 1.56 0 4.6-.953 6.16-.994s4.602.946 6.16.994 4.602-.945 6.161-.994 4.602.945 6.161.994 4.601-.945 6.16-.994 4.602.945 6.161.994 4.602-.945 6.16-.994 4.602.945 6.161.994a42 42 0 0 0 6.161-.994z"/><path fill="#fff" d="M66.803 48.049a42 42 0 0 1-6.16.993c-1.56-.049-4.602-1.043-6.161-.994s-4.602 1.043-6.16.994S43.72 48 42.16 48.048s-4.602 1.043-6.16.994-4.602-1.042-6.162-.994-4.6 1.042-6.16.994-4.601-1.035-6.16-.994-4.601.994-6.161.994a51 51 0 0 1-6.16-.994v-1.987c2.03.458 4.088.79 6.16.994 1.56 0 4.6-.953 6.16-.994s4.602.946 6.16.994 4.602-.945 6.161-.994 4.602.945 6.161.994 4.601-.945 6.16-.994 4.602.945 6.161.994 4.602-.945 6.16-.994 4.602.945 6.161.994a42 42 0 0 0 6.161-.994z"/><path fill="#1e50a0" d="M66.803 50.036a42 42 0 0 1-6.16.993c-1.56-.049-4.602-1.042-6.161-.993s-4.602 1.043-6.16.993-4.602-1.042-6.161-.993-4.602 1.043-6.16.993-4.602-1.042-6.162-.993-4.6 1.041-6.16.993-4.601-1.035-6.16-.993-4.601.993-6.161.993a51 51 0 0 1-6.16-.993v-1.987c2.03.457 4.088.79 6.16.993 1.56 0 4.6-.952 6.16-.993s4.602.945 6.16.993 4.602-.945 6.161-.993 4.602.944 6.161.993 4.601-.944 6.16-.993 4.602.944 6.161.993 4.602-.944 6.16-.993 4.602.944 6.161.993a42 42 0 0 0 6.161-.993z"/><path fill="#1e50a0" d="M66.803 55.004s-4.601-.945-6.16-.994-4.602.945-6.161.994-4.602-.945-6.16-.994-4.602.945-6.161.994-4.602-.945-6.16-.994-4.602.945-6.162.994-4.6-.946-6.16-.994-4.601.953-6.16.994-4.601-.994-6.161-.994c-2.072.204-4.13.536-6.16.994v-3.975c2.03.458 4.088.79 6.16.994 1.56 0 4.6-.953 6.16-.994s4.602.946 6.16.994 4.602-.945 6.161-.994 4.602.945 6.161.994 4.601-.945 6.16-.994 4.602.945 6.161.994 4.602-.945 6.16-.994 4.602.945 6.161.994a42 42 0 0 0 6.161-.994z"/><path fill="#fff" d="M66.803 52.023a42 42 0 0 1-6.16.994c-1.56-.05-4.602-1.043-6.161-.994s-4.602 1.043-6.16.994-4.602-1.043-6.161-.994-4.602 1.043-6.16.994-4.602-1.043-6.162-.994-4.6 1.041-6.16.994-4.601-1.035-6.16-.994-4.601.994-6.161.994a51 51 0 0 1-6.16-.994v-1.987c2.03.458 4.088.79 6.16.993 1.56 0 4.6-.952 6.16-.993s4.602.946 6.16.993 4.602-.944 6.161-.993 4.602.944 6.161.993 4.601-.944 6.16-.993 4.602.944 6.161.993 4.602-.944 6.16-.993 4.602.944 6.161.993a42 42 0 0 0 6.161-.993z"/><path fill="#1e50a0" d="M66.803 38.112a42 42 0 0 1-6.16.994c-1.56-.05-4.602-1.043-6.161-.994s-4.602 1.043-6.16.994-4.602-1.043-6.161-.994-4.602 1.043-6.16.994-4.602-1.043-6.162-.994-4.6 1.041-6.16.994-4.601-1.035-6.16-.994-4.601.994-6.161.994a51 51 0 0 1-6.16-.994v-1.987c2.03.458 4.088.79 6.16.993 1.56 0 4.6-.952 6.16-.993s4.602.946 6.16.993 4.602-.944 6.161-.993 4.602.944 6.161.993 4.601-.944 6.16-.993 4.602.944 6.161.993 4.602-.944 6.16-.993 4.602.944 6.161.993a42 42 0 0 0 6.161-.993z"/><path fill="#fff" d="M66.803 40.1a42 42 0 0 1-6.16.993c-1.56-.05-4.602-1.043-6.161-.994s-4.602 1.043-6.16.994-4.602-1.043-6.161-.994-4.602 1.043-6.16.994-4.602-1.043-6.162-.994-4.6 1.042-6.16.994-4.601-1.035-6.16-.994-4.601.994-6.161.994a51 51 0 0 1-6.16-.994v-1.987c2.03.458 4.088.79 6.16.994 1.56 0 4.6-.953 6.16-.994s4.602.946 6.16.994 4.602-.945 6.161-.994 4.602.945 6.161.994 4.601-.945 6.16-.994 4.602.945 6.161.994 4.602-.945 6.16-.994 4.602.945 6.161.994a42 42 0 0 0 6.161-.994z"/><path fill="#1e50a0" d="M66.803 42.087a42 42 0 0 1-6.16.993c-1.56-.049-4.602-1.043-6.161-.993s-4.602 1.042-6.16.993-4.602-1.043-6.161-.993-4.602 1.042-6.16.993-4.602-1.042-6.162-.993-4.6 1.041-6.16.993-4.601-1.035-6.16-.993-4.601.993-6.161.993a51 51 0 0 1-6.16-.993v-1.988c2.03.458 4.088.79 6.16.994 1.56 0 4.6-.953 6.16-.994s4.602.946 6.16.994 4.602-.945 6.161-.994 4.602.945 6.161.994 4.601-.945 6.16-.994 4.602.945 6.161.994 4.602-.945 6.16-.994 4.602.945 6.161.994a42 42 0 0 0 6.161-.994z"/><path fill="#fff" d="M66.803 44.074a42 42 0 0 1-6.16.994c-1.56-.05-4.602-1.043-6.161-.994s-4.602 1.043-6.16.994-4.602-1.043-6.161-.994-4.602 1.043-6.16.994-4.602-1.043-6.162-.994-4.6 1.041-6.16.994-4.601-1.035-6.16-.994-4.601.994-6.161.994a51 51 0 0 1-6.16-.994v-1.987c2.03.458 4.088.79 6.16.993 1.56 0 4.6-.952 6.16-.993s4.602.946 6.16.993 4.602-.945 6.161-.993 4.602.944 6.161.993 4.601-.944 6.16-.993 4.602.944 6.161.993 4.602-.944 6.16-.993 4.602.944 6.161.993a42 42 0 0 0 6.161-.993z"/><path fill="#1e50a0" d="M66.803 30.163a42 42 0 0 1-6.16.993c-1.56-.049-4.602-1.042-6.161-.993s-4.602 1.043-6.16.993-4.602-1.042-6.161-.993-4.602 1.043-6.16.993-4.602-1.042-6.162-.993-4.6 1.041-6.16.993-4.601-1.034-6.16-.993-4.601.993-6.161.993a51 51 0 0 1-6.16-.993v-1.987c2.03.457 4.088.79 6.16.993 1.56 0 4.6-.952 6.16-.994s4.602.946 6.16.994 4.602-.945 6.161-.994 4.602.945 6.161.994 4.601-.945 6.16-.994 4.602.945 6.161.994 4.602-.945 6.16-.994 4.602.945 6.161.994a42 42 0 0 0 6.161-.994z"/><path fill="#fff" d="M66.803 32.15a42 42 0 0 1-6.16.994c-1.56-.05-4.602-1.043-6.161-.994s-4.602 1.043-6.16.994-4.602-1.043-6.161-.994-4.602 1.043-6.16.994-4.602-1.043-6.162-.994-4.6 1.042-6.16.994-4.601-1.035-6.16-.994-4.601.994-6.161.994a51 51 0 0 1-6.16-.994v-1.987c2.03.458 4.088.79 6.16.993 1.56 0 4.6-.952 6.16-.993s4.602.946 6.16.993 4.602-.944 6.161-.993 4.602.944 6.161.993 4.601-.944 6.16-.993 4.602.944 6.161.993 4.602-.944 6.16-.993 4.602.944 6.161.993a42 42 0 0 0 6.161-.993z"/><path fill="#1e50a0" d="M66.803 34.137a42 42 0 0 1-6.16.994c-1.56-.05-4.602-1.043-6.161-.994s-4.602 1.043-6.16.994-4.602-1.043-6.161-.994-4.602 1.043-6.16.994-4.602-1.042-6.162-.994-4.6 1.042-6.16.994-4.601-1.035-6.16-.994-4.601.994-6.161.994a51 51 0 0 1-6.16-.994V32.15c2.03.458 4.088.79 6.16.994 1.56 0 4.6-.953 6.16-.994s4.602.946 6.16.994 4.602-.945 6.161-.994 4.602.945 6.161.994 4.601-.945 6.16-.994 4.602.945 6.161.994 4.602-.945 6.16-.994 4.602.945 6.161.994a42 42 0 0 0 6.161-.994z"/><path fill="#fff" d="M66.803 36.125a42 42 0 0 1-6.16.993c-1.56-.049-4.602-1.042-6.161-.993s-4.602 1.042-6.16.993-4.602-1.042-6.161-.993-4.602 1.042-6.16.993-4.602-1.042-6.162-.993-4.6 1.041-6.16.993-4.601-1.035-6.16-.993-4.601.993-6.161.993a51 51 0 0 1-6.16-.993v-1.988c2.03.458 4.088.79 6.16.994 1.56 0 4.6-.952 6.16-.994s4.602.946 6.16.994 4.602-.945 6.161-.994 4.602.945 6.161.994 4.601-.945 6.16-.994 4.602.945 6.161.994 4.602-.945 6.16-.994 4.602.945 6.161.994a42 42 0 0 0 6.161-.994z"/><path fill="#1e50a0" d="M66.803 22.214a42 42 0 0 1-6.16.993c-1.56-.049-4.602-1.043-6.161-.993s-4.602 1.042-6.16.993-4.602-1.043-6.161-.993-4.602 1.042-6.16.993-4.602-1.042-6.162-.993-4.6 1.041-6.16.993-4.601-1.035-6.16-.993-4.601.993-6.161.993a51 51 0 0 1-6.16-.993v-1.988c2.03.458 4.088.79 6.16.994 1.56 0 4.6-.953 6.16-.994s4.602.946 6.16.994 4.602-.945 6.161-.994 4.602.945 6.161.994 4.601-.945 6.16-.994 4.602.945 6.161.994 4.602-.945 6.16-.994 4.602.945 6.161.994a42 42 0 0 0 6.161-.994z"/><path fill="#fff" d="M66.803 24.2a42 42 0 0 1-6.16.995c-1.56-.05-4.602-1.043-6.161-.994s-4.602 1.043-6.16.994-4.602-1.043-6.161-.994-4.602 1.043-6.16.994-4.602-1.043-6.162-.994-4.6 1.041-6.16.994-4.601-1.035-6.16-.994-4.601.994-6.161.994a51 51 0 0 1-6.16-.994v-1.987c2.03.458 4.088.79 6.16.993 1.56 0 4.6-.952 6.16-.993s4.602.946 6.16.993 4.602-.945 6.161-.993 4.602.944 6.161.993 4.601-.944 6.16-.993 4.602.944 6.161.993 4.602-.944 6.16-.993 4.602.944 6.161.993a42 42 0 0 0 6.161-.993z"/><path fill="#1e50a0" d="M66.803 18.571a62 62 0 0 1-6.16.662c-1.56-.033-4.602-.695-6.161-.662s-4.602.695-6.16.662-4.602-.695-6.161-.662-4.602.695-6.16.662-4.602-.695-6.162-.662-4.6.694-6.16.662-4.601-.69-6.16-.662-4.601.662-6.161.662a74 74 0 0 1-6.16-.662v-1.324c2.03.305 4.088.526 6.16.662 1.56 0 4.6-.635 6.16-.662s4.602.63 6.16.662 4.602-.63 6.161-.662 4.602.629 6.161.662 4.601-.63 6.16-.662 4.602.629 6.161.662 4.602-.63 6.16-.662 4.602.629 6.161.662a62 62 0 0 0 6.161-.662z"/><path fill="#fff" d="M66.803 20.226a42 42 0 0 1-6.16.994c-1.56-.05-4.602-1.043-6.161-.994s-4.602 1.043-6.16.994-4.602-1.043-6.161-.994-4.602 1.043-6.16.994-4.602-1.043-6.162-.994-4.6 1.042-6.16.994-4.601-1.035-6.16-.994-4.601.994-6.161.994a51 51 0 0 1-6.16-.994V18.24c2.03.458 4.088.79 6.16.994 1.56 0 4.6-.953 6.16-.994s4.602.946 6.16.994 4.602-.945 6.161-.994 4.602.945 6.161.994 4.601-.945 6.16-.994 4.602.945 6.161.994 4.602-.945 6.16-.994 4.602.945 6.161.994a42 42 0 0 0 6.161-.994z"/><path fill="#1e50a0" d="M66.803 26.188a42 42 0 0 1-6.16.994c-1.56-.05-4.602-1.043-6.161-.994s-4.602 1.043-6.16.994-4.602-1.043-6.161-.994-4.602 1.043-6.16.994-4.602-1.043-6.162-.994-4.6 1.042-6.16.994-4.601-1.035-6.16-.994-4.601.994-6.161.994a51 51 0 0 1-6.16-.994v-1.987c2.03.458 4.088.79 6.16.993 1.56 0 4.6-.952 6.16-.993s4.602.946 6.16.993 4.602-.944 6.161-.993 4.602.944 6.161.993 4.601-.944 6.16-.993 4.602.944 6.161.993 4.602-.944 6.16-.993 4.602.944 6.161.993a42 42 0 0 0 6.161-.993z"/><path fill="#fff" d="M66.803 28.176a42 42 0 0 1-6.16.993c-1.56-.049-4.602-1.043-6.161-.994s-4.602 1.043-6.16.994-4.602-1.043-6.161-.994-4.602 1.043-6.16.994-4.602-1.042-6.162-.994-4.6 1.042-6.16.994-4.601-1.035-6.16-.994-4.601.994-6.161.994a51 51 0 0 1-6.16-.994v-1.987c2.03.458 4.088.79 6.16.994 1.56 0 4.6-.953 6.16-.994s4.602.946 6.16.994 4.602-.945 6.161-.994 4.602.945 6.161.994 4.601-.945 6.16-.994 4.602.945 6.161.994 4.602-.945 6.16-.994 4.602.945 6.161.994a42 42 0 0 0 6.161-.994z"/><path fill="#1e50a0" d="M5.197 17.245H36v18.879H5.197z"/><path fill="#fff" d="M10.053 18.239H6.19v2.317l25.948 15.569H36v-2.318z"/><path fill="#fff" d="M36 20.556V18.24h-3.862L6.19 33.807v2.318h3.862z"/><path fill="#fff" d="M6.191 24.201H36v5.962H6.191z"/><path fill="#fff" d="M18.114 18.239h5.962v17.886h-5.962z"/><path fill="#d22f27" d="M20.102 18.239h1.987v17.886h-1.987z"/><path fill="#d22f27" d="M6.191 26.188H36v1.987H6.191zM36 33.808l-6.074-3.645h-3.862L36 36.125zM36 18.239h-3.862l-8.062 4.837v1.125h1.988zM6.19 20.556l6.075 3.645h3.862l-9.936-5.962zM6.19 36.125h3.863l8.061-4.837v-1.125h-1.987z"/><path fill="none" stroke="#000" stroke-linecap="round" stroke-linejoin="round" stroke-width="1.987" d="M5.197 17.245h61.606v37.759H5.197z"/></svg>