<svg xmlns="http://www.w3.org/2000/svg" viewBox="0 0 72 72"><circle cx="36" cy="36" r="27.5" fill="#fff"/><path d="M35.9 34.627c-4.713-.814-7.602-1.521-7.602-5.64 0-3.308 3.495-6 7.792-6 3.71 0 6.924 2.035 7.643 4.838a1 1 0 1 0 1.937-.497c-.943-3.674-4.971-6.34-9.58-6.34-5.4 0-9.792 3.589-9.792 8 0 6.011 4.921 6.86 9.262 7.61 5.065.874 8.142 1.741 8.142 6.414 0 3.309-3.495 6-7.792 6-3.708 0-6.923-2.036-7.643-4.84a1 1 0 0 0-1.938.497c.944 3.675 4.973 6.343 9.58 6.343 5.4 0 9.793-3.589 9.793-8 0-6.694-5.435-7.632-9.802-8.385Z"/><circle cx="36" cy="36" r="28" fill="none" stroke="#000" stroke-linejoin="round" stroke-width="2"/><path fill="none" stroke="#000" stroke-linejoin="round" stroke-width="2" d="M35.9 34.627c-4.713-.814-7.602-1.521-7.602-5.64 0-3.308 3.495-6 7.792-6 3.71 0 6.924 2.035 7.643 4.838a1 1 0 1 0 1.937-.497c-.943-3.674-4.971-6.34-9.58-6.34-5.4 0-9.792 3.589-9.792 8 0 6.011 4.921 6.86 9.262 7.61 5.065.874 8.142 1.741 8.142 6.414 0 3.309-3.495 6-7.792 6-3.708 0-6.923-2.036-7.643-4.84a1 1 0 0 0-1.938.497c.944 3.675 4.973 6.343 9.58 6.343 5.4 0 9.793-3.589 9.793-8 0-6.694-5.435-7.632-9.802-8.385Z"/></svg>