<svg xmlns="http://www.w3.org/2000/svg" viewBox="0 0 72 72"><path fill="#fff" d="M5 17h62v38H5z"/><path fill="#3f3f3f" d="M24.468 38.624a5.6 5.6 0 0 0 .872-1.952.11.11 0 0 1 .09-.12.83.83 0 0 0 .607-.303c.056-.079.162-.042.175.062a2.52 2.52 0 0 1-1.37 2.84.09.09 0 0 1-.107-.033l-.26-.332a.14.14 0 0 1-.008-.162"/><ellipse cx="19.747" cy="38.953" fill="#5c9e31" rx="1.791" ry="4.782" transform="rotate(-43.286 19.747 38.953)"/><path fill="none" stroke="#5c9e31" stroke-linecap="round" stroke-linejoin="round" stroke-width="2" d="m17.476 36.577 12.198 12.669"/><g fill="none" stroke="#61b2e4" stroke-linecap="round" stroke-linejoin="round"><path d="m54.363 39.254-11.584 9.429M53.362 36.622l-9.046 14.329M51.344 35.573 46.335 52"/></g><path fill="#fcea2b" stroke="#fcea2b" stroke-linecap="round" stroke-linejoin="round" stroke-width="1.798" d="M59.828 22.331a1.33 1.33 0 0 0-1.708-.346c-3.185 1.283-11.073 3.263-13.037 4.327a1.64 1.64 0 0 0-1.011 1.391 1.47 1.47 0 0 0 .697 1.248l-.008.075a6.28 6.28 0 0 1-4.722-.938l-.222-.222c-.634-1.452-.616-5.65-2.963-6.013a1.5 1.5 0 0 0-.326-.039c-2.945 0-4.417 2.945-3.681 2.209s3.68-.737 1.666 2.598a5 5 0 0 1-.344.496l-.97.971a6.28 6.28 0 0 1-4.722.938l-.009-.075a1.47 1.47 0 0 0 .698-1.248 1.64 1.64 0 0 0-1.011-1.391c-1.964-1.064-9.852-3.044-13.038-4.327a1.33 1.33 0 0 0-1.708.346 1.35 1.35 0 0 0-.435.844 2.15 2.15 0 0 0 .252.94c.573 1.49 6.989 6.458 11.133 9.401a10.7 10.7 0 0 1 1.703 1.561 2.2 2.2 0 0 0 1.037.643 4.3 4.3 0 0 1 1.478.664c.458.347.99.795 1.53 1.27-.315.157-2.357 1.26-1.677 3.3.548 1.645-.945 1.656-1.743 1.555a1.468 1.468 0 1 0 1.007 1.39 2.72 2.72 0 0 1 2.208-1.473 1.44 1.44 0 0 0 1.473-1.472 2.57 2.57 0 0 1 1.472-.736l.558.557-2.092 2.092a1.46 1.46 0 0 0 0 2.063l4.183 4.184a1.45 1.45 0 0 0 1.187.412 1.44 1.44 0 0 0 1.058-.412l4.184-4.184a1.46 1.46 0 0 0 0-2.063l-2.092-2.092.558-.557a2.57 2.57 0 0 1 1.472.736 1.44 1.44 0 0 0 1.472 1.472 2.72 2.72 0 0 1 2.209 1.473 1.497 1.497 0 1 0 1.007-1.39c-.798.101-2.292.09-1.743-1.555.68-2.04-1.362-3.144-1.677-3.3a28 28 0 0 1 1.53-1.27 4.3 4.3 0 0 1 1.478-.664 2.2 2.2 0 0 0 1.037-.643 10.7 10.7 0 0 1 1.703-1.56c4.144-2.945 10.56-7.911 11.132-9.402a2.15 2.15 0 0 0 .252-.94 1.35 1.35 0 0 0-.435-.844"/><path fill="none" stroke="#61b2e4" stroke-linecap="round" stroke-linejoin="round" stroke-width="2" d="M61.638 31.265v7.992"/><g fill="none" stroke="#61b2e4" stroke-linecap="round" stroke-linejoin="round" stroke-width="2"><path d="m8.374 31.265 2.65 7.74M14.07 31.265l-2.649 7.74"/></g><path fill="#1e50a0" d="M27.563 27.6h17.98v5.993h-17.98z"/><path fill="#781e32" d="M27.586 34.068a9 9 0 0 0 .228 1.624 14.78 14.78 0 0 0 7.909 10.513 1.84 1.84 0 0 0 1.66 0 14.78 14.78 0 0 0 7.909-10.513 9 9 0 0 0 .228-1.624c.02-.285.023-.453.023-.453h-17.98s.002.168.023.453"/><g fill="#fff"><path d="M33.079 33.575V44.49q.453.356.956.691V33.575ZM30.072 33.575v7.713a14 14 0 0 0 .936 1.22v-8.934ZM39.092 33.575v11.608q.48-.32.915-.658v-10.95ZM36.106 33.575v12.73a1.9 1.9 0 0 0 .915 0v-12.73ZM42.077 33.575v8.986a14 14 0 0 0 .957-1.239v-7.748Z"/></g><path fill="none" stroke="#000" stroke-linecap="round" stroke-linejoin="round" stroke-width="2" d="M5 17h62v38H5z"/></svg>