<svg xmlns="http://www.w3.org/2000/svg" viewBox="0 0 72 72"><path fill="#d0cfce" d="M13.7 12h44.7a1.686 1.686 0 0 1 1.7 1.7v44.7a1.686 1.686 0 0 1-1.7 1.7H13.7a1.686 1.686 0 0 1-1.7-1.7V13.7a1.63 1.63 0 0 1 1.7-1.7"/><g fill="none" stroke="#000" stroke-width="2"><path stroke-miterlimit="10" d="M13.7 12h44.7a1.686 1.686 0 0 1 1.7 1.7v44.7a1.686 1.686 0 0 1-1.7 1.7H13.7a1.686 1.686 0 0 1-1.7-1.7V13.7a1.63 1.63 0 0 1 1.7-1.7Z"/><path stroke-linecap="round" stroke-linejoin="round" d="M25 39h22M25 30h22M25 21h22M25 21v18c0 5-1 9-4 12M47 21v28a2.006 2.006 0 0 1-2 2h-6"/></g></svg>