<svg xmlns="http://www.w3.org/2000/svg" viewBox="0 0 72 72"><path fill="#ea5a47" d="M59.035 60h-46.07a.97.97 0 0 1-.965-.965v-46.07a.97.97 0 0 1 .965-.965h46.07a.97.97 0 0 1 .965.965v46.07a.97.97 0 0 1-.965.965"/><g fill="none" stroke="#000" stroke-width="2"><path stroke-miterlimit="10" d="M59.035 60h-46.07a.97.97 0 0 1-.965-.965v-46.07a.97.97 0 0 1 .965-.965h46.07a.97.97 0 0 1 .965.965v46.07a.97.97 0 0 1-.965.965Z"/><path stroke-linecap="round" stroke-linejoin="round" d="M20 31c7 0 15-11 15-11s9.5 10.5 15.5 11.5M28.5 30.5h14M25.5 50.5v-13h20v13M26.5 48.5h19"/></g><g fill="none" stroke="#fff" stroke-linecap="round" stroke-linejoin="round" stroke-width="2"><path d="M20 31c7 0 15-11 15-11s9.5 10.5 15.5 11.5M28.5 30.5h14M25.5 50.5v-13h20v13M26.5 48.5h19"/></g></svg>