<svg xmlns="http://www.w3.org/2000/svg" viewBox="0 0 72 72"><circle cx="36" cy="36" r="28" fill="#ea5a47"/><g fill="none" stroke="#000" stroke-linejoin="round" stroke-miterlimit="10" stroke-width="2"><circle cx="36" cy="36" r="28"/><path stroke-linecap="round" d="M33 33h6v6h-6zM33 53h6v6h-6zM33 13h6v6h-6zM36 19v14M36 39v14M28 24h16M28 28h16M28 44h16M28 48h16M28 14.5V33h-9.8a18 18 0 0 1 5.2-10v5.6M28 57.5V39h-9.8a18 18 0 0 0 5.2 10v-5.6M44 14.5V33h9.8a18 18 0 0 0-5.2-10v5.6M44 57.5V39h9.8a18 18 0 0 1-5.2 10v-5.6"/><path stroke-linecap="round" d="M28 14.5a23 23 0 0 0 0 43m16-43a23 23 0 0 1 0 43M24 33v6M48 33v6"/></g></svg>