<svg xmlns="http://www.w3.org/2000/svg" viewBox="0 0 72 72"><path fill="#fcea2b" d="M18.458 38.68c-5.417-2.593-8.903-9.198-7.25-12.825 1.696-3.72 6.313-8.266 12.555-6.1s6.472 8.252 6.472 8.252l-.594 2.621 4.687-3.895c.65-.656.542-2.395-.545-2.006l-4.943-1.586 1.513-7.245-6.547 3.455-3.03-6.755-3.266 6.647-6.424-3.685 1.266 7.295-7.36.796 5.305 5.16-5.482 4.972 7.325 1.055-.348 5.312c.06 1.245 1.293 1.542 2.124 1.076z"/><path fill="#fcea2b" d="M30.235 28.007c-.493-4.948-4.668-8.812-9.745-8.812-5.41 0-9.794 4.385-9.794 9.794 0 3.89 2.267 7.25 5.553 8.83l2.21.86 3.497-.363 1.82-4.613 4.697-2.915 1.482-.415z"/><path fill="#fff" d="M22.342 37.713a.81.81 0 0 1-.723.729c-4.621.495-8.176 5.045-8.176 10.584 0 5.87 4.07 10.628 9.092 10.628h34.662c5.516 0 9.989-5.029 9.989-11.231 0-5.945-4.108-10.81-9.305-11.206a.865.865 0 0 1-.796-.698c-1.161-5.962-6.518-10.443-12.85-10.443-4.116 0-7.782 1.863-10.163 4.828-.233.29-.623.422-.966.278-.917-.384-1.884-.57-2.967-.57-4.09 0-7.449 3.122-7.797 7.101Z"/><g fill="none" stroke="#000" stroke-linecap="round" stroke-linejoin="round"><path stroke-width="1.726" d="m13.533 40.45-2.907 1.632 1.513-7.245-7.325-1.056 5.483-4.971-5.306-5.16 7.36-.797-1.265-7.295 6.424 3.685 3.266-6.647 3.03 6.755 6.547-3.455-1.513 7.245 7.325 1.055-2.656 2.164"/><path stroke-width="1.726" d="M16.249 37.819a9.8 9.8 0 0 1-5.553-8.83c0-5.41 4.385-9.794 9.794-9.794 5.077 0 9.252 3.864 9.745 8.812"/><path stroke-width="1.817" d="M22.342 37.713a.81.81 0 0 1-.723.729c-4.621.495-8.176 5.045-8.176 10.584 0 5.87 4.07 10.628 9.092 10.628h34.662c5.516 0 9.989-5.029 9.989-11.231 0-5.945-4.108-10.81-9.305-11.206a.865.865 0 0 1-.796-.698c-1.161-5.962-6.518-10.443-12.85-10.443-4.116 0-7.782 1.863-10.163 4.828-.233.29-.623.422-.966.278-.917-.384-1.884-.57-2.967-.57-4.09 0-7.449 3.122-7.797 7.101Z"/></g></svg>