<svg xmlns="http://www.w3.org/2000/svg" viewBox="0 0 72 72"><path fill="#fcea2b" d="m50.065 42.779.097-.32c.946-3.126.787-7.234-.4-10.278l4.784-7.925-9.336.415.17-10.174-8.567 5.318-4.419-9.105-5.292 9.105-7.736-5.243-.661 10.098-8.679-.633 3.823 9.03-7.496 3.935 7.496 5.776-4.155 7.577 9.664-.223-.812 10.53 8.555-4.631z"/><path fill="#fff" d="M34.791 46.607a.59.59 0 0 1-.523.526c-3.343.358-5.914 3.65-5.914 7.657 0 4.246 2.945 7.688 6.577 7.688h25.074c3.991 0 7.226-3.637 7.226-8.124 0-4.3-2.97-7.82-6.73-8.106a.626.626 0 0 1-.577-.505c-.84-4.314-4.715-7.555-9.296-7.555-2.977 0-5.629 1.348-7.351 3.492-.169.21-.45.306-.7.201a5.4 5.4 0 0 0-2.145-.412c-2.96 0-5.389 2.259-5.641 5.138"/><g fill="none" stroke="#000" stroke-linecap="round" stroke-linejoin="round" stroke-width="2"><path d="M24.465 53.52c-6.117-2.945-10.338-9.202-10.338-16.444 0-10.075 8.167-18.242 18.242-18.242 9.09 0 16.626 6.648 18.013 15.347"/><path d="m24.547 56.982-5.984 4.043.795-10.893-10.893.795 6.126-9.039-9.822-4.767 9.822-4.767-6.126-9.038 10.893.794-.794-10.892 9.038 6.126 4.767-9.823 4.767 9.823 9.039-6.126-.795 10.893 10.892-.795-6.126 9.039"/><path d="M34.791 46.607a.59.59 0 0 1-.523.526c-3.343.358-5.914 3.65-5.914 7.657 0 4.246 2.945 7.688 6.577 7.688h25.074c3.991 0 7.226-3.637 7.226-8.124 0-4.3-2.97-7.82-6.73-8.106a.626.626 0 0 1-.577-.505c-.84-4.314-4.715-7.555-9.296-7.555-2.977 0-5.629 1.348-7.351 3.492-.169.21-.45.306-.7.201a5.4 5.4 0 0 0-2.145-.412c-2.96 0-5.389 2.259-5.641 5.138"/></g></svg>