<svg xmlns="http://www.w3.org/2000/svg" viewBox="0 0 72 72"><path fill="#ea5a47" d="M38.163 16.825s-5.19-.514-5.862 3.044 1.757 6.498 2.93 6.655c0 0-2.555 6.294 1.873 9.694s9.162 1.191 10.976-2.122c0 0 8.084.967 8.44-6.457 0 0-.965-6.424-5.866-6.293 0 0 1.363-6.977-3.898-8.471s-8.593 3.95-8.593 3.95"/><path fill="#b1cc33" d="M25.93 32.603c3.991 4.886 2.804 12.462 2.804 12.462s-7.66-.346-11.653-5.232-2.805-12.462-2.805-12.462 7.661.35 11.653 5.232"/><path fill="#d22f27" d="M44.412 38.237c.91 1.976 1.874 3.717 3.497 4.563 1.708.89 3.683.676 5.128-.125 1.526-.847 2.655-2.51 2.697-4.595.036-1.762-1.106-3.524-2.148-5.403l-5.037 2.432zM51.952 20.074s.196-3.275-.304-4.074c0 0 1.142-1.674 3.088-1.317 1.482.272 2.332 3.318 2.653 4.755.112.503.288.723-.05 1.112-.545.627-1.803 1.805-2.96 2.058z"/><path fill="#ea5a47" d="M48.366 22.704c0 1.631-2.093 2.954-4.675 2.954s-4.675-1.323-4.675-2.954"/><path fill="#d22f27" d="M50.525 31.17c-.501.686-1.424 1.104-2.286 1.355a8.3 8.3 0 0 1-3.543.254 10 10 0 0 1-5.45-2.651 9.3 9.3 0 0 1-2.708-4.85q-.001 0-.014-.089a3.88 3.88 0 0 1 1.391-3.413c.656-.554 1.584-.882 2.476-1.004a8.3 8.3 0 0 1 3.542.269 9.84 9.84 0 0 1 4.96 3.418 9.15 9.15 0 0 1 1.898 5.188"/><path fill="#ea5a47" d="M39.016 22.839c-.002 1.612 1.917 2.667 4.515 2.778s4.759-1.12 4.828-2.75v-.315c-.02-1.632-2.142-2.974-4.74-2.998s-4.622 1.652-4.603 3.285"/><path fill="#d22f27" d="M43.174 24.818c-.61-1.417.329-3.184 2.098-3.948.918-.396 1.96-.354 2.875-.035 1.417.494 2.41 1.88 2.375 3.382a1.8 1.8 0 0 1-.103.606"/><path fill="#d22f27" d="M43.174 23.83c-.61 1.416.329 3.184 2.098 3.947.918.397 1.96.354 2.875.035 1.417-.494 2.41-1.88 2.375-3.382a1.8 1.8 0 0 0-.103-.605"/><g fill="none" stroke="#000" stroke-linecap="round" stroke-linejoin="round" stroke-width="2"><path stroke-miterlimit="10" d="M49.868 30.398c-.443.635-1.259 1.02-2.021 1.253a7.06 7.06 0 0 1-3.132.235 8.7 8.7 0 0 1-4.818-2.452 8.7 8.7 0 0 1-2.393-4.485M40.003 22.822c0-1.63 1.653-2.953 3.692-2.953s3.692 1.322 3.692 2.953"/><path stroke-miterlimit="10" d="M49.41 24.987c0 1.16-1.176 2.102-2.627 2.102-.753 0-1.461-.34-1.998-.834-.833-.764-1.107-2.018-.635-3.045.069-.15.152-.284.252-.388M53.308 15.903c.98-.624 2.405-.138 3.185 1.086s.617 2.722-.362 3.346M54.195 35.924a4.363 4.363 0 0 1-7.63 4.233M38.163 16.193c-2.253-.855-5.918 1.231-6.512 3.676-.57 2.341.9 6.214 3.153 7.069M50.867 20.834c5.416.628 6.396 6.461 5.802 8.774-.882 3.435-5.39 5.401-8.12 4.69M50.867 20.834a6.762 6.762 0 1 0-12.704-4.64M34.804 26.938a7.796 7.796 0 1 0 13.745 7.36"/><path d="M25.93 32.31c3.991 4.885 2.804 12.461 2.804 12.461s-7.66-.347-11.653-5.233-2.805-12.462-2.805-12.462 7.661.351 11.653 5.233M37.104 40.864c-3.438 3.548-7.676 10.246-5.829 20.735"/></g></svg>