<svg xmlns="http://www.w3.org/2000/svg" viewBox="0 0 72 72"><path fill="#fff" d="M44 10a2 2 0 0 0-2-2 2 2 0 0 0-1.03.294C40.985 8.197 41 8.1 41 8a2 2 0 0 0-2-2c-.6 0-1.134.27-1.5.69-.366-.42-.9-.69-1.5-.69s-1.134.27-1.5.69C34.134 6.27 33.6 6 33 6a2 2 0 0 0-2 2c0 .1.015.197.03.294A2 2 0 0 0 30 8a2 2 0 0 0-2 2c0 .1.015.197.03.294A2 2 0 0 0 27 10a2 2 0 0 0-2 2c0 .378.111.728.294 1.03-.098-.015-.193-.03-.294-.03a2 2 0 0 0-2 2c0 .378.111.728.294 1.03-.098-.015-.193-.03-.294-.03-.873 0-1.607.563-1.88 1.343A2 2 0 0 0 18 19c0 .378.111.728.294 1.03-.098-.015-.193-.03-.294-.03a2 2 0 0 0-2 2c0 .1.015.197.03.294A2 2 0 0 0 15 22a2 2 0 0 0-1.657 3.12A2 2 0 0 0 12 27c0 .1.015.197.03.293A2 2 0 0 0 11 27a2 2 0 0 0-2 2c0 .6.27 1.133.69 1.5-.42.367-.69.9-.69 1.5 0 .378.111.729.294 1.03C9.196 33.015 9.1 33 9 33a2 2 0 0 0-2 2c0 .48.18.908.464 1.25a1.99 1.99 0 0 0-.911 3.376C6.212 39.984 6 40.466 6 41c0 .53.21 1.008.545 1.365a1.99 1.99 0 0 0-1.357 1.885c0 .772.44 1.433 1.08 1.767A2 2 0 0 0 6 47c0 .49.185.933.478 1.28a1.994 1.994 0 0 0 .201 3.752 1.986 1.986 0 0 0-.894 3.545A2 2 0 0 0 5.186 57c0 .818.494 1.52 1.197 1.83-.24.327-.384.73-.384 1.17 0 1.072.847 1.941 1.907 1.99-.175.298-.282.64-.282 1.01a2 2 0 0 0 3.418 1.41 2 2 0 0 0 3.082 1.242c.321.22.708.348 1.125.348.74 0 1.378-.406 1.724-1.002L17 65c.415 0 .8-.127 1.12-.343h35.76c.32.216.705.343 1.12.343l.026-.002a1.99 1.99 0 0 0 2.849.654 1.999 1.999 0 0 0 3.082-1.242A1.999 1.999 0 0 0 64.375 63c0-.37-.107-.712-.282-1.01A1.995 1.995 0 0 0 66 60c0-.44-.144-.843-.384-1.17A2 2 0 0 0 66.813 57c0-.557-.229-1.06-.597-1.423a1.986 1.986 0 0 0-.895-3.545 1.994 1.994 0 0 0 .201-3.752A1.98 1.98 0 0 0 66 47c0-.36-.102-.691-.269-.983a1.99 1.99 0 0 0 1.081-1.767c0-.879-.57-1.616-1.357-1.885.335-.357.545-.836.545-1.365 0-.533-.212-1.016-.553-1.374a1.99 1.99 0 0 0-.91-3.376c.282-.342.463-.77.463-1.25a2 2 0 0 0-2-2c-.1 0-.196.016-.294.03.183-.302.294-.652.294-1.03 0-.6-.27-1.133-.69-1.5.42-.367.69-.9.69-1.5a2 2 0 0 0-2-2c-.378 0-.727.111-1.03.293.015-.096.03-.192.03-.293 0-.873-.563-1.607-1.343-1.88A2 2 0 0 0 57 22a2 2 0 0 0-1.03.294c.015-.097.03-.193.03-.294a2 2 0 0 0-2-2c-.1 0-.196.015-.294.03.183-.302.294-.652.294-1.03a2 2 0 0 0-3.12-1.657A1.99 1.99 0 0 0 49 16c-.1 0-.196.015-.294.03.183-.302.294-.652.294-1.03a2 2 0 0 0-2-2c-.1 0-.196.015-.294.03.183-.302.294-.652.294-1.03a2 2 0 0 0-2-2 2 2 0 0 0-1.03.294c.015-.097.03-.193.03-.294a2 2 0 0 0-2-2 2 2 0 0 0-1.03.294C40.985 8.197 41 8.1 41 8a2 2 0 0 0-2-2c-.6 0-1.134.27-1.5.69-.366-.42-.9-.69-1.5-.69s-1.134.27-1.5.69C34.134 6.27 33.6 6 33 6a2 2 0 0 0-2 2c0 .1.015.197.03.294A2 2 0 0 0 30 8a2 2 0 0 0-2 2"/><path fill="#3f3f3f" d="M22 44h28v22H22z"/><g fill="none" stroke="#000" stroke-linecap="round" stroke-linejoin="round" stroke-miterlimit="10" stroke-width="2"><path d="M44 10a2 2 0 0 0-2-2 2 2 0 0 0-1.03.294C40.985 8.197 41 8.1 41 8a2 2 0 0 0-2-2c-.6 0-1.134.27-1.5.69-.366-.42-.9-.69-1.5-.69s-1.134.27-1.5.69C34.134 6.27 33.6 6 33 6a2 2 0 0 0-2 2c0 .1.015.197.03.294A2 2 0 0 0 30 8a2 2 0 0 0-2 2c0 .1.015.197.03.294A2 2 0 0 0 27 10a2 2 0 0 0-2 2c0 .378.111.728.294 1.03-.098-.015-.193-.03-.294-.03a2 2 0 0 0-2 2c0 .378.111.728.294 1.03-.098-.015-.193-.03-.294-.03-.873 0-1.607.563-1.88 1.343A2 2 0 0 0 18 19c0 .378.111.728.294 1.03-.098-.015-.193-.03-.294-.03a2 2 0 0 0-2 2c0 .1.015.197.03.294A2 2 0 0 0 15 22a2 2 0 0 0-1.657 3.12A2 2 0 0 0 12 27c0 .1.015.197.03.293A2 2 0 0 0 11 27a2 2 0 0 0-2 2c0 .6.27 1.133.69 1.5-.42.367-.69.9-.69 1.5 0 .378.111.729.294 1.03C9.196 33.015 9.1 33 9 33a2 2 0 0 0-2 2c0 .48.18.908.464 1.25a1.99 1.99 0 0 0-.911 3.376C6.212 39.984 6 40.466 6 41c0 .53.21 1.008.545 1.365a1.99 1.99 0 0 0-1.357 1.885c0 .772.44 1.433 1.08 1.767A2 2 0 0 0 6 47c0 .49.185.933.478 1.28a1.994 1.994 0 0 0 .201 3.752 1.986 1.986 0 0 0-.894 3.545A2 2 0 0 0 5.186 57c0 .818.494 1.52 1.197 1.83-.24.327-.384.73-.384 1.17 0 1.072.847 1.941 1.907 1.99-.175.298-.282.64-.282 1.01a2 2 0 0 0 3.418 1.41 2 2 0 0 0 3.082 1.242c.321.22.708.348 1.125.348.74 0 1.378-.406 1.724-1.002L17 65c.415 0 .8-.127 1.12-.343"/><path d="M28 10a2 2 0 0 1 2-2c.378 0 .728.111 1.03.294A2 2 0 0 1 31 8a2 2 0 0 1 2-2c.6 0 1.134.27 1.5.69.366-.42.9-.69 1.5-.69s1.134.27 1.5.69c.366-.42.9-.69 1.5-.69a2 2 0 0 1 2 2c0 .1-.015.197-.03.294A2 2 0 0 1 42 8a2 2 0 0 1 2 2c0 .1-.015.197-.03.294A2 2 0 0 1 45 10a2 2 0 0 1 2 2c0 .378-.111.728-.294 1.03.098-.015.193-.03.294-.03a2 2 0 0 1 2 2c0 .378-.111.728-.294 1.03.098-.015.193-.03.294-.03.873 0 1.607.563 1.88 1.343A2 2 0 0 1 54 19c0 .378-.111.728-.294 1.03.098-.015.193-.03.294-.03a2 2 0 0 1 2 2c0 .1-.015.197-.03.294A2 2 0 0 1 57 22a2 2 0 0 1 1.657 3.12A2 2 0 0 1 60 27c0 .1-.015.197-.03.293A2 2 0 0 1 61 27a2 2 0 0 1 2 2c0 .6-.27 1.133-.69 1.5.42.367.69.9.69 1.5 0 .378-.111.729-.294 1.03.098-.014.193-.03.294-.03a2 2 0 0 1 2 2c0 .48-.18.908-.464 1.25a1.99 1.99 0 0 1 .911 3.376c.341.358.553.84.553 1.374 0 .53-.21 1.008-.545 1.365a1.99 1.99 0 0 1 1.358 1.885c0 .772-.442 1.433-1.082 1.767.166.292.269.624.269.983 0 .49-.185.933-.477 1.28a1.994 1.994 0 0 1-.201 3.752 1.986 1.986 0 0 1 .895 3.545c.367.363.596.866.596 1.423 0 .818-.494 1.52-1.197 1.83.24.327.384.73.384 1.17a1.995 1.995 0 0 1-1.907 1.99c.175.298.282.64.282 1.01a2 2 0 0 1-3.418 1.41 2 2 0 0 1-3.082 1.242 1.992 1.992 0 0 1-2.849-.654L55 65c-.415 0-.8-.127-1.12-.343"/><path d="M22 44h28v22H22z"/></g></svg>