<svg xmlns="http://www.w3.org/2000/svg" viewBox="0 0 72 72"><g fill="#d0cfce"><path d="M57.809 36.405a6.57 6.57 0 0 1 5.229 2.449 7.3 7.3 0 0 1 1.205 2.853 8 8 0 0 1-.284 3.4 6.87 6.87 0 0 1-4.438 4.508 6.1 6.1 0 0 1-2.9.14 7.3 7.3 0 0 1-2.749-1.223l-.458.61"/><path d="M53.414 49.142a6.43 6.43 0 0 1 2.774 5.046 6 6 0 0 1-.7 3.014 8.5 8.5 0 0 1-.91 1.414 9.5 9.5 0 0 1-1.308 1.174 7.2 7.2 0 0 1-3.14 1.325 6.6 6.6 0 0 1-3.087-.264 6.49 6.49 0 0 1-3.942-4.205l-.717.254"/><path d="M42.385 56.9a6.51 6.51 0 0 1-.725 5.71 6.9 6.9 0 0 1-2.345 2.019 8.15 8.15 0 0 1-3.315.799 8.15 8.15 0 0 1-3.315-.8 6.9 6.9 0 0 1-2.345-2.017 6.51 6.51 0 0 1-.724-5.711l-.717-.254M28.899 56.646a6.49 6.49 0 0 1-3.943 4.206 6.6 6.6 0 0 1-3.087.263 7.2 7.2 0 0 1-3.139-1.325 9.5 9.5 0 0 1-1.307-1.174 8.5 8.5 0 0 1-.91-1.414 6 6 0 0 1-.7-3.014 6.43 6.43 0 0 1 2.774-5.046l-.458-.61M18.128 48.533a7.3 7.3 0 0 1-2.749 1.223 6.1 6.1 0 0 1-2.9-.14 6.87 6.87 0 0 1-4.438-4.509 8 8 0 0 1-.284-3.4 7.3 7.3 0 0 1 1.205-2.853 6.57 6.57 0 0 1 5.23-2.45v-.38"/></g><g fill="#d0cfce"><path d="M53.872 23.895a7.05 7.05 0 0 1 2.749-1.223 6.1 6.1 0 0 1 2.9.14 6.87 6.87 0 0 1 4.438 4.509 8 8 0 0 1 .284 3.4 7.3 7.3 0 0 1-1.205 2.853 6.57 6.57 0 0 1-5.23 2.45v.38"/><path d="M43.101 15.782a6.49 6.49 0 0 1 3.943-4.206 6.6 6.6 0 0 1 3.087-.263 7.2 7.2 0 0 1 3.139 1.325 9.5 9.5 0 0 1 1.307 1.174 8.5 8.5 0 0 1 .91 1.414 6 6 0 0 1 .7 3.014 6.43 6.43 0 0 1-2.773 5.046l.458.61M29.616 15.528a6.51 6.51 0 0 1 .724-5.71 6.9 6.9 0 0 1 2.345-2.019A8.14 8.14 0 0 1 36 7a8.14 8.14 0 0 1 3.315.799 6.9 6.9 0 0 1 2.345 2.018 6.51 6.51 0 0 1 .724 5.71l.717.255M18.586 23.286a6.43 6.43 0 0 1-2.774-5.046 6 6 0 0 1 .7-3.014 8.5 8.5 0 0 1 .91-1.414 9.5 9.5 0 0 1 1.308-1.174 7.2 7.2 0 0 1 3.14-1.325 6.6 6.6 0 0 1 3.086.263 6.49 6.49 0 0 1 3.943 4.206l.717-.254M14.192 36.023a6.57 6.57 0 0 1-5.23-2.449 7.3 7.3 0 0 1-1.205-2.853 8 8 0 0 1 .284-3.4 6.87 6.87 0 0 1 4.438-4.508 6.1 6.1 0 0 1 2.9-.14 7.3 7.3 0 0 1 2.749 1.223l.458-.61"/></g><circle cx="36" cy="36" r="22" fill="#d0cfce"/><path fill="none" stroke="#fff" stroke-linecap="round" stroke-linejoin="round" stroke-width="1.782" d="M32.436 35.132s0 .036.003.1a3.315 3.315 0 0 0 5.412 2.321c1.758-1.398 3.426-5.726-1.851-8.658-2.337-1.298-8.91.891-9.801 6.238a7.6 7.6 0 0 0 .86 4.883 10.18 10.18 0 0 0 7.881 5.177c2.989.35 8.055-.406 9.97-4.714 3.564-8.02-2.673-11.584-2.673-11.584"/><g fill="none" stroke="#000" stroke-linecap="round" stroke-linejoin="round" stroke-width="2"><path d="M57.809 36.405a6.57 6.57 0 0 1 5.229 2.449 7.3 7.3 0 0 1 1.205 2.853 8 8 0 0 1-.284 3.4 6.87 6.87 0 0 1-4.438 4.508 6.1 6.1 0 0 1-2.9.14 7.3 7.3 0 0 1-2.749-1.223l-.458.61"/><path d="M53.414 49.142a6.43 6.43 0 0 1 2.774 5.046 6 6 0 0 1-.7 3.014 8.5 8.5 0 0 1-.91 1.414 9.5 9.5 0 0 1-1.308 1.174 7.2 7.2 0 0 1-3.14 1.325 6.6 6.6 0 0 1-3.087-.264 6.49 6.49 0 0 1-3.942-4.205l-.717.254"/><path d="M42.385 56.9a6.51 6.51 0 0 1-.725 5.71 6.9 6.9 0 0 1-2.345 2.019 8.15 8.15 0 0 1-3.315.799 8.15 8.15 0 0 1-3.315-.8 6.9 6.9 0 0 1-2.345-2.017 6.51 6.51 0 0 1-.724-5.711l-.717-.254M28.899 56.646a6.49 6.49 0 0 1-3.943 4.206 6.6 6.6 0 0 1-3.087.263 7.2 7.2 0 0 1-3.139-1.325 9.5 9.5 0 0 1-1.307-1.174 8.5 8.5 0 0 1-.91-1.414 6 6 0 0 1-.7-3.014 6.43 6.43 0 0 1 2.774-5.046l-.458-.61M18.128 48.533a7.3 7.3 0 0 1-2.749 1.223 6.1 6.1 0 0 1-2.9-.14 6.87 6.87 0 0 1-4.438-4.509 8 8 0 0 1-.284-3.4 7.3 7.3 0 0 1 1.205-2.853 6.57 6.57 0 0 1 5.23-2.45v-.38M53.872 23.895a7.05 7.05 0 0 1 2.749-1.223 6.1 6.1 0 0 1 2.9.14 6.87 6.87 0 0 1 4.438 4.509 8 8 0 0 1 .284 3.4 7.3 7.3 0 0 1-1.205 2.853 6.57 6.57 0 0 1-5.23 2.45v.38"/><path d="M43.101 15.782a6.49 6.49 0 0 1 3.943-4.206 6.6 6.6 0 0 1 3.087-.263 7.2 7.2 0 0 1 3.139 1.325 9.5 9.5 0 0 1 1.307 1.174 8.5 8.5 0 0 1 .91 1.414 6 6 0 0 1 .7 3.014 6.43 6.43 0 0 1-2.773 5.046l.458.61M29.616 15.528a6.51 6.51 0 0 1 .724-5.71 6.9 6.9 0 0 1 2.345-2.019A8.14 8.14 0 0 1 36 7a8.14 8.14 0 0 1 3.315.799 6.9 6.9 0 0 1 2.345 2.018 6.51 6.51 0 0 1 .724 5.71l.717.255M18.586 23.286a6.43 6.43 0 0 1-2.774-5.046 6 6 0 0 1 .7-3.014 8.5 8.5 0 0 1 .91-1.414 9.5 9.5 0 0 1 1.308-1.174 7.2 7.2 0 0 1 3.14-1.325 6.6 6.6 0 0 1 3.086.263 6.49 6.49 0 0 1 3.943 4.206l.717-.254M14.192 36.023a6.57 6.57 0 0 1-5.23-2.449 7.3 7.3 0 0 1-1.205-2.853 8 8 0 0 1 .284-3.4 6.87 6.87 0 0 1 4.438-4.508 6.1 6.1 0 0 1 2.9-.14 7.3 7.3 0 0 1 2.749 1.223l.458-.61"/></g><path fill="none" stroke="#d22f27" stroke-linecap="round" stroke-linejoin="round" stroke-width="2" d="M32.436 34.241s0 .036.003.1a3.315 3.315 0 0 0 5.412 2.321c1.758-1.398 3.426-5.726-1.851-8.658-2.337-1.298-8.91.891-9.801 6.237a7.6 7.6 0 0 0 .86 4.884A10.18 10.18 0 0 0 34.94 44.3c2.989.351 8.055-.405 9.97-4.714 3.564-8.019-2.673-11.583-2.673-11.583"/></svg>