<svg xmlns="http://www.w3.org/2000/svg" viewBox="0 0 72 72"><path fill="#f4aa41" d="M55 17v-6H17v6M45 60c8.284 0 15-6.716 15-15V22a5 5 0 0 0-5-5H17a5 5 0 0 0-5 5v23c0 8.284 6.716 15 15 15z"/><path fill="#fcea2b" d="M35 17v14a5 5 0 0 0 10 0v11a3 3 0 0 0 6 0V23a3 3 0 1 0 6 0v-5.578A5 5 0 0 0 55 17zh-2v-6h22v6"/><g fill="none" stroke="#000" stroke-linecap="round" stroke-linejoin="round" stroke-miterlimit="10" stroke-width="2"><path d="M55 17v-6H17v6M51 42a3 3 0 0 1-6 0M51 23a3 3 0 1 0 6 0v-5M45 31a5 5 0 1 1-10 0M45 42V31M51 42V23M35 31V17M33 17v-6"/><path d="M45 60c8.284 0 15-6.716 15-15V22a5 5 0 0 0-5-5H17a5 5 0 0 0-5 5v23c0 8.284 6.716 15 15 15z"/></g></svg>