<svg xmlns="http://www.w3.org/2000/svg" viewBox="0 0 72 72"><path fill="#9b9b9a" d="M61.879 5.879 50.135 17.862a23.2 23.2 0 0 1 4.002 4.003L66.12 10.121A3 3 0 1 0 61.88 5.88"/><path fill="#d0cfce" d="M54.137 21.865a23.1 23.1 0 0 0-4.002-4.003A22.9 22.9 0 0 0 36 13c-12.703 0-23 10.298-23 23s10.297 23 23 23 23-10.298 23-23a22.9 22.9 0 0 0-4.863-14.135"/><path fill="#fff" d="M47.225 37.55q-.108-.053-.217-.102c-.634-.336-1.057-1.087-1.057-1.853-.004-.09-.02-.175-.026-.264a10 10 0 0 0-.128-1.078q-.066-.36-.154-.71-.04-.16-.082-.317a10 10 0 0 0-.302-.883q-.018-.049-.035-.096a10 10 0 0 0-3.515-4.42 2.1 2.1 0 0 1-.767-1.594 5.003 5.003 0 0 0-9.75-.605c-.051.178-.119.41-.134.596-.05.591-.277 1.114-.683 1.48-.113.075-.219.163-.33.244q-.02.013-.037.026-.025.02-.049.04a10 10 0 0 0-.606.493q-.038.033-.076.067-.297.268-.575.559l-.036.04A9.95 9.95 0 0 0 25.959 36c0 5.523 4.477 10 10 10a10 10 0 0 0 1.718-.158q.052-.007.104-.016a10 10 0 0 0 1.996-.585 1.99 1.99 0 0 1 1.764.356c.06.047.125.091.18.147l-.008.01A4.96 4.96 0 0 0 45 47a5 5 0 0 0 5-5c0-1.958-1.137-3.632-2.775-4.45"/><circle cx="36" cy="35.875" r="5" fill="#fcea2b"/><g fill="none" stroke="#000" stroke-linecap="round" stroke-linejoin="round" stroke-miterlimit="10" stroke-width="2"><path d="M61.879 5.879 50.135 17.862a23.2 23.2 0 0 1 4.002 4.003L66.12 10.121A3 3 0 1 0 61.88 5.88"/><path d="M54.137 21.865a23.1 23.1 0 0 0-4.002-4.003A22.9 22.9 0 0 0 36 13c-12.703 0-23 10.298-23 23s10.297 23 23 23 23-10.298 23-23a22.9 22.9 0 0 0-4.863-14.135"/><circle cx="36" cy="35.875" r="5"/><path d="M47.225 37.55q-.108-.053-.217-.102c-.634-.336-1.057-1.087-1.057-1.853l-.015-.03a9.98 9.98 0 0 0-4.227-7.738 2.1 2.1 0 0 1-.767-1.594 5.003 5.003 0 0 0-9.75-.605c-.051.178-.119.41-.134.596-.05.591-.277 1.114-.683 1.48A9.99 9.99 0 0 0 25.959 36c0 5.523 4.477 10 10 10a10 10 0 0 0 3.818-.759 1.99 1.99 0 0 1 1.764.356c.06.047.125.091.18.147l-.008.01A4.96 4.96 0 0 0 45 47a5 5 0 0 0 5-5c0-1.958-1.137-3.632-2.775-4.45"/></g></svg>