<svg xmlns="http://www.w3.org/2000/svg" viewBox="0 0 72 72"><path fill="#3f3f3f" d="m48.11 28.54-4.38 4.39-4.35 4.35-5.81 5.47s-1.276 1.393-3.19 1.92c-1.915.526-4.79-.15-6.57-1.92l-3.58-3.58c-2.77-2.78-2.77-7.32 0-10.1l4.31-4.3 5.51-5.51 4.39-4.39c2.78-2.78 7.32-2.78 10.09 0l.6.6 2.98 2.98c2.78 2.77 2.78 7.32 0 10.09"/><path fill="#9b9b9a" d="m43.832 24.262-4.38 4.39c-.925.928-4.35 2.456-5.278 3.33s-3.27 5.187-4.882 6.49-1.072 1.414-3.19 1.92-4.79-.15-6.57-1.92l-.6-.6c-2.77-2.78-2.77-7.32 0-10.1l4.31-4.3 5.51-5.51 4.39-4.39c2.78-2.78 7.32-2.78 10.09 0l.6.6c2.78 2.78 2.78 7.32 0 10.09"/><path fill="#d0cfce" d="M21.902 54.688h27.843v5.297H21.902z"/><path fill="#3f3f3f" d="M47.051 54.688h2.694v5.297h-2.694z"/><path fill="#9b9b9a" d="m36.364 30.595-.543-1.362c-.69 0-2.25.923-2.25 1.612v24.092l2.929-.25z"/><path fill="#3f3f3f" d="m38.12 54.688-.219-23.82c0-.689-.847-1.059-1.537-1.059l.136 24.879z"/><path fill="#d0cfce" d="M32.42 28.088a1 1 0 0 1-.707-.293l-7.598-7.597a1 1 0 0 1 0-1.414c.019-.019.044-.025.063-.042l-.026-.027s-.388.367-.779.758a1 1 0 0 0 0 1.414l7.495 7.57a.997.997 0 0 0 1.415 0 4.6 4.6 0 0 1 .63-.52 1 1 0 0 1-.493.15M41.027 35.658l-1.202 1.18a.98.98 0 0 0 .263.86l.609.592a1 1 0 0 0 .708.294c.255 0 .51-.097.706-.292.39-.39.822-.792.822-.792z"/><g fill="none" stroke="#000" stroke-linecap="round" stroke-linejoin="round" stroke-miterlimit="10" stroke-width="2"><path d="m29.392 18.596 4.387-4.386c2.776-2.777 7.32-2.777 10.096 0l3.578 3.577c2.776 2.777 2.776 7.32 0 10.097l-4.387 4.386M29.72 44.009a7.15 7.15 0 0 1-6.568-1.92l-3.578-3.578c-2.777-2.777-2.777-7.32 0-10.096l4.303-4.304M33.57 54.688V31.845a2.25 2.25 0 0 1 2.251-2.25h.543a2.25 2.25 0 0 1 2.25 2.25v22.843M22.44 54.688h27.305v5.297H22.44zM20.996 40.499l-2.423 2.469M41.636 36.304l.534.534M24.823 19.491l7.597 7.597"/></g></svg>