<svg xmlns="http://www.w3.org/2000/svg" viewBox="0 0 72 72"><path fill="#61b2e4" d="M33.636 37.325 17.31 66.846h12.788zM36.386 37.606l16.261 29.24H39.859z"/><path fill="#92d3f5" d="m46.53 55.464-7.563-14.071-1.208.699 8.209 24.754h6.679l-5.442-10.127M31.703 42.584 24.001 66.24h6.182l3.304-23.424z"/><path fill="none" stroke="#9b9b9a" stroke-linecap="round" stroke-linejoin="round" stroke-width="2" d="m38.327 29.961 12.272-12.272M19.267 49.049 32.36 35.956M56.918 32.927H38.901M50.612 48.676 37.63 35.694M31.149 32.946h-18.56M32.207 30.299 19.253 17.345M35.532 29.051V10.492"/><circle cx="34.734" cy="33.066" r="24.855" fill="none" stroke="#9b9b9a" stroke-miterlimit="10"/><circle cx="11.682" cy="20.785" r="4.588" fill="#f4aa41"/><circle cx="42.121" cy="9.418" r="4.588" fill="#f4aa41"/><circle cx="60.916" cy="32.206" r="4.64" fill="#f4aa41"/><circle cx="47.91" cy="55.464" r="4.64" fill="#f4aa41"/><circle cx="13.141" cy="47.132" r="4.588" fill="#f4aa41"/><g fill="none" stroke="#000" stroke-width="2"><path stroke-linecap="round" stroke-linejoin="round" d="m31.953 55.464 1.223-18.139M30.692 62.634l-.594 4.212H17.31l5.268-9.802M32.676 37.325l-8.929 15.648M38.004 55.464l-1.912-18.371M39.289 62.804l.57 4.042h12.788L48.929 60M36.092 37.093l8.184 14.294M60.646 36.838a26.13 26.13 0 0 1-8.408 15.7M47.281 10.081a26.23 26.23 0 0 1 13.022 17.327M14.44 16.524a26.13 26.13 0 0 1 20.294-9.64q1.342 0 2.677.135M10.457 42.887A26.3 26.3 0 0 1 9.7 25.373M43.763 57.65a26.22 26.22 0 0 1-28.123-6.67"/><path stroke-linecap="round" stroke-miterlimit="10" d="M37.163 36.16a3.876 3.876 0 1 1 1.738-3.234"/><path stroke-linecap="round" stroke-linejoin="round" d="M37.969 29.602 50.24 17.331M18.909 48.69l13.093-13.092M31.849 30.657 18.895 17.703M50.254 49.035 37.271 36.052M31.149 33.453h-18.56M56.276 33.433H38.901M35.025 29.051V10.492"/><circle cx="11.682" cy="20.785" r="4.588" stroke-miterlimit="10"/><circle cx="42.121" cy="9.418" r="4.588" stroke-miterlimit="10"/><path stroke-miterlimit="10" d="M65.556 32.206a4.64 4.64 0 1 1-9.28-.001 4.64 4.64 0 0 1 9.28.001ZM52.55 55.464a4.64 4.64 0 1 1-4.64-4.64 4.64 4.64 0 0 1 4.64 4.64Z"/><circle cx="13.141" cy="47.132" r="4.588" stroke-miterlimit="10"/></g></svg>