<svg xmlns="http://www.w3.org/2000/svg" viewBox="0 0 72 72"><path fill="#6a462f" d="M43.944 35.072c.504.566.96 1.183.983 1.25.449.943.586 2.023.378 3.096a7 7 0 0 1-.16.649c-.01.03-.248.6-.383.845q-.073.135-.154.264c-.696 1.18-1.762 2.48-2.667 3.895-.957 1.495-.825 2.155-1.162 2.91a5 5 0 0 0-1.508-.881 5 5 0 0 0-5.716 7.665c-.303.262-4.435 3.178-5.39 4.014-4.217 3.69-9.84 3.584-13.877-.26l-.33-.287c-3.742-4.132-3.709-9.756.086-13.88.86-.933 3.878-4.991 4.147-5.287a5 5 0 0 0 7.805-5.523 5 5 0 0 0-.843-1.53c.764-.318 1.42-.17 2.939-1.089 1.436-.869 2.762-1.903 3.96-2.569q.131-.078.267-.148c.25-.128.825-.351.855-.36a7 7 0 0 1 .653-.145 4.98 4.98 0 0 1 3.085.455c.11.042 2.045 1.653 2.43 2.33"/><path fill="#a57939" d="m61.06 11.957-4.316 2.057 2.665 2.057zM13.879 56.68l2.977-4.154s1.367-.906 2.746.468c1.38 1.373.478 2.747.478 2.747l-4.24 3.21M56.108 18.712c-.394.095-1.388-.482-1.657-.756L31.762 38.363l1.846 1.766s22.14-21.103 22.5-21.417"/><g fill="none" stroke="#000" stroke-linecap="round" stroke-linejoin="round" stroke-width="2"><path d="m55.115 21.419 1.278 1.298M51.006 17.326l1.126 1.144M52.987 23.518l1.531 1.569M49 19.477l.904.927M62.609 17.832l1.371-1.338M55.461 10.696l1.371-1.338M43.944 35.072c.504.566.96 1.183.983 1.25.449.943.586 2.023.378 3.096a7 7 0 0 1-.16.649c-.01.03-.248.6-.383.845q-.073.135-.154.264c-.696 1.18-1.762 2.48-2.667 3.895-.957 1.495-.825 2.155-1.162 2.91a5 5 0 0 0-1.508-.881 5 5 0 0 0-5.716 7.665c-.303.262-4.435 3.178-5.39 4.014-4.217 3.69-9.84 3.584-13.877-.26l-.33-.287c-3.742-4.132-3.709-9.756.086-13.88.86-.933 3.878-4.991 4.147-5.287a5 5 0 0 0 7.805-5.523 5 5 0 0 0-.843-1.53c.764-.318 1.42-.17 2.939-1.089 1.436-.869 2.762-1.903 3.96-2.569q.131-.078.267-.148c.25-.128.825-.351.855-.36a7 7 0 0 1 .653-.145 4.98 4.98 0 0 1 3.085.455c.11.042 2.045 1.653 2.43 2.33zM29.213 48.901l-3.454 4.138M19.953 47.211l4.313-3.234M58.979 16.541l-2.46-2.459 4.168-2.753 1.045 1.045z"/><path d="m32.502 37.787 21.806-20.848a.345.345 0 0 1 .485.009l.863.885M13.207 56.236l3.614-3.456s1.184-.765 2.435.486c1.25 1.25.489 2.441.489 2.441l-3.362 3.702M28.083 44.059q.582.486 1.08 1.048"/></g></svg>