<svg xmlns="http://www.w3.org/2000/svg" viewBox="0 0 72 72"><g fill="#fcea2b"><path d="M64.7 30.764c-.026 4.741.065 4.573-2.323 4.573s-4.823-1.685-4.823-4.073 2.435-4.573 4.823-4.573 2.346-.096 2.323 4.073M53.2 33.962c-.172-.219-1.822-2.17-1.991-2.35-1.185-1.255-2.46-1.388-3.3-1.545-.683-.116-12.936.315-13.207.315-.403 0-5.434.071-5.434.071-.066-.003-9.893-1.503-10.049-1.546-7.75-2.122-7.226-11.289-7.22-11.466l-2.548-.135.284 28.934 2.2-.03c.004-.333.274-6.568 3.511-9.061 1.023-.664 3.374-2.03 6.087-2.562.762-.125 7.9-.952 7.913-.952 4.787-.163 7.745 0 11.744.059 1.192.017 3.237-.048 4.132 0 4.463.236 4.773 4.802 4.787 4.905.651 4.126-.79 6.439-.95 6.715-.699 1.202-3.127 1.688-3.778 1.877-1.396.409-14.66 1.137-16.856.446-1.246-.39-1.757-.473-3.08-1.37-.167-.24-1.326-.735-1.47-3.149-.154-2.6 1.923-5.125 2.141-5.41.157-.204-.085-.997.15-1.041l-4.637.25c.185.042-2.898 6.174-.834 9.68 1.685 2.496 3.945 3.66 5.143 3.954.147.036 10.875.546 12.011.535.568-.005 10.316-.922 10.316-.922s4.467-1.312 5.411-4.846c.306-1.146.903-9.613-.476-11.356"/><path d="m26.281 36.67.016-.022-.202.011c.063 0 .124 0 .186.011M57.43 30.236c0-.553-3.677-1.008-3.124-1.008h-6.05c.03.004-2.616-.01-2.594-.006 1.912.36 7.891 4.353 7.647 4.364-1.034.046 4.937-.154 4.937-.154s-.816-2.643-.816-3.196"/></g><g fill="none" stroke="#000" stroke-linecap="round" stroke-linejoin="round" stroke-width="2"><path d="M57.838 30.228h-3.532M63.81 35.433h1.465v-8.838h-1.461M30.972 37.492l.066 6.685M36.811 44.177l-.066-6.685M42.152 44.177l-.066-6.685M41.215 22.651h1.375M35.874 22.651h1.375M30.601 22.651h1.374M26.108 37.643s-2.042 2.664-2.042 4.734c0 2.563 1.38 4.072 3.218 4.648 1.96.616 18.128.202 19.35-.154 1.387-.403 3.313-1.11 3.456-5.99.143-4.881-1.684-6.049-2.57-6.75-1.254-.773-19.45-.157-19.45-.157s-5.19.363-7.658 1.036c-9.129 2.493-8.005 11.507-8.005 11.507H9.265V17.11h3.08s-1.647 9.711 8.477 12.178c2.164.528 6.989.783 6.989.783s19.023-.096 20.35.153c1.325.249 2.759.868 4.225 2.723 2.213 2.798 2.373 7.826 1.191 12.25-1.083 4.057-4.745 5.056-6.551 5.53-1.85.487-18.989.53-20.934 0-1.283-.348-3.306-.54-5.237-3.82-2.244-3.813-.492-8.022.558-9.032M59.833 27.892a3.381 3.381 0 0 0-.02 6.251M31.288 26.256v.503M36.561 26.759v-.503M41.902 26.759v-.503M30.788 54.529v.546M36.561 55.075v-.546M42.402 55.075v-.546"/></g></svg>