<svg xmlns="http://www.w3.org/2000/svg" viewBox="0 0 72 72"><g fill="#fff"><path d="M22.358 17.268h6.002v6.002h-6.002zM28.36 33.893l-6.002 1.38v-6.002h6.002zM28.36 23.27h6.002v6.002H28.36zM34.362 17.268h4.818c.653 0 1.183.53 1.183 1.183v4.819h-6.002zM29.339 14.987h3.886c.628 0 1.136.509 1.136 1.136v1.145H28.36v-1.302c0-.54.439-.98.98-.98"/><path d="m40.363 35.273-6.002-2.298v-3.704h6.002zM40.363 23.27h6.002v6.002h-6.002zM46.955 20.269h4.68c.404 0 .732.327.732.732v2.269h-6.002v-2.411a.59.59 0 0 1 .59-.59M46.365 29.271h6.002v6.002h-6.002z"/><path d="M52.367 23.27h.734v6.002h-.734zM40.363 35.273h6.002v1.931l-5.252-1.4c-.995 0-.52-.353-.75-.401zM52.367 35.273h.72V36.9l-.72.404z"/></g><path d="M22.358 23.27h6.002v6.002h-6.002zM28.36 17.268h6.002v6.002H28.36zM28.36 29.272h6.001v3.703a.64.64 0 0 1-.638.638h-4.82a.544.544 0 0 1-.543-.543zM28.36 17.268h-3.126s1.374-.525 1.584-.621c1.218-.554 1.542-.62 1.542-.62zM37.998 17.268h-3.636v-1.395s.312-.105 2.739.897c.15.062.897.498.897.498ZM34.361 23.27h6.002v6.002h-6.002zM46.365 23.27h-6.002v-4.624l5.29 1.165c.416.091.712.46.712.886zM40.363 29.271h6.002v6.002h-6.002zM46.365 23.27h6.002v6.002h-6.002zM52.367 20.31c.964 0 .763.74.763 1.704l-.028.356c0 .543.19.884.027.9h-.762zM52.367 29.272h.776c.06 0 .107.103.107.23v5.558c0 .118-.044.213-.098.213h-.785zM46.365 35.273h6.002v1.916c0 .738-.639 1.337-1.427 1.337l-3.078-.194c-.839 0-1.497-.443-1.497-1.229z"/><path fill="none" stroke="#000" stroke-linecap="round" stroke-linejoin="round" stroke-width="2" d="M23.084 17.488C25.97 15.69 31.506 13.255 37.5 16c3.689 1.69 5.634 4.698 15.04 4.114.79-.049 1.46.597 1.46 1.41V36.65c0 .623-.423 1.077-.965 1.354C51.088 39 45.764 38.94 37.5 35c-3.365-1.604-8.57-2.568-14.458 1.442"/><path fill="none" stroke="#000" stroke-linecap="round" stroke-miterlimit="10" stroke-width="2" d="M19.327 12.875v46.96"/></svg>