<svg xmlns="http://www.w3.org/2000/svg" viewBox="0 0 72 72"><path fill="#f4aa41" d="M58.62 13.226c-12.33-3.232-26-.017-35.662 9.646-9.683 9.683-12.892 23.39-9.626 35.739l.049.048c12.329 3.233 25.998.017 35.661-9.646 9.683-9.683 12.892-23.39 9.626-35.738"/><path fill="#e27022" d="M60.019 20.353c-1.468 9.65-6.762 19.759-15.397 25.79-9.744 6.808-21.628 8.26-32.162 4.981.134 2.53.515 5.048 1.167 7.511l.048.049c12.283 3.22 25.901.017 35.528-9.61 7.608-7.608 11.231-18.757 10.816-28.721"/><g fill="none" stroke="#000" stroke-linecap="round" stroke-linejoin="round" stroke-miterlimit="10" stroke-width="2"><path d="M58.62 13.226c-12.33-3.232-26-.017-35.662 9.646-9.683 9.683-12.892 23.39-9.626 35.739l.049.048c12.329 3.233 25.998.017 35.661-9.646 9.683-9.683 12.892-23.39 9.626-35.738M58.669 13.276 13.333 58.612M41.575 34.447l-4.079-4.08M45.111 30.911l-4.08-4.079M38.04 37.982l-4.08-4.079M34.504 41.518l-4.079-4.079M30.968 45.053l-4.079-4.079"/><path d="M26.016 36.08c0-1.8.475-3.488 1.306-4.946M41.008 44.746a9.95 9.95 0 0 1-4.992 1.333M46.016 36.08c0 1.82-.486 3.526-1.336 4.995M30.986 27.434a9.95 9.95 0 0 1 4.955-1.354"/></g></svg>