<svg xmlns="http://www.w3.org/2000/svg" viewBox="0 0 72 72"><path fill="#fff" d="M18.5 31.5h35v25h-35z"/><path fill="#ea5a47" d="m28.5 22.059-5 4.706V17h5z"/><path fill="#a57939" d="M25.5 40h9v16h-9z"/><path fill="#6a462f" d="M37.45 40.38 24.26 53.57l-2.92-2.91 4.16-4.16L32 40l2.53-2.53z"/><path fill="#9b9b9a" d="M48 47h-8v-7h8z"/><path fill="#92d3f5" d="M42.792 47 46 43l-3-1-1-2h6v7z"/><path fill="#ea5a47" d="M36 15 19 31v1h34v-1l-6-5-7 1-8 1 2-4-2-2 6.6-4.4z"/><g fill="none" stroke="#000" stroke-linecap="round" stroke-linejoin="round" stroke-miterlimit="10" stroke-width="2"><path d="m28.5 22.059-5 4.706V17h5zM32 40l-6.5 6.5V40zM34.5 43.33V56h-9v-3.67zM48 47h-8v-7h8z"/><path stroke-width="1.99998" d="m21.342 50.656 13.192-13.191 2.914 2.914-13.191 13.192z"/><path d="M42.792 47 46 43l-3-1-1-2h6v7zM42 22v4M45 25v1M39 19v7M40 19l-4-4-17 16v1h34v-1l-6-5-7 1-8 1 2-4-2-2 6.6-4.4zM36 20v7"/><path d="M19 32h34v24H19z"/></g></svg>