<svg xmlns="http://www.w3.org/2000/svg" viewBox="0 0 72 72"><rect width="60.428" height="1.937" x="5.691" y="53.327" fill="#fff" rx=".968" ry=".968"/><path fill="#9b9b9a" d="M10.667 33.814V17.25h9.743v16.564M34.051 21.147h12.667V55.25H34.051z"/><path fill="#d0cfce" d="M50.615 55.25V25.045h15.59V55.25M5.795 55.25V33.814h33.128V55.25"/><g fill="none" stroke="#000"><path stroke-miterlimit="10" stroke-width=".974" d="M50.615 55V25.045h15.59V55M5.795 55V33.814h33.128V55.25"/><path stroke-linecap="round" stroke-linejoin="round" stroke-width="1.949" d="M50.615 54.276V25.045h15.59v29.23M5.795 54.276V33.814h33.128v20.462"/><path stroke-linecap="round" stroke-linejoin="round" stroke-width="1.949" d="M35.026 30.891v-9.744h11.692v33.129M11.641 30.891V17.25h7.795v13.641M56.462 33.814h-1.95v-4.872M62.308 33.814h-1.949v-4.872M56.462 43.558h-1.95v-4.872M62.308 43.558h-1.949v-4.872M29.18 42.583h-1.95v-4.871M35.026 42.583h-1.95v-4.871M29.18 52.327h-1.95v-4.872M35.026 52.327h-1.95v-4.872M17.487 42.583H15.54v-4.871M23.333 42.583h-1.948v-4.871M17.487 52.327H15.54v-4.872M11.641 42.583H9.692v-4.871M11.641 52.327H9.692v-4.872M23.333 52.327h-1.948v-4.872M56.462 53.301h-1.95V48.43M62.308 53.301h-1.949V48.43M15.539 20.173v10.718M38.923 24.07v6.821M42.821 24.07v30.206"/></g></svg>