<svg xmlns="http://www.w3.org/2000/svg" viewBox="0 0 72 72"><path fill="#d0cfce" d="M9.356 56.506h53.288V23.564H45.282v-2.906H26.718v2.906H9.356z"/><path fill="#a57939" d="M30.625 39.995h10.751v12.746H30.625z"/><circle cx="36" cy="30.242" r="6.298" fill="#fff"/><path fill="none" stroke="#92d3f5" stroke-linecap="round" stroke-linejoin="round" stroke-width="2" d="M20.498 46.817h1.938v4.035h-1.938zM13.716 46.817h1.938v4.035h-1.938zM20.498 37.128h1.938v4.844h-1.938zM13.716 37.128h1.938v4.844h-1.938zM20.498 27.44h1.938v4.844h-1.938zM13.716 27.44h1.938v4.844h-1.938zM56.346 46.817h1.938v4.035h-1.938zM49.564 46.817h1.938v4.035h-1.938zM56.346 37.128h1.938v4.844h-1.938zM49.564 37.128h1.938v4.844h-1.938zM56.346 27.44h1.938v4.844h-1.938zM49.564 27.44h1.938v4.844h-1.938z"/><path fill="#d22f27" d="M24.8 20.49h1.92v3.07H9.36l3.85-6.14h15.2zM47.2 20.49h-1.916v3.07h17.36l-3.85-6.14H43.592z"/><path fill="#ea5a47" d="M47.2 20.49H24.8l1.92-1.63 9.28-7.9z"/><path fill="#b1cc33" d="M7.196 50.852h19.522v5.653H7.196zM45.282 50.852h19.522v5.653H45.282z"/><g fill="none" stroke="#000" stroke-linecap="round" stroke-linejoin="round" stroke-width="2"><path d="M26.72 20.49h18.56v36.02H26.72z"/><path d="M24.8 20.49h1.92v3.07H9.36l3.85-6.14h15.2zM47.2 20.49h-1.916v3.07h17.36l-3.85-6.14H43.592z"/><path d="M47.2 20.49H24.8l1.92-1.63 9.28-7.9zM9.71 50.853h14.493a2.514 2.514 0 0 1 2.515 2.514v3.139H7.196v-3.14a2.514 2.514 0 0 1 2.514-2.513M47.797 50.853H62.29a2.514 2.514 0 0 1 2.514 2.514v3.139H45.282v-3.14a2.514 2.514 0 0 1 2.515-2.513M26.718 52.741h18.564"/><path d="M9.356 50.853V23.563h17.362M62.644 56.506H9.356M45.282 23.564h17.362v27.289M30.625 39.995h10.751v12.746H30.625zM36 52.741V39.995"/><circle cx="36" cy="30.242" r="6.298"/><path d="M36 30.727V26.55M36 30.727l2.089-1.044M20.498 50.852v-4.035M13.716 50.852v-4.035M22.436 41.973h-1.938v-4.845M15.654 41.973h-1.938v-4.845M22.436 32.284h-1.938V27.44M15.654 32.284h-1.938V27.44M56.346 50.852v-4.035M49.564 50.852v-4.035M58.284 41.973h-1.938v-4.845M51.502 41.973h-1.938v-4.845M58.284 32.284h-1.938V27.44M51.502 32.284h-1.938V27.44"/></g></svg>