<svg xmlns="http://www.w3.org/2000/svg" viewBox="0 0 72 72"><path d="M17 17h18v4H17zM17 23h18v4H17z"/><path d="M24 25h4v9h-4z"/><path fill="#d0cfce" d="M12.5 12h27v48h-27zM39.5 25h19v35h-19z"/><path fill="#92d3f5" stroke="#92d3f5" stroke-linecap="round" stroke-linejoin="round" stroke-miterlimit="10" stroke-width="2" d="M17 40h2v5h-2zM25 40h2v5h-2zM33 40h2v5h-2zM44 30h2v5h-2zM52 30h2v5h-2zM44 40h2v5h-2zM52 40h2v5h-2zM44 50h2v5h-2zM52 50h2v5h-2z"/><path fill="#92d3f5" d="M19.5 50h13v10h-13z"/><path fill="#d22f27" d="M17 17h18v4H17zM17 23h18v4H17z"/><path fill="#d22f27" d="M24 25h4v9h-4z"/><g fill="none" stroke="#000" stroke-linecap="round" stroke-linejoin="round" stroke-miterlimit="10" stroke-width="2"><path d="M12.5 12h27v48h-27zM39.5 25h19v35h-19z"/><path d="M19.5 50h13v10h-13zM26 60V50M54 35h-2v-5M54 45h-2v-5M54 55h-2v-5M46 35h-2v-5M27 45h-2v-5M35 45h-2v-5M19 45h-2v-5M46 45h-2v-5M46 55h-2v-5"/></g></svg>