<svg xmlns="http://www.w3.org/2000/svg" viewBox="0 0 72 72"><g fill="none" stroke="#000" stroke-linecap="round" stroke-linejoin="round" stroke-width="2"><path d="m20.071 27.98 4.47-9.914 4.469 9.914M21.195 25.531h6.564M34.556 18.066v9.914M31.183 18.066h6.745M42.575 28.002v-9.958l4.234 8.893 4.469-8.893v9.958"/></g><path fill="#3f3f3f" d="M16 13.438h40V58.48H16z"/><g fill="none" stroke="#fff" stroke-linecap="round" stroke-linejoin="round" stroke-width="2"><path d="m20.071 27.98 4.47-9.914 4.469 9.914M21.195 25.531h6.564"/></g><path fill="none" stroke="#fff" stroke-linecap="round" stroke-linejoin="round" stroke-width="2" d="M34.556 18.066v9.914M31.183 18.066h6.745M42.575 28.002v-9.958l4.234 8.893 4.469-8.893v9.958"/><path fill="#d0cfce" d="M19.426 33.638h15.126v13.887H19.426z"/><path fill="#b1cc33" d="M19.426 51.147h32.498v3.542H19.426z"/><path fill="#d0cfce" d="M43.237 39.771h-5.133a1 1 0 0 1-1-1v-5.133a1 1 0 0 1 1-1h5.133a1 1 0 0 1 1 1v5.133a1 1 0 0 1-1 1M51.924 39.771H46.79a1 1 0 0 1-1-1v-5.133a1 1 0 0 1 1-1h5.133a1 1 0 0 1 1 1v5.133a1 1 0 0 1-1 1M43.237 48.529h-5.133a1 1 0 0 1-1-1v-5.133a1 1 0 0 1 1-1h5.133a1 1 0 0 1 1 1v5.133a1 1 0 0 1-1 1M51.924 48.529H46.79a1 1 0 0 1-1-1v-5.133a1 1 0 0 1 1-1h5.133a1 1 0 0 1 1 1v5.133a1 1 0 0 1-1 1"/><g fill="none" stroke="#000" stroke-linecap="round" stroke-linejoin="round"><path stroke-width="2.122" d="M16 13.438h40V58.48H16z"/><path stroke-width="2" d="M19.426 33.638h15.126v13.887H19.426zM19.426 53.723v-2.576h32.497v2.576M38.104 38.771v-5.133h5.133M46.79 38.771v-5.133h5.133M38.104 47.529v-5.133h5.133M46.79 47.529v-5.133h5.133"/></g></svg>