<svg xmlns="http://www.w3.org/2000/svg" viewBox="0 0 72 72"><path fill="#ffa7c0" d="M22.5 10h27v52h-27z"/><path fill="#92d3f5" d="M27 52h10v10H27z"/><path fill="none" stroke="#92d3f5" stroke-linecap="round" stroke-linejoin="round" stroke-miterlimit="10" stroke-width="2" d="M35 42h2v5h-2zM43 42h2v5h-2zM43 53h2v5h-2zM27 42h2v5h-2zM35 31h2v5h-2zM43 31h2v5h-2zM27 31h2v5h-2z"/><path fill="#ea5a47" d="m36 25.825-4.87-6.244-.156-.232A2.863 2.863 0 1 1 36 16.621a2.863 2.863 0 1 1 4.888 2.936z"/><g fill="none" stroke="#000" stroke-linecap="round" stroke-linejoin="round" stroke-width="2"><path stroke-miterlimit="10" d="M22.5 10h27v52h-27z"/><path stroke-miterlimit="10" d="M27 52h10v10H27zM32 62V52"/><path d="m36 25.825-4.87-6.244-.156-.232A2.863 2.863 0 1 1 36 16.621a2.863 2.863 0 1 1 4.888 2.936z"/><path stroke-miterlimit="10" d="M37 36h-2v-5M29 36h-2v-5M45 36h-2v-5M37 47h-2v-5M29 47h-2v-5M45 47h-2v-5M45 58h-2v-5"/></g></svg>