<svg xmlns="http://www.w3.org/2000/svg" viewBox="0 0 72 72"><path fill="#fff" d="M5 17h62v38H5z"/><path fill="#d22f27" d="M5 17h31v19H5zM36 36h31v19H36z"/><g fill="none" stroke-linecap="round"><path stroke="#8967aa" stroke-width="3" d="M21.42 40.598c-.988 2.29-1.551 3.658.265 6.334"/><path stroke="#8967aa" stroke-width="2" d="M21.68 46.928c-.526 1.376.227 1.711 1.5 2.744.365.297.87 1.73.87 1.73M18.27 50.668c-.527-1.376.227-1.71 1.5-2.744.365-.296.87-1.73.87-1.73"/><path stroke="#8967aa" stroke-linejoin="round" stroke-width="2" d="m17.42 46.768 2.712-2.184-3.212-3.438"/><path stroke="#fcea2b" d="M21.14 39.098c1.044.057 1.642.577 1.862 1.488"/><path stroke="#8967aa" stroke-linejoin="round" d="M22.61 47.158c2.54-.128 2.137-2.487 1.359-4.712"/></g><g fill="none" stroke-linecap="round"><path stroke="#8967aa" stroke-width="3" d="M52.11 22.3c-.988 2.289-1.551 3.658.265 6.334"/><path stroke="#8967aa" stroke-width="2" d="M52.37 28.63c-.526 1.376.227 1.711 1.5 2.744.365.296.87 1.73.87 1.73M48.96 32.37c-.527-1.376.227-1.711 1.5-2.744.365-.296.87-1.73.87-1.73"/><path stroke="#8967aa" stroke-linejoin="round" stroke-width="2" d="m48.11 28.47 2.712-2.184-3.212-3.438"/><path stroke="#fcea2b" d="M51.83 20.8c1.044.057 1.642.577 1.862 1.488"/><path stroke="#8967aa" stroke-linejoin="round" d="M53.3 28.86c2.54-.128 2.137-2.487 1.359-4.712"/></g><path fill="#fcea2b" d="m17 33.996-1.538-1.009v-1.582l.733-.597.016-4.917-.274-.45v-1.23l.854-.516v-3.04h1.622l.065 2.69.776.005-.089-2.57-.29-.25-.024-1.05.483-.46 2.367-.016.467.42v1.13l-.265.242v2.55h.62v-2.6h1.763v2.959l.845.49-.016 1.226-.287.455-.003 4.874.765.654.008 1.574-1.554 1.009z"/><path fill="#1e50a0" d="m19.8 33.976 1.441.006V31.5c-.182-.327-1.154-.527-1.429.024zM20.2 22.736l.643.001-.002-1.654c-.182-.328-.375-.552-.65 0zM21.7 28.396l.643.001-.002-1.655c-.182-.327-.375-.55-.65 0zM18.6 28.406l.643.002-.002-1.655c-.182-.328-.375-.552-.65 0z"/><path fill="#fcea2b" d="m48 53-1.538-1.009v-1.582l.733-.597.016-4.917-.274-.45v-1.23l.854-.516v-3.04h1.622l.065 2.69.776.004-.089-2.569-.29-.25-.024-1.05.483-.46 2.367-.016.467.42v1.13l-.265.242v2.55h.62v-2.6h1.763v2.959l.845.49-.016 1.226-.287.455-.003 4.874.765.654.008 1.574-1.554 1.009z"/><path fill="#1e50a0" d="m50.8 52.98 1.441.006v-2.482c-.182-.327-1.154-.528-1.429.024zM51.2 41.74l.643.001-.002-1.655c-.182-.327-.375-.55-.65 0zM52.7 47.4l.643.001-.002-1.655c-.182-.327-.375-.55-.65 0zM49.6 47.41l.643.001-.002-1.655c-.182-.327-.375-.55-.65 0z"/><path fill="none" stroke="#000" stroke-linecap="round" stroke-linejoin="round" stroke-width="2" d="M5 17h62v38H5z"/></svg>