<svg xmlns="http://www.w3.org/2000/svg" viewBox="0 0 72 72"><path fill="#fff" d="M5 17h62v38H5z"/><path fill="#d22f27" d="M5 29h62v7H5zM5 41h62v7H5zM24 18.5l.75 2.75h2.75l-2.125 1.5.75 2.75L24 24l-2.125 1.5.75-2.75-2.125-1.5h2.75ZM36 18.5l.75 2.75h2.75l-2.125 1.5.75 2.75L36 24l-2.125 1.5.75-2.75-2.125-1.5h2.75ZM48 18.5l.75 2.75h2.75l-2.125 1.5.75 2.75L48 24l-2.125 1.5.75-2.75-2.125-1.5h2.75Z"/><path fill="none" stroke="#000" stroke-linecap="round" stroke-linejoin="round" stroke-width="2" d="M5 17h62v38H5z"/></svg>