<svg xmlns="http://www.w3.org/2000/svg" viewBox="0 0 72 72"><path fill="#d22f27" d="M5 17h62v38H5z"/><g stroke-linecap="round"><path stroke="#000" stroke-linejoin="round" stroke-width="4" d="M31.595 34.254h8.784c0 10.31-2.035 10.34-4.416 10.34-2.431 0-4.368.094-4.368-10.34"/><path fill="#d22f27" stroke="#d22f27" stroke-linejoin="round" stroke-width="2" d="M31.595 34.254h8.784c0 10.31-2.035 10.34-4.416 10.34-2.431 0-4.368.094-4.368-10.34"/><path fill="none" stroke="#ea5a47" stroke-linejoin="round" stroke-width="3" d="M31.485 29.804c3.306-.871 5.541-.936 8.997-.032"/><path fill="none" stroke="#f1b31c" stroke-linejoin="round" d="M30.925 31.224c3.306-.871 6.684-.904 10.14 0"/><path fill="none" stroke="#f1b31c" stroke-width="2" d="m35.965 26.404.03 3.714M29.535 27.814l1.396 2.91M42.465 27.814l-1.396 2.91"/><path fill="none" stroke="#f1b31c" stroke-linejoin="round" d="M32.28 39.42h7.428"/></g><path fill="none" stroke="#f1b31c" stroke-linecap="round" stroke-linejoin="round" d="M31.6 34.25h8.784M35.99 34.25l-.024 10.34-3.486-2.012 3.486 2.012M35.96 44.59l3.486-2.012z"/><path fill="none" stroke="#f1b31c" stroke-linecap="round" stroke-linejoin="round" d="m31.6 34.25.882 8.328 3.498-3.158 3.474 3.158.93-8.328-4.403 5.17z"/><circle cx="35.99" cy="39.42" r=".514" fill="#5c9e31" stroke="#5c9e31" stroke-linecap="round" stroke-linejoin="round"/><path fill="none" stroke="#000" stroke-linecap="round" stroke-linejoin="round" stroke-width="2" d="M5 17h62v38H5z"/></svg>