<svg xmlns="http://www.w3.org/2000/svg" viewBox="0 0 72 72"><path fill="#f1b31c" d="M5 17h62v38H5z"/><path fill="#d22f27" d="M5 22h62v4H5zM5 30h62v4H5zM5 38h62v4H5zM5 46h62v4H5z"/><g stroke="#000" stroke-width="4.386"><path fill="#fcea2b" stroke-width=".250002" d="m17.688 38.009-.007-6.396h5.68l.013 6.407"/><path fill="#1e50a0" stroke-width=".250002" d="m23.348 38.009-.007-6.396h5.645L29 38.02"/><path fill="#fcea2b" stroke-width=".250002" d="m17.683 37.992 11.314.025s.025 2.404-.047 3.237c-.007.967-1.192 5.312-5.728 5.311-4.612.026-5.534-3.912-5.54-5.54-.006-.509 0-3.034 0-3.034z"/><path fill="#fff" stroke-width=".250002" d="M23.343 46.559c-1.057.031-2.025-.134-2.654-.478-.521-.285-1.008-.533-1.439-1.019a6.5 6.5 0 0 1-.885-1.243 4 4 0 0 1-.196-.436c-.178-.484-.458-1.268-.476-2.115a96 96 0 0 1-.005-3.275c.993 0 5.655.009 5.655.009"/></g><path fill="#d22f27" d="m20.168 38.003-.007 2.934-2.47-.003c.008.254-.002.435.031.713l2.44-.004-.004 4.135c.235.142.464.264.73.393v-4.528l2.446-.004v-.705l-2.446.003-.004-2.934z"/><g fill="#d22f27"><path d="M27.726 38.02h.622v5.283c-.075.19-.443.828-.622 1.032zM26.478 38.02h.622v7.04c-.116.113-.41.382-.62.52zM25.235 38.014h.622v7.94c-.167.086-.412.201-.62.27zM23.992 38.014l.621.004.002 8.39c-.181.033-.407.091-.623.106z"/></g><g fill="#fff" stroke="#fff"><path stroke-width=".75" d="m23.77 33.47 1.877-.01M24.68 32.45v2.467"/><path stroke-width=".25" d="m24.68 35.8-.003-.88"/></g><path fill="#d22f27" stroke="#d22f27" stroke-width=".25" d="M19.92 32.41h1.121M20.48 31.97l-.007 1.703"/><ellipse cx="20.41" cy="33.97" fill="#5c9e31" rx="2.055" ry=".88"/><path fill="none" stroke="#6a462f" stroke-width=".5" d="m20.4 37.42.004-2.621"/><path fill="none" stroke="#6a462f" stroke-width=".25" d="M19.09 37.46c.78-.415 2.396-.662 2.793.043"/><path fill="none" stroke="#6a462f" stroke-width=".25" d="M19.72 37.56c.542-.69 1.051-.581 1.541.005"/><path fill="none" stroke="#6a462f" stroke-width=".25" d="M20.08 37.61c.203-.628.434-.806.734.076M19.6 37.29s.686-.067.782-1.422M21.17 37.29s-.686-.067-.782-1.422"/><g fill="none" stroke="#000" stroke-width="4.386"><path stroke-width=".250002" d="m17.688 38.009-.007-6.396h5.68l.013 6.407"/><path stroke-width=".250002" d="m23.348 38.009-.007-6.396h5.645L29 38.02"/><path stroke-width=".250002" d="m17.683 37.992 11.314.025s.025 2.404-.047 3.237c-.007.967-1.192 5.312-5.728 5.311-4.612.026-5.534-3.912-5.54-5.54-.006-.509 0-3.034 0-3.034zM23.348 37.997l-.002 8.567"/><path stroke-width=".250002" d="M23.343 46.559c-1.057.031-2.025-.134-2.654-.478-.521-.285-1.008-.533-1.439-1.019a6.5 6.5 0 0 1-.885-1.243 4 4 0 0 1-.196-.436c-.178-.484-.458-1.268-.476-2.115a96 96 0 0 1-.005-3.275c.993 0 5.655.009 5.655.009"/></g><g fill="#fcea2b"><ellipse cx="21.8" cy="27.86" rx=".741" ry="1.072"/><ellipse cx="18.76" cy="28.05" rx=".741" ry="1.072"/><ellipse cx="24.88" cy="27.89" rx=".741" ry="1.072"/><ellipse cx="27.95" cy="28.02" rx=".741" ry="1.072"/><path stroke="#fcea2b" stroke-linecap="round" stroke-width=".952" d="M17.36 28.89v-2.411"/><path stroke="#fcea2b" stroke-linecap="round" stroke-width=".993" d="M20.29 28.53v-2.501"/><path stroke="#fcea2b" stroke-linecap="round" stroke-width=".991" d="M23.33 28.53v-2.611"/><path stroke="#fcea2b" stroke-linecap="round" stroke-width=".979" d="M26.43 28.63v-2.561"/><path stroke="#fcea2b" stroke-linecap="round" stroke-width=".963" d="M29.31 28.83v-2.587"/><path stroke="#fcea2b" stroke-linecap="round" d="M17.33 30.75s5.348-.99 12.04.006"/></g><path fill="none" stroke="#000" stroke-linecap="round" stroke-linejoin="round" stroke-width="2" d="M5 17h62v38H5z"/></svg>