<svg xmlns="http://www.w3.org/2000/svg" viewBox="0 0 72 72"><g stroke="#000" stroke-linecap="round" stroke-linejoin="round" stroke-width="1.03"><path stroke-width=".853973" d="m46.318 38.05 1.023 2.944 3.116.063-2.484 1.883.903 2.983-2.558-1.78-2.557 1.78.903-2.984-2.484-1.884 3.115-.063zM35.995 38.04l1.023 2.944 3.116.063-2.484 1.883.903 2.983-2.558-1.78-2.557 1.78.903-2.984-2.484-1.884 3.115-.063zM25.672 38.04l1.023 2.944 3.116.063-2.484 1.883.903 2.983-2.558-1.78-2.557 1.78.903-2.984-2.484-1.884 3.115-.063zM51.488 27.025l1.023 2.945 3.116.063-2.484 1.883.903 2.983-2.558-1.78-2.557 1.78.903-2.984-2.484-1.884 3.115-.063zM41.158 27.022l1.023 2.945 3.116.063-2.484 1.883.903 2.983-2.558-1.78-2.557 1.78.903-2.984-2.484-1.884 3.115-.063zM30.838 27.02l1.023 2.944 3.117.063-2.484 1.883.903 2.983-2.558-1.78-2.558 1.78.903-2.984-2.484-1.884 3.116-.063zM20.516 27.016l1.023 2.945 3.116.063-2.484 1.883.903 2.983-2.558-1.78-2.557 1.78.903-2.984-2.484-1.884 3.115-.063z"/></g><g stroke-linecap="round" stroke-linejoin="round"><path fill="#d22f27" stroke="#000" stroke-width="2" d="M5 17h62v38H5z"/><path fill="#fff" stroke="#fff" stroke-width=".853973" d="m46.318 38.05 1.023 2.944 3.116.063-2.484 1.883.903 2.983-2.558-1.78-2.557 1.78.903-2.984-2.484-1.884 3.115-.063zM35.995 38.04l1.023 2.944 3.116.063-2.484 1.883.903 2.983-2.558-1.78-2.557 1.78.903-2.984-2.484-1.884 3.115-.063zM25.672 38.04l1.023 2.944 3.116.063-2.484 1.883.903 2.983-2.558-1.78-2.557 1.78.903-2.984-2.484-1.884 3.115-.063zM51.488 27.025l1.023 2.945 3.116.063-2.484 1.883.903 2.983-2.558-1.78-2.557 1.78.903-2.984-2.484-1.884 3.115-.063zM41.158 27.022l1.023 2.945 3.116.063-2.484 1.883.903 2.983-2.558-1.78-2.557 1.78.903-2.984-2.484-1.884 3.115-.063zM30.838 27.02l1.023 2.944 3.117.063-2.484 1.883.903 2.983-2.558-1.78-2.558 1.78.903-2.984-2.484-1.884 3.116-.063zM20.516 27.016l1.023 2.945 3.116.063-2.484 1.883.903 2.983-2.558-1.78-2.557 1.78.903-2.984-2.484-1.884 3.115-.063z"/></g><path fill="none" stroke="#000" stroke-linecap="round" stroke-linejoin="round" stroke-width="2" d="M5 17h62v38H5z"/></svg>