<svg xmlns="http://www.w3.org/2000/svg" viewBox="0 0 72 72"><path fill="#9b9b9a" d="M30 27h12v14H30z"/><path fill="#d0cfce" d="M52 55H20V39h7v2h5v-2h8v2h5v-2h7v2-2zM10 32h10v23H10zM52 32h10v23H52zM8 26h14v6H8zM29.5 22h13v6h-13zM50 26h14v6H50z"/><path fill="#ea5a47" d="m36 12-4.5 10h9zM15 16 9.5 26h11zM57 16l-5.5 10h11z"/><path fill="#a57939" d="M40.5 55h-9v-6a3 3 0 0 1 3-3h3a3 3 0 0 1 3 3z"/><g fill="none" stroke="#000" stroke-linecap="round" stroke-linejoin="round" stroke-miterlimit="10" stroke-width="2"><path d="M31 35v-7h10v7"/><path d="M37 35h-2v-3a1 1 0 0 1 1-1h0M52 55H20V39h7v2h5v-2h8v2h5v-2h7v2-2zM10 32h10v23H10zM52 32h10v23H52zM8 26h14v6H8zM29.5 22h13v6h-13zM50 26h14v6H50zM36 12l-4.5 10h9zM15 16 9.5 26h11zM57 16l-5.5 10h11z"/><path d="M40.5 55h-9v-6a3 3 0 0 1 3-3h3a3 3 0 0 1 3 3zM36 46v9M16 40h-2v-3a1 1 0 0 1 1-1h0M58 40h-2v-3a1 1 0 0 1 1-1h0"/></g></svg>