<svg xmlns="http://www.w3.org/2000/svg" viewBox="0 0 72 72"><g fill="none" stroke="#000" stroke-linecap="round"><g stroke-width=".75"><path d="m55.19 44.14.424 1.381h3.504l.336-1.381M57.29 44.27v1.229M49.921 46.543l.425 1.381h3.504l.336-1.381M52.021 46.673v1.229M55.136 46.543l.424 1.381h3.504l.336-1.381M57.236 46.673v1.229M55.205 51.291l.424 1.381h3.504l.336-1.381M57.305 51.421v1.229M52.298 48.993l.425 1.381h3.504l.336-1.381M54.398 49.123v1.229M60.35 46.543l.425 1.381h3.504l.336-1.381M62.45 46.673v1.229M58.012 48.993l.425 1.381h3.504l.336-1.381M60.112 49.123v1.229"/></g><path d="M8.613 26.61s1.511-7.361 3.138 0"/><path stroke-width=".999" d="m10.18 19.58.005 2.448"/><path stroke-width=".924" d="M8.909 20.01v2.077"/><path stroke-width=".928" d="M11.46 20v2.099"/><path d="M8.544 22.09h3.286M14.122 26.496s1.511-7.361 3.138 0"/><path stroke-width=".999" d="m15.689 19.466.005 2.447"/><path stroke-width=".924" d="M14.418 19.896v2.077"/><path stroke-width=".928" d="M16.969 19.886v2.099"/><path d="M14.053 21.976h3.286M14.122 26.496s1.511-7.361 3.138 0"/><path stroke-width=".999" d="m15.689 19.466.005 2.447"/><path stroke-width=".924" d="M14.418 19.896v2.077"/><path stroke-width=".928" d="M16.969 19.886v2.099"/><path d="M14.053 21.976h3.286M8.635 34.643s1.51-7.361 3.137 0"/><path stroke-width=".999" d="m10.202 27.613.004 2.448"/><path stroke-width=".924" d="M8.93 28.043v2.077"/><path stroke-width=".928" d="M11.482 28.033v2.099"/><path d="M8.566 30.123h3.285M14.122 34.529s1.511-7.361 3.138 0"/><path stroke-width=".999" d="m15.689 27.499.005 2.448"/><path stroke-width=".924" d="M14.418 27.929v2.077"/><path stroke-width=".928" d="M16.969 27.919v2.099"/><path d="M14.053 30.009h3.286"/></g><path fill="#781e32" d="M5 17h62v38H5z"/><g fill="none" stroke="#fcea2b" stroke-linecap="round" stroke-width=".75"><path d="m55.19 44.14.424 1.381h3.504l.336-1.381M57.29 44.27v1.229M49.921 46.543l.425 1.381h3.504l.336-1.381M52.021 46.673v1.229M55.136 46.543l.424 1.381h3.504l.336-1.381M57.236 46.673v1.229M55.205 51.291l.424 1.381h3.504l.336-1.381M57.305 51.421v1.229M52.298 48.993l.425 1.381h3.504l.336-1.381M54.398 49.123v1.229M60.35 46.543l.425 1.381h3.504l.336-1.381M62.45 46.673v1.229M58.012 48.993l.425 1.381h3.504l.336-1.381M60.112 49.123v1.229"/></g><g fill="none" stroke="#fcea2b" stroke-linecap="round"><path d="M8.613 26.61s1.511-7.361 3.138 0"/><path stroke-width=".999" d="m10.18 19.58.005 2.448"/><path stroke-width=".924" d="M8.909 20.01v2.077"/><path stroke-width=".928" d="M11.46 20v2.099"/><path d="M8.544 22.09h3.286M14.122 26.496s1.511-7.361 3.138 0"/><path stroke-width=".999" d="m15.689 19.466.005 2.447"/><path stroke-width=".924" d="M14.418 19.896v2.077"/><path stroke-width=".928" d="M16.969 19.886v2.099"/><path d="M14.053 21.976h3.286M14.122 26.496s1.511-7.361 3.138 0"/><path stroke-width=".999" d="m15.689 19.466.005 2.447"/><path stroke-width=".924" d="M14.418 19.896v2.077"/><path stroke-width=".928" d="M16.969 19.886v2.099"/><path d="M14.053 21.976h3.286M8.635 34.643s1.51-7.361 3.137 0"/><path stroke-width=".999" d="m10.202 27.613.004 2.448"/><path stroke-width=".924" d="M8.93 28.043v2.077"/><path stroke-width=".928" d="M11.482 28.033v2.099"/><path d="M8.566 30.123h3.285M14.122 34.529s1.511-7.361 3.138 0"/><path stroke-width=".999" d="m15.689 27.499.005 2.448"/><path stroke-width=".924" d="M14.418 27.929v2.077"/><path stroke-width=".928" d="M16.969 27.919v2.099"/><path d="M14.053 30.009h3.286"/></g><path fill="none" stroke="#000" stroke-linecap="round" stroke-linejoin="round" stroke-width="2" d="M5 17h62v38H5z"/></svg>