<svg xmlns="http://www.w3.org/2000/svg" viewBox="0 0 72 72"><path fill="#5c9e31" d="M5 17h62v38H5z"/><path fill="#fff" d="M5 30h62v12H5z"/><path fill="#d0cfce" d="m35.192 40.073 1.767-.401.846 2.662-2.388.153z"/><path fill="none" stroke="#b1cc33" stroke-width="1.25" d="M31.441 30.585c.1-6.145 8.917-5.507 9.024 0"/><path fill="#d0cfce" stroke="#d0cfce" stroke-width="1.25" d="M31.441 30.585v10.704M40.454 30.585V41.35"/><path fill="none" stroke="#f1b31c" stroke-linecap="round" stroke-width="1.25" d="M30.204 31.16h2.403M39.217 31.16l2.675-.042"/><path fill="#5c9e31" d="M29.954 41.56h11.459v4.38H29.954z"/><path fill="none" stroke="#fff" stroke-width="1.25" d="M29.954 43.748h11.459"/><path fill="#d0cfce" stroke="#d0cfce" stroke-width=".625" d="m36.692 33.923.945 1.095"/><path fill="#d0cfce" stroke="#d0cfce" stroke-linecap="round" stroke-width=".9375" d="M34.854 32.848 33.27 37.23"/><path fill="#f1b31c" d="m39.779 37.06-2.485 3.1-2.109-.085 2.268-5.247c1.315-1.264 2.28-1.312 2.715.471z"/><path fill="none" stroke="#f1b31c" stroke-linecap="round" stroke-width=".9375" d="m40.842 36.885-2.58 1.878.85 1.525M36.479 39.46l.85 1.525"/><path fill="#d0cfce" d="M36.179 32.123c.574.028.965.357.8 1.593l.323 4.432-2.077 1.52-.389-2.692c.015-.272-.363-.567-.298-1.03.067-.484.5-.955.533-1.013.185-.338-.106-.899-.23-1.129.008-.663-1.47-.733.195-2.059.099-1.96 2.495-2.375 1.143.378z"/><path fill="#f1b31c" d="M34.342 37.498c-3.716-2.01-5.017 4.212-3.114 3.77l4.731.3c.416-1.94-.27-3.342-1.618-4.07z"/><path fill="#f4aa41" d="M34.967 35.073c1.378.192 1.963.175 2.133.047l.114 1.498-2.374.352c-.323-.64-.516-1.276.127-1.898z"/><path fill="#f1b31c" d="m36.579 30.923-1.541.822c-.356-1.067 1.72-2.541 1.541-.823"/><path fill="none" stroke="#f1b31c" stroke-linecap="round" stroke-linejoin="round" stroke-width=".9375" d="M29.954 41.56h11.459v4.38H29.954z"/><path fill="none" stroke="#000" stroke-linecap="round" stroke-linejoin="round" stroke-width="2" d="M5 17h62v38H5z"/></svg>