<svg xmlns="http://www.w3.org/2000/svg" viewBox="0 0 72 72"><path fill="#61b2e4" d="M5 17h62v38H5z"/><path fill="none" stroke="#d22f27" stroke-linecap="round" stroke-linejoin="round" stroke-width="2" d="M31.62 34.32h8.784c0 10.31-2.035 10.34-4.416 10.34-2.431 0-4.368.094-4.368-10.34"/><path fill="none" stroke="#fff" stroke-dasharray="2, 4" stroke-linecap="round" stroke-linejoin="round" stroke-width="2" d="M31.62 34.32h8.784c0 10.31-2.035 10.34-4.416 10.34-2.431 0-4.368.094-4.368-10.34"/><path fill="none" stroke="#f1b31c" stroke-linecap="round" stroke-linejoin="round" stroke-width="3" d="M30.94 31.3c3.306-.871 6.684-.904 10.14 0"/><path fill="none" stroke="#f1b31c" stroke-linecap="round" stroke-width="2" d="M35.98 27.48v3.032M29.55 28.89l1.396 2.911M42.48 28.89l-1.396 2.911"/><path fill="none" stroke="#5c9e31" stroke-linecap="round" stroke-linejoin="round" stroke-width="2" d="M30.94 46.78c3.306.871 6.684.904 10.14 0"/><path fill="none" stroke="#fff" stroke-linecap="round" stroke-width="2" d="m29.03 34.44.008 9.079M43.11 34.44l-.008 9.079"/><path fill="#f4aa41" d="M34.26 37.68h3.53c.028 2.18-3.571 2.013-3.53 0M34.25 41.51h3.53c.028 2.18-3.571 2.013-3.53 0"/><path fill="none" stroke="#186648" stroke-linecap="round" d="M33.6 36.67c.409.252.629.513 1.93.513M38.46 36.67c-.409.252-.629.513-1.93.513M33.58 40.49c.409.252.629.513 1.93.513M38.44 40.49c-.409.252-.629.513-1.93.513"/><path fill="none" stroke="#fff" stroke-linecap="round" stroke-linejoin="round" stroke-width="1.5" d="M30.99 27.05c3.314-3.702 6.655-3.638 10.02 0M30.99 27.05l-2.686-.57M41.01 27.05l2.686-.57"/><path fill="none" stroke="#000" stroke-linecap="round" stroke-linejoin="round" stroke-width="2" d="M5 17h62v38H5z"/></svg>