<svg xmlns="http://www.w3.org/2000/svg" viewBox="0 0 72 72"><path fill="#9b9b9a" d="m30.507 19.701-.575-.586a2.97 2.97 0 0 0-2.21-.89l-1.897.058a2.97 2.97 0 0 0-2.192 1.069l-.596.717a5.34 5.34 0 0 0-1.224 3.745 1.473 1.473 0 0 0 1.595 1.374l5.234-.45a2.969 2.969 0 0 0 1.865-5.036ZM24.264 41.707l-.198.565a2.1 2.1 0 0 1-.287.544l-1.4 1.917c-.58.795-.92 1.74-.978 2.722l-.04.668c-.03.512.127 1.017.442 1.42.35.447.863.749 1.427.802.965.091 1.879-.062 2.733-.507l2.652-1.862c.23-.16.424-.366.573-.604l2.335-3.72c.158-.25.26-.532.302-.825l.055-.394a2.104 2.104 0 0 0-2.297-2.386l-2.617.268a2 2 0 0 1-.365.005l-.202-.014a2.104 2.104 0 0 0-2.135 1.401"/><path fill="#d0cfce" d="m33.52 19.265-1.369.062a10.54 10.54 0 0 0-4.352 2.06l-.733.584a2 2 0 0 0-.511.607l-.688 1.253a2.02 2.02 0 0 1-1.553 1.035l-1.463.158a20 20 0 0 0-3.151.6l-3.622.996a3.1 3.1 0 0 0-.955.448 17.3 17.3 0 0 0-4.4 4.447l-.4.587a10.3 10.3 0 0 0-1.416 3.047l-.071.256a2.02 2.02 0 0 0 .362 1.795c.706.89 1.7 1.506 2.811 1.74l3.743.789c.5.105 1.01.156 1.52.153l7.273-.053c.414-.003.819.121 1.16.356l1.382.952.347.265c.762.582 1.01 1.62.592 2.483l-.914 1.892a2 2 0 0 0-.136.369l-.443 1.695a2.019 2.019 0 0 0 2.854 2.317l3.845-2.474c1.573-.886 3.518-.747 5.31-.52l1.9.241q.145.018.286.057l.282.079a17.43 17.43 0 0 0 11.26-.665q.15-.062.289-.146a7.16 7.16 0 0 0 2.34-2.322l1.479-2.372q.095-.152.162-.32l.564-1.416q.089-.22.123-.455l.343-2.351a12.47 12.47 0 0 0-1.38-7.754 17 17 0 0 0-1.757-2.624l-1.653-2.032a6.97 6.97 0 0 0-4.117-2.452l-.495-.093a19.9 19.9 0 0 0-7.006-.061 2.02 2.02 0 0 1-1.657-.461 11.3 11.3 0 0 0-3.754-2.141l-2.232-.61"/><g fill="none" stroke="#000" stroke-linecap="round" stroke-linejoin="round" stroke-width="2"><path d="M53.593 45.388c-.889.843-1.964 1.543-3.322 2.108-2.21.92-4.653 1.136-7.026.81l-8.931-1.226M40.077 23.492c2-1 5-2 10 0 3.828 1.531 10 8 7.02 15.95a32 32 0 0 1-.66 1.633M36.67 41.618c-.515 1.874-4.37 6.554-5.815 8.321-1.607 1.967-6.7.553-4.858-3.11.738-1.468 1.914-2.696 2.152-4.322q.076-.528.097-1.018"/><path d="M22.382 49.219c-.69-.73-.826-1.977.399-3.678.617-.858 2.155-2.664 2.277-4.74 0 0-2.908-.23-4.216-.234-13.839-.042-12.042-5.166-11.858-5.69.299-.854 4.015-6.565 6.905-8.01 4.37-2.185 9.686-1.636 9.686-1.636 1.502-5.74 10.524-9.671 14.201-1.092 3.277 7.647-4.7 10.353-7.7 10.353M56.437 41.074c2 0 3.64 3.418 2.64 6.418s-1.822 3.957-6.192 6.142c-8.74 4.37-19.663 2.185-29.644.36-6.311-1.154-9.236.64-10.164 2.498-1.093 2.185 1.68 5.86 7.035 4.79"/><path d="M22.65 21.699c.158-.852.464-1.625.843-2.186 2.206-3.269 6.834-1.815 7.642 0"/></g></svg>