<svg xmlns="http://www.w3.org/2000/svg" viewBox="0 0 72 72"><path fill="#b1cc33" stroke="#b1cc33" stroke-linecap="round" stroke-linejoin="round" stroke-miterlimit="10" stroke-width="2" d="m20.725 54.299-7.641.685c-1.551.027-3.103.053-2.823-.696.281-.75 2.395-2.274 3.264-4.053s.495-3.812 1.07-5.351 2.1-2.583 3.626-3.626l4.312-3.488M49.069 46.164l.937 4.084c.117.719.233 1.437-.07 2.237s-1.026 1.683-.771 2.11c.254.429 1.485.402 2.715.375l5.453-.477-2.647-11.622"/><path fill="#5c9e31" stroke="#5c9e31" stroke-linecap="round" stroke-linejoin="round" stroke-miterlimit="10" stroke-width="2" d="m54.352 39.57-24.731-2.754-2.81 7.138 4.654 1.8C35.16 46.85 38.851 47.948 42 48.233c3.15.284 5.756-.243 8.361-.77 2.203-.576 5.44-4.616 5.44-4.616z"/><path fill="#b1cc33" stroke="#b1cc33" stroke-linecap="round" stroke-linejoin="round" stroke-miterlimit="10" stroke-width="2" d="m32.282 35.123-2.985 8.462c-1.017 3.265-2.033 6.529-2.34 8.55s.093 2.796-2.234 3.196-7.384.428-8.468-.308 1.805-2.234 2.956-4.32c1.15-2.087.562-4.76 1.138-6.42s2.313-2.3 2.487-3.222-1.216-2.129-2.97-2.97-3.867-1.32-4.978-3.193-1.217-5.142-2.7-7.083-4.348-2.557-5.592-4.323-.87-4.682 1.237-5.973c2.108-1.292 5.947-.957 7.632.22s1.217 3.198 1.277 5.131.65 3.78 1.238 5.625c.524 1.957 2.132 2.01 3.197 2.044 2.39-.15 3.23-.3 5.617-.452M57.33 37.49l-4.809 2.565s-.353 5.694.456 7.142c.554 1.214 1.124 2.463 1.244 3.867.12 1.405-.201 2.983.816 3.785 1.017.803 3.373.83 4.777.588s1.858-.748 1.489-2.422c-.37-1.673-1.583-4.56-2.787-7.423l2.968-1.203 4.817-.963-3.291-1.848z"/><path fill="#5c9e31" d="M58.678 42.528c2.684-2.401 2.612-8.287.992-12.75s-4.789-7.502-9.469-9.215-10.872-2.1-15.866-.833c-4.995 1.267-8.792 4.185-10.727 5.995s-2.007 2.51-1.511 4.74c.496 2.232 1.519 5.851 5.6 8.244s10.617 3.207 16.736 4.172 11.561 2.048 14.245-.353z"/><g fill="none" stroke="#000" stroke-linecap="round" stroke-linejoin="round" stroke-miterlimit="10" stroke-width="2"><path d="M17.98 28.495c-.588-1.845-1.177-3.691-1.237-5.624-.06-1.934.407-3.954-1.278-5.131s-5.524-1.512-7.632-.221-2.482 4.208-1.237 5.973 4.109 2.381 5.592 4.323c1.483 1.941 1.59 5.21 2.7 7.083 1.112 1.873 3.226 2.35 4.979 3.193s3.144 2.047 2.97 2.97c-.175.923-1.912 1.562-2.488 3.222s.013 4.333-1.138 6.42-4.04 3.584-2.956 4.32 6.14.71 8.468.309 1.926-1.177 2.234-3.197 1.324-5.285 2.34-8.55"/><path d="M18.221 41.258c-1.525 1.043-3.05 2.087-3.625 3.626s-.2 3.572-1.07 5.351-2.984 3.304-3.264 4.053 1.271.722 2.822.696M52.977 47.197c.554 1.215 1.124 2.463 1.244 3.867.12 1.405-.2 2.983.817 3.785 1.017.803 3.371.83 4.776.589s1.859-.75 1.49-2.423c-.37-1.674-1.584-4.56-2.788-7.423M51.88 54.97c-1.23.027-2.46.053-2.715-.375s.467-1.31.77-2.11c.304-.8.188-1.518.071-2.237M31.465 45.753c3.694 1.097 7.386 2.194 10.535 2.48 3.15.284 5.756-.243 8.361-.77M58.678 42.528c2.684-2.401 2.612-8.287.992-12.75s-4.789-7.502-9.469-9.215-10.872-2.1-15.866-.833c-4.995 1.267-8.792 4.185-10.727 5.995s-2.007 2.51-1.511 4.74c.496 2.232 1.519 5.851 5.6 8.244s10.617 3.207 16.736 4.172 11.561 2.048 14.245-.353zM63.01 41.579l3.291 1.846-4.816.963"/><path d="m42.114 42.171 1.703-11.749 8.74-.965 4.484-3.69M43.647 30.138l-9.706-5.96M33.884 24.009l-1.249-3.349M33.828 24.349 26.904 37.29M52.898 30.082l4.427 13.054"/></g></svg>