<svg xmlns="http://www.w3.org/2000/svg" viewBox="0 0 72 72"><path fill="#fff" d="M30.921 28.002s3.8-4.523 10.109.405l-.61 11.51 3.918 6.085s4.583 5.503 4.833 6.252 1.75 7.915 1.583 8.248c-.166.333-4.515 5.41-4.515 5.41H26.054l-3.3-4.893.584-11.1 5.583-5.167 2.833-7z"/><path fill="#3f3f3f" d="M39.754 27.752s-4.833 14.833 4.667 21.667c0 0 8.333 7.667.167 17L50.12 65l3.227-2.562a3.9 3.9 0 0 0 1.263-1.783l1.21-3.503a4.8 4.8 0 0 0 .264-1.68c-.024-1.166-.107-3.166-.387-3.977-1.651-4.77-5.777-8.576-5.777-8.576s-2.833-2.833.167-5.5l5.432-6.76q.595-.74 1.092-1.55l4.31-7.024 2.044-7.244.21-8.048-3.088-1.041-5.667 1-5.833 5-4 6.167-2.667 6.333zM32.108 27.752s4.834 14.833-4.666 21.667c0 0-8.334 7.667-.167 17l-4.83-1.438a5.1 5.1 0 0 1-1.783-.948l-2.042-1.675a3.2 3.2 0 0 1-.9-1.181l-1.494-3.366a4.25 4.25 0 0 1-.34-2.184c.135-1.255.364-3.197.557-4.024.551-2.352 5.498-8.684 5.498-8.684s2.834-2.833-.166-5.5l-6.1-7.064-4.734-8.27L8.845 14.9l-.928-8.183 3.858-.965 5.646 1.07 5.854 4.93 4 6.167 2.666 6.333z"/><path fill="none" stroke="#000" stroke-linecap="round" stroke-linejoin="round" stroke-width="2" d="M60.57 9.813S48.07 9.508 43.784 29.671M41.03 50.553l-5.19 3.401-5.276-3.401M31.377 61.02l4.42-2.033 4.623 2.032M35.84 53.954l-.043 5.033"/><ellipse cx="45.121" cy="39.918" rx="1.646" ry="2.812"/><path fill="none" stroke="#000" stroke-linecap="round" stroke-linejoin="round" stroke-width="2" d="M22.333 36.734C5.67 23.727 7.904 6.282 7.904 6.282 23.96.726 31.377 27.995 31.377 27.995s4.413-3.56 9.043 0c0 0 7.418-27.27 23.473-21.713 0 0 2.235 17.446-14.43 30.452"/><path fill="none" stroke="#000" stroke-linecap="round" stroke-linejoin="round" stroke-width="2" d="M11.228 9.813s12.498-.305 16.783 19.858M22.333 43.745s-10.872 8.23-4.776 17.985c0 0 2.846 5.284 13.21 4.98H41.03c10.364.304 13.21-4.98 13.21-4.98 6.096-9.754-4.777-17.985-4.777-17.985"/><ellipse cx="26.879" cy="39.918" rx="1.646" ry="2.812"/></svg>