<svg xmlns="http://www.w3.org/2000/svg" viewBox="0 0 72 72"><path fill="#a57939" d="M19.78 19.293c-1.024-.068-2.06.152-2.927.702a13.2 13.2 0 0 0-3.786 3.644l-1.892 2.741-.952 2.844a4.56 4.56 0 0 0-.093 2.583l.238.425c.309.551.839.943 1.456 1.077l2.014.171a9 9 0 0 0 1.85-.033l5.025-.612s1.46.396 2.041 2.5c.667 2.417-1.541 3.375-1.916 3.5s-6.365.67-6.365.67l-1.846.392c-.504.107-.914.47-1.08.957l-.251.73.05.864c.072 1.242 1.041 1.804 2.285 1.828.997.019 2.224-.169 2.91-.684 1.5-1.125 4.827.44 4.827.44l5.119.735s-1.392 6.7.358 8.95c1.518 1.953-1.792 2.018-2.426 2.396a3 3 0 0 0-.345.24l-1.603 1.288.184 1.717a1.453 1.453 0 0 0 1.311 1.73l2.125-.085 1.377.531 1.41.399 2.482-.031 4.158-1.38 4.077.675c1.968-.079 4.877-1.033 6.237-2.457l.61-.639s1.254-2.108 1.379-2.483c.09-.273 1.455-4.414 2.045-7.17.247-1.152.337-2.324.273-3.5l-.263-4.809-1.564-6.58-1.887-3.406-1.906-2.46a15.8 15.8 0 0 0-6.692-3.025l-3.773-.727s-5.95-2.005-6.45-2.255-1.917-1.649-1.917-1.649l-3.007-4.61z"/><path fill="#a57939" d="m37.504 23.669.067-.437c.268-1.751.75-3.46 1.44-5.092.915-2.17 2.113-5.02 2.164-5.173.084-.25 2.164-3.23 2.164-3.23l3.468-2.016 2.717-.172a10.85 10.85 0 0 1 7.336 2.256l4.318 4.96c.293.336.95.865.95.865.48.71 1.013 1.775 1.074 2.64.647 9.18-13.177 7.681-11.099-.753-2.34 5.812.814 10.266 4.966 13.67a12 12 0 0 1 2.563 2.868l2.474 3.927.223 3.762-2.048 4.985s-3.027 2.983-4.251 4.252c-1.083.416-6.036 2.504-6.036 2.504l.51-7.4.084-6.25-1.333-4.583-1.084-3.667-3.166-3.917-4.334-2.916z"/><path fill="#d0cfce" d="M33.967 23.205c-.546.38-1.963 3.757-.254 4.527s4.727 2.448 4.727 2.448l4.488 5.02 1.763 4.782v7.873l-1.02 4.606s1.533 5.208 5.058 1.875.525 0 .525 0l1.75-9.815-1.75-9.269-1.78-4.75-4.886-4.917z"/><g fill="none" stroke="#000" stroke-linecap="round" stroke-linejoin="round" stroke-width="2"><path d="M20.4 32.493c-3.017 2.23-6.565 1.993-8.831 1.49-1.597-.356-2.615-1.97-2.235-3.56.286-1.2.862-2.866 1.962-5.148 3.118-6.473 8.438-6.488 8.438-6.488.408-1.036 1.866-3.7 3.007-4.195 0 0 7.13 7.371 1.028 11.344M11.679 43.593c-1.805-.749-2.844-6.56 6.742-4.5.58.124 1.599.236 2.172.083 1.795-.477 5.645-.646 5.645-4.583M34.117 35.086c.141.095 4.583 9.875-3.119 10.442s-13.796-2.032-13.796-2.032"/><path d="M30.123 49.402s-1.125 3.97 1.9 6.993l-2.784.81a4.82 4.82 0 0 0-3.011 2.57h0a1.89 1.89 0 0 0 1.049 2.583c1.608.596 4.311.877 8.12-1.11.048.116 9.48 2.873 12.422-3.908 0 0 5.514-9.213 1.734-22.254-2.675-9.231-10.61-11.326-15.016-11.762-1.626-.16-3.175-.69-4.665-1.36-1.852-.834-3.512-1.005-3.512-1.005M38.615 20.592s.11-13.113 10.126-13.87 13.866 9.617 13.866 9.617"/><path d="M55.866 16.593c-2.187-1.25-7.437 1.888-3.562 8.125s13.354 10.569 10.303 18.779c-3.59 9.662-13.116 10.72-13.116 10.72M34.054 27.802s15.437 4.603 9.874 23.728M26.36 45.61s-2.098 4.712.485 9.212c0 0-6.917.75-4.735 5.244"/></g></svg>