<svg xmlns="http://www.w3.org/2000/svg" viewBox="0 0 72 72"><g fill="#3f3f3f"><path d="M11.976 19.277s-.326 2.164-.13 2.492S13.667 24 13.927 24s1.952.197 1.952.197l1.106-2.23-1.301-2.23-2.407-.984zM17.045 11.171l-.127 2.532 1.587 1.975h1.715l.888-1.285-.38-2.761-2.563-1.879zM26.44 8.04l-.593 1.905.064 1.835.96 1.664 1.634.314 1.053-1.658V9.504s-1.724-1.87-2.057-1.87-1.06.405-1.06.405M34.912 11.898l-1.241 2.104s.254 3.134.504 3.384 2.452.97 2.452.97l1.71-1.937-.032-3.33-1.5-1.66zM22.637 21.382c-.083.25-1.83 3.208-1.83 3.208l.333 3.583-1.167 3.333.667 3.333 3.094 1.644 2.72-.992 2.806-2.51 3.897 1.028a2.3 2.3 0 0 0 2.177-.606c.836-.837 1.675-2.101 1.624-2.256-.083-.25-.295-3-.295-3s-2.242-3.157-2.992-2.99c0 0-1.055-4.44-4.222-5.357-3.166-.917-4.45-.085-4.45-.085zM35.776 41.081s-1.865 2.598-1.699 2.848 1.045 3.037 1.045 3.037 2.334.457 2.417.207.914-2.264.914-2.264l-.587-3.005zM44.171 35.586l-1.75 2.916 1.822 3.65 2.845-1.4.47-2.528-.906-2.3zM53.691 38.063c-.083.25-2.325 3.19-2.325 3.19l.917 3.166 1.958-.576 1.503-2.15-.073-2.524zM58.642 46.033l-1.798 2.373-.5 2.222.875 1.074 2.272-.475s1.649-1.994 1.649-2.244-.125-2.2-.125-2.2zM40.357 50.353c-.198.987-1.024 3.056-1.024 3.056s-2.682 1.744-2.849 2.078c-.166.333-.904 2.714-.904 2.714l.87 2.613 2.179 1.508 4.792-1.273 3.35 3.116s2.822 1.283 4.155-.134 1.81-3.82 1.81-3.82l-1.24-3.183.301-4.122s-1.722-4.715-4.39-5.215c-2.666-.5-6.8 1.412-7.05 2.662Z"/></g><g fill="none" stroke="#000" stroke-linecap="round" stroke-linejoin="round" stroke-width="2"><path d="M34.204 25.041a8 8 0 0 0-.134-.662c-1.012-4.017-4.87-6.507-8.62-5.563s-5.968 4.966-4.956 8.982q.085.331.196.647c-1.153 1.179-1.692 2.968-1.237 4.772.674 2.678 3.247 4.338 5.746 3.709 1.684-.424 3.709-3.513 3.915-3.564s3.453 1.708 5.136 1.284c2.5-.63 3.979-3.31 3.304-5.988-.454-1.804-1.776-3.125-3.35-3.617"/><ellipse cx="19.013" cy="12.934" rx="2.688" ry="3.764" transform="rotate(-21.143 19.013 12.934)"/><ellipse cx="14.124" cy="21.548" rx="2.688" ry="3.763" transform="rotate(-34.043 14.124 21.548)"/><ellipse cx="36.131" cy="14.826" rx="3.763" ry="2.688" transform="rotate(-85.71 36.131 14.826)"/><path d="M27.154 6.77c1.372-.202 3.001 1.928 3.208 3.332.303 2.056-.642 4.148-2.111 4.365s-2.905-1.275-3.208-3.332.642-4.148 2.11-4.365M52.016 56.906c.077-.21.15-.423.211-.642 1.109-3.991-1.012-8.065-4.737-9.1s-7.643 1.36-8.752 5.352c-.061.22-.108.44-.15.659-1.586.453-2.939 1.742-3.437 3.534-.739 2.66.675 5.377 3.158 6.067 1.673.464 4.96-1.217 5.166-1.16s2.154 3.194 3.827 3.658c2.483.69 5.095-.907 5.835-3.568.498-1.792.003-3.594-1.121-4.8M42.4 38.532c.31-2.055 1.748-3.543 3.217-3.323s2.409 2.065 2.1 4.12-1.745 3.525-3.216 3.324c-1.48-.203-2.412-2.06-2.1-4.12"/><ellipse cx="36.297" cy="44.183" rx="2.688" ry="3.764" transform="rotate(-4.376 36.296 44.182)"/><ellipse cx="58.75" cy="48.983" rx="3.764" ry="2.688" transform="rotate(-56.043 58.75 48.983)"/><ellipse cx="53.691" cy="41.331" rx="3.763" ry="2.688" transform="rotate(-68.716 53.691 41.331)"/></g></svg>