<svg xmlns="http://www.w3.org/2000/svg" viewBox="0 0 72 72"><g fill="#b399c8"><path d="M39.92 33.62c-.827-.405 6.733 2.881 14.27.5-.046-8.429-6.999-12.9-6.999-12.9s-7.227 3.975-7.273 12.4zM17.54 33.82s6.758 3.627 14.55 0c-.047-8.591-7.133-13.15-7.133-13.15s-7.366 4.561-7.413 13.15zM19.358 43.563l-.07 1.05s4.774 2.18 8.301 4.941c2.526 1.655 6.505 7.76 7.97 9.313 0 0 3.715-6.867 9.083-10.04 1.945-2.4 8.113-4.009 8.113-4.009l-.035-1.185"/></g><g fill="none" stroke="#000" stroke-linecap="round" stroke-linejoin="round" stroke-width="2"><path d="M39.66 33.44s6.605 3.51 14.22 0c-.046-8.313-6.972-12.73-6.972-12.73s-7.2 4.414-7.245 12.73zM18.12 33.44s6.605 3.51 14.22 0c-.045-8.313-6.972-12.73-6.972-12.73s-7.2 4.414-7.245 12.73zM34.63 33.09l2.74.01M25.23 11.77v8.4M46.77 12.01v8.7M35.76 42.86H18.6v2.445s7.12 2.194 11.2 6.873c4.082 4.68 5.957 8.172 5.957 8.172h.064s1.332-3.312 5.414-7.99 12.17-7.055 12.17-7.055V42.86h-17.59"/></g></svg>