<svg xmlns="http://www.w3.org/2000/svg" viewBox="0 0 72 72"><path fill="#ffa7c0" d="M31.54 25.71c1 0 14 1.09 14 0 0-.62.47.18.6-.44.22-1.05 0-2.12 1.08-1.94 1.6 1.12 2.82 4 4.41 5.28 9.95 13.19 7.77 3.3 8.75 4.39.51.53.09-.54.95-.51.11-.17-.26-.69-.33-.84-.41-.87.51-2.72.85-3.59.23-.58.43-3.307.789-5.461.549-1.731.711-2.769 1.211-4.249 0-.06-9.41.54-9.43.48-2 .27-2.86-1.24-4.18-2.78-.68-.79-1.68-1.54-2.38-2.31-1.5-1.64-3.92-1.44-6.1-1.32a.59.59 0 0 0-.5.31L37 18.75c-.12.17-.24.31-.07.55-1.25 2.26-6.88 4.32-5.39 6.41M38.486 60.197c-.16-.67.534-.917-.196-.927h-4a4.3 4.3 0 0 1-1.52-1.47 15 15 0 0 1-1.36-2 .86.86 0 0 0-.86-.47h-3.41a1 1 0 0 1-.73-.15.09.09 0 0 1 0-.1.86.86 0 0 1 .66-.19h7.95a1.14 1.14 0 0 0 1.17-.5 1.05 1.05 0 0 0-.19-1.26 3.24 3.24 0 0 0-3-1.25 2.37 2.37 0 0 1-2-.54 5 5 0 0 0-1.76-1A.31.31 0 0 1 29 50c-.75-4.06-.23-8.15-.37-12.23v-2.94c0-.41.16-.6.64-.6h15.55a.65.65 0 0 1 .41.06c.09 2 0 4 0 6a.92.92 0 0 1-.48.31 5.2 5.2 0 0 0-1.81 1.06 2 2 0 0 1-1.46.5q-.595-.03-1.19 0a3.26 3.26 0 0 0-2.44 1.44 1 1 0 0 0 .59 1.55c.306.086.623.123.94.11h5.05a1.23 1.23 0 0 1 .8.13v12.77c0 .85-.15 1-1 1.1-.505-.004-.245.41-.31.912z"/><path fill="#e67a94" d="M30.28 25.51q-1.607.152-3.22.08c-.18 0-.75.42-.81.3-.51-1.12-.95-1.8-1.75-.81l-5.64 7.06c-.4.5-.8 1-1.19 1.49s-.5.86-.06 1.49l-2.1 2.65a1 1 0 0 0-1.3.16 1.23 1.23 0 0 1-2.21-.71 1745 1745 0 0 1-3.9-18.25c-.11-.53.12-.91.6-.89 1.18 0 2.35.13 3.52.21-.45.2-.46.52-.35 1 .66 2.72 1.28 5.44 1.92 8.17q.071.372.24.71a1 1 0 0 0 1.65.22q.193-.252.43-.46a.5.5 0 0 1 .17-.08 4.24 4.24 0 0 0 2-1.4 22.3 22.3 0 0 1 7-5.12 6.9 6.9 0 0 1 1.73-.44 1.87 1.87 0 0 1 2.16 1.48c.15.74.19 1.498.12 2.25 0 .51.09.83.68.79a.29.29 0 0 1 .31.1"/><path fill="#ffa7c0" d="M30.28 26.733c-1 0-1.154.186-1.154-1.803.03-.621.154-1.714.064-2.33A1.76 1.76 0 0 0 27 21.17a12.15 12.15 0 0 0-5.32 2.71 28.5 28.5 0 0 0-3.16 2.87 2.83 2.83 0 0 1-1.9 1.19.46.46 0 0 1 0-.48 3.2 3.2 0 0 0 0-2.64 1.78 1.78 0 0 1 .11-1.62 5 5 0 0 0 .5-4.2.25.25 0 0 1 0-.17 35 35 0 0 1 5-2c.67-.79 1.44-1.5 2.14-2.26a6.63 6.63 0 0 1 5.55-2.17c.21.007.4.125.5.31l4.26 6.07c.12.17.24.31.07.55-1.51 2.05-3.03 5.313-4.47 7.403Z"/><path fill="#f4aa41" d="M59.22 18.5c.6-.07.61.2.49.71-.8 3.35-1.57 6.7-2.35 10.06a1.33 1.33 0 0 1-1 1.14 1.17 1.17 0 0 1-1.26-.56 3.14 3.14 0 0 1-.64-3.22 2 2 0 0 0 0-1.83 5.21 5.21 0 0 1 .53-6z"/><path fill="#e67a94" d="M44.83 34.11H29.57c-.56 0-.7.15-.69.69v11.73c-.001.919.103 1.835.31 2.73 0 .19.23.45-.07.63a.51.51 0 0 1-.43.08 6 6 0 0 0-1.85-.11.29.29 0 0 1-.26-.1v-5.89c0-3.09-1.13-6.1-1.14-9.2 0-.38 1.21-.61 1.64-.61h17.33c.13-.06.29-.06.42.05M45.8 24.52q.09-.146.16-.3c.46-1.33 1.53-1 2.14-.24 1.06 1.37 2 2.81 3.12 4.14a20.9 20.9 0 0 0 5.63 5.21 4 4 0 0 0 3.22.63c-.21 1-.43 1.95-.61 2.93a1.34 1.34 0 0 1-1 1.22 1.36 1.36 0 0 1-1.39-.67l-7-8.72c-.94-1.18-1.9-2.35-2.83-3.55a1.47 1.47 0 0 0-1.44-.65"/><path fill="#f4aa41" d="M45.25 45.28h-6.19c-1 0-1.6-.49-1.56-1.3.013-.23.097-.45.24-.63a3.55 3.55 0 0 1 3.34-1.46 2.19 2.19 0 0 0 1.92-.58 4.5 4.5 0 0 1 2.23-1.12z"/><path fill="#f1b31c" d="M26.176 27.102h17.885c.522 0 1.79.53 1.719 1.096s-.273 1.232-.285 1.663c-.225.136-1.304-.69-1.54-.69H27.076c-1.067 0-1.185-.074-1.114-1.17a1.27 1.27 0 0 1 .213-.9M25.941 30.382h18.073c.61 0 1.87.285 1.785.952 0 .449-.67 1.564-1.126 1.278-.233.103-.486.13-.731.082H26.864c-1.067 0-1.139-.082-1.115-1.36-.035-.333.032-.67.192-.952"/><path fill="#e67a94" d="M27 55.06h4.14c.22 0 .43 0 .57.26a18 18 0 0 0 2.76 4.152h-6.68c-.407.045-.77-.275-.811-.715a1 1 0 0 1 .001-.172c.02-1.157.02-2.346.02-3.525"/><path fill="#f1b31c" d="M17.056 18.08c.448.894.756 2.62.514 3.59a5.7 5.7 0 0 1-.69 1.72 1.18 1.18 0 0 0-.13 1.08 3.77 3.77 0 0 1-.12 3.47h-.09c-.3.15-1.38.518-1.58.308-.38-.345-.389-.838-.552-1.325-.32-1.006-.843-2.523-.902-3.576-.135-1.252-.996-3.487-.96-4.746-.041-.338.187-.63.407-.891z"/><path fill="#e67a94" d="M32.3 12.41h7.26l-1.75 2.5-1.66 2.36c-.11.16-.2.35-.4.07-1.13-1.62-2.26-3.24-3.45-4.93"/><path fill="#f4aa41" d="M25.9 54.94s.267-3.739-.066-4.7c-.233-.674 3.144-.268 3.866-.15s1.276.56 1.76 1.06a1.88 1.88 0 0 0 1.77.47 3.31 3.31 0 0 1 3.25 1.67 1.11 1.11 0 0 1-1 1.66c-1.3.05-8.25.05-9.58-.01"/><g fill="none" stroke="#000" stroke-linecap="round" stroke-linejoin="round" stroke-width="2"><path d="M30.85 11.47 41 11.41h2.28s4 .54 7.76 5.54c0 0-.24.87 3.85.95.74 0 3.16-.11 5.22-.24 1.35-.08 2.56-.17 3-.22A1.28 1.28 0 0 1 64.29 19c-.16 1.52-4.18 18.68-4.18 18.68a1.77 1.77 0 0 1-2.17 1.09 3.7 3.7 0 0 1-2.2-1.39l-9.58-12.09L45.94 40l-.07 5.21-.2 13.33a1.76 1.76 0 0 1-1.88 1.632l-.02-.002M45.99 26.59H25.74M46 30.04H25.74M45.56 33.46H25.8"/><path d="m40.95 11.41-5.03 7.63-4.97 7.55"/><path d="m35.92 19-5.07-7.53s-4.221-.06-6.38 1.96a16.8 16.8 0 0 1-4.65 3.66 6.65 6.65 0 0 1-3.09.54c-3.36.11-8.13-.29-8.13-.29A1.29 1.29 0 0 0 7.4 19c.17 1.52 4.18 18.68 4.18 18.68a1.78 1.78 0 0 0 2.17 1.09 3.74 3.74 0 0 0 2.25-1.4l9.58-12.08v1l.35 23.48.07 5 .06 3.8c.069.97.91 1.7 1.88 1.632l.02-.002H38.5"/><path d="M11.89 17.998c.13.44 2.39 10.412 2.39 10.412s1.27 1.67 2.53-.69a3.18 3.18 0 0 0-.24-3.83s2.93-4 .16-6.18M60.07 17.96 57 30s-3.09 1.79-2.6-4.32c0 0-2.77-4.36.48-7.76M45.94 40a3.73 3.73 0 0 0-3.26 1 3 3 0 0 1-1.62.71 4 4 0 0 0-3.16 1.54 1.14 1.14 0 0 0 .59 1.6c1.14.45 2.52.35 7.15.17M25.9 49.75c4.77-.82 6.1 1.55 6.1 1.55 4.64.57 3.66 3.42 3.66 3.42H26"/></g></svg>