<svg xmlns="http://www.w3.org/2000/svg" viewBox="0 0 72 72"><path fill="#b399c8" d="M41.009 54.004H28.746a1 1 0 0 1-.676-.264l-7.43-6.834a1 1 0 0 1-.264-1.076c1.477-4.095 2.504-6.824 3.054-8.111a4.27 4.27 0 0 1 4.018-2.485q.234-.018.46-.045c.822-.092 1.65.092 2.354.524a10.73 10.73 0 0 0 5.717 1.63h.996a11.2 11.2 0 0 0 5.738-1.631 3.7 3.7 0 0 1 2.354-.523q.226.027.46.045c1.7-.06 3.27.899 3.996 2.437 1.014 2.368 3.12 8.196 4.712 12.678a1 1 0 0 1-.757 1.317l-12.283 2.32a1 1 0 0 1-.186.018"/><path fill="#b1cc33" d="M36.978 50.884a27 27 0 0 0-3.568-.39 8.242 8.242 0 0 1-12.424 8.71 9.4 9.4 0 0 0 3.245 4.136 22.65 22.65 0 0 0 9.801 4.064c1.547.279 3.115.421 4.686.425 6.14 0 10.884-2.328 11.549-6.053.825-4.633-5.013-9.417-13.29-10.893"/><path fill="#92d3f5" d="M36.323 50.684a2.7 2.7 0 0 1-2.55-1.812l-.79-2.275a2.7 2.7 0 0 1 1.663-3.431l8.583-2.98a2.697 2.697 0 0 1 3.43 1.662l.79 2.277a2.7 2.7 0 0 1-1.662 3.43l-8.583 2.98c-.283.099-.58.149-.88.149"/><circle cx="33.278" cy="47.683" r="2" fill="#f1b31c"/><g fill="#debb90"><path d="M25.332 60.47a8.257 8.257 0 1 1 8.257-8.256 8.266 8.266 0 0 1-8.257 8.257M56.04 55.47s-.843-2.414-1.943-5.508a1 1 0 0 0-.053-.088 1 1 0 0 0-.036-.099c-.018-.029-.047-.045-.067-.072a.97.97 0 0 0-.453-.333.97.97 0 0 0-.573-.03 1 1 0 0 0-.095.014 1 1 0 0 0-.089.054 1 1 0 0 0-.098.035 10.17 10.17 0 0 1-5.156 1.105c-1.247-2.023-2.547-3.968-3.25-5.187a2.18 2.18 0 0 0-2.727-1.193 2.59 2.59 0 0 0-1.567 3.456c3.069 7.354 7.545 15.802 11.905 15.802.295 0 .59-.04.874-.117.018-.005.031-.019.05-.025s.04-.004.06-.012a5.58 5.58 0 0 0 3.27-3.012 6.85 6.85 0 0 0-.053-4.79"/><path d="m32.612 61.937-8.995-3.7c-.018-.007-.038-.004-.056-.01-.013-.005-.023-.016-.036-.02a6.27 6.27 0 0 1-4.385-5.086 1 1 0 0 0-.042-.119 1 1 0 0 0-.079-.222 1 1 0 0 0-.123-.158.68.68 0 0 0-.347-.259 1 1 0 0 0-.088-.05c-.006-.002-.013 0-.02-.002a1 1 0 0 0-.238-.027 1 1 0 0 0-.164-.008c-.011.002-.021-.003-.032-.001a1 1 0 0 0-.148.053 1 1 0 0 0-.187.067 2.5 2.5 0 0 0-.293.244q-.068.094-.114.201a1 1 0 0 0-.065.115l-.014.05-.003.01c-2.025 6.291.658 8.263.95 8.454a43.3 43.3 0 0 0 12.85 5.318 2.58 2.58 0 0 0 3.098-1.706 2.55 2.55 0 0 0-1.469-3.145M26.843 22.207q.04.382.101.767c1.02 6.52 5.755 11.194 10.576 10.44s7.9-6.652 6.88-13.172a8.44 8.44 0 0 1-8.696-4.288c-2.131 2.642-5.194 5.506-8.852 6.253M35.302 45.055l8.581-2.979a1 1 0 0 1 .107-.028c.027-.005.048-.023.074-.03q.186-.055.342-.166a1 1 0 0 0 .15-.148 1 1 0 0 0 .098-.128 1 1 0 0 0 .08-.184 1 1 0 0 0 .049-.171c.003-.021.015-.038.017-.059.16-1.647.2-3.303.12-4.956a.6.6 0 0 1-.037-.216 1 1 0 0 0-.045-.086 1.1 1.1 0 0 0-.21-.326 1 1 0 0 0-.132-.11 1 1 0 0 0-.174-.103 1.1 1.1 0 0 0-.37-.085c-.031 0-.06-.015-.09-.013a1 1 0 0 0-.102.027 1 1 0 0 0-.113.008 3.8 3.8 0 0 0-.934.41 11.2 11.2 0 0 1-5.738 1.63h-.996a10.73 10.73 0 0 1-5.717-1.63 3.7 3.7 0 0 0-1.292-.49.98.98 0 0 0-1.072.59q-.01.023-.02.048a1 1 0 0 0-.066.171c-.005.026.004.05.002.077a1 1 0 0 0-.026.1 29.7 29.7 0 0 0 1.406 10.922z"/></g><path fill="#fcea2b" d="M49.803 20.823c-.419-9.035-5.466-14.462-13.507-14.516h-.58c-8.228.055-13.283 5.673-13.52 15.055v19.71q.001.009.004.018a1 1 0 0 0 .047.233q.012.075.035.149.045.083.105.155.049.086.112.159.059.045.122.082a1 1 0 0 0 .207.129q.008.005.015.01a.95.95 0 0 0 .802-.054 1 1 0 0 0 .2-.135 1 1 0 0 0 .084-.078 1 1 0 0 0 .146-.216c.014-.028.034-.052.046-.082q.006-.008.01-.018c.5-1.324.885-2.307 1.125-2.872.573-1.169 1.29-1.23 2.373-1.325q.268-.022.523-.05a1.67 1.67 0 0 1 1.077.244 12.77 12.77 0 0 0 6.78 1.922h.953c2.402.007 4.758-.66 6.801-1.923.321-.2.7-.287 1.076-.244q.257.029.524.05c1.084.095 1.8.157 2.35 1.274l.165.398.004.004a1 1 0 0 0 .218.326c.008.008.02.011.028.019.183.17.422.266.672.27l.004.002q.19-.039.38-.075l.004-.003a1 1 0 0 0 .324-.217 1 1 0 0 0 .058-.085 1 1 0 0 0 .156-.234c.05-.12.077-.25.077-.382l.001-.004zM37.52 33.413c-4.82.755-9.556-3.92-10.576-10.44q-.06-.384-.101-.766h.009c3.658-.747 6.72-3.61 8.852-6.253a8.44 8.44 0 0 0 8.696 4.288c1.02 6.52-2.06 12.418-6.88 13.172"/><g fill="none" stroke="#000" stroke-linecap="round" stroke-linejoin="round" stroke-width="2"><path d="M26.843 22.207q.04.382.101.767c1.02 6.52 5.755 11.194 10.576 10.44s7.9-6.652 6.88-13.172a8.44 8.44 0 0 1-8.696-4.288c-2.131 2.642-5.194 5.506-8.852 6.253z"/><path d="M48.795 38.111V20.87c-.32-6.908-3.699-13.503-12.508-13.562h-.574c-9.018.06-12.346 6.971-12.526 14.055V33.49"/><path d="M43.805 41.066c.154-1.595.193-3.2.116-4.8M28.785 36.265c-.2 3.557.255 7.12 1.345 10.512"/><path d="M21.315 46.17c1.233-3.416 2.414-6.607 3.035-8.059.943-1.923 2.432-1.78 3.676-1.928a2.68 2.68 0 0 1 1.715.383A11.9 11.9 0 0 0 36 38.343h.975c2.21 0 4.378-.615 6.259-1.777a2.68 2.68 0 0 1 1.714-.383c1.245.148 2.733.005 3.677 1.928 1.65 3.86 6.47 17.689 6.47 17.689s1.965 4.68-2.62 6.533l-.025.01c-4.398 1.191-9.874-10.963-11.65-15.235"/><circle cx="25.332" cy="52.214" r="7.257"/><path d="M18.7 60.646a42.9 42.9 0 0 0 12.8 5.24M41.214 48.084l-4.338 1.506a1.7 1.7 0 0 1-2.158-1.046l-.79-2.276a1.7 1.7 0 0 1 1.046-2.157l8.583-2.98a1.7 1.7 0 0 1 2.158 1.046l.79 2.276M32.552 51.48c1.425.017 2.847.153 4.25.405a23.5 23.5 0 0 1 7.526 2.641M46.557 50.987a49.6 49.6 0 0 0 4.929 6.767"/><path d="M31.326 48.122a2.002 2.002 0 0 1 2.512-2.36M34.88 48.881a2 2 0 0 1-2.972.26"/></g></svg>