<svg xmlns="http://www.w3.org/2000/svg" viewBox="0 0 72 72"><path fill="#5c9e31" d="M41.009 53.754H28.746a1 1 0 0 1-.676-.264l-7.43-6.834a1 1 0 0 1-.264-1.076c1.477-4.095 2.504-6.824 3.054-8.111a4.27 4.27 0 0 1 4.018-2.485q.234-.018.46-.045a3.07 3.07 0 0 1 2.122.524A11.57 11.57 0 0 0 36 37.342a18.7 18.7 0 0 0 7.414-2.1 1.85 1.85 0 0 1 1.652-.302q.226.025.46.044a4.25 4.25 0 0 1 3.997 2.437c1.013 2.368 3.119 8.196 4.711 12.678a1 1 0 0 1-.756 1.317l-12.284 2.32a1 1 0 0 1-.185.018"/><path fill="#b1cc33" d="M36.978 50.634a27 27 0 0 0-3.568-.389 8.242 8.242 0 0 1-12.424 8.71 9.4 9.4 0 0 0 3.245 4.135 22.65 22.65 0 0 0 9.801 4.064 26.7 26.7 0 0 0 4.686.425c6.14 0 10.884-2.328 11.549-6.053.825-4.632-5.013-9.417-13.29-10.892"/><path fill="#92d3f5" d="M36.323 50.434a2.7 2.7 0 0 1-2.55-1.812l-.79-2.275a2.7 2.7 0 0 1 1.663-3.43l8.583-2.98a2.697 2.697 0 0 1 3.43 1.66l.79 2.278a2.7 2.7 0 0 1-1.662 3.43l-8.583 2.98a2.7 2.7 0 0 1-.88.149"/><circle cx="33.278" cy="47.434" r="2" fill="#f1b31c"/><g fill="#debb90"><path d="M25.332 60.22a8.257 8.257 0 1 1 8.257-8.256 8.266 8.266 0 0 1-8.257 8.257M56.04 55.22s-.843-2.414-1.943-5.508a1 1 0 0 0-.053-.088 1 1 0 0 0-.036-.098c-.018-.03-.047-.046-.067-.073a1 1 0 0 0-.133-.143 1 1 0 0 0-.157-.116 1 1 0 0 0-.737-.103.25.25 0 0 0-.183.067 1 1 0 0 0-.098.036 10.17 10.17 0 0 1-5.156 1.104c-1.247-2.023-2.547-3.968-3.25-5.187a2.18 2.18 0 0 0-2.727-1.193 2.59 2.59 0 0 0-1.567 3.456c3.069 7.355 7.545 15.802 11.905 15.802a3.3 3.3 0 0 0 .874-.117c.018-.005.031-.019.05-.025s.04-.003.06-.011a5.58 5.58 0 0 0 3.27-3.013 6.85 6.85 0 0 0-.053-4.79"/><path d="m32.612 61.687-8.995-3.7c-.018-.007-.038-.004-.056-.01-.013-.005-.023-.016-.036-.02a6.27 6.27 0 0 1-4.385-5.086 1 1 0 0 0-.042-.119 1 1 0 0 0-.079-.222 1 1 0 0 0-.123-.158.68.68 0 0 0-.347-.259 1 1 0 0 0-.088-.05q-.01-.001-.02-.002a1 1 0 0 0-.238-.027 1 1 0 0 0-.164-.007c-.011 0-.021-.004-.032-.002a1 1 0 0 0-.148.053 1 1 0 0 0-.187.067 2.5 2.5 0 0 0-.293.244 1 1 0 0 0-.114.201 1 1 0 0 0-.065.115l-.014.05-.003.01c-2.025 6.291.658 8.264.95 8.454a43.3 43.3 0 0 0 12.85 5.318 2.58 2.58 0 0 0 3.098-1.705 2.55 2.55 0 0 0-1.469-3.145M35.578 34.49c-4.967.001-9.589-4.847-10.617-11.42a12.8 12.8 0 0 1 .543-6.047 1.067 1.067 0 0 1 1.829-.226c.02.023 3.43 3.901 13.962-3.185a1.065 1.065 0 0 1 1.593.509 33.6 33.6 0 0 1 1.637 5.9c1.104 7.085-2.38 13.533-7.77 14.377a7.6 7.6 0 0 1-1.177.092"/></g><path fill="#fcea2b" d="M44.248 9.339a7.23 7.23 0 0 0-5.445-2.918c-.471 0-11.443.06-15.642 5.13a7.18 7.18 0 0 0-1.472 6.19c1.89 9.955 6.318 12.493 6.505 12.595a1 1 0 0 0 .478.123 1 1 0 0 0 .87-.51.98.98 0 0 0 .039-.864 1.05 1.05 0 0 0-.174-.433 13.94 13.94 0 0 1-2.339-5.912 12.8 12.8 0 0 1 .017-3.524c2.04 1.066 6.412 1.853 14.249-3.083a25.5 25.5 0 0 1 1.078 4.177l.004.014v.014a14.5 14.5 0 0 1 .043 4.306 1.066 1.066 0 0 0 .904 1.207 1 1 0 0 0 .152.012 1.05 1.05 0 0 0 .751-.328.98.98 0 0 0 .358-.491c2.144-7.213 2.017-12.497-.376-15.705"/><g fill="none" stroke="#000" stroke-linecap="round" stroke-linejoin="round" stroke-width="2"><path d="M21.315 45.913c1.233-3.416 2.414-6.607 3.035-8.058.943-1.924 2.432-1.78 3.676-1.929a2.68 2.68 0 0 1 1.715.383A11.9 11.9 0 0 0 36 38.086h.975a11.9 11.9 0 0 0 6.259-1.777 2.68 2.68 0 0 1 1.714-.383c1.245.148 2.733.005 3.677 1.928 1.65 3.86 6.47 17.689 6.47 17.689s1.965 4.68-2.62 6.534l-.025.01c-4.399 1.19-9.874-10.964-11.65-15.236M43.47 20.173a33 33 0 0 0-1.58-5.676h0c-11.672 7.853-15.406 2.947-15.406 2.947a11.8 11.8 0 0 0-.47 5.46c1.02 6.52 5.755 11.195 10.575 10.44s7.901-6.65 6.88-13.17"/><circle cx="25.332" cy="51.964" r="7.257"/><path d="M18.7 60.396a42.9 42.9 0 0 0 12.8 5.241M41.214 47.835l-4.338 1.505a1.7 1.7 0 0 1-2.158-1.046l-.79-2.276a1.7 1.7 0 0 1 1.046-2.157l8.583-2.98a1.7 1.7 0 0 1 2.158 1.046l.79 2.276M32.552 51.23a25.7 25.7 0 0 1 4.25.405 23.5 23.5 0 0 1 7.526 2.641M46.557 50.737a49.6 49.6 0 0 0 4.929 6.767"/><path d="M31.326 47.872a2.002 2.002 0 0 1 2.512-2.359M34.88 48.631a2 2 0 0 1-2.972.26M28.677 29.46s-4.181-2.3-6.005-11.906C20.748 7.421 38.803 7.421 38.803 7.421s10.017 0 4.862 17.338"/></g></svg>