<svg xmlns="http://www.w3.org/2000/svg" viewBox="0 0 72 72"><path fill="#d0cfce" d="M17.434 57.917s-2.17-13.67 9.83-13.67c3.192 2.128 5.926 3.598 9 3.592h-.125c3.074.006 4.708-2.164 7.9-4.292 5.272 0 8.818 1.44 10.388 3.637 2.777 3.885 1.112 10.733 1.112 10.733"/><path fill="#61b2e4" d="M51.156 45.1v12.814H21.953v-13.07l-.004-.005c1.395-.797 3.203-1.292 5.545-1.292v9.265h17.838V43.55c2.393.034 4.491.595 5.877 1.467"/><path fill="#9b9b9a" d="M35.667 9.06q.043.001.084.004.043-.003.085-.004z"/><path fill="#9b9b9a" d="M35.751 9.064c-12.614.353-10.76 9.619-10.76 9.619 6.484-3.498 18.03-2.545 21.52 0 0 0 1.855-9.266-10.76-9.62"/><path fill="#e27022" d="M58.913 32.324c4.577 3.776 7.86-1.101 7.86-1.101s-3.239-4.972-7.782-1.54"/><path fill="#92d3f5" d="M31.97 9.508v3.088h7.265V9.508"/><path fill="#3f3f3f" d="m43.677 56.415 4.324-15.382 3.85 1.082-4.323 15.382z"/><path fill="none" d="m58.036 28.137.382 6.127"/><path fill="#fcea2b" d="M58.5 31.744c2.156 1.779 3.702-.519 3.702-.519s-1.525-2.342-3.665-.725"/><g fill="#fcea2b"><path d="M25.012 24.474S14.378 27 17.1 40.202c0 0 5.362.142 7.536-2.428 0 0 2.487-2.242 3.518-8.187 1.032-5.944-3.25-5.136-3.25-5.136"/><path d="M24.9 24.521c4.742-.5 11.78-7.564 11.78-7.564s8.512 8.736 10.892 6.897c.216-2.38-1.298-4.76-1.298-4.76s-8.832-5.48-19.972-.362c-3.07 3.824-1.604 6.96-1.604 6.96"/></g><path fill="#debb90" d="M36.68 16.957S29.64 24.022 24.9 24.52l-.202 1.171s-.066-.147-.14-.404q-.066.753-.068 1.526c0 7.828 5.076 14.173 11.338 14.173s11.339-6.345 11.339-14.173c0-.933-.077-1.842-.214-2.725-2.966.364-10.274-7.132-10.274-7.132"/><path d="M41.97 25.408a2 2 0 1 1-4-.001 2 2 0 0 1 4 .001M33.97 25.408a2 2 0 1 1-4-.001 2 2 0 0 1 4 .001M35.97 35.41c-1.151 0-2.303-.286-3.447-.857a1 1 0 1 1 .895-1.79c1.718.86 3.388.86 5.105 0a1 1 0 0 1 .895 1.79q-1.718.857-3.447.858"/><path d="M35.97 41.942c-6.803 0-12.338-6.806-12.338-15.173 0-.874.06-1.75.18-2.604l1.981.277a17 17 0 0 0-.161 2.327c0 7.264 4.637 13.173 10.339 13.173S46.31 34.033 46.31 26.77c0-1.073-.102-2.14-.303-3.17l1.963-.383c.225 1.157.34 2.352.34 3.553 0 8.367-5.536 15.173-12.34 15.173M39.234 13.596h-7.263a1 1 0 0 1-1-1V9.508a1 1 0 1 1 2 0v2.088h5.263V9.508a1 1 0 1 1 2 0v3.088a1 1 0 0 1-1 1M47.45 16.659a1 1 0 0 1-1-1v-2.677a1 1 0 1 1 2 0v2.677a1 1 0 0 1-1 1M24.053 16.659a1 1 0 0 1-1-1v-2.677a1 1 0 1 1 2 0v2.677a1 1 0 0 1-1 1M55.354 57.919a1 1 0 0 1-.99-1.15c.006-.044.648-4.478-1.234-7.883a.999.999 0 1 1 1.75-.967c2.218 4.012 1.492 8.945 1.46 9.153a1 1 0 0 1-.987.847M17.475 57.919a1 1 0 0 1-.987-.847c-.04-.27-.972-6.633 2.581-10.775 1.923-2.241 4.751-3.377 8.408-3.377.197 0 .39.058.554.168 3.154 2.102 5.661 3.411 8.383 3.424 2.152-.01 4.271-.8 7.293-2.714a1 1 0 0 1 1.07 1.69c-2.44 1.545-5.128 2.978-8.254 3.023-.015 0-.03.005-.046 0h-.125c-.016.005-.03 0-.044 0-3.101-.042-5.818-1.403-9.128-3.588-2.897.056-5.11.954-6.586 2.669-2.956 3.436-2.138 9.12-2.13 9.178a1 1 0 0 1-.99 1.149"/><path d="M41.707 54.837h-14.23a1 1 0 0 1-1-1V43.92a1 1 0 1 1 2 0v8.917h13.23a1 1 0 1 1 0 2M21.935 57.92a1 1 0 0 1-1-1V45.218a1 1 0 1 1 2 0V56.92a1 1 0 0 1-1 1M24.982 19.683a1 1 0 0 1-.98-.804c-.03-.154-.732-3.832 1.725-6.907 1.944-2.431 5.24-3.744 9.801-3.904q.065-.008.131-.008h.17q.065 0 .13.008c4.561.16 7.858 1.473 9.8 3.905 2.458 3.074 1.757 6.752 1.725 6.907a1 1 0 0 1-1.961-.394c.005-.025.54-2.95-1.34-5.284-1.585-1.967-4.424-3.023-8.439-3.14-4.028.117-6.872 1.18-8.454 3.159-1.882 2.355-1.332 5.237-1.326 5.266a1 1 0 0 1-.982 1.196M51.37 41.98l-2.89-.812 2.01-7.146c.179-.631 1.184-3.715 3.653-3.807l3.892-.502.385 2.975-3.973.512a1.4 1.4 0 0 1-.192.013c-.202.102-.676.93-.88 1.63z"/><path d="M47.528 58.497q-.135 0-.271-.037l-3.852-1.082a1.003 1.003 0 0 1-.692-1.233l4.324-15.383a1 1 0 0 1 1.233-.693l3.851 1.083a1 1 0 0 1 .692 1.234L48.49 57.768a1 1 0 0 1-.962.73m-2.619-2.774 1.926.54 3.782-13.455-1.925-.542zM58.417 35.264a1 1 0 0 1-.997-.938l-.382-6.127a1 1 0 0 1 .936-1.06.985.985 0 0 1 1.06.936l.382 6.126a1 1 0 0 1-.999 1.063M17.743 40.54a1 1 0 0 1-.98-.798c-2.078-10.087 4.239-13.854 6.728-14.925-.276-1.39-.325-4.024 2.043-6.975a1 1 0 0 1 1.56 1.252c-2.607 3.248-1.52 5.813-1.474 5.92a1.006 1.006 0 0 1-.653 1.38c-.332.091-7.962 2.295-6.405 12.072 1.404-.18 3.634-.713 4.7-1.974.357-.42.987-.472 1.41-.117.422.357.474.988.118 1.41-2.177 2.571-6.818 2.748-7.015 2.754z"/><path d="M24.911 25.257a1 1 0 0 1-.103-1.994c3.6-.38 9.287-5.381 11.174-7.276.19-.19.42-.328.715-.295.268.002.524.11.71.303 3.963 4.065 7.849 6.765 9.193 6.879-.09-1.792-1.147-3.49-1.159-3.509a1.001 1.001 0 0 1 1.689-1.072c.07.109 1.695 2.699 1.45 5.388-.025.276-.165.53-.385.7-2.571 1.987-8.467-3.25-11.52-6.284-1.969 1.852-7.5 6.717-11.658 7.155q-.053.005-.106.005m22.673-1.667h.01z"/><path d="M49.75 21.818a1 1 0 0 1-.772-.363c-1.773-2.149-7.13-3.724-13.15-3.895-6.02.17-11.377 1.746-13.15 3.895a1 1 0 0 1-1.542-1.273c2.495-3.024 8.719-4.333 13.837-4.59a1 1 0 0 1 .297-.044h1.117q.155 0 .297.045c5.118.256 11.341 1.565 13.837 4.59a1 1 0 0 1-.771 1.635M62.39 34.758c-1.393 0-2.773-.558-4.114-1.663a1 1 0 0 1 1.274-1.543c1.125.929 2.23 1.32 3.3 1.174 1.182-.167 2.117-.963 2.638-1.517-.531-.594-1.505-1.475-2.739-1.686-1.018-.177-2.081.147-3.155.958a.999.999 0 1 1-1.205-1.596c1.536-1.162 3.116-1.612 4.716-1.33 2.757.482 4.435 3.014 4.505 3.122.22.337.216.771-.008 1.104-.069.103-1.728 2.526-4.452 2.922a5.4 5.4 0 0 1-.76.055"/></svg>