<svg xmlns="http://www.w3.org/2000/svg" viewBox="0 0 72 72"><path fill="#9b9b9a" d="M50.903 27.532c0 1.225-.147 2.416-.424 3.556-1.597 6.568-7.517 11.444-14.576 11.444s-12.979-4.876-14.576-11.443a15 15 0 0 1-.424-3.557c0-8.284 6.716-15 15-15s15 6.716 15 15"/><path fill="#d0cfce" d="M31.932 12.938s-6.519 2.24-9.184 7.384c-1.16 2.114-3.006 3.506-1.42 10.767s10.56 11.047 10.56 11.047a15.02 15.02 0 0 0 11.138-11.048c.278-1.14.424-2.33.424-3.556 0-7.086-4.912-13.024-11.518-14.594M16.764 58.776s-2-13.727 10-13.727c3.192 2.128 5.927 3.598 9 3.592h-.125c3.074.006 5.508-2.164 8.7-4.292 15.57 0 10.7 14.427 10.7 14.427"/><path fill="#9b9b9a" d="M28.142 52.903h15.561v5.824H28.142z"/><path fill="#9b9b9a" d="M44.437 45.676c-3.17 2.113-4.875 3-8.937 3.589 13.062.411 13.062 5.516 13.824 9.516h5.113s2-13.105-10-13.105"/><g fill="#fcea2b"><path d="M33.836 22.579s-3.655 5.391-8.463 8.015l-.646.471a17.7 17.7 0 0 1-.188-4.095l-.62 1a9.45 9.45 0 0 1 5.672-4.598M42.024 23.372a9.46 9.46 0 0 1 5.673 4.598l-.56-.912q.036.57.037 1.15c0 2.114-.37 4.12-1.034 5.922l.261-.698c-3.14 1.57-2.894-9.158-2.894-9.158"/></g><path fill="#debb90" d="M46.356 33.45c.016-.007.03-.01.045-.018l-.261.698c.081-.22.144-.454.216-.68-3.09 1.441-2.849-9.176-2.849-9.176l-1.483-.902-8.189-.793s-3.654 5.39-8.462 8.015l-.646.47a17.7 17.7 0 0 1-.23-2.855c0-.207.014-.41.02-.614-.044.454-.079.916-.079 1.29 0 7.827 5.077 14.173 11.339 14.173 5.945 0 10.813-5.723 11.291-13a17 17 0 0 1-.712 3.392"/><path d="M34.488 58.719a2 2 0 0 0-1.935-2.508h.007a2 2 0 0 0-1.935 2.508M41.19 58.719a2 2 0 0 0-1.935-2.508h.007a2 2 0 0 0-1.935 2.508"/><path fill="none" stroke="#000" stroke-linecap="round" stroke-linejoin="round" stroke-miterlimit="10" stroke-width="2" d="M43.523 57.796v-4.808H28.262v4.808"/><path d="M41.93 26.965a2 2 0 1 1-4.001-.002 2 2 0 0 1 4.001.002M33.93 26.965a2 2 0 1 1-4.001-.002 2 2 0 0 1 4.001.002M35.93 36.967c-1.152 0-2.304-.286-3.447-.858a1 1 0 1 1 .894-1.789c1.718.86 3.388.86 5.106 0a1 1 0 0 1 .894 1.79c-1.143.571-2.295.857-3.447.857"/><path fill="none" stroke="#000" stroke-miterlimit="10" stroke-width="2" d="M46.235 34.247a17.2 17.2 0 0 0 1.034-5.921q0-.582-.037-1.15M24.634 27.088q-.042.612-.043 1.238c0 7.827 5.077 14.173 11.34 14.173"/><path fill="none" stroke="#000" stroke-linecap="round" stroke-linejoin="round" stroke-miterlimit="10" stroke-width="2" d="M16.87 57.818s-2-13 10-13c3.192 2.128 5.927 3.598 9 3.592h-.125c3.074.006 5.808-1.464 9-3.592 12 0 10 13 10 13M50.902 27.532c0 1.225-.147 2.416-.424 3.556-1.597 6.568-7.517 11.444-14.576 11.444s-12.979-4.876-14.576-11.443a15 15 0 0 1-.424-3.557c0-8.284 6.716-15 15-15s15 6.716 15 15"/><path fill="none" stroke="#000" stroke-linecap="round" stroke-linejoin="round" stroke-miterlimit="10" stroke-width="2" d="M47.792 28.087a9.455 9.455 0 0 0-5.673-4.598c-2.12-.621-4.13-.903-6.217-.844-2.087-.059-4.096.222-6.216.844a9.45 9.45 0 0 0-5.673 4.597M53.864 25.467v4.771M17.751 25.467v4.771"/><path fill="none" stroke="#000" stroke-linecap="round" stroke-miterlimit="10" stroke-width="2" d="M46.148 34.215c-2.551 5.133-9.592 5.139-9.592 5.139"/><path fill="none" stroke="#000" stroke-linecap="round" stroke-linejoin="round" stroke-miterlimit="10" stroke-width="2" d="M43.83 57.796v-4.808H28.57v4.808"/><path fill="none" stroke="#000" stroke-linecap="round" stroke-miterlimit="10" stroke-width="2" d="M43.602 24.39s-.246 10.73 2.894 9.16M33.93 22.696s-3.655 5.391-8.462 8.015"/><path fill="none" stroke="#000" stroke-miterlimit="10" stroke-width="2" d="M46.235 34.247a17.2 17.2 0 0 0 1.034-5.921q0-.582-.037-1.15M24.634 27.088q-.042.612-.043 1.238c0 7.827 5.077 14.173 11.34 14.173"/><path fill="none" stroke="#000" stroke-linecap="round" stroke-linejoin="round" stroke-miterlimit="10" stroke-width="2" d="M47.792 28.087a9.455 9.455 0 0 0-5.673-4.598c-2.12-.621-4.13-.903-6.217-.844-2.087-.059-4.096.222-6.216.844a9.45 9.45 0 0 0-5.673 4.597"/><path fill="none" stroke="#000" stroke-linecap="round" stroke-miterlimit="10" stroke-width="2" d="M43.602 24.39s-.246 10.73 2.894 9.16M33.93 22.696s-3.655 5.391-8.462 8.015"/></svg>