<svg xmlns="http://www.w3.org/2000/svg" viewBox="0 0 72 72"><path fill="#9b9b9a" d="M16.847 58.857S15.3 45.017 27.3 45.017c3.192 2.127 5.927 3.598 9 3.592h-.125c3.074.006 5.108-2.565 8.3-4.693 15.57 0 11.1 14.94 11.1 14.94"/><path fill="#d0cfce" d="m36.615 54.17 2.415 3.269 6.332-13.3 6.832 9.491-11.83 4.718"/><path fill="#fff" d="M38.51 57.73c-.599 1.035-4.892 1.035-5.49 0l-1.842-2.434-3.386-8.74 7.973 2.7 7.573-2.7-3.287 8.74z"/><path fill="#3f3f3f" d="M33.457 48.498s-1.206 6.021 2.308 6.021 2.307-6.021 2.307-6.021"/><path fill="#3f3f3f" d="M35.018 54.843a.844.844 0 0 1 1.462 0l2.55 4.024h-6.618z"/><path fill="#d0cfce" d="M34.914 54.52 32.5 57.873l-5.672-12.985-3.957 8.444 9.458 4.54M66.116 58.45H50.632V38.646h15.27c.118 0 .214.095.214.214z"/><path fill="#fff" d="M62.665 60.925H48.057V41.973H58.81a3.855 3.855 0 0 1 3.855 3.855z"/><path d="M17.202 44.73a7.4 7.4 0 0 0 1.443 1.732c.48.418.958.813 1.436 1.198 1.567-1.56 3.863-2.643 7.22-2.643 3.17 2.114 5.891 3.576 8.94 3.588 3.037-.031 5.066-2.576 8.234-4.688 1.247 0 2.365.096 3.367.273l.215-1.655 2.637.017v-3.726l5.035.002c-.204-2.953-1.405-6.572-3.758-11.158-.13-6.558-.955-15.686-8.521-15.424-1.854-4.309-24.844-9.666-23.93 15.763-.077 4.386-5.13 10.301-2.318 16.72"/><path fill="#a57939" d="M40.998 15.858c-2.048 3.672-11.675 8.614-16.374 10.756l.087.01a18 18 0 0 0-.118 2.056c0 7.827 5.077 14.173 11.339 14.173S47.27 36.507 47.27 28.68c0-1.159-.11-2.284-.32-3.362-.782-4.017-2.934-7.365-5.802-9.226"/><path fill="none" stroke="#000" stroke-linecap="round" stroke-linejoin="round" stroke-miterlimit="10" stroke-width="2" d="m18.163 44.36-.56-.92c-2.662-6.076 2.496-11.675 2.57-15.826-.866-24.072 20.896-19 22.65-14.922 7.163-.247 7.943 8.393 8.067 14.6 1.51 2.944 2.519 5.466 3.072 7.657"/><path fill="none" stroke="#000" stroke-linecap="round" stroke-linejoin="round" stroke-miterlimit="10" stroke-width="2" d="M40.998 15.858c-2.048 3.672-11.675 8.614-16.374 10.756l.087.01a18 18 0 0 0-.118 2.056c0 7.827 5.077 14.173 11.339 14.173S47.27 36.507 47.27 28.68c0-1.159-.11-2.284-.32-3.362-.782-4.017-2.934-7.365-5.802-9.226"/><path d="M41.932 26.996a2 2 0 1 1-4.002-.001 2 2 0 0 1 4.002.001M33.932 26.996a2 2 0 1 1-4.002-.001 2 2 0 0 1 4.002.001M35.932 36.999q-1.73 0-3.448-.858a1 1 0 1 1 .895-1.79c1.718.86 3.388.86 5.105 0a1 1 0 0 1 .895 1.79q-1.718.858-3.447.858"/><path fill="none" stroke="#000" stroke-linecap="round" stroke-linejoin="round" stroke-miterlimit="10" stroke-width="2" d="M33.457 48.498s-1.206 6.021 2.308 6.021 2.307-6.021 2.307-6.021M44.702 55.592l-5.74 2.288"/><path fill="none" stroke="#000" stroke-linecap="round" stroke-linejoin="round" stroke-miterlimit="10" stroke-width="2" d="M16.827 57.85s-2-13 10-13c3.192 2.127 5.927 3.597 9 3.591h-.125c3.074.006 5.808-1.464 9-3.592"/><path fill="none" stroke="#000" stroke-linecap="round" stroke-linejoin="round" stroke-miterlimit="10" stroke-width="2" d="M34.914 54.52 32.5 57.873l-5.672-12.985-3.957 8.444 9.458 4.54zM44.702 44.85 39.03 57.873l-2.415-3.355M62.665 60.925H48.057V42.289h11.825v2.112h2.783z"/><path fill="none" stroke="#000" stroke-linecap="round" stroke-linejoin="round" stroke-miterlimit="10" stroke-width="2" d="M51.261 38.826h14.825v18.636M59.882 42.289l2.783 2.112M51.002 48.498h8.432M51.002 52.594h8.432M51.002 56.178h8.432"/></svg>