<svg xmlns="http://www.w3.org/2000/svg" viewBox="0 0 72 72"><path fill="#92d3f5" d="M11 61V44.955C11 41.665 14.292 39 17.584 39c3.915 3.29 7.83 3.29 11.833 0h13.167c3.914 3.29 7.83 3.29 11.833 0 3.291 0 6.583 2.667 6.583 5.956V61"/><path fill="#b1cc33" d="M17 61v-2.533C17 56 19.502 54 22.004 54c2.975 2.467 5.95 2.467 8.992 0C33.499 54 36 56 36 58.467V61M36 61v-2.533C36 56 38.502 54 41.004 54c2.975 2.467 5.95 2.467 8.993 0C52.499 54 55 56 55 58.467V61"/><g fill="#a57939"><path d="m37.932 40.062-1.548-2.045c-2.667-4 .203-7.47 1.448-10.67 1.067-2.845-.178-4.356.889-8.09.978-3.645 4.89-5.957 9.157-5.957 3.645 0 5.334 2.045 5.334 2.045 2.756.267 4.89 2.578 4.979 5.334.267 4.801.711 4.801 2.311 8.535 1.156 2.756 1.535 6.438-.421 8.66l-1.701 2.038M13.929 21.39c.533-7.734 6.4-7.823 9.335-7.379.266.09 1.067 0 1.333 0 5.334-.711 8.002 5.334 8.002 8.002 0 .978.225 3.365-1.108 4.699 0 0-3.249-3.721-3.427-5.855 0 0-10.135 3.823-10.846.533 0 0-.711 2.667-1.334 3.379 0 0-.328 2.044-.328 2.667 0 0-1.894-2.667-1.627-6.046M24.136 42.272c.469 3.363 4.487-.871 4.487-.871.549 1.574 4.425 3.867 4.425 3.867 1.032-.955.526-2.852.372-3.513a5.12 5.12 0 0 0-5.808-4.115 6.5 6.5 0 0 1-1.032 0c-2.271-.337-6.03-.148-7.12 4.644-.532 2.338.624 2.984.624 2.984s3.764-5.059 4.052-2.996"/><path d="M51.989 45.268s1.156-.646.624-2.984c-1.09-4.792-4.85-4.98-7.12-4.644a6.5 6.5 0 0 1-1.033 0 5.12 5.12 0 0 0-5.808 4.115c-.153.66-.66 2.558.373 3.513 0 0 3.876-2.293 4.425-3.867 0 0 4.018 4.234 4.487.87.288-2.062 4.052 2.997 4.052 2.997"/></g><g fill="#fcea2b"><path d="M41.12 26.814c0 5.334 3.38 9.335 7.38 9.335s7.38-4.001 7.38-9.336c0-3.378-1.335-5.334-4.002-8-2.667 2.666-10.668 6.045-10.668 7.378zM28.045 20.857S17.91 24.68 17.2 21.39c0 0-.711 2.667-1.334 3.379 0 0-.318 1.983-.327 2.635.459 5.148 3.841 9.2 7.943 9.2 4.286 0 7.782-4.427 7.98-9.903-.104-.12-3.24-3.746-3.416-5.844M28.623 41.401s-4.018 4.234-4.488.87c-.257-1.846-3.293 2.005-3.928 2.835-.074.335-.123.566-.123.588a6.776 6.776 0 0 0 6.489 7.031 6.776 6.776 0 0 0 6.488-7.03c0-.03-.06-.227-.15-.51-.679-.414-3.8-2.383-4.289-3.784M39.162 45.186c-.09.282-.15.478-.15.508a6.776 6.776 0 0 0 6.488 7.031 6.776 6.776 0 0 0 6.489-7.03c0-.023-.05-.254-.123-.59-.635-.829-3.671-4.68-3.929-2.833-.469 3.363-4.487-.871-4.487-.871-.489 1.401-3.61 3.37-4.288 3.784"/></g><path fill="none" stroke="#000" stroke-miterlimit="10" stroke-width="2" d="M31.5 25.569v.644c0 5.7-3.586 10.39-8 10.39s-8-4.69-8-10.39v-.644"/><path fill="none" stroke="#000" stroke-linecap="round" stroke-linejoin="round" stroke-width="2" d="M13.929 21.39c.533-7.734 6.4-7.823 9.335-7.379.266.09 1.067 0 1.333 0 5.334-.711 8.002 5.334 8.002 8.002 0 .978.225 3.365-1.108 4.699 0 0-3.249-3.721-3.427-5.855 0 0-10.135 3.823-10.846.533 0 0-.711 2.667-1.334 3.379 0 0-.328 2.044-.328 2.667 0 0-1.894-2.667-1.627-6.046M36.724 36.746c-2.04-3.666-.069-6.374 1.108-9.399 1.067-2.845-.178-4.356.889-8.09.978-3.645 4.89-5.957 9.157-5.957 3.645 0 5.334 2.045 5.334 2.045 2.756.267 4.89 2.578 4.979 5.334.267 4.801.711 4.801 2.311 8.535 1.062 2.533.773 5.366-.799 7.533"/><path fill="none" stroke="#000" stroke-linejoin="round" stroke-miterlimit="10" stroke-width="2" d="M41.12 26.814c0 5.334 3.38 9.335 7.38 9.335s7.38-4.001 7.38-9.336c0-3.378-1.335-5.334-4.002-8-2.667 2.666-10.668 6.045-10.668 7.378l-.09.623z"/><path fill="none" stroke="#000" stroke-linecap="round" stroke-linejoin="round" stroke-width="2" d="M11 60V44.955C11 41.665 14.292 39 17.584 39q.81.681 1.623 1.175M52.646 40.242A13.5 13.5 0 0 0 54.416 39c3.292 0 6.584 2.667 6.584 5.956V60"/><path d="M47.25 26.5c0 .714-.536 1.25-1.25 1.25s-1.25-.536-1.25-1.25.536-1.25 1.25-1.25 1.25.536 1.25 1.25M52.25 26.5c0 .714-.536 1.25-1.25 1.25s-1.25-.536-1.25-1.25.536-1.25 1.25-1.25 1.25.536 1.25 1.25"/><path fill="none" stroke="#000" stroke-linecap="round" stroke-linejoin="round" stroke-width="2" d="M46.633 31.533a3.97 3.97 0 0 0 3.734 0"/><path d="M22.25 26.5c0 .714-.536 1.25-1.25 1.25s-1.25-.536-1.25-1.25.536-1.25 1.25-1.25 1.25.536 1.25 1.25M27.25 26.5c0 .714-.536 1.25-1.25 1.25s-1.25-.536-1.25-1.25.536-1.25 1.25-1.25 1.25.536 1.25 1.25"/><path fill="none" stroke="#000" stroke-linecap="round" stroke-linejoin="round" stroke-width="2" d="M21.633 31.533a3.97 3.97 0 0 0 3.734 0"/><path fill="none" stroke="#000" stroke-linecap="round" stroke-linejoin="round" stroke-width="1.6" d="M44.164 49.186a2.09 2.09 0 0 0 2.672 0M17 60.2v-1.733C17 56 19.502 54 22.004 54c2.975 2.467 5.95 2.467 8.992 0C33.499 54 36 56 36 58.467V60.2M36 60.2v-1.733C36 56 38.502 54 41.004 54c2.975 2.467 5.95 2.467 8.993 0C52.499 54 55 56 55 58.467V60.2"/><path d="M29.298 45.702a.9.9 0 1 1-.898-.84.87.87 0 0 1 .898.84"/><path fill="none" stroke="#000" stroke-linecap="round" stroke-linejoin="round" stroke-width="1.6" d="M25.164 49.186a2.09 2.09 0 0 0 2.672 0"/><path d="M24.6 44.862q.03 0 .06.002a.9.9 0 1 1-.958.838.87.87 0 0 1 .898-.84M48.298 45.702a.9.9 0 1 1-.897-.84.87.87 0 0 1 .897.84M43.6 44.862q.03 0 .06.002a.9.9 0 1 1-.958.838.87.87 0 0 1 .898-.84"/><path fill="none" stroke="#000" stroke-miterlimit="10" stroke-width="1.6" d="M33.05 45.268q.01.212.011.426a6.776 6.776 0 0 1-6.488 7.031 6.776 6.776 0 0 1-6.489-7.03q0-.143.005-.285"/><path fill="none" stroke="#000" stroke-linecap="round" stroke-linejoin="round" stroke-width="1.6" d="M24.136 42.272c.469 3.363 4.487-.871 4.487-.871.549 1.574 4.425 3.867 4.425 3.867 1.032-.955.526-2.852.372-3.513a5.12 5.12 0 0 0-5.808-4.115 6.5 6.5 0 0 1-1.032 0c-2.271-.337-6.03-.148-7.12 4.644-.532 2.338.624 2.984.624 2.984s3.764-5.059 4.052-2.996"/><path fill="none" stroke="#000" stroke-miterlimit="10" stroke-width="1.6" d="M51.983 45.41q.006.143.006.284a6.776 6.776 0 0 1-6.489 7.031 6.776 6.776 0 0 1-6.489-7.03q0-.216.012-.427"/><path fill="none" stroke="#000" stroke-linecap="round" stroke-linejoin="round" stroke-width="1.6" d="M51.989 45.268s1.156-.646.624-2.984c-1.09-4.792-4.85-4.98-7.12-4.644a6.5 6.5 0 0 1-1.033 0 5.12 5.12 0 0 0-5.808 4.115c-.153.66-.66 2.558.373 3.513 0 0 3.876-2.293 4.425-3.867 0 0 4.018 4.234 4.487.87.288-2.062 4.052 2.997 4.052 2.997"/></svg>