<svg xmlns="http://www.w3.org/2000/svg" viewBox="0 0 72 72"><path fill="#b1cc33" d="M54.864 59.107s2-13.797-10-13.797c-3.192 2.12-5.926 3.584-9 3.578h.125c-3.073.006-5.808-1.459-9-3.578-12 0-10 13.797-10 13.797"/><path fill="#5c9e31" d="M45.257 44.163c-3.112 2.075-4.983 3.24-8.972 3.819 12.826.404 12.826 7.179 13.575 11.107h5.02s2.16-14.926-9.623-14.926"/><path fill="#fff" d="M40.018 9.203c10.25 3.13 10.37 9.6 9.18 13.76h-.34a49.7 49.7 0 0 1-9.3-10.11l-2.92-.41a6.9 6.9 0 0 0-.53-3.75l.06-.03a13.2 13.2 0 0 1 3.85.54"/><path fill="#fff" d="M40.428 20.633a21.4 21.4 0 0 1-4.13-6.19l-.13-.05a9 9 0 0 0 .47-1.95l2.92.41a49.7 49.7 0 0 0 9.3 10.11h.34a15.6 15.6 0 0 1-1.69 3.87s-.03-.02-.1-.07a46 46 0 0 1-6.98-6.13"/><path fill="#fff" d="M40.428 20.633c-3.74 3.57-8.33 0-8.33 0a18.7 18.7 0 0 0 4.07-6.24l.13.05a21.4 21.4 0 0 0 4.13 6.19"/><path fill="#fff" d="M36.108 8.693a6.9 6.9 0 0 1 .53 3.75 9 9 0 0 1-.47 1.95 18.7 18.7 0 0 1-4.07 6.24 39.5 39.5 0 0 1-4.08 3.79 44 44 0 0 1-3.17 2.35l-.09.06s-8.34-12.79 7.5-17.63a13.1 13.1 0 0 1 3.84-.54c0 .01.01.02.01.03"/><path fill="#d0cfce" d="M40.951 9.512s5.482 8.946 1.145 12.828l5.415 4.493s8.312-12.222-6.56-17.321"/><path fill="#6a462f" d="M45.828 35.883a17.2 17.2 0 0 1-9.17 8.38 1.45 1.45 0 0 1-1.12.01 17.6 17.6 0 0 1-9.52-9.15 18.6 18.6 0 0 1 6.73-3.72c3.8-1.09 8.67-.82 13.08 4.48m-6.29.52a1 1 0 0 0-.89-1.79 5.38 5.38 0 0 1-5.11 0 .994.994 0 0 0-1.34.45 1.01 1.01 0 0 0 .45 1.34 7.33 7.33 0 0 0 6.89 0"/><g fill="#c19a65"><path d="M47.348 26.853a17 17 0 0 1 .09 1.76 16.8 16.8 0 0 1-1.61 7.27c-4.41-5.3-9.28-5.57-13.08-4.48l-.65-2.15a2 2 0 1 0-1.55-3.27l-2.53-1.56a39.5 39.5 0 0 0 4.08-3.79s4.59 3.57 8.33 0a46 46 0 0 0 6.98 6.13Zm-5.25.4a2 2 0 1 0-2 2 2.006 2.006 0 0 0 2-2"/><path d="m32.098 29.253.65 2.15a18.6 18.6 0 0 0-6.73 3.72 17 17 0 0 1-1.26-6.51c0-.62.03-1.23.09-1.84.33-.22 1.59-1.07 3.17-2.35l2.53 1.56a2.03 2.03 0 0 0-.45 1.27 1.993 1.993 0 0 0 2 2"/></g><path d="M40.098 25.253a2 2 0 1 1-2 2 2.006 2.006 0 0 1 2-2M39.988 35.063a.994.994 0 0 1-.45 1.34 7.33 7.33 0 0 1-6.89 0 1.01 1.01 0 0 1-.45-1.34.994.994 0 0 1 1.34-.45 5.38 5.38 0 0 0 5.11 0 .994.994 0 0 1 1.34.45M32.098 25.253a2 2 0 1 1-2 2 2.03 2.03 0 0 1 .45-1.27 2 2 0 0 1 1.55-.73"/><path fill="none" stroke="#000" stroke-miterlimit="10" d="M26.018 35.123a18.6 18.6 0 0 1 6.73-3.72c3.8-1.09 8.67-.82 13.08 4.48"/><path d="M40.098 25.253a2 2 0 1 1-2 2 2.006 2.006 0 0 1 2-2M39.988 35.063a.994.994 0 0 1-.45 1.34 7.33 7.33 0 0 1-6.89 0 1.01 1.01 0 0 1-.45-1.34.994.994 0 0 1 1.34-.45 5.38 5.38 0 0 0 5.11 0 .994.994 0 0 1 1.34.45M32.098 25.253a2 2 0 1 1-2 2 2.03 2.03 0 0 1 .45-1.27 2 2 0 0 1 1.55-.73"/><path fill="none" stroke="#000" stroke-linecap="round" stroke-linejoin="round" stroke-width="2" d="M24.848 26.773c-.06.61-.09 1.22-.09 1.84a17 17 0 0 0 1.26 6.51 17.6 17.6 0 0 0 9.52 9.15 1.45 1.45 0 0 0 1.12-.01 17.2 17.2 0 0 0 9.17-8.38 16.8 16.8 0 0 0 1.61-7.27 17 17 0 0 0-.09-1.76M44.908 45.113c12 0 10 13 10 13M41.468 47.183a35 35 0 0 0 3.33-2M17.038 58.113s-2-13 10-13c3.14 2.09 5.84 3.55 8.87 3.59h.13a12.2 12.2 0 0 0 5.42-1.51M36.108 8.693c0-.01-.01-.02-.01-.03a13.1 13.1 0 0 0-3.84.54c-15.84 4.84-7.5 17.63-7.5 17.63l.09-.06c.33-.22 1.59-1.07 3.17-2.35a39.5 39.5 0 0 0 4.08-3.79 18.7 18.7 0 0 0 4.07-6.24 9 9 0 0 0 .47-1.95 6.9 6.9 0 0 0-.53-3.75"/><path fill="none" stroke="#000" stroke-linecap="round" stroke-linejoin="round" stroke-width="2" d="M23.408 22.963a40.6 40.6 0 0 0 9.66-10.11M36.168 8.663a13.2 13.2 0 0 1 3.85.54c10.25 3.13 10.37 9.6 9.18 13.76a15.6 15.6 0 0 1-1.69 3.87s-.03-.02-.1-.07a46 46 0 0 1-6.98-6.13 21.4 21.4 0 0 1-4.13-6.19"/><path fill="none" stroke="#000" stroke-linecap="round" stroke-linejoin="round" stroke-width="2" d="M48.858 22.963a49.7 49.7 0 0 1-9.3-10.11M32.098 20.633s4.59 3.57 8.33 0h.01M26.018 35.123a18.6 18.6 0 0 1 6.73-3.72c3.8-1.09 8.67-.82 13.08 4.48M44.908 45.113a1 1 0 0 0-.11.07c-.37.21-1.64.96-3.33 2a.01.01 0 0 1-.01.01c-5.09 3.14-14.05 8.95-14.05 10.92"/></svg>