<svg xmlns="http://www.w3.org/2000/svg" viewBox="0 0 72 72"><path fill="#92d3f5" d="M11.935 60.943v-4.219c0-4.994 5.007-9 10-9q9 7.5 18 0c1.368 0 3.122-.278 4.388.261a11.9 11.9 0 0 1 3.237 2.813v10.145"/><g fill="#a57939"><path d="M19.871 30.985c0 9 4.937 14 11 14 5.937 0 11.064-5 11.064-14a12.1 12.1 0 0 0-1-5c-3-3-7-8-7-8-4 3-7 6-13 7 0 0-1.064 1-1.064 6M54.935 60.943 52.997 46.68l.938-1.25 6-2 5-6a1.414 1.414 0 0 0-2-2l-3 3c-1 1-4 0-7 1s-5 3.233-5 5v16.514"/></g><path d="M41.083 26.077c-2.661-.856-7.366-7.937-7.366-7.937-2.662 3.232-12.737 6.986-12.737 6.986-2.995 2.995-.046 13.86-.046 13.86-4 0-4-6-4-13s4-14 14-14 14 7 14 14 0 13-4 13c1.325-2.253.15-12.91.15-12.91"/><path fill="none" stroke="#000" stroke-linecap="round" stroke-linejoin="round" stroke-width="2" d="M20.935 38.985c-4 0-4-6-4-13s4-14 14-14 14 7 14 14 0 13-4 13M11.935 59.985v-3c0-4.994 5.007-9 10-9q9 7.5 18 0a10.3 10.3 0 0 1 4.002.84"/><path d="M36.808 29.985a2 2 0 1 1-2-2 2 2 0 0 1 2 2M28.808 29.985a2 2 0 1 1-2-2 2 2 0 0 1 2 2"/><path fill="none" stroke="#000" stroke-linejoin="round" stroke-width="2" d="M19.871 30.985c0 9 4.937 14 11 14 5.937 0 11.064-5 11.064-14a12.1 12.1 0 0 0-1-5c-3-3-7-8-7-8-4 3-7 6-13 7 0 0-1.064 1-1.064 6Z"/><path fill="none" stroke="#000" stroke-linecap="round" stroke-linejoin="round" stroke-width="2" d="M27.935 37.985a6.55 6.55 0 0 0 6 0M54.935 59.985 52.997 46.68l.938-1.25 6-2 5-6a1.414 1.414 0 0 0-2-2l-3 3c-1 1-4 0-7 1s-5 3.233-5 5v15.556"/></svg>