<svg xmlns="http://www.w3.org/2000/svg" viewBox="0 0 72 72"><g fill="none" stroke="#000" stroke-miterlimit="10" stroke-width="1.8"><rect width="3.898" height="4.931" x="15.325" y="40.826" rx="1.949"/><rect width="3.898" height="4.931" x="20.643" y="37.339" rx="1.949"/><rect width="3.898" height="4.931" x="25.805" y="39.222" rx="1.949"/><rect width="3.898" height="4.931" x="31.104" y="46.795" rx="1.949"/></g><g fill="#ea5a47"><path d="m43.152 25.408 9.664-14.395 5.214 2.753-9.829 14.981-2.783-1.84zM38.054 35.687c-1.216-.281-4.112 2.177-3.223 4.243.737 1.715.87 1.61.414 3.079l3.277-1.392s1.813-1.892 1.477-3.45c-.155-.72-1.041-2.271-1.945-2.48"/><rect width="3.898" height="4.931" x="15.325" y="40.826" rx="1.949"/><rect width="3.898" height="4.931" x="20.643" y="37.339" rx="1.949"/><rect width="3.898" height="4.931" x="25.805" y="39.222" rx="1.949"/><rect width="3.898" height="4.931" x="31.104" y="46.795" rx="1.949"/></g><g fill="#a57939"><path d="M35.555 49.012a2.51 2.51 0 0 0-1.41-1.89 2 2 0 0 1 .29.24 1.99 1.99 0 0 1 .57 1.38v1.03a1.95 1.95 0 0 1-3.9 0v-1.03a1.97 1.97 0 0 1 .98-1.69 2.59 2.59 0 0 0-1.67 1.96l-.08-7.13a3.04 3.04 0 0 0-1.63-2.41 2 2 0 0 1 .43.32 1.97 1.97 0 0 1 .57 1.38v1.03a1.95 1.95 0 1 1-3.9 0v-1.03a1.98 1.98 0 0 1 .82-1.59 3.39 3.39 0 0 0-1.53 2.31l-.03.01-.03-2.49a2.43 2.43 0 0 0-2.49-2.11 2.556 2.556 0 0 0-2.64 2.11l.02 3.92h-.02a2.714 2.714 0 0 0-2.65-2.57 2.49 2.49 0 0 0-2.57 2.57l.06 17.32h20.96Zm-16.33-5.2a1.95 1.95 0 0 1-3.9 0v-1.04a1.95 1.95 0 1 1 3.9 0Zm5.32-3.49a1.95 1.95 0 1 1-3.9 0v-1.03a1.95 1.95 0 1 1 3.9 0Z"/><path d="M35.555 49.012a2.51 2.51 0 0 0-1.41-1.89 2 2 0 0 1 .29.24 1.99 1.99 0 0 1 .57 1.38v1.03a1.95 1.95 0 0 1-3.9 0v-1.03a1.97 1.97 0 0 1 .98-1.69 2.59 2.59 0 0 0-1.67 1.96l-.08-7.13a3.04 3.04 0 0 0-1.63-2.41 2 2 0 0 1 .43.32 1.97 1.97 0 0 1 .57 1.38v1.03a1.95 1.95 0 1 1-3.9 0v-1.03a1.98 1.98 0 0 1 .82-1.59 3.39 3.39 0 0 0-1.53 2.31l-.03.01-.03-2.49a2.43 2.43 0 0 0-2.49-2.11 2.556 2.556 0 0 0-2.64 2.11l.02 3.92h-.02a2.714 2.714 0 0 0-2.65-2.57 2.49 2.49 0 0 0-2.57 2.57l.06 17.32h20.96Zm-16.33-5.2a1.95 1.95 0 0 1-3.9 0v-1.04a1.95 1.95 0 1 1 3.9 0Zm5.32-3.49a1.95 1.95 0 1 1-3.9 0v-1.03a1.95 1.95 0 1 1 3.9 0Z"/></g><g fill="none" stroke="#000" stroke-linecap="round" stroke-linejoin="round" stroke-width="2"><path d="m20.191 56.532-.213-13.461a2.717 2.717 0 0 0-2.655-2.573 2.495 2.495 0 0 0-2.569 2.568l.058 16.625M30.582 56.795l-.17-15.172s-.254-2.584-2.548-2.583c-2.3 0-2.7 2.587-2.7 2.587M35.766 59.691l-.138-10.939a2.443 2.443 0 0 0-2.5-2.108 2.56 2.56 0 0 0-2.636 2.11"/><path d="m25.249 55.233-.137-16.085a2.443 2.443 0 0 0-2.499-2.108 2.56 2.56 0 0 0-2.637 2.11l.028 5.6M39 36.562l6.418-9.655M36.082 43.532s1.87-1.39 2.44-1.915A3.98 3.98 0 0 0 40 38.167a1.82 1.82 0 0 0-2.07-1.514M43.152 25.408l9.664-14.395 5.214 2.753-9.829 14.981-2.783-1.84z"/></g></svg>