<svg xmlns="http://www.w3.org/2000/svg" viewBox="0 0 72 72"><path fill="#d0cfce" d="M48.5 16h-23a2 2 0 1 1 0-4h23a2 2 0 1 1 0 4M48.5 60h-23a2 2 0 1 1 0-4h23a2 2 0 1 1 0 4"/><path fill="#ea5a47" d="M26 16h22v40H26z"/><path fill="#fff" d="M41.823 16 26 25v-4l8.462-5zM26 37l22-13v-4L26 33zM48 32 26 45v4l22-13zM48 44 27.692 56h6.77L48 48z"/><path fill="#92d3f5" d="M48 16h-6.178L26 25v8l22-13zM48 44 27.692 56H26v-7l22-13z"/><g fill="none" stroke="#000" stroke-linecap="round" stroke-linejoin="round" stroke-miterlimit="10" stroke-width="2"><path d="M48.5 16h-23a2 2 0 0 1-2-2h0a2 2 0 0 1 2-2h23a2 2 0 0 1 2 2h0a2 2 0 0 1-2 2M48.5 60h-23a2 2 0 0 1-2-2h0a2 2 0 0 1 2-2h23a2 2 0 0 1 2 2h0a2 2 0 0 1-2 2M26 16h22v40H26z"/><path d="M41.823 16 26 25v-4l8.462-5zM26 37l22-13v-4L26 33zM48 32 26 45v4l22-13zM48 44 27.692 56h6.77L48 48z"/><path d="M48 16h-6.178L26 25v8l22-13zM48 44 27.692 56H26v-7l22-13z"/></g></svg>