<svg xmlns="http://www.w3.org/2000/svg" viewBox="0 0 72 72"><g fill="#ea5a47"><path d="M36 16.54c-8.293 0-16.662-4.314-16.662-4.314-.978-.504-1.327-.137-.776.815 0 0 5.914 10.214 17.438 10.126 11.524.088 17.438-10.126 17.438-10.126.55-.952.202-1.319-.776-.815 0 0-8.369 4.314-16.662 4.314M36 55.46c8.293 0 16.662 4.314 16.662 4.314.978.504 1.327.137.776-.815 0 0-5.914-10.214-17.438-10.126-11.524-.088-17.438 10.126-17.438 10.126-.55.952-.202 1.319.776.815 0 0 8.369-4.314 16.662-4.314M55.46 36c0-8.293 4.314-16.662 4.314-16.662.504-.978.137-1.327-.815-.776 0 0-10.214 5.914-10.126 17.438-.088 11.524 10.126 17.438 10.126 17.438.952.55 1.319.202.815-.776 0 0-4.314-8.369-4.314-16.662M22.167 36c.097-12.677-8.135-16.285-10.126-17.438-.952-.55-1.319-.202-.815.776 0 0 5.064 8.369 5.064 16.662s-5.064 16.662-5.064 16.662c-.504.978-.137 1.327.815.776C14.032 52.285 22.264 48.677 22.167 36"/></g><g fill="none" stroke="#000" stroke-linecap="round" stroke-miterlimit="10" stroke-width="2"><path d="M36 16.54c-8.293 0-16.662-4.314-16.662-4.314-.978-.504-1.327-.137-.776.815 0 0 5.914 10.214 17.438 10.126 11.524.088 17.438-10.126 17.438-10.126.55-.952.202-1.319-.776-.815 0 0-8.369 4.314-16.662 4.314ZM36 55.46c8.293 0 16.662 4.314 16.662 4.314.978.504 1.327.137.776-.815 0 0-5.914-10.214-17.438-10.126-11.524-.088-17.438 10.126-17.438 10.126-.55.952-.202 1.319.776.815 0 0 8.369-4.314 16.662-4.314ZM55.46 36c0-8.293 4.314-16.662 4.314-16.662.504-.978.137-1.327-.815-.776 0 0-10.214 5.914-10.126 17.438-.088 11.524 10.126 17.438 10.126 17.438.952.55 1.319.202.815-.776 0 0-4.314-8.369-4.314-16.662ZM11.226 52.662c-.504.978.613 1.327 1.565.776 0 0 9.964-5.914 9.876-17.438.088-11.524-9.876-17.438-9.876-17.438-.952-.55-1.319-.202-.815.776 0 0 4.314 8.369 4.314 16.662s-5.064 16.662-5.064 16.662Z"/></g></svg>