<svg xmlns="http://www.w3.org/2000/svg" viewBox="0 0 72 72"><path fill="#61b2e4" d="M34.72 47.78c-1.529 3.035-4.173 5.48-7.63 6.623-3.458 1.142-7.039.752-10.063-.742a13.19 13.19 0 0 1-6.589-7.642c-1.804-5.463 1.952-14.527 4.665-21.06.44-1.105.87-2.128 1.24-3.095.874.555 1.828 1.122 2.828 1.712 6.07 3.633 14.475 8.643 16.29 14.14 1.142 3.459.753 7.039-.741 10.063M58.359 19.136c1.28 2.471 1.634 5.4.732 8.242s-2.88 5.031-5.323 6.32a10.8 10.8 0 0 1-8.233.704c-4.491-1.425-8.703-8.268-11.735-13.205-.522-.822-.995-1.598-1.458-2.308a84 84 0 0 0 2.494-1.055c5.324-2.284 12.682-5.455 17.202-4.021 2.843.902 5.031 2.88 6.32 5.323M59.116 51.03c-.056 2.013-.857 3.99-2.423 5.472s-3.584 2.175-5.581 2.136a7.8 7.8 0 0 1-5.456-2.438c-2.343-2.474-2.611-8.279-2.802-12.464-.042-.703-.07-1.36-.114-1.971.608.077 1.263.141 1.947.206 4.169.419 9.935.988 12.293 3.479 1.483 1.566 2.175 3.583 2.136 5.58"/><path fill="#92d3f5" d="m20.373 24.296-1.202-.72c-1-.59-1.954-1.157-2.828-1.712-.37.967-.8 1.99-1.24 3.095-2.713 6.533-6.47 15.597-4.665 21.06a13.18 13.18 0 0 0 6.589 7.642c3.024 1.494 6.605 1.884 10.063.742a13 13 0 0 0 4.456-2.537c2.118-7.032-5.328-19.36-11.173-27.57M35.88 17.387l-1.044.447a83 83 0 0 1-2.494 1.055c.463.71.936 1.486 1.458 2.309 3.032 4.936 7.244 11.78 11.735 13.205 2.842.902 5.799.557 8.233-.704 2.443-1.29 4.42-3.478 5.323-6.32.836-2.635.583-5.338-.477-7.688-4.748-2.67-15.344-2.682-22.734-2.304M55.376 57.503c.238-6.028-7.426-12.516-11.66-15.627q-.504-.052-.976-.111c.044.611.072 1.268.114 1.97.19 4.186.459 9.99 2.802 12.465a7.8 7.8 0 0 0 5.456 2.438 7.9 7.9 0 0 0 4.264-1.135"/><g fill="none" stroke="#000" stroke-linecap="round" stroke-linejoin="round" stroke-miterlimit="10" stroke-width="2"><path d="M34.72 47.78c-1.529 3.035-4.173 5.48-7.63 6.623-3.458 1.142-7.039.752-10.063-.742a13.19 13.19 0 0 1-6.589-7.642c-1.804-5.463 1.952-14.527 4.665-21.06.44-1.105.87-2.128 1.24-3.095.874.555 1.828 1.122 2.828 1.712 6.07 3.633 14.475 8.643 16.29 14.14 1.142 3.459.753 7.039-.741 10.063M54.042 14.681a10.95 10.95 0 0 1 4.317 4.455c1.28 2.471 1.634 5.4.732 8.242s-2.88 5.031-5.323 6.32a10.8 10.8 0 0 1-8.233.704c-4.492-1.425-8.703-8.268-11.735-13.205-.522-.822-.995-1.598-1.458-2.308a84 84 0 0 0 2.494-1.055c2.374-1.018 5.153-2.213 7.904-3.098m9.645-.806q.874.311 1.657.751m-2.004-.868q.175.056.347.116m-2.376-.461a8 8 0 0 1 2.03.345m-2.469-.359q.222.003.44.014m-1.514.022q.55-.041 1.074-.036m-2.129.148q.537-.074 1.055-.112m-1.736.22q.344-.06.681-.108m-2.23.432q.786-.191 1.549-.325m-2.413.548q.435-.12.864-.223m-1.297.345q.216-.063.433-.122m-1.607.48q.589-.19 1.174-.359M59.116 51.03c-.056 2.013-.857 3.99-2.423 5.472s-3.584 2.175-5.581 2.136a7.8 7.8 0 0 1-5.456-2.438c-2.343-2.474-2.611-8.279-2.802-12.464-.042-.703-.07-1.36-.114-1.971.608.077 1.263.141 1.947.206 4.169.419 9.935.988 12.293 3.479 1.483 1.566 2.175 3.583 2.136 5.58"/></g></svg>