<svg xmlns="http://www.w3.org/2000/svg" viewBox="0 0 72 72"><path fill="#fcea2b" d="m41.847 36.354-8.541-.037h-1.993v2.958l.009 3.093 7.705.034h2.82z"/><path fill="#6a462f" d="m31.416 41.619-.343-3.744a.12.12 0 0 0-.113-.105s-18.948-1.987-18.945-1.867l.259 7.664 17.81-1.608c.019 0 .033.737.05.73.14-.064.931-.627 1.201-.694.055-.014.088-.32.081-.376M57.124 38.664H42.2v3.481c0 .091.512.173.49.257l17.133-.19.253-6.08c-.235 1.984-2.213 1.963-2.953 2.532"/><path fill="#a57939" d="M12.258 36.814s-.221 1.908 3.76 1.85c2.983-.043 14.852 0 14.852 0l1.024-1.898 9.399-.08 1.397 1.697s11.97.51 14.434.281c3.239-.302 3-3.89 3-4V19.921H12.258zM42.742 41.653h-29.96l.001.02c.539.017-.525 1.317-.525 1.859l.496 15.318h46.929V42.688c0-.494-.387-.884.082-.967l-.248-.068z"/><g fill="none" stroke="#000" stroke-linecap="round" stroke-linejoin="round" stroke-width="2"><path d="M31.456 15.89v-3.838H41.78v3.839M59.433 42.688V58.85h-46.93V42.668M41.951 38.664h14.923a3 3 0 0 0 3-3V19.921H12.008v15.743a3 3 0 0 0 3 3H30.62"/><path d="M31.167 36.317h10.325v5.828H31.167z"/></g></svg>