<svg xmlns="http://www.w3.org/2000/svg" viewBox="0 0 72 72"><rect width="30.791" height="19.437" x="11.524" y="12.102" fill="#fff" rx="2" ry="2"/><path fill="#ea5a47" d="M14.689 14.805h23.904v14.051H14.689z"/><path fill="#d0cfce" d="M27.956 13.411v17.012a.59.59 0 0 1-.598.407h-9.143a.72.72 0 0 1-.598-.407V13.237a.59.59 0 0 1 .598-.406h9.143a.72.72 0 0 1 .598.406z"/><path fill="#fff" d="M31 42h28v16H31z"/><ellipse cx="44.881" cy="49.88" fill="#5c9e31" stroke="#5c9e31" stroke-miterlimit="10" stroke-width="1.5" rx="9.681" ry="5.806"/><path fill="#5c9e31" d="m30.48 40.84-.18 18.521h29.52V40.84zm27.608 14.382h-.24a2.4 2.4 0 0 0-2.45 2.206H34.723a2.387 2.387 0 0 0-2.39-2.206h-.24V44.828h.24a2.346 2.346 0 0 0 2.39-2.206h20.617a2.4 2.4 0 0 0 2.45 2.206h.239v10.393z"/><path fill="#5c9e31" d="M35.917 56.847h18.585v1.684H35.917zM34.423 41.519h18.585v1.684H34.423z"/><path fill="#d0cfce" d="M50.08 41.577v17.186a.59.59 0 0 1-.598.406H40.34a.72.72 0 0 1-.597-.406v-17.36a.59.59 0 0 1 .597-.407h9.143a.72.72 0 0 1 .598.406z"/><ellipse cx="33.214" cy="20.727" fill="#fff" rx="3.526" ry="3.426"/><g fill="none" stroke="#000" stroke-width="1.5"><path stroke-linecap="round" stroke-linejoin="round" d="m48.485 26.717-2.36-3.983 4.1-2.293"/><path stroke-linecap="round" stroke-linejoin="round" d="M47.072 22.888a14.71 14.71 0 0 1 10.822 11.384M23.094 45.255l2.359 3.983-4.099 2.292"/><path stroke-linecap="round" stroke-linejoin="round" d="M24.507 49.084c-5.501-1.39-9.463-5.32-10.572-10.884"/><ellipse cx="33.214" cy="20.727" stroke-miterlimit="10" rx="3.526" ry="3.426"/><path stroke-linecap="round" stroke-linejoin="round" d="M27.956 13.411v17.012a.59.59 0 0 1-.598.407h-9.143a.72.72 0 0 1-.598-.407V13.237a.59.59 0 0 1 .598-.406h9.143a.72.72 0 0 1 .598.406z"/><path stroke-linecap="round" stroke-linejoin="round" d="M22.876 24.443v-2.264l1.554-2.962-1.554 2.962-1.494-2.962M21.442 21.83h2.928M14.928 30.888h-2.151a.557.557 0 0 1-.598-.58V13.352a.557.557 0 0 1 .598-.58h2.151M30.645 12.83l10.398-.057a.557.557 0 0 1 .598.58v16.954a.557.557 0 0 1-.598.58l-10.398-.057"/><path stroke-linecap="round" stroke-linejoin="round" d="M30.645 15.269h8.247v13.122h-8.247M14.928 28.507V15.269M52.47 42.68H55.4a2.4 2.4 0 0 0 2.45 2.206h.239V55.28h-.24a2.4 2.4 0 0 0-2.45 2.207H52.47m-14.88-.058h-2.868a2.387 2.387 0 0 0-2.39-2.207h-.24V44.828h.24a2.346 2.346 0 0 0 2.39-2.206h2.63M50.08 41.577v17.186a.59.59 0 0 1-.598.406H40.34a.72.72 0 0 1-.597-.406v-17.36a.59.59 0 0 1 .597-.407h9.143a.72.72 0 0 1 .598.406z"/><path stroke-linecap="round" stroke-linejoin="round" d="M37.59 59.111h-6.693a.557.557 0 0 1-.597-.58V41.577a.557.557 0 0 1 .597-.581h6.454M52.35 40.996h6.873a.557.557 0 0 1 .598.58v16.955a.557.557 0 0 1-.598.58h-6.872"/><path stroke-linecap="round" stroke-miterlimit="10" d="M51.753 45.757c1.733 1.045 2.869 2.497 2.869 4.123s-1.136 3.077-2.869 4.122M37.351 53.48A4.72 4.72 0 0 1 35.2 49.82a4.93 4.93 0 0 1 2.45-3.89"/><path stroke-linecap="round" stroke-linejoin="round" d="M46.315 48.428a1.34 1.34 0 0 0-1.374-.871h0a1.23 1.23 0 0 0-1.375 1.103 1.267 1.267 0 0 0 1.375 1.103h0a1.23 1.23 0 0 1 1.374 1.103 1.31 1.31 0 0 1-1.374 1.104h0a1.34 1.34 0 0 1-1.375-.87M44.881 47.557v-1.045M44.881 52.957v-1.045"/></g></svg>