<svg xmlns="http://www.w3.org/2000/svg" viewBox="0 0 72 72"><path fill="#ea5a47" d="M18.6 7h5.87a1.57 1.57 0 0 1 1.56 1.57V12h-9V8.57A1.57 1.57 0 0 1 18.6 7"/><path fill="#b1cc33" d="M30 7h5.87a1.57 1.57 0 0 1 1.56 1.57V12h-9V8.57A1.57 1.57 0 0 1 30 7"/><path fill="#92d3f5" d="M45 7h5.87a1.57 1.57 0 0 1 1.56 1.57V12h-9V8.57A1.57 1.57 0 0 1 45 7"/><path fill="#d0cfce" d="M17 12h38v22H17zM17 38h38v22H17z"/><g stroke="#000" stroke-linecap="round" stroke-linejoin="round" stroke-width="2"><path fill="none" d="M18.6 7h5.87a1.57 1.57 0 0 1 1.56 1.57V12h0-9 0V8.57A1.57 1.57 0 0 1 18.6 7M30 7h5.87a1.57 1.57 0 0 1 1.56 1.57V12h0-9 0V8.57A1.57 1.57 0 0 1 30 7M45 7h5.87a1.57 1.57 0 0 1 1.56 1.57V12h0-9 0V8.57A1.57 1.57 0 0 1 45 7M17 12h38v22H17zM17 38h38v22H17zM28 31v10M44 31v10"/><path d="M12 32h2v8h-2zM58 32h2v8h-2z"/><path fill="none" d="M22 18h10M22 22h19M22 26h10"/></g></svg>