<svg xmlns="http://www.w3.org/2000/svg" viewBox="0 0 72 72"><path fill="#fff" d="M11 57.697h49V11.909H15.999l-4 4z"/><path fill="#9b9b9a" d="M55.002 60.91H11.999a1 1 0 0 1-.999-1V16.909c0-.552.447-.999.999-.999h43.003c.55 0 .998.447.998.999V59.91a1 1 0 0 1-.998.998"/><g fill="none" stroke="#000" stroke-linecap="round" stroke-linejoin="round" stroke-miterlimit="10" stroke-width="2"><path d="m11 16.91 4.999-5h43.003c.55 0 .998.446.998.998V55.91a1 1 0 0 1-.998.998"/><path d="M55.002 60.91H11.999a1 1 0 0 1-.999-1V16.909c0-.552.447-.999.999-.999h43.003c.55 0 .998.447.998.999V59.91a1 1 0 0 1-.998.998"/><path d="M47.358 29.799h-4v7h4M43.358 33.298h3M19.642 36.799v-7l5 7v-7M30.858 36.799a2.5 2.5 0 0 1-2.5-2.5v-2a2.5 2.5 0 0 1 2.5-2.5h0a2.5 2.5 0 0 1 2.5 2.5v2a2.5 2.5 0 0 1-2.5 2.5M36.358 29.829h4M38.358 29.829v7"/></g></svg>