<svg xmlns="http://www.w3.org/2000/svg" viewBox="0 0 72 72"><path fill="#d0cfce" d="M13.67 21.31c1.415 9.9 26.87 35.355 36.77 36.77 0 0 5.657 0 8.486-5.658l-9.193-9.192-3.535 3.536c-7.071-1.415-19.8-14.143-21.214-21.214l3.536-3.535-9.192-9.193c-5.657 2.829-5.657 8.486-5.657 8.486"/><path fill="#9b9b9a" d="m25 26-9.084-8.96 2.083-2.728a1.015 1.015 0 0 1 1.499-.127l8.252 7.69zM54.893 55.907l-8.44-8.334 3.227-3.25 8.52 8.484z"/><g fill="none" stroke="#000" stroke-linecap="round" stroke-linejoin="round" stroke-width="2"><path d="M13.67 21.31c1.415 9.9 26.87 35.355 36.77 36.77 0 0 5.657 0 8.486-5.658l-9.193-9.192-3.535 3.536c-7.071-1.415-19.8-14.143-21.214-21.214l3.536-3.535-9.192-9.193c-5.657 2.829-5.657 8.486-5.657 8.486"/><path d="M13.67 21.31c1.415 9.9 26.87 35.355 36.77 36.77 0 0 5.657 0 8.486-5.658l-9.193-9.192-3.535 3.536c-7.071-1.415-19.8-14.143-21.214-21.214l3.536-3.535-9.192-9.193c-5.657 2.829-5.657 8.486-5.657 8.486"/></g></svg>