<svg xmlns="http://www.w3.org/2000/svg" viewBox="0 0 72 72"><path fill="#d0cfce" d="m17.16 15.955.252 39.437L56.03 15.955zm5.25 16.436V22.163c0-.208.087-.408.242-.555a.83.83 0 0 1 .584-.23l10.425.007q.124 0 .24.034c.23.067.422.227.519.445a.75.75 0 0 1-.168.852l-10.424 10.22a.857.857 0 0 1-.903.18.8.8 0 0 1-.478-.494.8.8 0 0 1-.037-.231"/><path fill="#9b9b9a" d="m55.561 16.215-6.776.167-31.537 32.43-.074 6.946z"/><path fill="#d0cfce" d="m23.855 43.289-1.289-1.243M29.408 37.53l-1.289-1.243M32.184 34.651l-1.289-1.243M34.96 31.771l-1.289-1.243M37.737 28.892l-1.289-1.243M43.29 23.133l-1.289-1.243M26.719 40.494l-2.2-2.121M40.601 26.097l-2.2-2.121"/><g fill="none" stroke="#000" stroke-linecap="round" stroke-linejoin="round" stroke-miterlimit="10" stroke-width="2"><path d="M17.065 56.08V16.057l38.78.025z"/><path d="M22.542 34.373v-13.04l12.633.009zM23.855 43.289l-1.289-1.243M29.408 37.53l-1.289-1.243M32.184 34.651l-1.289-1.243M34.96 31.771l-1.289-1.243M37.737 28.892l-1.289-1.243M43.29 23.133l-1.289-1.243M26.719 40.494l-2.2-2.121M40.601 26.097l-2.2-2.121"/></g></svg>