<svg xmlns="http://www.w3.org/2000/svg" viewBox="0 0 72 72"><path fill="#9b9b9a" d="M41 56a5 5 0 0 1-10 0"/><path fill="#d0cfce" d="M67.002 56H4.998A1 1 0 0 1 4 55.002V16.999c0-.552.447-.999.999-.999h62.003c.551 0 .998.447.998.999v38.003a1 1 0 0 1-.999.998"/><path fill="#fff" d="M64.001 51.625H7.998A1 1 0 0 1 7 50.627V21.373c0-.55.447-.998.999-.998h56.003c.551 0 .998.447.998.999v29.253a1 1 0 0 1-.999.998"/><g fill="none" stroke="#000" stroke-linecap="round" stroke-linejoin="round" stroke-miterlimit="10" stroke-width="2"><path d="M41 56a5 5 0 0 1-10 0M67.002 56H4.998A1 1 0 0 1 4 55.002V16.999c0-.552.447-.999.999-.999h62.003c.551 0 .998.447.998.999v38.003a1 1 0 0 1-.999.998"/><path d="M64.001 51.625H7.998A1 1 0 0 1 7 50.627V21.373c0-.55.447-.998.999-.998h56.003c.551 0 .998.447.998.999v29.253a1 1 0 0 1-.999.998M36 17v38M11 27h20M11 33h20M11 39h20M11 45h20M41 27h20M41 33h20M41 39h20M41 45h20"/></g></svg>