<svg xmlns="http://www.w3.org/2000/svg" viewBox="0 0 72 72"><path fill="#9b9b9a" d="M5.263 15.737 4.5 56h62.173L67 16z"/><path fill="#3f3f3f" d="M9 20h54v26H9z"/><path fill="#fff" d="M63 46V20l-14.674-.324 8.902 26.06z"/><path fill="#9b9b9a" d="m34.272 60.958-.21 5.894 4.544.106.195-6.689s-.854-1.3-.301-1.3h-4c.553 0-.228 1.989-.228 1.989"/><path fill="none" stroke="#000" stroke-linecap="round" stroke-linejoin="round" stroke-miterlimit="10" stroke-width="2" d="M5 16h62v40H5z"/><path stroke="#000" stroke-linecap="round" stroke-linejoin="round" stroke-miterlimit="10" stroke-width="2" d="M50.923 66.852H22.077"/><circle cx="36.5" cy="51" r="2"/><path fill="none" stroke="#000" stroke-linecap="round" stroke-linejoin="round" stroke-miterlimit="10" stroke-width="2" d="M9 20h54v26H9zM38.5 59.968v6.386M34.5 59.968v6.386"/></svg>