<svg xmlns="http://www.w3.org/2000/svg" viewBox="0 0 72 72"><path fill="#3f3f3f" d="M56.25 26.12v5.867H28.41v8.067l-12.66-11 12.84-11.02-.181 8.089 27.84-.003"/><g fill="none" stroke="#000" stroke-linecap="round" stroke-linejoin="round" stroke-width="2"><path d="M56.25 31.99H28.41v8.067l-12.66-11 12.66-11v8.066h27.84zM34.99 53.94l-4.1-10-4.09 10M28.16 51.54h5.47M48.64 44.38v9.56M48.64 50.58l5.47-6.2M51.27 47.59l3.28 6.35M44.76 53.04c-.624.554-1.43.86-2.264.859v0a3.41 3.41 0 0 1-3.414-3.413v-2.731a3.414 3.414 0 0 1 3.413-3.413v0a3.4 3.4 0 0 1 2.264.859M21.43 49.1h-3.645v-4.761h3.645a2.38 2.38 0 0 1 2.381 2.38v0A2.38 2.38 0 0 1 21.43 49.1"/><path d="M21.43 53.86h-3.645v-4.761h3.645a2.38 2.38 0 0 1 2.38 2.38v0a2.38 2.38 0 0 1-2.38 2.381"/></g></svg>