<svg xmlns="http://www.w3.org/2000/svg" viewBox="0 0 72 72"><path fill="#3f3f3f" d="M35.991 14 23 28.516h9.527L32.69 40h6.793l-.027-11.484h9.526z"/><g fill="none" stroke="#000" stroke-linecap="round" stroke-linejoin="round" stroke-width="2"><path d="M35.991 14 23 28.516h9.527L32.69 40h6.793l-.027-11.484h9.526zM36.33 55.47a3.57 3.57 0 0 1-3.571-3.571V49.04a3.57 3.57 0 0 1 3.571-3.571h0a3.57 3.57 0 0 1 3.571 3.571V51.9a3.57 3.57 0 0 1-3.571 3.571M24.143 45.5h5.714M27 45.5v10M43.142 55.47v-10h3.813a2.49 2.49 0 0 1 2.49 2.49h0a2.49 2.49 0 0 1-2.49 2.491h-3.813"/></g></svg>