<svg xmlns="http://www.w3.org/2000/svg" viewBox="0 0 72 72"><path fill="#a57939" d="m37.877 21.43-.029 22.122 1.202 3.623-.025 15.706-1.208.002-3.624.006-1.209.002.025-15.706 1.214-3.627.029-22.122z"/><path fill="#9b9b9a" d="M29.704 11.6v9.9H42.43v-5.658s8.486 0 11.314 2.829A15.14 15.14 0 0 0 42.431 11.6a60.5 60.5 0 0 0-12.727 0"/><path fill="#d0cfce" d="m25.89 12.479-.032 8.02a3.34 3.34 0 0 1-3.701.014l.032-8.02a2.617 2.617 0 0 1 3.701-.014Z"/><g fill="none" stroke="#000" stroke-linecap="round" stroke-linejoin="round" stroke-width="2"><path d="m37.877 21.5-.029 22.052 1.202 3.623-.025 15.706-1.208.002-3.624.006-1.209.002.025-15.706 1.214-3.627.029-22.058zM29.704 11.6v9.9H42.43v-5.658s8.486 0 11.314 2.829A15.14 15.14 0 0 0 42.431 11.6a60.5 60.5 0 0 0-12.727 0M25.89 12.479l-.032 8.02h0a3.34 3.34 0 0 1-3.701.014h0l.032-8.02h0a2.617 2.617 0 0 1 3.701-.014Z"/></g></svg>