<svg xmlns="http://www.w3.org/2000/svg" viewBox="0 0 72 72"><path fill="#d0cfce" d="M34.876 39.625a1 1 0 0 1-.518-.144l-7.7-4.66a1 1 0 0 1-.34-1.369l11.117-18.585a1 1 0 0 1 1.376-.342l7.7 4.66c.472.285.623.9.338 1.373 0 0-6.846 11.367-7.127 11.842l-3.986 6.735a1 1 0 0 1-.86.49"/><path fill="#3f3f3f" d="m42.244 13.68 3.422 2.071-2.044 3.401-3.423-2.071z"/><path fill="#d0cfce" d="M16.976 54.983h37v5h-37zM51.833 50.91c-.162 0-.32-.04-.463-.114l-3.595-1.879a1 1 0 0 1-.487-1.197l.245-.75c3.007-9.194-1.977-14.56-5.215-16.941a1 1 0 0 1-.236-1.364l2.203-3.271a1 1 0 0 1 1.424-.244c4.59 3.407 11.67 11.014 7.527 23.685l-.453 1.385c-.135.41-.518.689-.95.69"/><circle cx="42.138" cy="26.325" r="3" fill="#3f3f3f"/><path fill="#3f3f3f" d="M53.209 54.483c-.282-2.516-1.865-5.812-6.318-5.81-4.45.003-8.058 1.86-8.06 6.31z"/><g fill="none" stroke="#000" stroke-linecap="round" stroke-linejoin="round" stroke-width="2"><path d="M32.265 37.58a1.894 1.894 0 0 1-2.433.282 2 2 0 0 1-.879-2.294M38.862 31.891l-3.986 6.734-7.7-4.659L38.293 15.38l7.7 4.659-.879 1.453M17.707 43.069l.818-1.825 19.16 8.589-.818 1.825zM16.976 54.983h37v5h-37zM40.55 16.475l1.69-2.793 3.422 2.07-1.69 2.793zM41.182 50.8a7.081 7.081 0 0 1 12.794 4.183M37.261 50.799h3.921"/><path d="m48.238 48.03.245-.75c3.204-9.796-2.122-15.52-5.572-18.057"/><path d="M45.114 25.952c4.302 3.194 11.134 10.453 7.172 22.572l-.454 1.385"/><circle cx="42.138" cy="26.325" r="3"/></g></svg>