<svg xmlns="http://www.w3.org/2000/svg" viewBox="0 0 72 72"><path fill="#3f3f3f" d="m52.381 18.772-3.578-8.212-6.837 3.37c.238-.108 3.289 7.63 3.289 7.63.11.254 7.126-2.788 7.126-2.788"/><path fill="#9b9b9a" d="m29.095 27.698 3.828-1.665c-.062.017 12.405-4.559 12.405-4.559l-3.2-7.643-15.205 7.56z"/><path fill="#9b9b9a" d="m14.659 27.983 1.76 3.933 13.21-4.419-2.442-6.238-4.023 2.138c.237-.1-8.505 4.586-8.505 4.586"/><path fill="none" stroke="#000" stroke-linecap="round" stroke-linejoin="round" stroke-width="2" d="m16.019 56.662 13.13-20.623h2.475l12.27 20.617M30.462 36.741v23.516M9.748 32.575l2.087-.863M45.633 12.179l3.17-1.62 3.578 8.213-3.18 1.14M26.822 19.924l3.531 11.437"/><circle cx="30.353" cy="31.361" r="2"/><path fill="none" stroke="#000" stroke-linecap="round" stroke-linejoin="round" stroke-width="2" d="m25.028 28.533-8.83 3.199-1.54-3.558 8.888-4.617M30.922 19.78l11.206-5.699 3.127 7.23-12.599 4.518"/></svg>