<svg xmlns="http://www.w3.org/2000/svg" viewBox="0 0 72 72"><path fill="#d0cfce" d="M59.035 60h-46.07a.97.97 0 0 1-.965-.965v-46.07c0-.53.434-.965.965-.965h46.07c.53 0 .965.434.965.965v46.07c0 .53-.434.965-.965.965"/><g fill="none" stroke="#000" stroke-linejoin="round" stroke-miterlimit="10" stroke-width="2"><path d="M59.035 60h-46.07a.97.97 0 0 1-.965-.965v-46.07c0-.53.434-.965.965-.965h46.07c.53 0 .965.434.965.965v46.07c0 .53-.434.965-.965.965z"/><path stroke-linecap="round" d="m33.611 33.175-4.628-10.8-4.629 10.8M25.897 30.589h6.171M32.19 48.404c-.68.604-1.576.971-2.558.971h0a3.857 3.857 0 0 1-3.857-3.857v-3.086 3.086-3.086a3.857 3.857 0 0 1 3.857-3.857h0c.982 0 1.878.367 2.559.97M44.817 27.775h-4.118v-5.38h4.118a2.69 2.69 0 0 1 2.69 2.69h0a2.69 2.69 0 0 1-2.69 2.69M44.817 33.155h-4.118v-5.38h4.118a2.69 2.69 0 0 1 2.69 2.69h0a2.69 2.69 0 0 1-2.69 2.69M45.5 49.355h-4.874v-10.76H45.5a2.08 2.08 0 0 1 2.08 2.08v6.6a2.08 2.08 0 0 1-2.08 2.08"/></g></svg>