<svg xmlns="http://www.w3.org/2000/svg" viewBox="0 0 72 72"><path fill="#9b9b9a" d="M56.5 57.039h12v-41.11h-64v41.11h12z"/><path fill="#9b9b9a" d="M16.5 56h-12V15.929h64V56h-12"/><path fill="#d0cfce" d="M5.393 15.929h7.141V56H5.393zM60.136 15.929h7.918V56h-7.918zM15.5 15.412V4.992h42V15.93"/><path fill="#d0cfce" d="M16.5 12.503v-7.51h40v7.882"/><path fill="#3f3f3f" d="M52.54 44.433V68H20.46V44.433"/><path fill="#3f3f3f" d="M51.586 50.587V68H21.414V50.587"/><path fill="#fff" d="M61.145 20.335v31.95M46.783 44.453v19.303H26.217V44.453M11.5 20.335v31.95"/><g fill="none" stroke="#000" stroke-linecap="round" stroke-linejoin="round" stroke-miterlimit="10" stroke-width="2"><path d="M16.5 12.503v-7.51h40v7.882M51.586 50.587V68H21.414V50.587M61.145 20.335v31.95"/><path d="M46.783 44.453v19.303H26.217V44.453M29.528 48.378h13.944M29.528 53.205h13.944M29.528 58.504h13.944M11.5 20.335v31.95"/><path d="M16.5 52.285V49.15a4.716 4.716 0 0 1 4.716-4.717h30.568A4.716 4.716 0 0 1 56.5 49.15v3.135"/><path d="M56.5 56h12V15.929h-64V56h12"/></g></svg>