<svg xmlns="http://www.w3.org/2000/svg" viewBox="0 0 72 72"><path fill="#9b9b9a" d="m66.97 53.808-5.301-4.577-3.889-4.856a1 1 0 0 0-.155-.156l-4.922-3.938-2.918-3.485a1 1 0 0 0-.11-.113l-5.12-4.447-6.24-5.093a1 1 0 0 0-.681-.224L36 27h-4a1 1 0 0 0-.707.293l-7.933 7.94-6 4.999a1 1 0 0 0-.149.154l-5.343 6.858-7.304 6.577a1 1 0 0 0 .669 1.744h61.084a1 1 0 0 0 .653-1.757"/><path fill="#fff" d="m52.557 40.104-2.7-2.838-6.434-5.769-5.74-4.343-1.683.083h-4.25l-2.5 2.25-6.09 6.23-5.842 4.544c.43.394 3.682 1.226 4.682.226.932-.932 1.774-1.16 2-1 .288.203-.444 1.536-1 4-.283 1.253-.276 2.717 0 3 .443.453 1 0 2-1l1-1c1-1 2-3 3-3s1 1.199 1 2c0 1-.117 1.988 0 3 .101.872 0 2 1 2 .945 0 2-4 3-5s3-1 4 0 3 4 4 3c3-1 1-4 2-4 .802 0 1.545.684 3 2 .96.868 1.103 1.357 2 2 .825.59 1.61 1.24 2 1 .622-.383.308-3.026-1-5-.52-.785-.537-1.429 0-2 .59-.628 1.087-.813 1.442-.677z"/><g fill="none" stroke="#000" stroke-linecap="round" stroke-linejoin="round" stroke-width="2"><path d="m66.316 54.565-5.37-4.636L57 45M52 41l5 4M5.233 54.565l7.37-6.636L18 41M18 41l6-5 5-5 3-3h4l1.683-.082 6.24 5.093 5.096 4.426L52 41"/><path d="M42 47c3-1 1-4 2-4 .802 0 1.545.684 3 2 .96.869 1.103 1.357 2 2 .825.591 1.61 1.24 2 1 .622-.382.308-3.026-1-5-.52-.785-.555-1.445 0-2 1-1 1-.734 1-1M18 41c.43.394 3 1 4 0 .932-.932 1.774-1.16 2-1 .288.203-.444 1.536-1 4-.283 1.253-.276 2.718 0 3 .443.454 1 0 2-1l1-1c1-1 2-3 3-3s1 1.2 1 2c0 1-.117 1.989 0 3 .101.872 0 2 1 2 .945 0 2-4 3-5s3-1 4 0 3 4 4 3"/></g></svg>