<svg xmlns="http://www.w3.org/2000/svg" viewBox="0 0 72 72"><path d="M41.636 24.407a1.09 1.09 0 0 0-.692-.644c-.203-.064-5.113-1.463-11.38 6.527a1.085 1.085 0 0 0 .85 1.754l12.612.033h.003a1.084 1.084 0 0 0 1.012-1.477zM47.243 23.118a1.085 1.085 0 0 0-1.203 1.518l2.934 6.323a1.085 1.085 0 0 0 1.079.623l3.254-.288a1.08 1.08 0 0 0 .98-1.212c-.685-5.586-6.785-6.91-7.045-6.964Z"/><path fill="none" stroke="#000" stroke-linecap="round" stroke-linejoin="round" stroke-width="2" d="M27.716 59.86c.592-2.487-.597-5.027.077-7.406.593-2.463.744-4.849.832-7.3"/><path fill="#d0cfce" d="M55.791 44.999c-.085-9.93-1.698-17.092-1.928-17.658-.719-3.313-3.185-6.015-4.55-8.073-.42-.633-.784-1.18-.921-1.456-.132-.262-.162-.6-.198-.989-.051-.57-.11-1.214-.515-1.822-.605-.91-1.69-1.331-2.832-1.622a1.63 1.63 0 0 0-.87-.54l-.058-.032c-1.354-.758-3.039-1.702-4.504-1.798a19 19 0 0 0-.897-.03q-.33-.003-.66-.017c-.838-.036-1.831.19-2.789.412-.823.192-1.652.383-2.284.37-1.8-.06-5.001 1.81-6.072 2.874l-2.416 2.895c-.223.305-.543.832-.883 1.12-.73.619-1.635 1.385-1.703 2.757-.356 1.158-.13 2.114-1.1 3.04l-.586.972c-2.242 3.54-1.696 4.94-2.61 7.722-.45 1.366 1.217 3.023 1.136 4.43l-.755 5.073c-.415.963-2.177 5.93-.87 10.894.175.659.357 1.422.317 2.142q-.012.194-.037.387a6 6 0 0 0-.053.734c.006.603.179 1.17.33 1.672.176.58.329 1.083.214 1.506a.82.82 0 0 0 .135.702c.15.2.125.273.376.277l31.502-.058h.13a.85.85 0 0 0 .622-.295c.158-.18.344-.37.308-.606-.192-1.263-.656-4.416-.292-6.452l3.298-.401a.81.81 0 0 0 .708-.705z"/><path d="M41.513 24.274a1.09 1.09 0 0 0-.692-.644c-.202-.064-4.99-1.33-11.257 6.66a1.085 1.085 0 0 0 .85 1.754l12.4.033h.215c.206 0 .48-.176.682-.471s.32-.805.19-1.14zM47.243 23.118a1.085 1.085 0 0 0-1.203 1.518l2.934 6.323a1.085 1.085 0 0 0 1.079.623l3.254-.288a1.08 1.08 0 0 0 .98-1.212c-.685-5.586-6.785-6.91-7.045-6.964Z"/><path fill="#3f3f3f" d="M27.325 60.958c1.375-2.83-.305-5.773.468-8.504.927-3.851.83-7.68.98-11.509.017-4.84-1.662-9.465-.02-13.453 0 0 .824-3.72 2.955-5.28 1.887-1.383 3.999-3.55 5.587-5.295 1.733-1.997 3.968-3.212 6.546-2.3 1.558.515 1.227-1.757-.034-1.81-6.186-3.884-15.79-1.27-19.622 4.706-1.744 2.135-1.99 4.703-3.024 6.117-4.396 6.018-1.373 8.898-2.145 15.34-.24 2.014-2.565 11.692-.625 16.703.64 1.653-.785 3.539-.23 5.25z"/><path fill="#9b9b9a" d="m43.019 42.484 2.92-4.502 6.622-.79-2.838 4.774z"/><g fill="none" stroke="#000" stroke-linecap="round" stroke-linejoin="round" stroke-width="2"><path d="m47.023 24.18 5.692 12.815-6.972.987"/><path d="M53.212 30.214c.101-4.543-4.737-10.528-5.475-12.003-.43-.86-.12-1.91-.662-2.724-.543-.816-1.716-1.155-2.794-1.399 0 0-2.028-.905-2.83-1.707-.633-.634-6.628-1.269-11.782.821 0 0-2.956 1.416-4.642 5.08-.583 1.266-2.013 1.64-2.434 3.272-.395 1.528-1.664 3.47-2.414 4.858-3.668 6.794-.903 9.097-1.162 13.528l-1.333 6.791s-.92 6.096.481 8.275c.588.915-.692 2.09-.042 4.854M44.792 45.457c.781-.78 1.586-1.117 2.742-.908.554.1 1.569.266 2.127.344.618.088 1.905-.79 1.905-.79s2.132-1.438 3.05.788M49.886 52.827c-.608 2.053-.286 5.678-.081 7.033"/><path d="m43.324 41.464 2.42-3.482-5.12-13.183M52.715 36.995l-2.688 3.95M47.208 47.406c.366-.026.752.024 1.11.1.75.162 1.513.337 2.266.187.817-.163 2.726-1.61 3.72-.616"/><path d="m54.68 45.036-.93 7.32-3.864.47s-6.405.08-11.891-1.57-9.404-1.625-10.403-11.316M43.184 13.544s-5.391.59-6.001 2.152c-.522 1.335-5.577 5.557-7.031 6.752a2.6 2.6 0 0 0-.644.781c-.437.813-1.338 2.572-1.916 4.263"/></g></svg>