<svg xmlns="http://www.w3.org/2000/svg" viewBox="0 0 72 72"><circle cx="36" cy="36" r="24" fill="#fcea2b"/><path fill="#fff" d="M50.595 41.64a11.6 11.6 0 0 1-.87 4.49c-12.49 3.03-25.43.34-27.49-.13a11.4 11.4 0 0 1-.83-4.36h.11s14.8 3.59 28.89.07Z"/><path fill="#ea5a47" d="M49.725 46.13c-1.79 4.27-6.35 7.23-13.69 7.23-7.41 0-12.03-3.03-13.8-7.36 2.06.47 15 3.16 27.49.13"/><path fill="#92d3f5" d="M65.756 47.338a4.24 4.24 0 0 1-6 0c-2.973-2.97-3.007-8.96-3.007-9.02.231.013 6.05.063 9.007 3.019a4.24 4.24 0 0 1 0 6M6.24 47.339a4.24 4.24 0 0 1-.002-6.002c2.972-2.971 8.961-3.006 9.02-3.006-.012.231-.062 6.051-3.018 9.007a4.24 4.24 0 0 1-6 0"/><g fill="none" stroke="#000" stroke-width="2"><path stroke-linecap="round" stroke-linejoin="round" d="m58.848 33.34-.02-.167a23.003 23.003 0 0 0-45.624-.253c-.015.107-.039.313-.052.42M17.183 49.229A23.53 23.53 0 0 0 36 59a23.34 23.34 0 0 0 18.757-9.687"/><path stroke-linecap="round" stroke-linejoin="round" d="M20.695 28.2a6.3 6.3 0 0 1 3.39-3 6.3 6.3 0 0 1 4.53-.42M51.305 28.2a7.19 7.19 0 0 0-7.909-3.43M50.595 41.64a11.6 11.6 0 0 1-.87 4.49c-12.49 3.03-25.43.34-27.49-.13a11.4 11.4 0 0 1-.83-4.36h.11s14.8 3.59 28.89.07Z"/><path stroke-linecap="round" stroke-linejoin="round" d="M49.725 46.13c-1.79 4.27-6.35 7.23-13.69 7.23-7.41 0-12.03-3.03-13.8-7.36 2.06.47 15 3.16 27.49.13"/><path stroke-linejoin="round" d="M65.756 47.338a4.24 4.24 0 0 1-6 0c-2.973-2.97-3.007-8.96-3.007-9.02.231.013 6.05.063 9.007 3.019a4.24 4.24 0 0 1 0 6ZM6.24 47.339a4.24 4.24 0 0 1-.002-6.002c2.972-2.971 8.961-3.006 9.02-3.006-.012.231-.062 6.051-3.018 9.007a4.24 4.24 0 0 1-6 0Z"/><path stroke-linecap="round" stroke-miterlimit="10" d="M31.694 35.164a4.726 4.726 0 0 0-8.638 0M48.944 35.164a4.726 4.726 0 0 0-8.638 0"/></g></svg>