<svg xmlns="http://www.w3.org/2000/svg" viewBox="0 0 72 72"><path fill="#92d3f5" d="M17 60.958v-4c0-4.994 5.008-9 10-9q9 7.5 18 0c4.994 0 10 4.006 10 9v4"/><path fill="#fadcbc" d="M24.937 30.958c0 9 4.936 14 11 14 5.936 0 11.063-5 11.063-14a12.1 12.1 0 0 0-1-5c-3-3-7-8-7-8-4 3-7 6-13 7 0 0-1.064 1-1.064 6"/><path fill="#a57939" d="M46.716 28.74c.03-1.626-7.665-10.91-7.716-10.782-.761 1.875-10.225 6.704-13.14 7.827-3.048 1.174.102 13.173.102 13.173-4 0-4-6-4-13s4-14 14-14 14 7 14 14 0 13-4 13c.41-.097.714-8.041.754-10.218"/><path fill="none" stroke="#000" stroke-linecap="round" stroke-linejoin="round" stroke-width="2" d="M26 38.958c-4 0-4-6-4-13s4-14 14-14 14 7 14 14 0 13-4 13M17 59.958v-3c0-4.994 5.008-9 10-9q9 7.5 18 0c4.994 0 10 4.006 10 9v3"/><path fill="none" stroke="#000" stroke-linejoin="round" stroke-width="2" d="M24.937 30.958c0 9 4.936 14 11 14 5.936 0 11.063-5 11.063-14a12.1 12.1 0 0 0-1-5c-3-3-7-8-7-8-4 3-7 6-13 7 0 0-1.064 1-1.064 6Z"/><path d="M41.873 29.958a2 2 0 0 1-4 0c0-1.104 2.023-2 3.127-2a3.26 3.26 0 0 1 .873 2M34 29.958a2 2 0 0 1-4 0 3.12 3.12 0 0 1 1-2c1.105 0 3 .896 3 2"/><path fill="none" stroke="#000" stroke-linecap="round" stroke-linejoin="round" stroke-width="2" d="M39 37.958c-1-2-5-2-6 0"/></svg>