<svg xmlns="http://www.w3.org/2000/svg" viewBox="0 0 72 72"><circle cx="36.342" cy="38.86" r="19.658" fill="#fcea2b"/><g fill="none" stroke="#000" stroke-linecap="round" stroke-linejoin="round" stroke-width="2"><path d="M40.96 50.716c-.922 1.04-2.502 1.704-4.742 1.704-2.223 0-3.804-.657-4.735-1.684M32.639 43.63c-3.336 1.78-6.56 0-6.56 0M46.784 43.63c-3.336 1.78-6.56 0-6.56 0"/><path d="M49.105 52.746a18.8 18.8 0 0 1-12.763 4.974c-10.416 0-18.86-8.444-18.86-18.86S25.926 20 36.342 20c3.04 0 5.912.72 8.455 1.997M55.202 38.86c0 1.905-.282 3.744-.808 5.478M48 56.702S50 71.717 52 48M50.5 22c1.5 1 2.5 6 2.548 12.93M45.613 17.683c1.5 1 2.5 6 2.548 12.93"/></g></svg>