<svg xmlns="http://www.w3.org/2000/svg" viewBox="0 0 72 72"><g fill="none" stroke="#000" stroke-linecap="round" stroke-linejoin="round" stroke-miterlimit="10" stroke-width="2"><path d="M50.384 47.207c-1.74 1.45-3.545 2.013-3.826 2.095 1.277 3.9 1.531 7.334.856 9.363M23.741 31.407c4.081-1.403 9.826.106 12.418 4.545 2.525-4.21 7.887-5.739 11.822-4.717M25.721 59.576c-.71-2.819-.848-5.519.32-10.836-.222-.045-2.222-.485-4.122-1.928"/></g><circle cx="36.116" cy="36" r="24" fill="#6a462f"/><path fill="#a57939" d="M26.108 57.887c-1.017-3.403-1.424-6.047-.067-12.226-.354-.072-5.265-1.156-7.027-5.74-1.568-4.082.169-8.835 3.654-11 4.232-2.629 10.528-1.122 13.491 3.952 3.038-5.064 9.313-6.54 13.491-3.952 3.578 2.215 4.99 7.02 3.654 11-1.575 4.694-6.278 6.165-6.746 6.302.941 4.107 1.205 6.234.856 8.063-.112.583-.697 1.054-1.414 2.635-.39.858-3.748.522-4 1"/><path fill="#fff" d="M41.98 48.917c-.204.268-.753 6.022-6.34 6.025-4.952.002-5.44-5.677-5.704-6.025z"/><path fill="#6a462f" d="M19.232 18.438c-.36 0-8.025-2.127-11.488 4.621-3.06 5.959-.388 10.255 4.024 14.237M52.933 18.807c.346 0 8.002-2.56 11.327 3.919 2.937 5.72.469 11.892-4.161 14.184"/><path fill="#a57939" d="M18.945 50.455c-.48-6.04.04-.08-.441-6.12a31.5 31.5 0 0 0 2.059-8.441c.288-2.88-.015-3.956-.412-10.3-.523-8.345-.239-10.29-1.03-10.496-1.419-.369-4.444 5.347-5.97 10.497-1.621 5.467-1.56 10.32-1.236 13.593-.892 7.687-.308-2.417-1.2 5.27"/><path fill="#6a462f" d="m11.304 39.19.061.044c.171-.762-.06-.044-.06-.044M19 57.92c-.522-6.08-.535-13.547-.535-13.547l-7.1-5.138c-.13.578-.492 2.01-1.365 5.26z"/><path fill="#a57939" d="M53.402 50.455c.48-6.04-.04-.08.441-6.12a31.5 31.5 0 0 1-2.059-8.441c-.288-2.88.014-3.956.412-10.3.523-8.345.239-10.29 1.03-10.496 1.419-.369 4.444 5.347 5.97 10.497 1.621 5.467 1.559 10.32 1.236 13.593.892 7.687.599-1.14 1.49 6.547"/><path fill="#6a462f" d="m60.893 39.503.428-.313s-.316-.251-.428.313M62 45.92c-1.104-4.154-1.231-5.79-1.107-6.417l-6.994 5.119s.044 7.926-.497 14.299z"/><circle cx="26.838" cy="38.251" r="3"/><circle cx="45.395" cy="38.251" r="3"/><path fill="none" stroke="#000" stroke-linecap="round" stroke-linejoin="round" stroke-miterlimit="10" stroke-width="2" d="M41.98 49.017c-.204.268-.753 6.022-6.34 6.025-4.952.002-5.44-5.677-5.704-6.025z"/><circle cx="34.099" cy="44.558" r="1"/><circle cx="37.738" cy="44.558" r="1"/><path fill="none" stroke="#000" stroke-linecap="round" stroke-linejoin="round" stroke-miterlimit="10" stroke-width="2" d="M11.684 20.184c-1.206.646-2.345 1.703-3.212 3.391-1.708 3.328-1.274 6.252.084 8.822M60.542 20.261c1.153.652 2.238 1.692 3.071 3.314 1.603 3.122 1.32 5.89.157 8.343M50.012 54.208A22.9 22.9 0 0 1 35.957 59a22.9 22.9 0 0 1-13.654-4.49M23.838 16.449A22.9 22.9 0 0 1 35.958 13c4.589 0 8.864 1.344 12.453 3.66M18.945 56.9c-.48-6.04.04-6.425-.441-12.464a31.5 31.5 0 0 0 2.059-8.442c.288-2.88-.015-3.956-.412-10.3-.523-8.345-.239-10.29-1.03-10.496-1.419-.369-4.444 5.346-5.97 10.496-1.621 5.468-1.236 13.594-1.236 13.594l-1.2 5.27M53.402 57.987c.48-6.04-.04-7.512.441-13.551a31.5 31.5 0 0 1-2.059-8.442c-.288-2.88.014-3.956.412-10.3.523-8.345.239-10.29 1.03-10.496 1.419-.369 4.444 5.346 5.97 10.496 1.621 5.468 1.236 13.594 1.236 13.594l1.49 6.547"/></svg>