<svg xmlns="http://www.w3.org/2000/svg" viewBox="0 0 72 72"><path fill="#92d3f5" d="M17.008 60.958v-4c0-4.994 2.762-7.12 6.985-9.412 5.363-2.458 16.561-2.918 23.948-.13 3.318 1.461 7.067 4.548 7.067 9.542v4"/><g fill="#c19a65"><path d="M25.841 30.292c0 9 4.04 14.666 10.104 14.666 5.936 0 10.105-5.93 10.105-14.93 0-3-.042-4.07-.042-4.07-3-3-7-8-7-8-4 3-7 6-13 7 0 0-.167.334-.167 5.334"/><path d="m42.564 38.403 8-7a1.414 1.414 0 0 1 2 2l-5 6M50.008 60.916l-16-17-3.555-4-1-1-6-4.555a1.414 1.414 0 0 0-2 2l3 3.555a39.3 39.3 0 0 0 2 6c.632 1.265 3.555 2 3.555 2l2 2 8 11"/><path d="m22.008 60.916 16-17 3.556-4 1-1 6-4.555a1.414 1.414 0 0 1 2 2l-3 3.555a39.3 39.3 0 0 1-2 6c-.633 1.265-3.556 2-3.556 2l-2 2-8 11M29.453 38.403l-8-7a1.414 1.414 0 0 0-2 2l5 6"/></g><path fill="#6a462f" d="M39.244 18.446c.174.982-11.093 5.57-12.996 6.55s-.346 5.258-.346 5.258a28.6 28.6 0 0 0 .388 4.764l-5.034-3.75a49 49 0 0 1-.245-5.224c0-7 5-14.062 15-14.062s15 7.062 15 14.062c0 1.736-.062 3.407-.215 4.937l-5.19 3.903a31 31 0 0 0 .444-4.856l.563-2.046Z"/><path fill="none" stroke="#000" stroke-linecap="round" stroke-linejoin="round" stroke-width="2" d="M22.011 27.958q-.004-.982-.003-2c0-7 5-14 14-14a13.75 13.75 0 0 1 14 14c0 .6.004 1.132.005 1.666"/><path d="M41.881 29.958a2 2 0 1 1-2-2 2 2 0 0 1 2 2M33.881 29.958a2 2 0 1 1-2-2 2 2 0 0 1 2 2"/><path fill="none" stroke="#000" stroke-linecap="round" stroke-linejoin="round" stroke-width="2" d="M46.971 29.956a11.7 11.7 0 0 0-.963-3.998c-3-3-7-8-7-8-4 3-7 6-13 7 0 0-.928.873-1.05 5.07M34.008 37.958h4M47.94 48.408c3.85 1.177 7.068 4.546 7.068 8.55v3M17.008 59.958v-3c0-3.975 3.172-7.324 6.985-8.524M42.564 38.403l8-7a1.414 1.414 0 0 1 2 2l-5 6M29.453 38.403l-8-7a1.414 1.414 0 0 0-2 2l5 6M36.01 54.906l-4.002 5.052"/><path fill="none" stroke="#000" stroke-linecap="round" stroke-linejoin="round" stroke-width="2" d="m35.977 45.494 5.587-6.091 1-1 6-4.556a1.414 1.414 0 0 1 2 2l-3 3.556a39.3 39.3 0 0 1-2 6c-.633 1.264-3.556 2-3.556 2l-2.127 2M22.008 59.958l10-10.555"/><path fill="none" stroke="#000" stroke-linecap="round" stroke-linejoin="round" stroke-width="2" d="m50.008 59.958-16-16.555-3.555-4-1-1-6-4.556a1.414 1.414 0 0 0-2 2l3 3.556a39.3 39.3 0 0 0 2 6c.632 1.264 3.555 2 3.555 2l2 2 8 10.555"/></svg>