<svg xmlns="http://www.w3.org/2000/svg" viewBox="0 0 72 72"><path fill="#fff" d="m4.17 33.447-.206 21.442 63.747.077.306-31.912L49.915 10.32 29.048 24.972l-8.054-7.364z"/><path fill="#b1cc33" d="M22.087 36.099h45.278v12.025H22.087z"/><rect width="6.341" height="10.646" x="34.919" y="32.77" fill="#92d3f5" rx="1.058" ry="1.058"/><rect width="6.341" height="10.646" x="21.963" y="32.77" fill="#92d3f5" rx="1.058" ry="1.058"/><rect width="6.341" height="10.646" x="47.929" y="32.77" fill="#92d3f5" rx="1.058" ry="1.058"/><rect width="6.341" height="10.646" x="60.939" y="32.77" fill="#92d3f5" rx="1.058" ry="1.058"/><path fill="#d0cfce" d="M34.31 51.646a4.245 4.245 0 0 1-8.489.042v-.042M63.277 51.646a4.244 4.244 0 1 1-8.49 0"/><path fill="#92d3f5" d="m16 22 5-5 5 5-2 1-2-2-2 2-2-1-3 2-1-1zM42.167 15.429 50.083 9 58 15.429l-3.167 1.285-3.166-2.571-3.167 2.571-3.167-1.285L40.583 18 39 16.714z"/><path fill="#3f3f3f" d="M22.757 47.584h43.938v4.063H22.757z"/><g fill="none" stroke="#000" stroke-linecap="round"><path stroke-linejoin="round" stroke-width="2" d="M4 56h64M68 22 50 9 29 24l-8-8L4 32"/><path stroke-miterlimit="10" stroke-width="2.074" d="M23.71 50.646h-.82a.89.89 0 0 1-.888-.888V28.824a1.9 1.9 0 0 1 1.896-1.897h41.485a1.9 1.9 0 0 1 1.897 1.897v20.934a.89.89 0 0 1-.888.888h-.83M52.532 50.646H36.406M34.31 51.898a4.245 4.245 0 0 1-8.489.042v-.041M63.277 51.646a4.244 4.244 0 1 1-8.49 0"/><rect width="6.341" height="10.646" x="34.919" y="32.78" stroke-miterlimit="10" stroke-width="2.074" rx="1.058" ry="1.058"/><rect width="6.341" height="10.646" x="21.963" y="32.78" stroke-miterlimit="10" stroke-width="2.074" rx="1.058" ry="1.058"/><rect width="6.341" height="10.646" x="47.757" y="32.859" stroke-miterlimit="10" stroke-width="2.074" rx="1.058" ry="1.058"/><rect width="6.341" height="10.646" x="60.939" y="32.859" stroke-miterlimit="10" stroke-width="2.074" rx="1.058" ry="1.058"/><path stroke-miterlimit="10" stroke-width="1.97" d="M20.945 47.566h47.368"/></g></svg>