<svg xmlns="http://www.w3.org/2000/svg" viewBox="0 0 72 72"><path fill="#3f3f3f" d="M40.688 27.031c0-.345-.35-.625-.782-.625h-7.812c-.432 0-.781.28-.781.625v.938h9.375z"/><path fill="#b1cc33" d="M58.656 58.828H13.344A2.35 2.35 0 0 1 11 56.484V29.922a2.35 2.35 0 0 1 2.344-2.344h45.312A2.35 2.35 0 0 1 61 29.922v26.562a2.35 2.35 0 0 1-2.344 2.344"/><path fill="#3f3f3f" d="M20.375 33.2c0-1.141-1.055-2.075-2.344-2.075H11v8.646h9.375z"/><path fill="#9b9b9a" d="M11 39.77v8.647h7.031c1.29 0 2.344-.934 2.344-2.075V39.77zM51.625 39.77v6.572c0 1.14 1.055 2.075 2.344 2.075H61V39.77z"/><path fill="#3f3f3f" d="M61 31.125h-7.031c-1.29 0-2.344.934-2.344 2.075v6.57H61z"/><path fill="#5c9e31" d="M11 51.75h50v3.872H11z"/><path fill="#9b9b9a" d="M24.281 38.906v5.558c0 1.228 1.05 2.223 2.344 2.223h4.688c1.294 0 2.343-.995 2.343-2.223v-5.558z"/><path fill="#3f3f3f" d="M33.656 33.348c0-1.228-1.049-2.223-2.343-2.223h-4.688c-1.294 0-2.344.995-2.344 2.223v5.558h9.375z"/><path fill="#3f3f3f" d="M33.656 33.348c0-1.228-1.049-2.223-2.343-2.223h-4.688c-1.294 0-2.344.995-2.344 2.223v5.558h9.375zM47.719 33.348c0-1.228-1.05-2.223-2.344-2.223h-4.687c-1.295 0-2.344.995-2.344 2.223v5.558h9.375z"/><path fill="#9b9b9a" d="M38.344 38.906v5.558c0 1.228 1.049 2.223 2.344 2.223h4.687c1.295 0 2.344-.995 2.344-2.223v-5.558z"/><circle cx="33.951" cy="11.956" r="2" fill="#9b9b9a"/><circle cx="38.719" cy="13.625" r="2" fill="#9b9b9a"/><g fill="none" stroke="#000" stroke-miterlimit="10" stroke-width="2"><path stroke-linecap="round" stroke-linejoin="round" d="M36 26.406V12.875M51.62 33.2c0-1.14 1.06-2.07 2.35-2.07H61v-1.21c0-1.29-1.05-2.34-2.34-2.34H13.34c-1.29 0-2.34 1.05-2.34 2.34v1.21h7.03c1.29 0 2.35.93 2.35 2.07v13.14c0 1.14-1.06 2.08-2.35 2.08H11v3.33h50v-3.33h-7.03c-1.29 0-2.35-.94-2.35-2.08zM33.66 44.46c0 1.23-1.05 2.23-2.35 2.23h-4.69c-1.29 0-2.34-1-2.34-2.23V33.35c0-1.23 1.05-2.22 2.34-2.22h4.69c1.3 0 2.35.99 2.35 2.22zm14.06 0c0 1.23-1.05 2.23-2.34 2.23h-4.69c-1.3 0-2.35-1-2.35-2.23V33.35c0-1.23 1.05-2.22 2.35-2.22h4.69c1.29 0 2.34.99 2.34 2.22zM40.69 27.03v.55h-9.38v-.55c0-.34.35-.62.78-.62h7.82c.43 0 .78.28.78.62"/><path stroke-linecap="round" stroke-linejoin="round" d="M18.03 48.42H11V31.13h7.03c1.29 0 2.35.93 2.35 2.07v13.14c0 1.14-1.06 2.08-2.35 2.08M24.28 44.46V33.35c0-1.23 1.05-2.22 2.34-2.22h4.69c1.3 0 2.35.99 2.35 2.22v11.11c0 1.23-1.05 2.23-2.35 2.23h-4.69c-1.29 0-2.34-1-2.34-2.23M38.34 44.46V33.35c0-1.23 1.05-2.22 2.35-2.22h4.69c1.29 0 2.34.99 2.34 2.22v11.11c0 1.23-1.05 2.23-2.34 2.23h-4.69c-1.3 0-2.35-1-2.35-2.23M61 31.13v17.29h-7.03c-1.29 0-2.35-.94-2.35-2.08V33.2c0-1.14 1.06-2.07 2.35-2.07zM11 51.75h50v4.73c0 1.29-1.05 2.35-2.34 2.35H13.34c-1.29 0-2.34-1.06-2.34-2.35z"/><path stroke-linecap="round" stroke-linejoin="round" d="M20.38 33.2v6.57H11v-8.64h7.03c1.29 0 2.35.93 2.35 2.07M20.38 39.77v6.57c0 1.14-1.06 2.08-2.35 2.08H11v-8.65zM61 39.77v8.65h-7.03c-1.29 0-2.35-.94-2.35-2.08v-6.57zM61 31.13v8.64h-9.38V33.2c0-1.14 1.06-2.07 2.35-2.07zM11 51.75h50v3.87H11zM33.66 38.91v5.55c0 1.23-1.05 2.23-2.35 2.23h-4.69c-1.29 0-2.34-1-2.34-2.23v-5.55z"/><path stroke-linecap="round" stroke-linejoin="round" d="M33.66 33.35v5.56h-9.38v-5.56c0-1.23 1.05-2.22 2.34-2.22h4.69c1.3 0 2.35.99 2.35 2.22"/><path stroke-linecap="round" stroke-linejoin="round" d="M33.66 33.35v5.56h-9.38v-5.56c0-1.23 1.05-2.22 2.34-2.22h4.69c1.3 0 2.35.99 2.35 2.22M47.72 33.35v5.56h-9.38v-5.56c0-1.23 1.05-2.22 2.35-2.22h4.69c1.29 0 2.34.99 2.34 2.22"/><path stroke-linecap="round" stroke-linejoin="round" d="M47.72 38.91v5.55c0 1.23-1.05 2.23-2.34 2.23h-4.69c-1.3 0-2.35-1-2.35-2.23v-5.55zM40.72 13.63c0 .04 0 .08-.01.12a1.995 1.995 0 0 1-1.99 1.88 2 2 0 0 1-2-2c0-.32.07-.62.21-.88.31-.66 1-1.12 1.79-1.12a2 2 0 0 1 2 2M36.93 12.75l-1.05-.28M68 21l-27.29-7.25M32.02 11.44 4 4"/><path d="M35.95 11.96c0 .18-.02.35-.07.51-.22.86-1 1.49-1.93 1.49-1.1 0-2-.9-2-2 0-.18.02-.36.07-.52.23-.86 1.01-1.48 1.93-1.48 1.11 0 2 .89 2 2z"/></g></svg>