<svg xmlns="http://www.w3.org/2000/svg" viewBox="0 0 72 72"><g fill="none" stroke="#000" stroke-linecap="round" stroke-linejoin="round" stroke-miterlimit="10" stroke-width="2"><path d="M50.085 41.732a4.9 4.9 0 0 1-3.264 1.238h0a4.92 4.92 0 0 1-4.92-4.92v-3.937 3.936-3.936a4.92 4.92 0 0 1 4.92-4.92h0c1.253 0 2.396.467 3.264 1.238M37.66 29.192 33.725 42.97l-3.936-13.778L25.85 42.97l-3.936-13.778"/></g><path fill="#61b2e4" d="M60 61H12a1 1 0 0 1-1-1V12a1 1 0 0 1 1-1h48a1 1 0 0 1 1 1v48a1 1 0 0 1-1 1"/><path fill="none" stroke="#fff" stroke-linecap="round" stroke-linejoin="round" stroke-miterlimit="10" stroke-width="2" d="M50.085 41.732a4.9 4.9 0 0 1-3.264 1.238h0a4.92 4.92 0 0 1-4.92-4.92v-3.937 3.936-3.936a4.92 4.92 0 0 1 4.92-4.92h0c1.253 0 2.396.467 3.264 1.238M37.66 29.192 33.725 42.97l-3.936-13.778L25.85 42.97l-3.936-13.778"/><path fill="none" stroke="#000" stroke-linecap="round" stroke-linejoin="round" stroke-miterlimit="10" stroke-width="2" d="M60 61H12a1 1 0 0 1-1-1V12a1 1 0 0 1 1-1h48a1 1 0 0 1 1 1v48a1 1 0 0 1-1 1"/></svg>