<svg xmlns="http://www.w3.org/2000/svg" viewBox="0 0 72 72"><path fill="#d0cfce" d="M10.052 33.285c.275 2.318 47.558 2.608 51.719 0 0 0 1.055 0 1.055 4.222s1.056 16.888-10.555 18.999H20.607a8.74 8.74 0 0 1-3.57-.98c-2.2-1.11-4.809-3.475-5.93-8.519-2.11-9.5-1.055-13.722-1.055-13.722M46.994 12.176l6.333 5.277a5.96 5.96 0 0 0 0-6.333c-2.111-3.166-6.333 1.056-6.333 1.056"/><path fill="#9b9b9a" d="m62.851 33.496-19.023 23.01s9.264 1.056 10.437 0 7.506-6.333 7.506-8.444 1.08-14.566 1.08-14.566M16.385 55.451l-2.111 6.332 2.111 2.111h3.166l2.111-6.332z"/><path fill="#9b9b9a" d="m54.382 55.451 2.111 6.332-2.111 2.111h-3.166l-2.111-6.332z"/><path fill="#a57939" d="M26.94 28.008a5.27 5.27 0 0 1-5.277 5.277c-2.624 0-3.167-5.237-3.167-8.444s.016-3.166 2.639-3.166 5.805 3.127 5.805 6.333"/><path d="M20.607 21.675s-6.41 1.056-7.389 4.222.492 6.984 2.111 7.388a7 7 0 0 0 1.056 0c.61.063 2.613.739 3.166 0 .755-1.006-.986-2.628 0-4.222 1.959-3.166 3.015-6.332 1.056-7.388"/><g fill="none" stroke="#000" stroke-linecap="round" stroke-linejoin="round" stroke-width="2"><path d="M60.399 33.496V12.598s0-7.283-6.861-1.583"/><path d="M47.205 12.492c1.689-2.216 4.539-2.85 6.333-1.477s1.9 4.327.211 6.544ZM15.857 60.306 14.696 64h3.694l.739-2.111M10.052 33.496v9.922c0 7.283 5.7 13.3 12.666 13.3H50.16c6.966 0 12.665-6.017 12.665-13.3v-9.922a351 351 0 0 1-52.774 0"/></g><g fill="none" stroke="#000" stroke-linecap="round" stroke-linejoin="round" stroke-width="2"><path d="m21.521 34.033-3.025-3.914a8.27 8.27 0 0 0 3.154-8.274"/></g><path fill="none" stroke="#000" stroke-linecap="round" stroke-linejoin="round" stroke-width="2" d="M17.346 33.74a6.5 6.5 0 0 1-3.9-7.482 6.613 6.613 0 0 1 8.249-4.373 6.613 6.613 0 0 1 5.018 7.873 6 6 0 0 1-.34.95M51.638 61.783l.739 2.111h3.694L54.91 60.2"/></svg>