<svg xmlns="http://www.w3.org/2000/svg" viewBox="0 0 72 72"><path fill="none" stroke="#d0cfce" stroke-linecap="round" stroke-linejoin="round" stroke-width="2" d="m29.525 60.042 15.037.003"/><path fill="none" stroke="#fff" stroke-linecap="round" stroke-linejoin="round" stroke-width="2" d="M34.669 60.06h2.601"/><path fill="#d0cfce" d="M20.179 27.62h31.642v31.548H20.179z"/><path fill="#61b2e4" d="M33.863 22.65H23.42a1 1 0 0 1-.808-1.59l5.221-7.156a1.037 1.037 0 0 1 1.615 0l5.222 7.156a1 1 0 0 1-.808 1.59Z"/><path fill="#ea5a47" d="M43.855 22.65a1 1 0 0 1-.808-.41l-5.22-7.156a1 1 0 0 1 .807-1.59h10.442a1 1 0 0 1 .808 1.59l-5.222 7.155a1 1 0 0 1-.807.41"/><path fill="#9b9b9a" d="M20.18 27.62h10.348v30.432c0 .533-.46.965-1.027.965H20.18zM41.472 27.62H51.82v31.472h-9.322c-.568 0-1.027-.433-1.027-.967z"/><circle cx="35.87" cy="42.228" r="2" fill="#fff"/><path fill="#fff" d="m36.508 59.891-1.427-.017c-.28-.012-.335-.018-1.057-.089-.599.159-.506.424-.49.148l.204-5.375-1.62-.202a1 1 0 0 1-.874-1.085l.477-5.11a2.9 2.9 0 0 1 2.899-2.642h2.665a2.9 2.9 0 0 1 2.9 2.641l.475 5.111a1 1 0 0 1-.868 1.085l-1.53.196.204 5.453c-.725-.132-.367-.1-.919-.079l-.599-.017z"/><g fill="none" stroke="#000" stroke-linecap="round" stroke-linejoin="round" stroke-width="2"><path d="m28.641 14.494-5.221 7.155h10.442M49.076 14.494H38.634l5.221 7.155M20.179 60.042V27.62h31.642v32.422M34.532 60.042l.24-6.293M37.231 53.75l.236 6.292"/><path d="m39.664 53.364-.475-5.111a1.91 1.91 0 0 0-1.904-1.735H34.62c-.987 0-1.812.752-1.903 1.735l-.476 5.11"/><circle cx="35.905" cy="42.193" r="2.035"/><path d="M29.525 31.34v28.702H11M42.471 31.34v28.702h18.524"/></g></svg>