<svg xmlns="http://www.w3.org/2000/svg" viewBox="0 0 72 72"><path fill="#fff" d="m35.676 45.588 1.264 3.605-2.342-.186-.111-1.784z"/><circle cx="32.02" cy="25.04" r="3" fill="#fcea2b" stroke="#fcea2b" stroke-linecap="round" stroke-linejoin="round" stroke-width="1.8"/><path fill="#fcea2b" stroke="#fcea2b" stroke-linecap="round" stroke-linejoin="round" stroke-width="1.8" d="m47.86 53.59-1.49 2.911c-.215.42-.105.964.301 1.205.373.221.669.62.669 1.324 0 1.91-1.82 1.93-1.82 1.93l-13.31-.02s-5.72.61-5.72-4.62c0-5.05 5.31-5.14 5.7-5.14h6.33c.55 0 .99-.463.946-1.01-.258-3.161-2.648-9.25-4.746-6.489-.342.45-2.372 2.349-3.272 2.87-2.74 1.584-9.22-3.191-8.526-6.356.095-.434 4.15 5.601 6.753 4.617 1.236-.468 2.994-4.567 3.325-5.569a1 1 0 0 0 .023-.085c.523-2.367 1.557-5.666 4.528-7.027 5.23-2.41 14.21 14.38 10.31 21.46z"/><circle cx="32.02" cy="25.04" r="3" fill="none" stroke="#000" stroke-linecap="round" stroke-linejoin="round" stroke-width="2"/><path fill="none" stroke="#000" stroke-linecap="round" stroke-linejoin="round" stroke-width="2" d="M36.54 43.58c2.15 2.33 2.92 7.6 2.92 7.6l-6.848-.002s-6.124-.094-6.124 5.138 5.724 4.624 5.724 4.624l13.31.022s1.824-.022 1.824-1.932-2.171-1.563-2.171-1.563h-8.004l-5.206-1.39"/><path fill="none" stroke="#000" stroke-linecap="round" stroke-linejoin="round" stroke-width="2" d="M23.29 39.46s2.67 4.92 6.02 4.92 1.649-9.221 8.239-12.25c5.227-2.407 14.21 14.38 10.31 21.46"/><path d="M10.617 24.06c-.527.298-.701.973-.386 1.488l.007.01a.93.93 0 0 0 1.253.324L35.84 12.034a.25.25 0 0 1 .238-.002l24.335 13.285a.906.906 0 0 0 1.237-.378 1.096 1.096 0 0 0-.448-1.468L36.325 9.891a.67.67 0 0 0-.648.004z"/></svg>