<svg xmlns="http://www.w3.org/2000/svg" viewBox="0 0 72 72"><path fill="#ea5a47" d="M39.222 36.977s-5.963 17.859-15.684-4.108c-1.264-2.856-1.627-7.542-1.584-6.956l-5.9 12.136c-.376.782-1.239 1.484-.41 1.747 9.818 3.116 10.563 9.618 10.522 11.757-.007.394 15.749.342 15.798 0 .453-3.167 3.464-17.566 19.856-6.224 1 .692-2.516-11.208-3.95-11.208 0 0-17.636.486-17.636 1.123z"/><circle cx="16.156" cy="50.893" r="5.476" fill="#d0cfce" transform="rotate(-1.335 16.174 50.951)"/><circle cx="51.398" cy="50.893" r="5.476" fill="#d0cfce"/><path fill="#a57939" d="M40.436 29.516h18.426v5.67H40.436z"/><g fill="none" stroke="#000" stroke-miterlimit="10" stroke-width="2"><circle cx="16.156" cy="50.893" r="5.476" transform="rotate(-1.335 16.174 50.951)"/><circle cx="51.398" cy="50.893" r="5.476"/><path stroke-linecap="round" stroke-linejoin="round" d="M26.262 50.777a9.863 9.863 0 0 0-2.918-6.98c-3.89-3.875-10.2-3.875-14.09 0M61.697 50.777c0-5.48-4.442-9.922-9.922-9.922s-9.921 4.442-9.921 9.922M40.436 29.516h18.426v5.67H40.436z"/><path stroke-linecap="round" stroke-linejoin="round" d="m14.923 40.855 8.505-17.009h5.67M26.262 50.893h15.592M40.436 35.185s-5.67 21.261-17.008 0M58.863 35.185s4.252 7.087 2.834 15.591"/></g></svg>