<svg xmlns="http://www.w3.org/2000/svg" viewBox="0 0 72 72"><path fill="#fcea2b" d="M36 59.959a24.03 24.03 0 0 1-15.34-5.542A24.001 24.001 0 1 1 36 59.959"/><circle cx="25.112" cy="39.318" r="5.178" fill="#ffa7c0"/><circle cx="46.888" cy="39.318" r="5.178" fill="#ffa7c0"/><path fill="#fcea2b" d="m35.16 66.938-.072-.003-9.7-.7a1 1 0 0 1-.909-1.193c.537-2.68.994-4.723 1.229-5.778-.153-.313-.306-.638-.459-.963a59 59 0 0 0-.583-1.216c-.208-.416-.642-1.283-1.302-8.658-.203-2.03-.151-3.503.738-4.54a2.51 2.51 0 0 1 1.958-.949 2.56 2.56 0 0 1 2.339 1.41 39 39 0 0 1 2.606-5.13 3.43 3.43 0 0 1 2.705-1.987 2.56 2.56 0 0 1 1.443.392c1.243-1.573 2.659-1.674 3.668-1.163a3.39 3.39 0 0 1 1.729 2.757 2.6 2.6 0 0 1 .804.202 2.37 2.37 0 0 1 1.506 2.319 5.9 5.9 0 0 1-.59 2.491 2.6 2.6 0 0 1 .584.763 4.07 4.07 0 0 1-.12 3.732l-.85 1.608c-.215.657-.377 1.317-.533 1.957l-.12.492a21.7 21.7 0 0 1-2.395 6.539 5.85 5.85 0 0 1-1.636 1.992q-.102.099-.193.185a2.2 2.2 0 0 0-.277.286l-.07.432A37 37 0 0 0 36.158 66a1 1 0 0 1-.998.938Z"/><path fill="none" stroke="#000" stroke-linecap="round" stroke-linejoin="round" stroke-width="2" d="M25.46 65.238c.6-3 1.1-5.2 1.3-6.1-.4-.8-.8-1.7-1.2-2.5-.2-.4-.6-1.6-1.2-8.3-.2-2-.1-3.1.5-3.8a1.56 1.56 0 0 1 1.2-.6c1.3 0 1.7 1.2 2 2.4l.1.3.2.6a39.5 39.5 0 0 1 3.5-7.5c1.8-3 3.5-.6 3.5-.6 2.2-4.1 5-.8 4 1.3a1.98 1.98 0 0 1 1.6-.1 1.42 1.42 0 0 1 .9 1.4 5.3 5.3 0 0 1-.9 2.8 2.2 2.2 0 0 1 1 .9 3.08 3.08 0 0 1-.1 2.8l-.9 1.7c-.3.9-.5 1.8-.7 2.6a20.8 20.8 0 0 1-2.3 6.3 4.74 4.74 0 0 1-1.4 1.7c-.4.4-.7.6-.8 1a43 43 0 0 0-.6 4.4"/><g fill="none" stroke="#000" stroke-linecap="round" stroke-width="2"><path stroke-linejoin="round" d="M21.4 53.649a22.996 22.996 0 1 1 21.539 4.275"/><path stroke-miterlimit="10" d="M31.635 31.736a4.615 4.615 0 0 0-6.2-2.4 4.68 4.68 0 0 0-2.4 2.4M48.835 31.736a4.615 4.615 0 0 0-6.2-2.4 4.68 4.68 0 0 0-2.4 2.4"/><path stroke-linejoin="round" d="M25.46 65.238c.6-3 1.1-5.2 1.3-6.1-.4-.8-.8-1.7-1.2-2.5-.2-.4-.6-1.6-1.2-8.3-.2-2-.1-3.1.5-3.8a1.56 1.56 0 0 1 1.2-.6c1.3 0 1.7 1.2 2 2.4l.1.3.2.6a39.5 39.5 0 0 1 3.5-7.5c1.8-3 3.5-.6 3.5-.6 2.2-4.1 5-.8 4 1.3a1.98 1.98 0 0 1 1.6-.1 1.42 1.42 0 0 1 .9 1.4 5.3 5.3 0 0 1-.9 2.8 2.2 2.2 0 0 1 1 .9 3.08 3.08 0 0 1-.1 2.8l-.9 1.7c-.3.9-.5 1.8-.7 2.6a20.8 20.8 0 0 1-2.3 6.3 4.74 4.74 0 0 1-1.4 1.7c-.4.4-.7.6-.8 1a43 43 0 0 0-.6 4.4"/></g></svg>