<svg xmlns="http://www.w3.org/2000/svg" viewBox="0 0 72 72"><path fill="none" stroke="#000" stroke-linecap="round" stroke-linejoin="round" stroke-width="2" d="M44.96 44.374v4.471"/><circle cx="44.926" cy="51.647" r="1"/><path fill="none" stroke="#000" stroke-linecap="round" stroke-linejoin="round" stroke-width="2" d="m28.147 44.081-1.101 7.238M31.369 44.081l-1.101 7.238M25.788 46.097l7.321-.007M25.306 49.283l7.322-.007M40.218 45.719a1.53 1.53 0 0 0-1.418-.827 1.57 1.57 0 0 0-1.677 1.352s-.243 1.37 1.813 1.434c0 0 1.46.243 1.46 1.46 0 1.334-1.433 1.38-1.433 1.38s-1.37.104-1.752-.732M38.805 44.639v-1.005M38.805 51.778v-1.005"/><path fill="#ea5a47" d="M36 13a23 23 0 1 0 23 23 23.026 23.026 0 0 0-23-23"/><rect width="32.264" height="13.575" x="19.518" y="41.076" fill="#3f3f3f" rx="4.077"/><path fill="none" stroke="#fff" stroke-linecap="round" stroke-linejoin="round" stroke-width="2" d="M44.96 44.374v4.471"/><circle cx="44.926" cy="51.647" r="1" fill="#fff"/><path fill="none" stroke="#fff" stroke-linecap="round" stroke-linejoin="round" stroke-width="2" d="m28.147 44.081-1.101 7.238M31.369 44.081l-1.101 7.238M25.788 46.097l7.321-.007M25.306 49.283l7.322-.007M40.218 45.719a1.53 1.53 0 0 0-1.418-.827 1.57 1.57 0 0 0-1.677 1.352s-.243 1.37 1.813 1.434c0 0 1.46.243 1.46 1.46 0 1.334-1.433 1.38-1.433 1.38s-1.37.104-1.752-.732M38.805 44.639v-1.005M38.805 51.778v-1.005"/><circle cx="36" cy="36" r="23" fill="none" stroke="#000" stroke-miterlimit="10" stroke-width="2"/><path d="M30 33.925a3 3 0 1 1-3-3 3 3 0 0 1 3 3M48 33.925a3 3 0 1 1-3-3 3 3 0 0 1 3 3"/><path fill="none" stroke="#000" stroke-linecap="round" stroke-linejoin="round" stroke-width="2" d="m23 25.113 7 4M49 25.113l-7 4"/><rect width="32.264" height="13.575" x="19.868" y="41.076" fill="none" stroke="#000" stroke-miterlimit="2" stroke-width="2" rx="4.077"/></svg>