<svg xmlns="http://www.w3.org/2000/svg" viewBox="0 0 72 72"><path fill="#3f3f3f" d="M55.87 60.958H16.13a1 1 0 0 1-.987-.847c-.043-.282-1.017-6.937 2.697-11.266 2.008-2.339 4.963-3.525 8.783-3.525a1 1 0 0 1 .555.168c3.316 2.21 5.954 3.587 8.822 3.6 2.868-.014 5.505-1.39 8.823-3.6a1 1 0 0 1 .554-.168c3.821 0 6.776 1.186 8.783 3.526 3.714 4.33 2.74 10.983 2.698 11.265a1 1 0 0 1-.989.847"/><path fill="#fff" d="m46.358 46.513.002-.014a1 1 0 0 0-.002-.108.7.7 0 0 0-.1-.506 1 1 0 0 0-.049-.12l-.006-.006a1 1 0 0 0-.219-.218c-.021-.017-.036-.043-.058-.057-.009-.006-.02-.007-.03-.012a1 1 0 0 0-.333-.133l-.007-.003a1 1 0 0 0-.136.002.7.7 0 0 0-.498.109 1 1 0 0 0-.1.04c-3.317 2.211-5.954 3.587-8.822 3.6-2.862-.013-5.495-1.384-8.801-3.586l-.013-.009-.008-.005c-.018-.011-.038-.012-.056-.022a.77.77 0 0 0-.542-.127 1 1 0 0 0-.136-.002l-.007.003a1 1 0 0 0-.47.25 1 1 0 0 0-.168.168l-.008.007a1 1 0 0 0-.062.152.72.72 0 0 0-.087.517c.003.022-.005.043-.001.065l.001.008.004.017c.247 1.35 2.46 12.304 6.585 14.296a1 1 0 0 0 .434.1h6.64a1 1 0 0 0 .435-.1c4.13-1.995 6.375-12.974 6.618-14.302Z"/><path d="m40.259 59.467-2.067-3.153a5 5 0 0 0 .374-.376c1.646-2.008.923-5.912.835-6.35q-.003-.009-.007-.018c-.004-.009.001-.012 0-.019a1 1 0 0 0-.068-.144 1 1 0 0 0-.094-.202 1 1 0 0 0-.1-.1 1.2 1.2 0 0 0-.531-.3l-.375-.002c-.01.002-.018.009-.027.01q-.006.002-.013 0a8.9 8.9 0 0 1-4.372 0h-.013q-.013-.005-.027-.01a1 1 0 0 0-.222.001 1 1 0 0 0-.15 0 5 5 0 0 0-.353.137 1 1 0 0 0-.193.176 1 1 0 0 0-.086.086 1 1 0 0 0-.104.222 1 1 0 0 0-.058.126q-.001.007-.001.016-.005.01-.008.02c-.088.439-.81 4.342.835 6.35a5 5 0 0 0 .38.373l-2.073 3.14a.92.92 0 0 0-.048.98 1 1 0 0 0 .88.528h6.853a1 1 0 0 0 .88-.527.89.89 0 0 0-.047-.964"/><path fill="#6a462f" d="M36.322 44.284q-.103 0-.206-.002c-6.96-.145-12.465-7.763-12.274-16.982a23.6 23.6 0 0 1 1.247-7.603 1 1 0 0 1 .586-.551 1 1 0 0 1 .803.058 25.36 25.36 0 0 0 20.476-.036 1 1 0 0 1 1.377.736 44 44 0 0 1 .755 7.934 19.76 19.76 0 0 1-3.844 11.622 11.32 11.32 0 0 1-8.92 4.824"/><path d="M53.325 15.336a5.97 5.97 0 0 0-5.045-3.564 7.45 7.45 0 0 0-4.333 1.054c-1.389-1.552-5.031-5.044-9.91-5.3-3.695-.196-7.273 1.515-10.645 5.136a7.3 7.3 0 0 1-6.642 2.412 1 1 0 0 0-1.16 1.157c.07.398.638 3.329 2.508 4.697a5.83 5.83 0 0 0-1.196 3.048 5.51 5.51 0 0 0 1.586 4.103c.638 1.512 4.087 9.223 8.405 10.074a1 1 0 0 0 .085.022c.018.004.035.012.053.015a1 1 0 0 0 .138.01q.01.002.022.003a1 1 0 0 0 .31-.056q.044-.016.087-.035a1 1 0 0 0 .094-.038c.023-.014.036-.037.059-.052a1 1 0 0 0 .178-.154 1 1 0 0 0 .088-.105 1 1 0 0 0 .103-.206 1 1 0 0 0 .046-.132c.006-.022.019-.04.023-.062l-.013-.327-.106-.325a18.54 18.54 0 0 1-2.218-9.391 25 25 0 0 1 .746-5.866 27.24 27.24 0 0 0 19.98.027 36 36 0 0 1 .52 6.278q.001.006.001.013l-.002.013a19.3 19.3 0 0 1-1.475 7.084c-.006.014-.003.028-.009.042a1 1 0 0 0-.045.22.6.6 0 0 0 .017.352 1 1 0 0 0 .054.189c.007.016.005.032.013.047a1 1 0 0 0 .09.113 2 2 0 0 0 .408.348c.014.006.03.004.044.01a1 1 0 0 0 .209.042 1 1 0 0 0 .138.028c.016 0 .03-.006.046-.006q.044-.005.088-.013a1 1 0 0 0 .268-.076c.018-.008.038-.007.056-.016 11.501-5.94 6.395-20.646 6.336-20.813"/><path fill="none" stroke="#000" stroke-linecap="round" stroke-linejoin="round" stroke-width="2" d="M48.086 27.805a43.4 43.4 0 0 0-.738-7.718h0a26.1 26.1 0 0 1-21.338 0 23 23 0 0 0-1.168 7.233c-.18 8.682 4.876 15.828 11.294 15.962s11.769-6.795 11.95-15.477"/><path fill="none" stroke="#000" stroke-linecap="round" stroke-linejoin="round" stroke-width="2" d="M46.53 35.26c10.856-5.606 5.86-19.568 5.86-19.568a4.98 4.98 0 0 0-4.198-2.924 6.72 6.72 0 0 0-4.434 1.389S34.646 2.055 24.17 13.29a8.35 8.35 0 0 1-7.597 2.768s.714 4.088 3.187 4.528c0 0-3.916 3.204-.417 6.947 0 0 3.687 8.996 7.848 9.669"/><path d="M42.169 29.773a2 2 0 1 1-2-2 2 2 0 0 1 2 2M34.169 29.773a2 2 0 1 1-2-2 2 2 0 0 1 2 2M36.168 39.775a7.65 7.65 0 0 1-3.447-.858 1 1 0 0 1 .895-1.789 5.38 5.38 0 0 0 5.105 0 1 1 0 1 1 .895 1.79 7.65 7.65 0 0 1-3.448.857"/><path fill="none" stroke="#000" stroke-linecap="round" stroke-linejoin="round" stroke-width="2" d="M33.58 49.785s-1.266 6.317 2.42 6.317 2.42-6.317 2.42-6.317"/><path fill="none" stroke="#000" stroke-linecap="round" stroke-linejoin="round" stroke-width="2" d="m35.108 56.153-2.534 3.836c-3.808-1.85-5.95-13.67-5.95-13.67l-5.356 7.313 3.12 1.943-1.048 3.283 9.305 1.13zM36.892 56.153l2.534 3.836c3.808-1.85 5.95-13.67 5.95-13.67l5.356 7.313-3.12 1.943 1.048 3.283-9.305 1.13z"/><path fill="none" stroke="#000" stroke-linecap="round" stroke-linejoin="round" stroke-width="2" d="M16.131 59.959s-2.098-13.64 10.492-13.64c3.349 2.233 6.218 3.776 9.443 3.769h-.132c3.225.007 6.094-1.536 9.443-3.769 12.59 0 10.492 13.64 10.492 13.64"/></svg>