<svg xmlns="http://www.w3.org/2000/svg" viewBox="0 0 72 72"><g fill="#debb90"><circle cx="35.795" cy="12.733" r="2.86"/><path d="M35.51 19.215 21.59 20.264l-7.244-.953s-1.335.667.476 1.906a15.9 15.9 0 0 0 7.054 2.383c3.337 0 6.594-.772 7.354.963a14.3 14.3 0 0 0 1.058 3.185l.842 1.354-.715 5.309-2.317 5.186-11.369 5.452.381 2.86 12.726-2.953 3.861-4.006-.116 1.46-.268 3.136a13.3 13.3 0 0 1-2.098 6.106l-3.458 5.315 2.544 1.796 6.99-8.287a3.6 3.6 0 0 0 .76-1.522l1.808-7.88a4 4 0 0 0 .084-.53l.61-6.893s.641-5.615 1.335-10.353c.838-1.924 4.583-.079 7.824.874 1.812.477 4.29 1.526 7.15 2.098 2.098.476 2.67-1.812 2.67-1.812l-17.446-6.1Z"/></g><circle cx="11.963" cy="20.359" r="2.86" fill="#ea5a47"/><g fill="none" stroke="#000" stroke-width="2"><circle cx="11.963" cy="20.358" r="2.86" stroke-miterlimit="10"/><circle cx="35.795" cy="12.733" r="3" stroke-miterlimit="10"/><path stroke-linecap="round" stroke-linejoin="round" d="M35.89 37.423a91 91 0 0 1-5.922 6.864 3 3 0 0 1-1.263.696l-9.783 2.64a1.7 1.7 0 0 1-2.097-1.144 2.28 2.28 0 0 1 1.525-2.097s5.589-2.552 8.552-4.41a5.9 5.9 0 0 0 2.221-2.541 25 25 0 0 0 2.14-6.264c.283-2.277-1.075-6.735-1.075-6.735"/><path stroke-linecap="round" stroke-linejoin="round" d="M33.478 40.913s.074 1.687.05 3.522a11.9 11.9 0 0 1-2.06 6.538l-3.3 4.848a1.78 1.78 0 0 0 .382 2.478 2.37 2.37 0 0 0 2.765-.476s3.795-4.72 5.648-7.3a7.9 7.9 0 0 0 1.28-2.827l1.094-4.719a20.6 20.6 0 0 0 .465-4.204c.067-1.515.145-3.468.141-4.777 0-.601.43-6.921.43-7.146M12.821 17.404l6.96 3.05a6.37 6.37 0 0 0 3.526.19l2.098-.667a23.4 23.4 0 0 1 3.717-.762l10.486-.667a12.5 12.5 0 0 1 3.718.476l15.348 5.052M31.949 11.075s-.547-.366-.946-.128c-.469.279-.951 1.52-1.53 2a3.36 3.36 0 0 1-2.017.805"/></g></svg>