<svg xmlns="http://www.w3.org/2000/svg" viewBox="0 0 72 72"><g fill="#c19a65"><circle cx="34.318" cy="12.488" r="2.86"/><path d="m28.599 24.785-1.621 39.084h3.146l3.24-23.832h1.908l3.24 23.832h3.146l-1.62-39.084s.19 3.908 1.334 5.72a5.73 5.73 0 0 0 5.815 2.764s4.29-.572 5.053-2.097a1.89 1.89 0 0 0 0-1.811c-.096-.286-2.574.667-2.574.667l-2.765.477-2.001-1.049-1.24-1.43-1.906-6.959-3.337-1.239-9.247-.19-3.24 4.194-.477 4.099-1.62 1.144-6.388-5.91s-1.43 1.62-.476 2.955 3.622 5.052 5.624 5.434a3.97 3.97 0 0 0 4.194-1.335 11.8 11.8 0 0 0 1.812-5.434"/></g><circle cx="18.907" cy="17.093" r="1.907" fill="#ea5a47"/><circle cx="38.907" cy="6.093" r="1.907" fill="#92d3f5"/><circle cx="52.907" cy="26.093" r="1.907" fill="#b1cc33"/><g fill="none" stroke="#000" stroke-width="2"><circle cx="34.5" cy="12.3" r="3" stroke-miterlimit="10"/><path stroke-linecap="round" stroke-linejoin="round" d="m39.085 24.785 2.478 37.178a1.615 1.615 0 0 1-1.43 1.906 2.04 2.04 0 0 1-1.811-1.906l-2.765-20.02c-.095-1.048-.667-1.906-1.239-1.906-.476 0-1.048.858-1.24 1.907l-2.764 20.019a2.04 2.04 0 0 1-1.81 1.906 1.615 1.615 0 0 1-1.43-1.906l2.478-37.178"/><path stroke-linecap="round" stroke-linejoin="round" d="m18.113 23.832 3.527 4.003c1.716 2.002 3.527 1.43 3.908-1.143l.382-2.002c.476-2.574 2.478-4.957 4.575-5.148a34 34 0 0 1 7.627 0c2.097.286 4.194 2.574 4.575 5.148l.382 2.002c.476 2.573 2.478 4.29 4.575 3.717 2.097-.476 3.813-.953 3.813-.953"/></g></svg>