<svg xmlns="http://www.w3.org/2000/svg" viewBox="0 0 72 72"><path fill="#fff" d="m10.752 18.083.224 34.693 6.912-7.2 35.424.384 7.776 7.488.576-35.52z"/><g fill="none" stroke="#000" stroke-linecap="round" stroke-linejoin="round" stroke-width="2"><path d="M62 55.5V17H10v38.5M62 55.5l-9.096-9.096M20 46h33M10 55.5l9.096-9.096M10 17l9.32 28.583M10.752 18.083h51M49.02 18.083h12.582M16.886 39.083h38.866M49.02 39.083h6.913M14.752 32.083h42M49.02 32.083h8.33M35.77 17.5v28M28.77 17.5v28M21.77 17.5v28M14.77 17.5v32.949M42.77 18.083v27.5M49.77 17.516v28.067M56.77 18.083v31.999M42.77 21v15.167M12.768 25.083h46.984M48.768 25.083h11.417M57.35 32l4.508 4.508M59.752 25.083l2.151 2.155M55.102 39.083l6.898 6.5M14.687 32.083l-4.424 4.424M12.768 25.78l-2.608 2.607M17.171 38.82l-6.834 6.439M53 46l9-28"/></g><g fill="none" stroke-width="2"><path stroke="#d0cfce" stroke-miterlimit="10" d="M10.752 18.083h51"/><path stroke="#9b9b9a" stroke-miterlimit="10" d="M49.02 18.083h12.582"/><path stroke="#d0cfce" stroke-miterlimit="10" d="M16.886 39.083h38.866"/><path stroke="#9b9b9a" stroke-miterlimit="10" d="M49.02 39.083h6.913"/><path stroke="#d0cfce" stroke-miterlimit="10" d="M14.752 32.083h42"/><path stroke="#9b9b9a" stroke-miterlimit="10" d="M49.02 32.083h8.33"/><path stroke="#d0cfce" stroke-miterlimit="10" d="M35.77 18.574v26.589M28.77 18.574v26.589M21.77 18.516v26.616M14.77 17.944v32.361M42.77 18.083v27.11"/><path stroke="#9b9b9a" stroke-miterlimit="10" d="M49.77 17.829v27.303M56.77 18.083v31.709"/><path stroke="#d0cfce" stroke-miterlimit="10" d="M42.77 21v15.167M12.768 25.083h46.984"/><path stroke="#9b9b9a" stroke-miterlimit="10" d="M48.768 25.083h11.417M57.35 32l4.332 4.332M59.78 25.141l1.943 1.946M59.838 24.654l1.943 1.947M55.102 39.083l6.605 6.208"/><path stroke="#d0cfce" stroke-miterlimit="10" d="M14.687 32.083 10.3 36.469M13.483 25.064l-3.188 3.188M17.171 38.82l-6.85 6.453"/><path stroke="#000" stroke-linecap="round" stroke-linejoin="round" d="m53 46 9-28M62 55.5V17H10v38.5M62 55.5l-9.096-9.096M20 46h33M10 55.5l9.096-9.096M10 17l9.32 28.583M53 46l9-28"/></g></svg>