<svg xmlns="http://www.w3.org/2000/svg" viewBox="0 0 72 72"><path fill="#b1cc33" d="M17.316 60.994a6.5 6.5 0 0 1-1.953-.29 6.72 6.72 0 0 1-4.481-8.29 9.83 9.83 0 0 1 2.856-5.162c2.56-2.34 5.126-4.572 7.842-6.936l.737-.641v-.064a2.8 2.8 0 0 1 2.794-2.795 3 3 0 0 1 .42.032 138 138 0 0 0 7.013-6.976 2.8 2.8 0 0 1-.113-.786 2.797 2.797 0 0 1 2.794-2.794 2.7 2.7 0 0 1 .522.05 121 121 0 0 0 4.887-5.923l.722-.796c3.166-3.476 6.755-7.415 11.74-8.535a6.38 6.38 0 0 1 5.24 1.022 6.45 6.45 0 0 1 2.33 4.856 14.7 14.7 0 0 1-.19 2.781 2.788 2.788 0 0 1-1.487 4.766q-.386.835-.847 1.67a2.787 2.787 0 0 1-2.387 4.238 3 3 0 0 1-.379-.027 126 126 0 0 1-2.612 3.37q-.547.69-1.08 1.365a169 169 0 0 1-8.008 8.674 2.8 2.8 0 0 1 .057.552 2.8 2.8 0 0 1-2.795 2.795 2.7 2.7 0 0 1-.626-.073q-.946.889-1.917 1.764a3 3 0 0 1 .02.336 2.797 2.797 0 0 1-2.794 2.794 2.7 2.7 0 0 1-.747-.105c-5.988 4.896-11.277 7.893-15.727 8.91a8.2 8.2 0 0 1-1.83.218"/><path fill="#5c9e31" d="M58.55 27.627a2.8 2.8 0 0 0-.408-1.444q.46-.834.846-1.67a2.788 2.788 0 0 0 1.488-4.765 14.7 14.7 0 0 0 .19-2.781 6.45 6.45 0 0 0-2.33-4.857 5.4 5.4 0 0 0-1.042-.626c.075.104 3.913 5.535-9.148 20.469-6.37 7.282-28.58 29.626-34.449 25.333a6.2 6.2 0 0 0 .782 2.49l2.747 1.212c.03 0 .06.006.09.006a8.2 8.2 0 0 0 1.832-.217c4.45-1.017 9.739-4.014 15.726-8.91a2.7 2.7 0 0 0 .747.105 2.797 2.797 0 0 0 2.794-2.794 3 3 0 0 0-.02-.336q.973-.873 1.918-1.765a2.7 2.7 0 0 0 .625.073 2.8 2.8 0 0 0 2.795-2.794 2.8 2.8 0 0 0-.057-.552 169 169 0 0 0 8.01-8.674q.53-.676 1.078-1.365c.865-1.09 1.756-2.213 2.613-3.37a3 3 0 0 0 .378.027 2.8 2.8 0 0 0 2.795-2.795"/><path fill="none" stroke="#000" stroke-linecap="round" stroke-linejoin="round" stroke-width="2" d="M59.382 20.178a14 14 0 0 0 .286-3.153c-.213-3.641-2.808-5.666-6.353-4.962-5.013 1.127-8.572 5.348-11.889 8.966a124 124 0 0 1-5.37 6.476 1.8 1.8 0 0 0-.831-.213 1.792 1.792 0 0 0-1.498 2.778c-3.848 4.136-6.983 7.033-7.926 7.885a1.778 1.778 0 0 0-2.417 2.117c-3.06 2.664-6.054 5.252-8.971 7.918a8.9 8.9 0 0 0-2.558 4.651 5.753 5.753 0 0 0 3.808 7.108 6.25 6.25 0 0 0 3.262.053c4.968-1.136 10.526-4.736 15.778-9.09a1.789 1.789 0 0 0 2.577-2.215c.951-.846 1.885-1.707 2.799-2.575a1.8 1.8 0 0 0 .859.228 1.795 1.795 0 0 0 1.794-1.794 1.8 1.8 0 0 0-.205-.817 169 169 0 0 0 8.37-9.026c1.328-1.695 2.764-3.444 4.084-5.274a1.787 1.787 0 0 0 1.951-2.957 24 24 0 0 0 1.4-2.754 1.784 1.784 0 0 0 1.05-3.35Z"/></svg>