<svg xmlns="http://www.w3.org/2000/svg" viewBox="0 0 72 72"><circle cx="20.712" cy="27.692" r="6" fill="#ea5a47"/><path fill="#ea5a47" d="M37.521 16.018a5.955 5.955 0 1 1-7.872-2.994 6.023 6.023 0 0 1 7.872 2.994"/><path fill="#b1cc33" d="M49.074 17.036a2.96 2.96 0 0 0-4.897-.776 4.978 4.978 0 0 0-9.365 1.973 3.1 3.1 0 0 0-3.019-.374 3.44 3.44 0 0 0-1.696 2.033 4.96 4.96 0 0 0-5.791.342 4.846 4.846 0 0 0-1.311 5.98 2.8 2.8 0 0 0-2.752 1.216 3.09 3.09 0 0 0-.473 2.582 4.97 4.97 0 0 0-4.87 3.206 5.1 5.1 0 0 0 1.827 5.869 2.96 2.96 0 0 0-.776 4.897"/><path fill="#6a462f" d="M32.523 29.515c-1.406-.472-1.599-4.797-.424-5.369.937-.456 2.205 1.74 4.02 1.359a3.61 3.61 0 0 0 2.245-2.227c-.065-.047-3.887 6.891-5.84 6.236"/><path fill="#6a462f" d="M25 31c-.2-.677-.718-2.43 0-3 .883-.7 2.447 1.333 5 1 1.758-.23 2.396-1.373 3-1 .839.518.644 3.366-1 5a4.46 4.46 0 0 1-5 1 4.62 4.62 0 0 1-2-3"/><path fill="#a57939" d="M48.842 17.226a2.006 2.006 0 0 1 2.814.283c8.04 9.835 6.584 24.325-3.25 32.364s-24.326 6.584-32.365-3.25a2.006 2.006 0 0 1 .283-2.815z"/><g fill="none" stroke="#000" stroke-linecap="round" stroke-linejoin="round" stroke-width="2"><path d="M43.496 46.96a.95.95 0 0 0 .549.236.87.87 0 0 0 .57-.175M32.313 38.019a.95.95 0 0 0 .549.236.87.87 0 0 0 .57-.175M30.69 47.094a.95.95 0 0 0 .55.237.87.87 0 0 0 .57-.175M44.16 26.86c.154.182.38.288.618.29.264-.02.51-.14.692-.333M40.215 37.835c.154.182.38.288.618.29.264-.02.511-.14.692-.334M49.998 32.421c.153.183.38.289.618.29.264-.02.51-.14.691-.333M21.756 44.065a.95.95 0 0 0 .55.236.87.87 0 0 0 .569-.174"/><path d="M48.842 17.226a2.006 2.006 0 0 1 2.814.283c8.04 9.835 6.584 24.325-3.25 32.364s-24.326 6.584-32.365-3.25a2.006 2.006 0 0 1 .283-2.815zM25 31c-.2-.677-.718-2.43 0-3 .883-.7 2.447 1.333 5 1M32.523 29.515c-1.124-3.987-.89-5.118-.424-5.369.795-.428 2.254 1.722 4.02 1.359a3.7 3.7 0 0 0 2.245-2.227"/><path d="M48.833 41.125c.264-.02.511-.14.692-.334M44.24 16.338a4.978 4.978 0 0 0-9.365 1.973 3.1 3.1 0 0 0-3.018-.375 3.44 3.44 0 0 0-1.697 2.033 4.96 4.96 0 0 0-5.79.342 4.845 4.845 0 0 0-1.312 5.98 2.8 2.8 0 0 0-2.752 1.216 3.09 3.09 0 0 0-.472 2.582 4.97 4.97 0 0 0-4.87 3.206 5.1 5.1 0 0 0 1.826 5.87M19.351 22.863a5.25 5.25 0 0 0-2.744 1.856 4.8 4.8 0 0 0-.888 3.18M27.558 16.154a5.25 5.25 0 0 1 2.365-2.32 4.8 4.8 0 0 1 3.293-.238"/></g></svg>