<svg xmlns="http://www.w3.org/2000/svg" viewBox="0 0 72 72"><path fill="#fff" d="M32.601 23.57s-13.685-10.38-19.945 6.135 18.32 21.898 24.211 22.304 25.992-10.48 22.29-22.304-12.533-11.874-20.36-5.221c-4.063 3.453-3.758-.711-6.196-.914"/><path fill="#f4aa41" d="M67.093 29.525c-.009-10.469-8.262-18.983-18.406-18.983-4.872 0-8.735 1.569-12.03 4.772-1.182-1.147-2.67-2.03-4.11-2.828-.156-.086-.715.13-.873.048a17.7 17.7 0 0 0-8.174-1.992c-10.144 0-18.396 8.514-18.405 18.983l-.001-.007v.024l.002.014v.009l-.002-.023c0 .73.031 1.455.078 2.178l.016.234q.077 1.087.224 2.16l.006.034a32.5 32.5 0 0 0 .932 4.413c.868 3.055 1.982 5.525 3.697 8.191.132.204-1.047.078-1.047.078s2.441 3.525 2.865 4.103c.41.554.01.789.01 1.609 0 2.209 1.735 4 3.875 4 1.13 0 2.242-.083 3.336-.227 5.086 3.718 7.648 3.75 11.043 4.681 1.133.31 4.086.502 4.38.455.528.028 6.494-.353 7.647-.574 3.516-.672 6.497-1.803 9.458-3.567a31 31 0 0 0 1.548-.988c1.074.14 2.166.22 3.276.22 2.14 0 3.874-1.791 3.874-4 0-.798.203-1.057-.187-1.68.67-.813 2.247-3.394 2.844-4.282.13-.195-1.156.24-1.063.031 1.727-2.676 3.06-4.981 3.932-8.05l.009-.03A32.5 32.5 0 0 0 67 31.953l.016-.234c.047-.723.078-1.447.078-2.178l-.002.023v-.01l.002-.013v-.024zm-29.374 22.18c-.572.042-1.252.055-1.833.082-1.333.063-3.167-.27-3.896-.666 1.75-1.375 2.75-2.271 3.854-3.959 1.863 2.381 2.592 2.3 5.125 3.916-1.574.484-1.594.498-3.25.626m-19.266-8.36c-.163-.22-.613 1.022-.919.6a24.15 24.15 0 0 1-4.34-10.267l-.021-.123a25 25 0 0 1-.236-1.907q-.007-.08-.012-.163a25 25 0 0 1-.081-1.954c.007-6.06 4.784-10.99 10.656-10.99 1.602 0 3.122.369 4.486 1.026.117.056-.554 1.218-.44 1.278 1.266.668 2.73 1.547 3.642 2.656-.86 2.196-.907 3.53-.907 6.041 0 3.223.56 6.31 1.569 9.178-.332.616-.41-.868-.803-.296-.076.11-2.188 2.484-2.578 2.797-.059.047.023.946-.022 1.006-2.341 3.18-6.937 4.187-6.937 4.187s-1.541-1.02-3.057-3.068m40.81-11.86q-.005.082-.012.163a25 25 0 0 1-.256 2.029c-.674 3.991-2.401 7.418-4.886 10.59l-.843-.812c-.47.602-1.36 1.828-2.688 2.89-.06.049 1.148 1.018.693 1.422-4.69-1.42-8.473-4.328-10.802-8.656 1.008-2.868 2.193-5.436 2.25-9.562.062-4.532-.796-5.368-1.656-7.563 1.956-2.383 4.37-3.444 7.624-3.444 5.873 0 10.65 4.928 10.657 10.99 0 .656-.03 1.307-.081 1.953"/><g fill="none" stroke="#000" stroke-linecap="round" stroke-linejoin="round" stroke-width="2"><path d="M32.096 13.544a18.3 18.3 0 0 0-8.783-2.235c-10.145 0-18.397 8.25-18.406 18.39v-.008.024l.001.014c.007 5.974 1.703 11.703 4.858 16.628M41.648 31.63q.07-.946.07-1.915 0-.952-.095-1.878M29.168 42.1c-3.368 3.697-8.22 6.021-13.605 6.021a3.875 3.875 0 0 0 0 7.75A26.04 26.04 0 0 0 33 49.193"/><path d="M17.8 44.28c-3.33-4.118-5.14-9.216-5.144-14.575.007-5.871 4.784-10.646 10.657-10.646 1.767 0 3.435.433 4.904 1.197M37.742 52.867q-.912.075-1.836.074a18 18 0 0 1-1.836-.074M47.555 58.426q-.816.33-1.649.617c-3.215 1.094-6.58 1.648-10 1.648s-6.785-.554-10-1.648a35 35 0 0 1-1.648-.617M54.013 44.28c3.329-4.118 5.14-9.216 5.143-14.575C59.15 23.834 54.372 19.06 48.5 19.06c-5.876 0-10.656 4.78-10.656 10.656 0 10.148 8.257 18.406 18.406 18.406a3.875 3.875 0 0 1 0 7.75c-14.423 0-26.156-11.732-26.156-26.156 0-10.148 8.257-18.406 18.406-18.406s18.397 8.25 18.405 18.39l.001-.008v.024l-.002.013c-.006 5.975-1.703 11.704-4.857 16.63"/></g></svg>