<svg xmlns="http://www.w3.org/2000/svg" viewBox="0 0 72 72"><path fill="#fff" d="m21.034 22.287 30.595.469L51 29l2.44-.057-2.163 18.312H20.8l-2.12-17.393 3.027.105z"/><path fill="#d22f27" d="m51 27 2.882-.02-.441 1.963L51 29zM18.16 26.873 21 27v2l-2.662-.5zM20.812 48.615l30.5.199-.265 1.46-30.035-.033z"/><g fill="none" stroke="#000" stroke-linecap="round" stroke-linejoin="round" stroke-width="2"><path d="m17.712 29.958 2.85 24.542h30.875l2.85-24.542"/><path d="M54.269 29.956 51.437 54.5H20.562L17 23.625M55 23.625l-.73 6.331M15 22 8 37M57 22l7 15M20 22h32M20 22l2 15M52 22l-2 15M22 37h28M21 51h30M20 48h31M18 26h2M18 29h2M52 26h2M52 29h2M42 22l12.709-11.276a.961.961 0 0 0-1.359-1.36zM38 22 49.32 6.549a.955.955 0 0 0-.29-1.359.997.997 0 0 0-1.36.291z"/></g></svg>