<svg xmlns="http://www.w3.org/2000/svg" viewBox="0 0 72 72"><circle cx="36" cy="36" r="24" fill="#fcea2b"/><path fill="#ffa7c0" d="M11.319 34.66a.351.351 0 0 1-.633 0 4.048 4.048 0 1 0-6.917 4.143l7.233 9.274 7.191-9.218.232-.342a4.048 4.048 0 1 0-7.106-3.857M48.319 7.66a.351.351 0 0 1-.633 0 4.048 4.048 0 1 0-6.917 4.143l7.233 9.274 7.191-9.218.232-.342A4.048 4.048 0 1 0 48.32 7.66M56.319 52.66a.351.351 0 0 1-.633 0 4.048 4.048 0 1 0-6.917 4.143l7.233 9.274 7.191-9.218.232-.342a4.048 4.048 0 1 0-7.106-3.857"/><g fill="none" stroke="#000" stroke-linecap="round" stroke-width="2"><path stroke-linejoin="round" d="M45.815 44.804a15.43 15.43 0 0 1-19.63 0M52.04 50.366a4.05 4.05 0 0 0-3.462 6.15l.232.343 7.191 9.218 7.233-9.275a4.048 4.048 0 1 0-6.916-4.142.351.351 0 0 1-.633 0 4.02 4.02 0 0 0-3.645-2.294M7.04 32.366a4.05 4.05 0 0 0-3.462 6.15l.232.343 7.191 9.218 7.233-9.275a4.048 4.048 0 1 0-6.916-4.142.351.351 0 0 1-.633 0 4.02 4.02 0 0 0-3.645-2.294M44.04 5.366a4.05 4.05 0 0 0-3.462 6.15l.232.343 7.191 9.218 7.233-9.275a4.048 4.048 0 1 0-6.916-4.142.351.351 0 0 1-.633 0 4.02 4.02 0 0 0-3.645-2.294M42.808 57.976A23 23 0 0 1 36 59c-7.94 0-14.939-4.022-19.072-10.14M53.748 21.37A22.9 22.9 0 0 1 59 36c0 3.604-.829 7.014-2.306 10.05M14.732 27.227C18.181 18.877 26.404 13 36 13"/><path stroke-miterlimit="10" d="M31.694 32.404a4.726 4.726 0 0 0-8.638 0M48.944 32.404a4.726 4.726 0 0 0-8.638 0"/></g></svg>