<svg xmlns="http://www.w3.org/2000/svg" viewBox="0 0 72 72"><path d="M34.527 32.43a7.5 7.5 0 1 0-13.847 3.977.85.85 0 0 1 .405-.952 2.2 2.2 0 0 1 1.195-.261 5.483 5.483 0 0 1 4.013-8.209 5.38 5.38 0 1 0 5.798 8.218 3 3 0 0 1 .733.078.88.88 0 0 1 .587.543.86.86 0 0 1 .006.513 7.44 7.44 0 0 0 1.11-3.907m-6.134 1.014a3 3 0 1 1 3-3 3 3 0 0 1-3 3M51.567 32.43a7.5 7.5 0 1 0-13.87 3.939.9.9 0 0 1 .006-.352.87.87 0 0 1 .413-.562 2.2 2.2 0 0 1 1.206-.259A5.482 5.482 0 0 1 43.239 27a5.382 5.382 0 1 0 5.863 8.204 3.2 3.2 0 0 1 .753.078.88.88 0 0 1 .587.544.86.86 0 0 1-.01.553 7.45 7.45 0 0 0 1.135-3.948m-6.163 1.014a3 3 0 1 1 3-3 3 3 0 0 1-3 3"/><circle cx="35.977" cy="36" r="23" fill="#fcea2b"/><circle cx="26.977" cy="32.43" r="6.5" fill="#fff"/><circle cx="44.067" cy="32.43" r="6.5" fill="#fff"/><g fill="#92d3f5"><path d="M32.819 35.3a3.86 3.86 0 0 0-1.853.047 5.3 5.3 0 0 0-1.025.514c-.33.2-.739.447-1.153.653a4.3 4.3 0 0 1-3.697-.21c-.143-.075-.285-.16-.423-.242l-.044-.027a7 7 0 0 0-1.07-.554 3.05 3.05 0 0 0-2.46-.01.853.853 0 0 0-.278 1.217 7.36 7.36 0 0 0 6.188 3.272 7.53 7.53 0 0 0 6.291-3.355.855.855 0 0 0-.476-1.305M50.423 35.832a.86.86 0 0 0-.573-.53 3.86 3.86 0 0 0-1.853.046 5.3 5.3 0 0 0-1.025.515c-.33.2-.738.446-1.152.652a4.3 4.3 0 0 1-3.698-.209c-.143-.076-.285-.16-.423-.243l-.043-.026a7 7 0 0 0-1.07-.555 3.05 3.05 0 0 0-2.46-.009.853.853 0 0 0-.279 1.216 7.36 7.36 0 0 0 6.189 3.273 7.51 7.51 0 0 0 6.29-3.356.87.87 0 0 0 .097-.775"/></g><path d="M34.527 32.43a7.5 7.5 0 1 0-13.847 3.977.85.85 0 0 1 .405-.952 2.2 2.2 0 0 1 1.195-.261 5.483 5.483 0 0 1 4.013-8.209 5.38 5.38 0 1 0 5.798 8.218 3 3 0 0 1 .733.078.88.88 0 0 1 .587.543.86.86 0 0 1 .006.513 7.44 7.44 0 0 0 1.11-3.907m-6.134 1.014a3 3 0 1 1 3-3 3 3 0 0 1-3 3M51.567 32.43a7.5 7.5 0 1 0-13.87 3.939.9.9 0 0 1 .006-.352.87.87 0 0 1 .413-.562 2.2 2.2 0 0 1 1.206-.259A5.482 5.482 0 0 1 43.239 27a5.382 5.382 0 1 0 5.863 8.204 3.2 3.2 0 0 1 .753.078.88.88 0 0 1 .587.544.86.86 0 0 1-.01.553 7.45 7.45 0 0 0 1.135-3.948m-6.163 1.014a3 3 0 1 1 3-3 3 3 0 0 1-3 3"/><g fill="none" stroke="#000" stroke-width="2"><circle cx="35.977" cy="36" r="23" stroke-miterlimit="10"/><path stroke-linecap="round" stroke-linejoin="round" d="M30.17 19.046a7.18 7.18 0 0 1-3.936 3.36 7.08 7.08 0 0 1-4.406.018M50.267 21.698a7.17 7.17 0 0 1-5.146.54 7.1 7.1 0 0 1-3.643-2.478M42.477 46.5a8.697 8.697 0 0 1-13 0"/></g></svg>