<svg xmlns="http://www.w3.org/2000/svg" viewBox="0 0 72 72"><circle cx="36" cy="36" r="23" fill="#fcea2b"/><path fill="#f4aa41" d="m15.063 6.447 2 15 16-6z"/><path fill="#e27022" d="m26.984 12.407 6.079 3.04-13.151 4.932"/><path fill="#ea5a47" d="m15.396 10.835 5.225-2.017 2.833 1.761-7.891 3.367z"/><path fill="#d22f27" d="m25.42 12.393 1.143-.447 4 1-6.5 2.786"/><path fill="#ea5a47" d="m24.063 15.732-7.504 3.215-.163-3.034 9.025-3.52"/><g fill="none" stroke="#000" stroke-linecap="round" stroke-linejoin="round" stroke-width="2"><path d="M36.45 42.118s10.55 3.108.046 5.564c0 0 10.482 2.901.04 4.912M21.02 27.355a6.3 6.3 0 0 1 3.365-3.028 6.3 6.3 0 0 1 4.527-.458M50.629 27.11a7.19 7.19 0 0 0-7.937-3.366M23.454 34.379a8.94 8.94 0 0 1 8-.067M40.703 34.236a8.94 8.94 0 0 1 8-.067"/><path d="M45.948 15.294c11.449 5.503 16.27 19.245 10.767 30.694S37.47 62.258 26.02 56.755 9.75 37.51 15.254 26.061q.577-1.202 1.29-2.33M34.956 13.052q.417-.018.837-.022c3.513-.034 6.988.74 10.155 2.264"/></g><g fill="none" stroke="#000" stroke-linecap="round" stroke-linejoin="round" stroke-width="2"><path d="m17.384 20.98-2.821-15M33.563 15.246l-19-9.266M17.384 20.98l16.179-5.734"/></g><path fill="none" stroke="#000" stroke-linecap="round" stroke-linejoin="round" stroke-width="2" d="M61.946 11.613a4.9 4.9 0 0 1-.455 1.484 5.28 5.28 0 0 1-6.908 2.392M66.427 43.35a4.9 4.9 0 0 1-1.442-.576 5.28 5.28 0 0 1-1.82-7.081M61.946 62.968a4.9 4.9 0 0 0-.455-1.484 5.28 5.28 0 0 0-6.908-2.392M24.74 55.925a4.9 4.9 0 0 0-1.158-1.034 5.28 5.28 0 0 0-7.15 1.527"/><path d="M62.212 25.46a1.5 1.5 0 0 0 0-3 1.5 1.5 0 0 0 0 3M62.212 50.46a1.5 1.5 0 0 0 0-3 1.5 1.5 0 0 0 0 3M29.212 66.46a1.5 1.5 0 0 0 0-3 1.5 1.5 0 0 0 0 3M20.212 48.46a1.5 1.5 0 0 0 0-3 1.5 1.5 0 0 0 0 3M44.212 64.46a1.5 1.5 0 0 0 0-3 1.5 1.5 0 0 0 0 3"/><path fill="none" stroke="#000" stroke-linecap="round" stroke-linejoin="round" stroke-width="2" d="M38.563 47.98h5.5s5.5 0 5.5-3c0-2.232-1.522-2.803-3.434-2.95"/><path fill="#8967aa" d="M62.212 25.457a1.5 1.5 0 0 0 0-3 1.5 1.5 0 0 0 0 3M44.212 64.457a1.5 1.5 0 0 0 0-3 1.5 1.5 0 0 0 0 3"/><path fill="#f4aa41" d="M29.212 66.457a1.5 1.5 0 0 0 0-3 1.5 1.5 0 0 0 0 3"/><path fill="#d22f27" d="M20.212 48.457a1.5 1.5 0 0 0 0-3 1.5 1.5 0 0 0 0 3M62.212 50.457a1.5 1.5 0 0 0 0-3 1.5 1.5 0 0 0 0 3"/></svg>