<svg xmlns="http://www.w3.org/2000/svg" viewBox="0 0 72 72"><path fill="#6a462f" d="m15.006 35.54-.64 1.78v.01l-1.03 2.84.02-.09-2.1-.09.26-6.04 1.6-3.64a26.7 26.7 0 0 0 1.61 4.61v.01c.09.2.18.41.28.61M32.366 57.03a2.51 2.51 0 0 1-2.33 1.57h-3.12a1.98 1.98 0 0 0 1.53-1.18l.15-.37a2.06 2.06 0 0 0 .15-1.15l-.67-4.43a2.13 2.13 0 0 1 1.17-2.22 8.6 8.6 0 0 0 2.6-2.18 1 1 0 0 1-.11.23c-.07.09-.14.18-.22.27a3 3 0 0 1-.3.31c-.05.05-.11.1-.16.15-.47.47.59 3.74.7 4.42l.76 3.43a2.06 2.06 0 0 1-.15 1.15"/><path fill="#a57939" d="m64.679 57.11-20.716.21c-9.288.005-11.414-7.36-11.524-7.68a10.6 10.6 0 0 1-.828-2.178c-.02.02.157-.181.127-.161-.07.09-.14.18-.22.27a3 3 0 0 1-.3.31c-.05.05-.11.1-.16.15a3.6 3.6 0 0 1-.49.4 3 3 0 0 1-.33.24 10 10 0 0 1-.99.58 2.13 2.13 0 0 0-1.17 2.22l.67 4.43a2.06 2.06 0 0 1-.15 1.15l-.15.37a1.98 1.98 0 0 1-1.53 1.18 3 3 0 0 1-.29.02h-13.06a.903.903 0 0 1-.68-1.5 1.8 1.8 0 0 1 1.2-.6l5.6-.46 3.26-.26a1.57 1.57 0 0 0 1.21-.73 1.5 1.5 0 0 0 .27-.94l-.04-.94-.27-6.46a9 9 0 0 1-.6-1 9 9 0 0 1-1.02-4.18v-.05q-.51-.3-.99-.63a21 21 0 0 1-3.85-3.36l-.13.19-1.67 2.47-.52 4.73h-2v-4.73l.02-.09 1.37-5.15v-.01l-.32-2.15a1 1 0 0 1 .05.08.5.5 0 0 0-.06-.15 20.2 20.2 0 0 1-1.93-6.48c-.06-.4-.1-.8-.13-1.21a1 1 0 0 1-.02-.18 3 3 0 0 1-.02-.45c-.02-.28-.02-.57-.02-.86l-3.5-1.3c-.56-.17-1.49-.563-1.63-1.343a1.47 1.47 0 0 1 .49-1.33l1.58-.977v-.7a1.07 1.07 0 0 1 .38-.82l.66-.56-1.88-2.5a.381.381 0 0 1 .43-.59l2.25.76 2.31 1.46 2.5-1.31a3.7 3.7 0 0 1 1.76-.43h.66a.48.48 0 0 1 .28.87l-2.91 2.14a1.78 1.78 0 0 0-.68 1.91c.08.29.16.58.26.86a8.01 8.01 0 0 0 6.1 5.14 20.8 20.8 0 0 1 6.01 2.18 21 21 0 0 1 6.7 5.81v.01c.1.12.19.27.29.41 0 .01.01.01.01.02a11.3 11.3 0 0 1 1.13 2.22 12.2 12.2 0 0 1 .75 4.8c-.01.14-.01.27-.01.39a20.3 20.3 0 0 0 .3 3.52 19.5 19.5 0 0 0 1.03 3.81 3 3 0 0 0 .13.34c.06.19.15.37.23.56l.01.02a5.55 5.55 0 0 0 1.04 1.87 5.36 5.36 0 0 0 2.65 1.76 37 37 0 0 0 4.51.81l18.51 2.78c.29.05.34 1 .05 1"/><g fill="none" stroke="#000" stroke-width="2"><path stroke-miterlimit="10" d="M34.049 32.794v.009"/><path stroke-linecap="round" stroke-linejoin="round" d="m14.725 35.105-.359 2.227"/><path stroke-linecap="round" stroke-miterlimit="10" d="M22.496 41.5c-.34-.2-.68-.41-1-.62a18.3 18.3 0 0 1-3.97-3.18M12.276 23.52c0 .29 0 .58.02.86 0 .38.03.75.06 1.12.02.24.04.48.07.72a26 26 0 0 0 .69 4.09 26.8 26.8 0 0 0 1.61 4.61v.01c.09.2.18.41.28.61"/><path stroke-linecap="round" stroke-linejoin="round" d="m18.836 30.821.59 4.06-1.77 2.63-.13.19-1.67 2.47-.52 4.73h-2v-4.73l1.03-2.84v-.01l.64-1.78.75-2.05.28-2.76M13.359 40.081l-2.1-.09.26-6.04 1.6-3.64"/><path stroke-linecap="round" stroke-miterlimit="10" d="M26.656 33.91a9.08 9.08 0 0 0-4.16 7.59v.05a9 9 0 0 0 1.02 4.18 9 9 0 0 0 .6 1l.27 6.46.04.94a1.5 1.5 0 0 1-.27.94 1.57 1.57 0 0 1-1.21.73l-3.26.26-5.6.46a1.8 1.8 0 0 0-1.2.6.903.903 0 0 0 .68 1.5h13.06a3 3 0 0 0 .29-.02 1.98 1.98 0 0 0 1.53-1.18l.15-.37a2.06 2.06 0 0 0 .15-1.15l-.67-4.43a2.13 2.13 0 0 1 1.17-2.22 8.6 8.6 0 0 0 2.6-2.18c.01-.02.02-.03.03-.05a3.26 3.26 0 0 0 .72-2.07"/><path stroke-linecap="round" stroke-linejoin="round" d="M8.228 22.278a1.6 1.6 0 0 1-1.08-1.4 1.47 1.47 0 0 1 .49-1.33l1.58-.977v-.7a1.07 1.07 0 0 1 .38-.82l.66-.56-1.88-2.5a.381.381 0 0 1 .43-.59l2.25.76 2.31 1.46 2.5-1.31a3.7 3.7 0 0 1 1.76-.43h.66a.48.48 0 0 1 .28.87l-2.91 2.14a1.78 1.78 0 0 0-.68 1.91c.08.29.16.58.26.86a8.01 8.01 0 0 0 6.1 5.14 20.8 20.8 0 0 1 6.01 2.18 21 21 0 0 1 6.7 5.81v.01c.1.12.19.27.29.41 0 .01.01.01.01.02a11.3 11.3 0 0 1 1.13 2.22 12.2 12.2 0 0 1 .75 4.8c-.01.14-.01.27-.01.39a20.3 20.3 0 0 0 .3 3.52 19.5 19.5 0 0 0 1.03 3.81 3 3 0 0 0 .13.34 4.4 4.4 0 0 0 .23.56l.01.02a5.55 5.55 0 0 0 1.04 1.87 5.36 5.36 0 0 0 2.65 1.76 37 37 0 0 0 4.51.81l18.51 2.78"/><path stroke-linecap="round" stroke-miterlimit="10" d="M31.059 48.03c-.47.47.59 3.74.7 4.42l.76 3.43a2.06 2.06 0 0 1-.15 1.15l-.15.37a1.98 1.98 0 0 1-1.82 1.2h-3.48"/></g></svg>