<svg xmlns="http://www.w3.org/2000/svg" viewBox="0 0 72 72"><g fill="none" stroke="#000" stroke-linecap="round" stroke-miterlimit="10" stroke-width="2"><path d="m41.84 16.692-2.412 7.517M28.69 15.836l2.467 8M17.149 23.052l7.392 5.247M14.71 36.234l7.895-.029M18.412 48.696l6.369-4.664M29.135 55.308l2.912-8.017M42.285 56.164l-1.967-7M52.839 48.317l-5.904-4.616M57.765 35.766l-8.895.029M53.564 23.304l-7.37 5.164"/></g><path fill="#ea5a47" d="M50.488 36a15 15 0 1 1-15-15 15 15 0 0 1 15 15"/><path fill="#d22f27" d="M45.298 24.67A16.986 16.986 0 0 1 30.488 50c-.139 0-.273-.014-.41-.018a14.987 14.987 0 0 0 15.22-25.312"/><g fill="none" stroke="#d22f27" stroke-linecap="round" stroke-miterlimit="10" stroke-width="2"><path d="m41.84 16.692-2.412 7.517M28.69 15.836l2.467 8M17.149 23.052l7.392 5.247M14.71 36.234l7.895-.029M18.412 48.696l6.369-4.664M29.135 55.308l2.912-8.017M42.285 56.164l-1.967-7M52.839 48.317l-5.904-4.616M57.765 35.766l-8.895.029M53.564 23.304l-7.37 5.164"/></g><path fill="none" stroke="#000" stroke-linecap="round" stroke-linejoin="round" stroke-width="2" d="M50.488 36a15 15 0 1 1-15-15 15 15 0 0 1 15 15"/><g fill="none" stroke="#000" stroke-linecap="round" stroke-linejoin="round" stroke-width="1.5"><path d="m38.983 15.497 5.915 1.923h-3.292zM30.592 14.628l-4.622 1.326 2.834.161zM15.303 25.328l3.181-5.186-.559 3.454zM13.933 38.166l.025-4.065 1.191 2.033zM19.549 51.064l-3.184-3.754 2.564 1.007zM31.612 57.008l-5.915-1.922 3.456.233zM45.005 55.546l-5.121 1.826 2.258-1.643zM54.382 46.814l-2.68 3.686.827-2.425zM58.018 38.899l.024-6.065-.855 2.932zM52.016 20.787l3.449 4.628-2.302-1.833z"/></g><circle cx="42.654" cy="32.49" r="1.25"/><circle cx="28.654" cy="29.49" r="1.25"/><circle cx="35.654" cy="28.49" r="1.25"/><circle cx="37.654" cy="44.49" r="1.25"/><circle cx="31.654" cy="34.74" r="2"/><circle cx="31.154" cy="41.74" r="2"/><circle cx="39.654" cy="37.74" r="3"/><g fill="none" stroke="#d22f27" stroke-linecap="round" stroke-miterlimit="10" stroke-width="2"><path d="m40.634 20.45-1.206 3.759M29.598 18.782l1.559 5.054M20.094 25.143l4.447 3.156M17.989 36.234l4.616-.029M21.318 46.568l3.463-2.536M30.226 52.304l1.321-4.013M41.403 53.025l-1.085-3.861M50.206 46.258l-3.271-2.557M53.931 35.779l-5.061.016M50.552 25.415l-4.358 3.053"/></g></svg>