<svg xmlns="http://www.w3.org/2000/svg" viewBox="0 0 72 72"><path fill="none" stroke="#000" stroke-miterlimit="10" stroke-width="2" d="M48.128 18.358a13 13 0 0 1 1.721.32c1.562.48 2.272 1.823 2.633 3.456a11.8 11.8 0 0 1-.116 5.172c-.498 2.207-1.104 4.386-1.712 6.56a14.1 14.1 0 0 0-.312 4.373 22.6 22.6 0 0 1-.025 4.527 3.43 3.43 0 0 1-.87 1.784 12 12 0 0 1-1.006.994 5.05 5.05 0 0 0-1.633 2.883 17 17 0 0 1-.57 2.003 5.68 5.68 0 0 1-2.434 3.007 2.8 2.8 0 0 1-1.987.243 1.81 1.81 0 0 0-1.762.534 10.8 10.8 0 0 1-2.771 2.202 3.01 3.01 0 0 1-2.28.39 2.2 2.2 0 0 1-.804-.443 3.87 3.87 0 0 0-2.908-.875c-.93.05-1.862.105-2.794.104a5.57 5.57 0 0 1-5.235-3.48 25 25 0 0 1-1.306-3.551 5 5 0 0 0-1.691-2.604 8.3 8.3 0 0 1-1.126-1.084 5 5 0 0 1-1.129-2.998 6.65 6.65 0 0 1 2.44-5.896 5 5 0 0 1 .495-.411 3.4 3.4 0 0 0 1.444-2.141 3.04 3.04 0 0 1 1.475-1.96c.555-.33 1.135-.61 1.671-.974a4.2 4.2 0 0 0 1.19-1.026 13.35 13.35 0 0 1 4.201-3.92 66 66 0 0 1 10.463-5.58 23.4 23.4 0 0 1 5.188-1.473c.442-.064.89-.08 1.55-.136Z"/><path fill="#a57939" d="M34.407 62.864a4.5 4.5 0 0 1-1.15-.149 4.3 4.3 0 0 1-1.485-.734 4.83 4.83 0 0 0-3.424-.893l-.155.008c-1.239.06-2.518.124-3.79.124h-.028a8.9 8.9 0 0 1-8.23-4.9 30 30 0 0 1-1.9-4.614 5.3 5.3 0 0 0-2.001-2.782 12 12 0 0 1-1.725-1.482 6.86 6.86 0 0 1-1.867-4.382 8.97 8.97 0 0 1 3.814-8.298l.171-.137a5 5 0 0 1 .624-.449 3.3 3.3 0 0 0 1.571-2.093A4.89 4.89 0 0 1 17.4 29q.45-.238.905-.46c.492-.245.956-.474 1.392-.739l.108-.065a4.7 4.7 0 0 0 1.282-.97 18.9 18.9 0 0 1 6.215-5.204 98.5 98.5 0 0 1 14.846-7.089 36.4 36.4 0 0 1 7.49-1.9c.427-.056.859-.084 1.378-.118.257-.017.537-.035.85-.06l.12-.008.117.019q.254.039.57.077a14 14 0 0 1 1.953.35c2.276.624 3.716 2.283 4.403 5.07a14.2 14.2 0 0 1-.163 6.989c-.726 2.877-1.626 5.76-2.42 8.302a15.3 15.3 0 0 0-.393 5.163q.027.605.064 1.208a19.4 19.4 0 0 1-.115 4.706 5.17 5.17 0 0 1-1.502 2.775 17 17 0 0 1-1.503 1.328 5.25 5.25 0 0 0-1.933 3.066 20 20 0 0 1-.841 2.65 8.38 8.38 0 0 1-3.86 4.292 5.27 5.27 0 0 1-3.414.426 1.76 1.76 0 0 0-1.66.41 15.8 15.8 0 0 1-4.155 2.946 6.5 6.5 0 0 1-2.727.7"/><path fill="#fff" d="M35.646 57.9a3.2 3.2 0 0 1-2.1-.781 2.9 2.9 0 0 0-2.2-.633l-.14.008c-.875.048-1.78.097-2.683.097h-.026a6.555 6.555 0 0 1-6.134-4.043 26 26 0 0 1-1.362-3.691 4.03 4.03 0 0 0-1.349-2.11 9 9 0 0 1-1.264-1.213 5.92 5.92 0 0 1-1.374-3.578A7.65 7.65 0 0 1 19.8 35.22l.12-.106a4 4 0 0 1 .476-.382 2.38 2.38 0 0 0 1.022-1.54 4.02 4.02 0 0 1 1.936-2.584c.216-.13.436-.25.656-.371.327-.181.654-.36.966-.572a3.5 3.5 0 0 0 .918-.755 14.2 14.2 0 0 1 4.506-4.212 67.7 67.7 0 0 1 10.624-5.662 24 24 0 0 1 5.41-1.532c.317-.046.636-.07 1.023-.097l.717-.057.13.023q.176.03.394.06a9.4 9.4 0 0 1 1.443.29c1.725.529 2.81 1.9 3.318 4.196a12.7 12.7 0 0 1-.118 5.608c-.513 2.275-1.157 4.577-1.724 6.609a13.4 13.4 0 0 0-.276 4.067q.02.477.045.955a17.2 17.2 0 0 1-.083 3.77 4.44 4.44 0 0 1-1.115 2.294 13 13 0 0 1-1.093 1.078 4.08 4.08 0 0 0-1.308 2.333 17 17 0 0 1-.605 2.125 6.7 6.7 0 0 1-2.846 3.525 3.7 3.7 0 0 1-2.667.385c-.498-.076-.671.007-.89.236a11.6 11.6 0 0 1-3.037 2.4 4.6 4.6 0 0 1-2.096.596"/><path fill="#f4aa41" d="M32.064 50.596a8.46 8.46 0 0 1-5.957-2.863 5.35 5.35 0 0 1-1.599-4.586c.93-8.147 18.29-19.072 19.028-19.534a1.066 1.066 0 0 1 1.46.328 3.93 3.93 0 0 0 3.237 1.864 1.07 1.07 0 0 1 1.062 1.376c-.266.857-6.602 20.992-15.564 23.208a7 7 0 0 1-1.667.207"/><circle cx="31.001" cy="37.023" r="5" fill="#fff"/><path fill="#d0cfce" d="M29.33 32.671a4.564 4.564 0 0 1 1.099 8.74 5 5 0 0 1-.463.162 4.565 4.565 0 1 0-.635-8.902Z"/><path fill="none" stroke="#d0cfce" stroke-miterlimit="10" stroke-width="2" d="M48.128 18.358a13 13 0 0 1 1.721.32c1.562.48 2.272 1.823 2.633 3.456a11.8 11.8 0 0 1-.116 5.172c-.498 2.207-1.104 4.386-1.712 6.56a14.1 14.1 0 0 0-.312 4.373 22.6 22.6 0 0 1-.025 4.527 3.43 3.43 0 0 1-.87 1.784 12 12 0 0 1-1.006.994 5.05 5.05 0 0 0-1.633 2.883 17 17 0 0 1-.57 2.003 5.68 5.68 0 0 1-2.434 3.007 2.8 2.8 0 0 1-1.987.243 1.81 1.81 0 0 0-1.762.534 10.8 10.8 0 0 1-2.771 2.202 3.01 3.01 0 0 1-2.28.39 2.2 2.2 0 0 1-.804-.443 3.87 3.87 0 0 0-2.908-.875c-.93.05-1.862.105-2.794.104a5.57 5.57 0 0 1-5.235-3.48 25 25 0 0 1-1.306-3.551 5 5 0 0 0-1.691-2.604 8.3 8.3 0 0 1-1.126-1.084 5 5 0 0 1-1.129-2.998 6.65 6.65 0 0 1 2.44-5.896 5 5 0 0 1 .495-.411 3.4 3.4 0 0 0 1.444-2.141 3.04 3.04 0 0 1 1.475-1.96c.555-.33 1.135-.61 1.671-.974a4.2 4.2 0 0 0 1.19-1.026 13.35 13.35 0 0 1 4.201-3.92 66 66 0 0 1 10.463-5.58 23.4 23.4 0 0 1 5.188-1.473c.442-.064.89-.08 1.55-.136Z"/><path fill="none" stroke="#000" stroke-miterlimit="10" stroke-width="2" d="M51.943 13.393a21 21 0 0 1 2.418.403c2.194.602 3.19 2.292 3.697 4.346a13.3 13.3 0 0 1-.162 6.504c-.7 2.776-1.551 5.516-2.405 8.25a15.9 15.9 0 0 0-.437 5.5 25.5 25.5 0 0 1-.035 5.694 4.16 4.16 0 0 1-1.222 2.244 16 16 0 0 1-1.413 1.25 6.23 6.23 0 0 0-2.294 3.626 19 19 0 0 1-.8 2.519 7.37 7.37 0 0 1-3.418 3.782 4.32 4.32 0 0 1-2.79.305 2.74 2.74 0 0 0-2.475.672 15 15 0 0 1-3.892 2.769 4.65 4.65 0 0 1-3.202.491 3.2 3.2 0 0 1-1.129-.558 5.88 5.88 0 0 0-4.085-1.1c-1.306.064-2.615.132-3.922.13a7.89 7.89 0 0 1-7.352-4.375 30 30 0 0 1-1.835-4.466 6.3 6.3 0 0 0-2.376-3.275 11.3 11.3 0 0 1-1.58-1.363 5.9 5.9 0 0 1-1.586-3.771 7.98 7.98 0 0 1 3.426-7.415 7 7 0 0 1 .695-.517 4.29 4.29 0 0 0 2.03-2.693 3.9 3.9 0 0 1 2.072-2.464c.778-.416 1.593-.77 2.346-1.226a5.8 5.8 0 0 0 1.67-1.29 18.1 18.1 0 0 1 5.9-4.93 97 97 0 0 1 14.694-7.02 35.8 35.8 0 0 1 7.285-1.851c.622-.08 1.252-.1 2.177-.171Z"/><path fill="none" stroke="#000" stroke-linecap="round" stroke-linejoin="round" stroke-width="2.127" d="M44.1 24.516a93 93 0 0 0-10.802 8.065M26.855 39.818c-1.577 2.67-1.948 5.212.003 7.163C38.451 58.573 48.28 26.867 48.28 26.867"/><circle cx="31.001" cy="37.023" r="5" fill="none" stroke="#000" stroke-linecap="round" stroke-linejoin="round" stroke-width="2.435"/></svg>