<svg xmlns="http://www.w3.org/2000/svg" viewBox="0 0 72 72"><path fill="#6a462f" d="M26.296 38.096c-3 0-4-7-4-14 0-6 5-12 14-12s14 6 14 12c0 7-1 14-4 14"/><path fill="#c19a65" d="M25.233 31.096c-.102 7.999 4.063 14 11 14 7.063 0 11.063-6 11.063-14 0-5-3-10-3-10-8 0-10 3-16 1a17.1 17.1 0 0 0-3.063 9"/><path fill="#3f3f3f" d="M17.03 60.893V57.06c0-4.994 5.007-9 10-9q9 7.5 18 0c4.993 0 10 4.006 10 9v3.833Z"/><path fill="#ea5a47" d="M47.078 60.893c-1.132-3.474-2.978-7.894-5.447-9.667H30.758c-2.478 1.757-4.33 6.183-5.467 9.667Z"/><path fill="#fcea2b" d="m41.259 60.958 1.43-2.786a2.9 2.9 0 0 1-1.543-.718 2.27 2.27 0 0 1-.705-1.329h-4.46l-.003 2.94-.004-2.94h-4.46a2.2 2.2 0 0 1-.182.609 2.3 2.3 0 0 1-.522.72 2.8 2.8 0 0 1-1.497.711l1.517 2.793Z"/><path fill="#ea5a47" d="M25.296 29.33a6.47 6.47 0 0 0 3.817-1.102c1.407-1.19 3.11-2.175 5.565-.4a3.16 3.16 0 0 0 1.528.601 3.16 3.16 0 0 0 1.527-.6c2.456-1.776 4.158-.79 5.566.399a6.47 6.47 0 0 0 3.817 1.103l-.073 1.53a6.47 6.47 0 0 0-3.817 1.103c-1.408 1.189-3.11 2.174-5.565.399a3.16 3.16 0 0 0-1.528-.6 3.16 3.16 0 0 0-1.528.6c-2.455 1.775-4.157.79-5.565-.4a6.47 6.47 0 0 0-3.817-1.102Z"/><path d="M42.17 30.096a2 2 0 1 1-2-2 2 2 0 0 1 2 2M34.17 30.096a2 2 0 1 1-2-2 2 2 0 0 1 2 2"/><path fill="none" stroke="#000" stroke-linecap="round" stroke-linejoin="round" stroke-width="2" d="M33.17 38.346a8.27 8.27 0 0 0 6 0M26.296 38.096c-3 0-4-7-4-14 0-6 5-12 14-12s14 6 14 12c0 7-1 14-4 14"/><path fill="none" stroke="#000" stroke-linejoin="round" stroke-width="2" d="M25.233 31.096c-.102 7.999 4.936 14 11 14 5.936 0 11.063-6 11.063-14 0-5-3-11-3-11-8 0-10 3-16 1 0 0-3 5-3.063 10Z"/><path fill="none" stroke="#000" stroke-linecap="round" stroke-linejoin="round" stroke-width="2" d="M33.17 38.346a8.27 8.27 0 0 0 6 0"/><path d="M42.17 30.096a2 2 0 1 1-2-2 2 2 0 0 1 2 2M34.17 30.096a2 2 0 1 1-2-2 2 2 0 0 1 2 2"/><path fill="none" stroke="#000" stroke-linecap="round" stroke-miterlimit="10" stroke-width="2" d="M20.587 53.601a11.9 11.9 0 0 1 4.048-3.359 11.8 11.8 0 0 1 3.307-1.087M29.246 49.64a10.36 10.36 0 0 0-6.77 7.526M51.677 53.845a11.9 11.9 0 0 0-4.048-3.36 11.8 11.8 0 0 0-3.307-1.087M43.018 49.884a10.36 10.36 0 0 1 6.77 7.526M29.98 50.583a21 21 0 0 0-4.294 6.281 20.6 20.6 0 0 0-1.042 2.962"/><path fill="none" stroke="#000" stroke-linecap="round" stroke-linejoin="round" stroke-width="2" d="M16.97 59.937v-3c0-4.995 5.009-9 10-9q9 7.5 18 0c4.995 0 10 4.005 10 9v3"/><path fill="none" stroke="#000" stroke-linecap="round" stroke-miterlimit="10" stroke-width="2" d="M42.392 50.583a26.4 26.4 0 0 1 4.19 6.312 26 26 0 0 1 1.195 2.999"/><path fill="none" stroke="#000" stroke-linecap="round" stroke-linejoin="round" stroke-width="2" d="m31.143 59.446-1.027-1.894a2.36 2.36 0 0 0 1.977-2.048h7.854a2.36 2.36 0 0 0 1.977 2.048l-.995 1.835"/><path fill="none" stroke="#000" stroke-linejoin="round" stroke-width="2" d="M25.296 29.33a6.47 6.47 0 0 0 3.817-1.102c1.407-1.19 3.11-2.175 5.565-.4a3.16 3.16 0 0 0 1.528.601 3.16 3.16 0 0 0 1.527-.6c2.456-1.776 4.158-.79 5.566.399a6.47 6.47 0 0 0 3.817 1.103l-.073 1.53a6.47 6.47 0 0 0-3.817 1.103c-1.408 1.189-3.11 2.174-5.565.399a3.16 3.16 0 0 0-1.528-.6 3.16 3.16 0 0 0-1.528.6c-2.455 1.775-4.157.79-5.565-.4a6.47 6.47 0 0 0-3.817-1.102Z"/></svg>