<svg xmlns="http://www.w3.org/2000/svg" viewBox="0 0 72 72"><path fill="#92d3f5" d="m17.099 61 1-4a13.71 13.71 0 0 1 6.611-8.785 10.25 10.25 0 0 1 5.635-1.148c.225.031-1.328.251-1.078.395 7.996 4.59 12.126 4.862 16.98 1.875a6.47 6.47 0 0 1 5.98-.443c3.298 1.452 5.872 4.525 5.872 8.106v4"/><path fill="#6a462f" d="M39.099 12c-10 0-14 7-14 14s0 13 4 13h.633a17.8 17.8 0 0 1-1.697-8c0-5 1.064-6 1.064-6 6-1 9-4 13-7 0 0 4 5 7 8a12.1 12.1 0 0 1 1 5 17.45 17.45 0 0 1-1.747 8h.747c4 0 4-6 4-13s-4-14-14-14"/><g fill="#c19a65"><path d="M28.035 31c0 9 4.937 14 11 14 5.937 0 11.064-5 11.064-14a12.1 12.1 0 0 0-1-5c-3-3-7-8-7-8-4 3-7 6-13 7 0 0-1.064 1-1.064 6M18.846 60.958l3.225-10.22a8.7 8.7 0 0 0 3.537-1.566 3.1 3.1 0 0 0 1.21-2.45l.006-.82-.967-.914c2.96-3.002-2.9-5.063-2.9-5.063l3.226-3.271a2.86 2.86 0 0 0 .928-2.28c-.184-1.476-2.15-.483-2.15-.483l-5.63 5.708a1.54 1.54 0 0 0-.394.705l-1.265 5.042a6.4 6.4 0 0 0 .071 3.362l.22.742-4.795 11.508Z"/></g><path fill="none" stroke="#000" stroke-linecap="round" stroke-linejoin="round" stroke-width="2" d="M29.099 39a2.88 2.88 0 0 1-2.494-1.283c-.724-1.023 4.625-4.803-1.295-4.527 0 0-.211-4.565-.211-7.19 0-7 4-14 14-14s14 7 14 14 0 13-4 13M58.099 60v-3c0-4.994-5.006-9-10-9q-9 7.5-18 0"/><path d="M44.972 30a2 2 0 1 1-2-2 2 2 0 0 1 2 2M36.972 30a2 2 0 1 1-2-2 2 2 0 0 1 2 2"/><path fill="none" stroke="#000" stroke-linejoin="round" stroke-width="2" d="M28.035 31c0 9 4.937 14 11 14 5.937 0 11.064-5 11.064-14a12.1 12.1 0 0 0-1-5c-3-3-7-8-7-8-4 3-7 6-13 7 0 0-1.064 1-1.064 6Z"/><path fill="none" stroke="#000" stroke-linecap="round" stroke-linejoin="round" stroke-width="2" d="M36.099 37.727a6.55 6.55 0 0 1 6 0V38a6.55 6.55 0 0 1-6 0Z"/><path fill="none" stroke="#000" stroke-linecap="round" stroke-miterlimit="10" stroke-width="2" d="M19.884 29.334a4.45 4.45 0 0 1-.058 5.385M15.726 27.5s2.57 4.948-.679 9.394"/><path fill="none" stroke="#000" stroke-linecap="round" stroke-linejoin="round" stroke-width="2" d="M26.104 45.121c2.96-3.002-2.9-5.063-2.9-5.063l3.226-3.27a2.86 2.86 0 0 0 .928-2.28c-.183-1.477-2.15-.484-2.15-.484l-5.629 5.709a1.54 1.54 0 0 0-.394.704L17.92 45.48a6.4 6.4 0 0 0 .071 3.362l.22.742-4.647 10.445M27.071 46.036l-.006.819a3.1 3.1 0 0 1-1.21 2.45 8.06 8.06 0 0 1-3.433 1.639M22.422 50.944l-3.265 9.057"/></svg>