<svg xmlns="http://www.w3.org/2000/svg" viewBox="0 0 72 72"><path fill="#e27022" d="M50.63 15.6a1.2 1.2 0 0 1-1.73 1.18c-1.08-.56-2.98-1.24-3.92-.35a.3.3 0 0 1-.07.05c-1.52-2.09-4.21-3.79-8.91-3.79a3.794 3.794 0 0 1 3.56-4.24 8.5 8.5 0 0 0 4.73-2.06 5.1 5.1 0 0 1 .65 3.96l.49.01c3.72 0 4.97 3.05 5.2 5.24"/><path fill="#b1cc33" d="M36.002 42.033c-15.277 0-10.555-6.08-10.555-12.763 0-3.58-.376-3.401-.376-5.903s.632-10.681 10.931-10.681 10.932 8.179 10.932 10.68-.377 2.324-.377 5.904c0 6.684 4.723 12.763-10.555 12.763"/><path fill="#b1cc33" d="M46.934 23.367c2.137-2.837 5.31-2.063 8.8-4.36-.548 3.523-1.617 12.305-8.996 12.787ZM25.262 31.794c-7.379-.481-8.448-9.264-8.996-12.787 3.49 2.297 6.663 1.523 8.8 4.36ZM17.063 57.818s-2-13 10-13c3.191 2.128 5.926 3.598 9 3.592h-.126c3.074.006 5.809-1.464 9-3.592 12 0 10 13 10 13l.008 1H17.036Z"/><path fill="#5c9e31" d="M36 58.816c8.126-10.706 8.383-14.83 8.383-14.83a1 1 0 0 1 .555-.169c3.656 0 6.484 1.136 8.407 3.377 3.553 4.143 2.622 10.506 2.58 10.776a1 1 0 0 1-.985.847Z"/><path fill="#a57939" d="M44.964 57.818a48 48 0 0 1 6.466-6.879c4.406-3.468 6.766-3.56 10.948-8.906 2.063-2.637 2.637-7.281 0-9.344s-6.354-1.244-8.878 1.827c-4.681 5.697-3.825 8.713-6.2 13.194a103 103 0 0 1-6.803 10.106v1h4.466Z"/><path fill="#fff" d="M31.055 31.498a2.607 2.607 0 0 1 2.607 2.607v.65h-2.607zM41.003 34.756h-2.607v-.651a2.607 2.607 0 0 1 2.607-2.607z"/><path fill="none" stroke="#000" stroke-linecap="round" stroke-linejoin="round" stroke-width="2" d="M54.729 52.447a16.7 16.7 0 0 1 .209 5.37M17.063 57.818s-2-13 10-13c3.191 2.128 5.926 3.598 9 3.592h-.126c3.074.006 5.809-1.464 9-3.592M44.287 12.09a5.03 5.03 0 0 0 0-5.7 8.44 8.44 0 0 1-4.725 2.056 3.794 3.794 0 0 0-3.56 4.24M46.934 23.367c2.137-2.837 5.31-2.063 8.8-4.36-.548 3.523-1.617 12.305-8.996 12.787M25.262 31.794c-7.379-.481-8.448-9.264-8.996-12.787 3.49 2.297 6.663 1.523 8.8 4.36"/><path fill="none" stroke="#000" stroke-linecap="round" stroke-linejoin="round" stroke-width="2" d="M36.002 42.033c-15.277 0-10.555-6.08-10.555-12.763 0-3.58-.376-3.401-.376-5.903s.632-10.681 10.931-10.681 10.932 8.179 10.932 10.68-.377 2.324-.377 5.904c0 6.684 4.723 12.763-10.555 12.763"/><path d="M42.002 26.5a2 2 0 1 1-2-2 2 2 0 0 1 2 2M34.002 26.5a2 2 0 1 1-2-2 2 2 0 0 1 2 2"/><path fill="none" stroke="#000" stroke-linecap="round" stroke-linejoin="round" stroke-width="2" d="M38.039 23.027a5.43 5.43 0 0 1 5.049-1.272M28.97 21.755a5.43 5.43 0 0 1 5.049 1.271M44.964 57.818a48 48 0 0 1 6.466-6.879c4.406-3.468 6.766-3.56 10.948-8.906 2.063-2.637 2.637-7.281 0-9.344s-6.354-1.244-8.878 1.827c-4.681 5.697-3.825 8.713-6.2 13.194a103 103 0 0 1-6.803 10.106M50.373 36.073l3.143 1.901M56.472 45.212l1.927 3.128M59.361 29.433l-.309 3.66M31.055 32.496v2.776M42.249 35.272H29.808M41.003 32.496v2.776M47.247 15.108A9.3 9.3 0 0 1 50 16.26s0-5.21-4.494-5.21"/></svg>