<svg xmlns="http://www.w3.org/2000/svg" viewBox="0 0 72 72"><path fill="#92d3f5" d="m17.099 61 1-4a13.71 13.71 0 0 1 6.611-8.785 10.25 10.25 0 0 1 5.635-1.148c.225.031-1.328.251-1.078.395 7.996 4.59 12.126 4.862 16.98 1.875a6.47 6.47 0 0 1 5.98-.443c3.298 1.452 5.872 4.525 5.872 8.106v4"/><path fill="#fcea2b" d="M29.747 47.117c6.209 5.012 12.495 5.012 18.7 0a8.34 8.34 0 0 1 4.209 1.513 23 23 0 0 0 2.972-2.33c1.188-.715 3.125-8.282.391-13.025a24 24 0 0 1-1.157-2.633c-1.473-3.27-2.023-4.493-2.349-10.524.028-3.693-3.794-6.784-7.474-7.093a1 1 0 0 1-.689-.343c-.093-.1-2.408-2.655-7.243-2.655-6.2 0-11.441 3.382-12.743 8.226a18.5 18.5 0 0 0-.564 6.176 13.3 13.3 0 0 1-.76 5.961 6.8 6.8 0 0 1-1.12 2.088l-1.08 5.896 4.919-5.598 2.205 2.036-4.41 4.862 3.619 2.827-.113 4.75z"/><g fill="#debb90"><path d="m18.846 60.958 3.225-10.22a8.7 8.7 0 0 0 3.537-1.566 3.1 3.1 0 0 0 1.21-2.45l.006-.82-.967-.914c2.96-3.002-2.9-5.063-2.9-5.063l3.226-3.271a2.86 2.86 0 0 0 .928-2.28c-.184-1.476-2.15-.483-2.15-.483l-5.63 5.708a1.54 1.54 0 0 0-.394.705l-1.265 5.042a6.4 6.4 0 0 0 .071 3.362l.22.742-4.795 11.508zM28.487 29.065v.957c0 7.65 4.61 13.642 10.494 13.642s10.494-5.993 10.494-13.642c0-4.654-1.778-7.515-5.284-11.135a64 64 0 0 1-8.988 5.772c-2.647 1.515-6.255 3.57-6.716 4.406"/></g><path fill="none" stroke="#000" stroke-linecap="round" stroke-linejoin="round" stroke-width="2" d="M58.099 60v-3c0-4.994-5.006-9-10-9q-9 7.5-18 0"/><g fill="none" stroke="#000" stroke-linecap="round" stroke-miterlimit="10" stroke-width="2"><path d="M18.566 29.334a4.45 4.45 0 0 1-.058 5.385M14.984 27.075s2.57 4.949-.68 9.395"/></g><g fill="none" stroke="#000" stroke-linecap="round" stroke-linejoin="round" stroke-width="2"><path d="M26.104 45.121c2.96-3.002-2.9-5.063-2.9-5.063l3.226-3.27a2.86 2.86 0 0 0 .928-2.28c-.183-1.477-2.15-.484-2.15-.484l-5.629 5.709a1.53 1.53 0 0 0-.394.704L17.92 45.48a6.4 6.4 0 0 0 .071 3.362l.22.742-4.647 10.445M27.071 46.036l-.006.819a3.1 3.1 0 0 1-1.21 2.45 8.07 8.07 0 0 1-3.433 1.639M22.422 50.944l-3.265 9.057"/></g><path fill="none" stroke="#000" stroke-linecap="round" stroke-linejoin="round" stroke-width="2" d="M20.83 37.926c-.205-3.01 2.083-6.874 2.083-6.874 1.635-4.2-.21-6.451 1.29-12.034 1.48-5.5 7.278-8.966 13.71-8.966 5.4 0 8 3 8 3a8.13 8.13 0 0 1 7.405 8.037c.387 7.18 1.024 7.153 3.429 12.823A11.6 11.6 0 0 1 55.3 45.575"/><path d="M44.913 29.052a2 2 0 1 1-4 0 2 2 0 0 1 4 0M36.913 29.052a2 2 0 1 1-4 0 2 2 0 0 1 4 0"/><path fill="none" stroke="#000" stroke-linejoin="round" stroke-width="2" d="M27.913 30.052c0 8 5 14 11 14s11-6 11-14c0-5-2-8-6-12-4 4-16 9-16 11z"/><path fill="none" stroke="#000" stroke-linecap="round" stroke-linejoin="round" stroke-width="2" d="M35.895 37.12a6.55 6.55 0 0 1 6 0v.273a6.55 6.55 0 0 1-6 0z"/></svg>