<svg xmlns="http://www.w3.org/2000/svg" viewBox="0 0 72 72"><circle cx="36.366" cy="28.349" r="10" fill="#e67a94"/><path fill="#b1cc33" d="M35.185 17.206c-5.876.529-10.516 6.64-10.516 14.121 0 7.828 5.077 14.173 11.339 14.173s11.339-6.345 11.339-14.173a17.3 17.3 0 0 0-.768-5.094 9.92 9.92 0 0 1-11.394-9.027M54.946 60.959s2-12.604-10-12.604c-3.192 2.128-5.927 3.599-9 3.593h.125c-3.074.006-5.809-1.465-9-3.593-12 0-10 12.604-10 12.604"/><path fill="#d0cfce" d="m46.362 48.325-.907.885a15.64 15.64 0 0 1-5.346 5.81l-2.003 5.745-2-4.585c-3.337.02-6.674-2.283-9.348-6.97l-.55-.911c-10.93.677-9.039 12.687-9.039 12.687l3.153-.007 2.084-4.782 1.529 4.81 31.18-.05"/><path fill="#fcea2b" d="M32.008 38.348s8-3.11 8 0c0 6.242-8 0-8 0"/><path fill="#9b9b9a" d="M42.516 52.774c6.406 1.661 6.533 5.035 7.134 8.184h5.112s1.893-11.903-9.05-12.574q-.46-.028-.95-.029"/><path fill="#5c9e31" d="M30.008 29.982v2.04a2.11 2.11 0 0 0 1.707 2.134 2.002 2.002 0 0 0 2.293-1.979v-2.195a.057.057 0 0 0-.057-.057h-3.886a.057.057 0 0 0-.057.057M38.008 29.925v2.252a2 2 0 0 0 4 0v-2.253Z"/><path fill="#fff" d="M42.008 29.966a2 2 0 1 1-2-2 2 2 0 0 1 2 2M34.008 29.966a2 2 0 1 1-2-2 2 2 0 0 1 2 2"/><path fill="#3f3f3f" d="M53.052 51.442s6.021-3.94 3.791-8.325c-1.865-3.668-3.05-2.972-5.572-6.68 0 0 4.557.787 4.928-3.07 0 0-4.142-.599-4.587-2.602 2.032.326.315-14.02-6.616-6.983.236-1.223 8.93 17.787-7.12 21.454-15.392 3.516-17.052-28.187-2.357-28.141l2.753 1.31c.609-.563 1.57-2.577.562-4.053-1.461-2.14-6.402-3.479-13.79.618-2.885-.873-7.551 13.448-10.46 13.871 0 0 2.523 3.487 5.564 1.336 0 0-.031 1.237-3.709 8.308-4.419 8.497 4.933 11.965 4.13 11.916 0 0 5.232-3.628 6.923-2.866 2.386 1.075 8.042 8.8 17.432.074 0 0 6.775 1.079 8.128 3.833"/><path fill="none" stroke="#000" stroke-linecap="round" stroke-linejoin="round" stroke-width="2" d="M35.185 17.206c-5.876.529-10.516 6.64-10.516 14.121 0 7.828 5.077 14.173 11.339 14.173s11.339-6.345 11.339-14.173a17.3 17.3 0 0 0-.768-5.094 9.92 9.92 0 0 1-11.394-9.027"/><path fill="none" stroke="#000" stroke-linecap="round" stroke-linejoin="round" stroke-width="2" d="M45.392 25.313a2 2 0 0 0-1.329-2.18 2 2 0 0 0 .377-.891 1.993 1.993 0 0 0-2.79-2.114 1.992 1.992 0 0 0-3.39-1.306 1.99 1.99 0 0 0-2.772-.481"/><path fill="none" stroke="#000" stroke-linecap="round" stroke-linejoin="round" stroke-width="2" d="M35.185 17.206q.041.48.126.946a10 10 0 0 0 9.422 8.188q.204.008.41.008a10 10 0 0 0 1.436-.115M32.008 38.348s8-3.11 8 0c0 6.242-8 0-8 0M39.441 40.064h-4.299"/><path fill="none" stroke="#000" stroke-linecap="round" stroke-linejoin="round" stroke-width="1.5" d="M36.952 40.064v-2.925"/><path fill="none" stroke="#000" stroke-linecap="round" stroke-linejoin="round" stroke-width="2" d="M26.66 48.974c2.674 4.687 6.011 6.99 9.348 6.97l2 4.018 2.003-5.178a15.64 15.64 0 0 0 5.345-5.81M43.558 57.289l-.756 2.663M20.224 59.92l2.084-3.563 1.528 3.563"/><path d="M55.008 60.966a1 1 0 0 1-1-1v-3c0-4.451-4.496-7.81-8.652-7.992-6.205 5.012-12.491 5.012-18.696 0-4.156.182-8.652 3.54-8.652 7.992v3a1 1 0 0 1-2 0v-3c0-5.324 5.14-9.997 11-10a1 1 0 0 1 .64.232c5.625 4.688 11.095 4.688 16.72 0a1 1 0 0 1 .64-.232c5.86.003 11 4.676 11 10v3a1 1 0 0 1-1 1"/><path fill="none" stroke="#000" stroke-miterlimit="10" stroke-width="1.5" d="M42.008 29.966a2 2 0 1 1-2-2 2 2 0 0 1 2 2M34.008 29.966a2 2 0 1 1-2-2 2 2 0 0 1 2 2"/><path fill="none" stroke="#000" stroke-linecap="round" stroke-linejoin="round" stroke-width="2" d="M48.535 22.829c5.038.18 3.458 6.735 3.03 7.205a4.47 4.47 0 0 0 4.683 2.528c-.314 3.553-3.68 3.294-4.757 3.27a9.4 9.4 0 0 0 2.899 4.683 5.02 5.02 0 0 1 .595 7.731M18.152 47.223c-3.109-2.938-3.695-8.093-.218-11.147a7.27 7.27 0 0 0 2.114-5.204c-2.657 1.247-5.176-.637-5.91-1.68 1.586-.394 4.183-3.793 4.617-5.89 1.48-5.5 5.188-9.77 11.563-10.62 4.282-.57 6.484.408 7.667 2.161"/></svg>