<svg xmlns="http://www.w3.org/2000/svg" viewBox="0 0 72 72"><path fill="#fff" d="M54.778 58.592s2-13.797-10-13.797c-3.192 2.12-5.927 3.584-9 3.577h.125c-3.074.007-5.809-1.458-9-3.577-12 0-10 13.797-10 13.797"/><path fill="#61b2e4" d="M26.903 44.795c-12 0-10 13.967-10 13.967h15.893s-4.421-3.264-5.893-13.967M44.778 44.795c12 0 10 13.967 10 13.967H39.03s5.422-7.443 5.748-13.967"/><path fill="#92d3f5" d="M33.533 48.284s-1.207 6.022 2.307 6.022c3.513 0 2.307-6.022 2.307-6.022"/><path fill="#9b9b9a" d="m56.284 41.724 2.828-2.829 7.376 7.375-2.829 2.829z"/><circle cx="54.662" cy="37.461" r="4" fill="#d0cfce"/><path fill="#92d3f5" d="m34.99 54.488-2.416 3.638c-3.63-1.754-5.671-12.962-5.671-12.962l-5.105 6.934 2.974 1.842-.999 3.114 8.87 1.072M35.679 54.096l1.79 2.61 1.507 2.044h-6.311l1.507-2.044zM36.69 54.488l2.415 3.638c3.63-1.754 5.673-12.962 5.673-12.962l5.104 6.934-2.974 1.842.999 3.114-8.87 1.072"/><path fill="#a57939" d="M26 35.08c-4 0-4-4.5-4-11.5s4-14 14-14 14 7 14 14 0 11.5-4 11.5"/><path fill="#fadcbc" d="M24.937 28.58c0 9 4.936 14 11 14 5.936 0 11.063-5 11.063-14a12.1 12.1 0 0 0-1-5c-3-3-7-8-7-8-4 3-7 6-13 7.001 0 0-1.064.999-1.064 6"/><circle cx="54.662" cy="37.461" r="4" fill="none" stroke="#000" stroke-linecap="round" stroke-linejoin="round" stroke-miterlimit="10" stroke-width="2"/><path fill="none" stroke="#000" stroke-linecap="round" stroke-linejoin="round" stroke-miterlimit="10" stroke-width="2" d="m65.091 47.667 2.047 2.047M58.893 44.664v13.2M33.533 48.098s-1.207 6.021 2.307 6.021c3.513 0 2.307-6.021 2.307-6.021"/><path fill="none" stroke="#000" stroke-linecap="round" stroke-linejoin="round" stroke-miterlimit="10" stroke-width="2" d="m34.99 54.12-2.416 3.637c-3.63-1.754-5.671-12.962-5.671-12.962l-5.105 6.935 2.974 1.842-.999 3.113 8.87 1.072zM36.69 54.12l2.415 3.637c3.63-1.754 5.673-12.962 5.673-12.962l5.104 6.935-2.974 1.842.999 3.113-8.87 1.072z"/><path fill="none" stroke="#000" stroke-linecap="round" stroke-linejoin="round" stroke-miterlimit="10" stroke-width="2" d="M16.903 57.795s-2-13 10-13c3.191 2.128 5.926 3.598 9 3.592h-.125c3.073.006 5.808-1.464 9-3.592 12 0 10 13 10 13"/><path fill="none" stroke="#000" stroke-linecap="round" stroke-linejoin="round" stroke-width="2" d="M26 35.08c-4 0-4-4.5-4-11.5s4-14 14-14 14 7 14 14 0 11.5-4 11.5"/><path fill="none" stroke="#000" stroke-linejoin="round" stroke-width="2" d="M24.937 28.58c0 9 4.936 14 11 14 5.936 0 11.063-5 11.063-14a12.1 12.1 0 0 0-1-5c-3-3-7-8-7-8-4 3-7 6-13 7.001 0 0-1.064.999-1.064 6z"/><path d="M33.953 27.047a2 2 0 1 1-4 0 2 2 0 0 1 4 0M35.953 37.05a7.65 7.65 0 0 1-3.448-.859 1 1 0 0 1 .895-1.789c1.593.86 3.512.86 5.106 0a1 1 0 0 1 .894 1.79 7.65 7.65 0 0 1-3.447.857M41.953 27.047a2 2 0 1 1-4 0 2 2 0 0 1 4 0"/><path fill="none" stroke="#000" stroke-linecap="round" stroke-linejoin="round" stroke-miterlimit="10" stroke-width="1.99998" d="m56.284 41.724 2.828-2.829 7.376 7.375-2.829 2.829z"/></svg>