<svg xmlns="http://www.w3.org/2000/svg" viewBox="0 0 72 72"><path d="m40.701 37.652 2.598 1.5-1 1.732-2.598-1.5zm-.365-2.366a1 1 0 0 0-.867.5l-2 3.464a1 1 0 0 0 .366 1.366l4.33 2.5a1 1 0 0 0 1.366-.366l2-3.464a1 1 0 0 0-.366-1.366l-4.33-2.5a1 1 0 0 0-.5-.135ZM30.497 29.267a1.002 1.002 0 1 1-.497.135 1 1 0 0 1 .497-.135m0-2a3 3 0 1 0 2.601 1.5 2.99 2.99 0 0 0-2.6-1.5M58.497 42.268a1 1 0 1 1-.497.135 1 1 0 0 1 .497-.135m0-2a3 3 0 1 0 2.601 1.5 2.99 2.99 0 0 0-2.6-1.5M33.299 47.652l1 1.732-2.598 1.5-1-1.732zm.365-2.366a1 1 0 0 0-.499.134l-4.33 2.5a1 1 0 0 0-.366 1.366l2 3.464a1 1 0 0 0 1.366.366l4.33-2.5a1 1 0 0 0 .366-1.366l-2-3.464a1 1 0 0 0-.867-.5ZM15 38.5v3h-2v-3zm1-2h-4a1 1 0 0 0-1 1v5a1 1 0 0 0 1 1h4a1 1 0 0 0 1-1v-5a1 1 0 0 0-1-1"/><rect width="54" height="34" x="9" y="22" fill="#a57939" rx="3"/><rect width="4" height="38" x="19" y="20" fill="#6a462f" rx="1"/><rect width="4" height="38" x="49" y="20" fill="#6a462f" rx="1"/><rect width="7" height="6" x="38" y="36.268" fill="#e67a94" rx="1" transform="rotate(30 41.5 39.267)"/><circle cx="30.5" cy="30.268" r="3" fill="#fcea2b"/><circle cx="58.5" cy="43.269" r="3" fill="#61b2e4"/><rect width="7" height="6" x="29" y="46.268" fill="#f4aa41" rx="1" transform="rotate(-30 32.5 49.268)"/><rect width="7" height="6" x="10.5" y="37" fill="#b1cc33" rx="1" transform="rotate(90 14 40)"/><path fill="#a57939" d="M33.5 22v-2a1 1 0 0 1 1-1h3a1 1 0 0 1 1 1v2h3v-3.8a2.2 2.2 0 0 0-2.2-2.2h-6.6a2.2 2.2 0 0 0-2.2 2.2V22Z"/><g fill="none" stroke="#000" stroke-width="2"><path stroke-linejoin="round" d="M33.5 22v-2a1 1 0 0 1 1-1h3a1 1 0 0 1 1 1v2h3v-3.8a2.2 2.2 0 0 0-2.2-2.2h-6.6a2.2 2.2 0 0 0-2.2 2.2V22Z"/><path stroke-miterlimit="10" d="M53 56h7a3 3 0 0 0 3-3V25a3 3 0 0 0-3-3h-7M19 22h-7a3 3 0 0 0-3 3v28a3 3 0 0 0 3 3h7"/><path stroke-linecap="round" stroke-linejoin="round" d="m40.067 40.75-1.732-1 2-3.464 3.031 1.75"/><path stroke-linecap="round" stroke-miterlimit="10" d="M31.5 32a2 2 0 1 1-2-3.463M57.5 41.537a2 2 0 1 1 2 3.464"/><path stroke-linecap="round" stroke-linejoin="round" d="m31.067 47.786-1.732 1 2 3.464 3.031-1.75M12 39.5v-2h4V41"/><rect width="4" height="38" x="19" y="20" stroke-miterlimit="10" rx="1"/><rect width="4" height="38" x="49" y="20" stroke-miterlimit="10" rx="1"/><path stroke-miterlimit="10" d="M23 22h26M49 56H23"/></g></svg>