<svg xmlns="http://www.w3.org/2000/svg" viewBox="0 0 72 72"><rect width="50" height="50" x="11" y="11" fill="#1e50a0" rx="1.923" ry="1.923"/><path fill="#92d3f5" d="M36.053 61c5.608.081 11.973.174 17.098-3.984 7.082-5.746 6.927-15.658 6.805-23.408-.083-5.292-.24-10.416-4.087-13.69a12.83 12.83 0 0 0-8.521-2.701C43.323 19.9 39.875 21.754 36 21.746h.044c-3.875.008-7.323-1.846-11.348-4.53a12.83 12.83 0 0 0-8.521 2.702c-3.847 3.274-4.004 8.398-4.087 13.69-.122 7.75-.277 17.662 6.805 23.408 5.125 4.158 11.49 4.066 17.098 3.984z"/><path fill="none" stroke="#61b2e4" stroke-miterlimit="10" stroke-width="2" d="M36.053 61c5.608.081 11.973.174 17.098-3.984 7.082-5.746 6.927-15.658 6.805-23.408-.083-5.292-.24-10.416-4.087-13.69a12.83 12.83 0 0 0-8.521-2.701C43.323 19.9 39.875 21.754 36 21.746h.044c-3.875.008-7.323-1.846-11.348-4.53a12.83 12.83 0 0 0-8.521 2.702c-3.847 3.274-4.004 8.398-4.087 13.69-.122 7.75-.277 17.662 6.805 23.408 5.125 4.158 11.49 4.066 17.098 3.984z"/><path fill="#61b2e4" d="M19.019 34.696c0 9.268 2.901 16.78 6.48 16.78s6.481-7.512 6.481-16.78c0-.434-.018-.97-.043-1.498-.092-1.932-.843-3.816-2.253-5.141-4.62-4.34-10.399 1.273-10.579 3.886a12 12 0 0 0-.086 2.753ZM52.894 31.943c-.18-2.613-5.959-8.227-10.578-3.886-1.41 1.325-2.161 3.21-2.253 5.141a33 33 0 0 0-.044 1.498c0 9.268 2.902 16.78 6.481 16.78s6.481-7.512 6.481-16.78c.077-.918.048-1.842-.087-2.753"/><path d="M15 12.958a2 2 0 1 1-4 0 2 2 0 0 1 4 0M61 12.958a2 2 0 1 1-4 0 2 2 0 0 1 4 0M15 59a2 2 0 1 1-4 0 2 2 0 0 1 4 0M61 59a2 2 0 1 1-4 0 2 2 0 0 1 4 0"/><rect width="50" height="50" x="11" y="11" fill="none" stroke="#000" stroke-miterlimit="10" stroke-width="2" rx="1.923" ry="1.923"/><g fill="none" stroke="#000" stroke-linecap="round" stroke-width="2"><path stroke-linejoin="round" d="M30.496 23.365c-.938-1.497-2.041-2.19-4.811-2.19H15.94M55.94 21.175H45.795c-2.77 0-3.873.693-4.81 2.19"/><path stroke-miterlimit="10" d="M41.228 31.935s11.787.347 10.063-3.82M40.778 27.509s6.47.19 5.523-2.097M40.723 35.65s14.27 2.305 12.633-3.03M40.45 38.95s13.222 6.895 13.31-.325M39.685 41.688s16.339 14.446 13.355 3.346"/><path stroke-miterlimit="10" d="M39.685 41.688S49.5 64.935 52.003 52.173M30.29 31.935s-11.787.347-10.063-3.82M30.74 27.509s-6.47.19-5.524-2.097M30.794 35.803s-14.27 2.305-12.633-3.028M31.068 38.95s-13.222 6.895-13.31-.325M31.833 41.688s-16.34 14.446-13.355 3.346"/><path stroke-miterlimit="10" d="M31.833 41.688s-9.815 23.247-12.319 10.485"/><path stroke-linejoin="round" d="m36.54 24.826-.725 19.163-.874-19.163z"/></g><g fill="none" stroke="#fff" stroke-linecap="round" stroke-width="2"><path stroke-linejoin="round" d="M30.496 23.365c-.938-1.497-2.041-2.19-4.811-2.19H15.94M55.94 21.175H45.795c-2.77 0-3.873.693-4.81 2.19"/><path stroke-miterlimit="10" d="M41.228 31.935s11.787.347 10.063-3.82M40.778 27.509s6.47.19 5.523-2.097M40.723 35.65s14.27 2.305 12.633-3.03M40.45 38.95s13.222 6.895 13.31-.325M39.685 41.688s16.339 14.446 13.355 3.346"/><path stroke-miterlimit="10" d="M39.685 41.688S49.5 64.935 52.003 52.173M30.29 31.935s-11.787.347-10.063-3.82M30.74 27.509s-6.47.19-5.524-2.097M30.794 35.803s-14.27 2.305-12.633-3.028M31.068 38.95s-13.222 6.895-13.31-.325M31.833 41.688s-16.34 14.446-13.355 3.346"/><path stroke-miterlimit="10" d="M31.833 41.688s-9.815 23.247-12.319 10.485"/><path stroke-linejoin="round" d="m36.54 24.826-.725 19.163-.874-19.163z"/></g></svg>