<svg xmlns="http://www.w3.org/2000/svg" viewBox="0 0 72 72"><path fill="#fff" d="m38.607 58.936 21.085-26-19.834-2.948L13.5 33.294 32.8 59.204z"/><path fill="#b1cc33" d="M60.709 28.991C58.721 17.01 48.287 8.271 36.142 8.417c-13.72 0-24.841 10.88-24.841 24.3 0 0 3.057-1.882 5.11-.289a.72.72 0 0 0 .745.078 11.63 11.63 0 0 1 10.176.063.71.71 0 0 0 .547.06c1.578-.486 9.606-2.708 16.68-.035a.75.75 0 0 0 .616-.04 11.64 11.64 0 0 1 10.144-.05c.248.117.54.085.757-.084 2.035-1.592 4.906.186 4.906.186"/><path fill="#5c9e31" d="M55.72 32.568C51.256 7.073 36.142 8.417 36.142 8.417s7.76.72 8.73 24.223a10.07 10.07 0 0 1 10.848-.072"/><path fill="#5c9e31" d="M56.341 31.952c1.658-.05 3.44-.54 5.535.688 0-20.292-21.807-23.19-21.807-23.19s4.885 1.128 9.378 6.709z"/><rect width="6.586" height="6.586" x="32.081" y="58.353" rx="1.42" ry="1.42"/><g fill="none" stroke="#000" stroke-linecap="round" stroke-linejoin="round" stroke-width="2"><path d="M60.982 32.606 38.666 59.773M60.709 28.991C58.721 17.01 48.287 8.271 36.142 8.417c-13.72 0-24.841 10.88-24.841 24.3 0 0 3.057-1.882 5.11-.289a.72.72 0 0 0 .745.078 11.63 11.63 0 0 1 10.176.063.71.71 0 0 0 .547.06c1.578-.486 9.606-2.708 16.68-.035a.75.75 0 0 0 .616-.04 11.64 11.64 0 0 1 10.144-.05c.248.117.54.085.757-.084 2.035-1.592 4.906.186 4.906.186"/><path d="M16.76 32.57C21.225 7.075 36.143 8.417 36.143 8.417s-7.565.734-8.535 24.238l6.78 25.04M44.872 32.64l-7.625 25.713"/><path d="M55.72 32.568C51.256 7.073 36.142 8.417 36.142 8.417s7.76.72 8.73 24.223M16.761 32.66 33.5 58.353M55.72 32.69 37.246 58.353M32.08 59.773 11.3 32.717z"/><rect width="6.586" height="6.586" x="32.081" y="58.353" rx="1.42" ry="1.42"/></g></svg>