<svg xmlns="http://www.w3.org/2000/svg" viewBox="0 0 72 72"><path fill="#9b9b9a" d="M13.802 58.198c6.252 3.251 13.295.959 17.984-3.73l1.897-1.896c.828-.83.791-2.21-.084-3.085l-5.543-5.543-5.543-5.543c-.875-.875-2.256-.912-3.085-.084l-1.896 1.897c-4.689 4.689-6.981 11.732-3.73 17.984"/><path fill="#d0cfce" d="M22.513 43.706c-.875-.875-2.256-.912-3.085-.084l-1.896 1.897c-2.524 2.524-4.3 8.104-3.73 12.68 6.252 3.25 13.295.958 17.984-3.731l.745-.744-4.475-4.475z"/><path fill="#a57939" d="M26.287 42.177 46.025 22.44l3.536 3.536-19.738 19.738zM50.622 12.186l9.192 9.192-3.536 3.536-9.192-9.192z"/><g fill="none" stroke="#000" stroke-linecap="round" stroke-linejoin="round" stroke-width="2"><path d="M13.802 58.198c-3.251-6.251-.959-13.295 3.73-17.984l1.896-1.897c.83-.828 2.21-.791 3.085.084l5.543 5.543"/><path d="M13.802 58.198c6.252 3.251 13.295.959 17.984-3.73l1.897-1.896c.828-.83.791-2.21-.084-3.085l-5.543-5.543M50.622 12.186l9.192 9.192-3.536 3.536-9.192-9.192z"/><path d="m56.279 24.914-1.061 1.06a4 4 0 0 1-5.657 0l-3.536-3.535a4 4 0 0 1 0-5.657l1.061-1.06M26.287 42.177 46.025 22.44l3.536 3.536-19.738 19.738z"/></g></svg>