<svg xmlns="http://www.w3.org/2000/svg" viewBox="0 0 72 72"><rect width="8.232" height="4.958" x="24.8" y="56" fill="#8967aa" rx="2.02"/><rect width="8.232" height="4.958" x="40.466" y="56" fill="#8967aa" rx="2.02"/><path fill="#f1b31c" d="M25.309 58.031h7.428l.596-8.109h-8.858zM48.058 58.031h-6.704l-1.716-7.927h9.156z"/><path fill="#b1cc33" d="M24.52 53.271h8.593l.839-3.167h5.686l.84 3.167h8.143l1.06-10.039h-25.9z"/><path fill="#e67a94" d="M49.344 46.692h-8.1l-1.864-3.036-1.563 2.032h-2.419l-1.507-2.032-1.781 2.032h-1.915l-1.745-2.032-1.564 3.036h-2.62l-1.564-8.887h27.426z"/><path fill="#fcea2b" d="m49.713 37.805.15 2.998-3.846.031-1.745-3.029-1.564 2.031h-2.362l-1.745-2.031-1.563 2.031H34.62l-1.508-2.031-1.808 3.057h-7.728l-1.342-3.456-8.081-1.646-1.673-2.802v-2.817h21.043v2.09l2.533 1.753 10.553.25z"/><path fill="#61b2e4" d="m33.523 31.045.813 3.404h-4.31l-1.833-3.064-1.563 2.031h-2.419l-1.507-2.031-1.781 2.031h-1.915l-1.745-2.031-1.728 3.064h-2.394l-.325-6.152 5.285-3.897 13.792.426z"/><path fill="#ea5a47" d="m32.661 27.269.483 1.005h-7.653l-1.616-3.037-1.77 3.037h-8.964l10.116-7.226.253-3.646h6.559l.4 4.208z"/><path fill="#f1b31c" d="M30.469 21.121h-1.134l-1.508-2.031-1.781 3.034h-4.295l1.848-1.622.26-8.114h5.316z"/><path fill="#fcea2b" d="M29.735 14.974h-6.16l.914-4.853 1.832-1.873 2.068 2.013z"/><g fill="none" stroke="#000" stroke-linecap="round" stroke-linejoin="round" stroke-width="2"><path d="M33.045 28.718a51 51 0 0 0-2.657-7.783.8.8 0 0 1-.065-.276c-.058-1.376-.626-12.282-4.044-12.122-3.23.15-2.812 9.65-2.674 11.824a.76.76 0 0 1-.348.686l-9.345 6.078a2.96 2.96 0 0 0-1.432 2.533v2.994a3.725 3.725 0 0 0 3.217 3.69l5.726.788c2.171.21 2.366 3.531 2.367 6.141q0 .028.003.055l1.255 15.78a1.853 1.853 0 0 0 1.852 1.852h4.004a1.85 1.85 0 0 0 1.853-1.852l.435-8.338a.77.77 0 0 1 .76-.664h5.686a.77.77 0 0 1 .758.651l.607 8.35a1.853 1.853 0 0 0 1.852 1.853h3.233a1.853 1.853 0 0 0 1.852-1.852l2.184-19.922a4.97 4.97 0 0 0-4.912-5.169l-9.63-.106a1.956 1.956 0 0 1-1.902-1.757 28 28 0 0 0-.635-3.434"/><path d="M30.469 21.121h-1.134l-1.508-2.031-1.781 2.031M27.8 27.269h-2.418l-1.507-2.032-1.781 2.032h-1.915M15.7 33.416l1.563-2.031 1.745 2.031h1.915l1.781-2.031 1.507 2.031h2.419l1.563-2.031 1.745 2.031M31.331 39.836l1.781-2.031 1.508 2.031h2.418l1.563-2.031 1.745 2.031h2.362l1.564-2.031 1.745 2.031M26.886 45.688l1.564-2.032 1.745 2.032h1.915l1.781-2.032 1.507 2.032h2.419l1.563-2.032 1.745 2.032M59.524 44.566a10 10 0 0 1-6.75-9.46M59.525 50.418a10.02 10.02 0 0 1-6.547-7.445"/></g></svg>