<svg xmlns="http://www.w3.org/2000/svg" viewBox="0 0 72 72"><path fill="#fff" d="M37.76 20.229h6.092L42.203 24.6h-5.232zM34.534 32.2l5.662-.144-1.863 4.444-5.018-.358zM30.95 44.456l4.802-.072-1.433 3.226-4.158-.072z"/><path fill="#6a462f" d="M22.265 62.034h-2.058a1.076 1.076 0 0 1-1.023-1.407l16.164-49.94a1.075 1.075 0 0 1 1.023-.745h2.059a1.076 1.076 0 0 1 1.023 1.407L23.289 61.29a1.075 1.075 0 0 1-1.023.745"/><path fill="#a57939" d="M36.09 62.034h-2.058a1.076 1.076 0 0 1-1.023-1.407l16.164-49.94a1.075 1.075 0 0 1 1.023-.745h2.06a1.076 1.076 0 0 1 1.022 1.407L37.113 61.29a1.075 1.075 0 0 1-1.023.745"/><path fill="#a57939" d="M47.938 18.678H34.12a1 1 0 0 1-.935-1.356l.64-1.677a1 1 0 0 1 .934-.645h13.817a1 1 0 0 1 .935 1.356l-.639 1.677a1 1 0 0 1-.934.645M44.136 30.317H30.318a1 1 0 0 1-.934-1.356l.639-1.678a1 1 0 0 1 .934-.644h13.818a1 1 0 0 1 .934 1.355l-.639 1.678a1 1 0 0 1-.934.645M40.434 42H26.616a1 1 0 0 1-.934-1.356l.639-1.677a1 1 0 0 1 .934-.645h13.817a1 1 0 0 1 .935 1.356l-.639 1.677a1 1 0 0 1-.934.645M36.649 53.653H22.83a1 1 0 0 1-.934-1.356l.638-1.677a1 1 0 0 1 .935-.645h13.817a1 1 0 0 1 .935 1.356l-.639 1.677a1 1 0 0 1-.935.645"/><g fill="none" stroke="#000" stroke-linecap="round" stroke-linejoin="round" stroke-width="2"><path d="m20.207 60.958 16.164-49.94M34.024 60.958l16.165-49.94M34.759 16h13.817M30.985 27.658h13.818M37.256 50.974H23.439M27.212 39.316h13.817"/></g></svg>