<svg xmlns="http://www.w3.org/2000/svg" viewBox="0 0 72 72"><path fill="#fff" d="M55.037 42.06H16.963a1.19 1.19 0 0 1-1.19-1.19V16.119a1.19 1.19 0 0 1 1.19-1.19h38.074a1.19 1.19 0 0 1 1.19 1.19v24.75a1.19 1.19 0 0 1-1.19 1.191"/><path fill="#d0cfce" d="M44.518 16.119h10.519v24.75H44.518z"/><path fill="#a57939" d="M40.15 40.869v18.898a1 1 0 0 1-1 1h-6.3a1 1 0 0 1-1-1V40.87ZM31.85 16.119v-3.97a1 1 0 0 1 1-1h6.3a1 1 0 0 1 1 1v3.97Z"/><g fill="none" stroke="#000" stroke-linecap="round" stroke-linejoin="round" stroke-width="2"><path d="M16.963 16.119h38.074v24.75H16.963zM39.151 44.202v15.566H32.85V44.202M32.85 16.119v-3.97h6.301v3.97"/><path d="M23.586 35.175a10 10 0 0 1 1.85-3.665c.153-.191.36-.395.601-.355a.68.68 0 0 1 .38.273c.93 1.113 1.41 2.579 2.478 3.559a1 1 0 0 0 .439.269c.457.105.834-.34 1.112-.717a12 12 0 0 1 2.422-2.452 2.1 2.1 0 0 1 .955-.473 2.01 2.01 0 0 1 1.737 1.075 4.46 4.46 0 0 0 1.392 1.608.62.62 0 0 0 .49.077.7.7 0 0 0 .29-.246c1.045-1.298 1.731-3.173 3.358-3.534a19 19 0 0 0 1.076 3.012c.109.238.3.515.556.462a.6.6 0 0 0 .282-.191l3.186-3.225 2.224 3.897M23.556 27.105a14.6 14.6 0 0 1 3.536-5.043 39 39 0 0 0 3.055 3.12 2.2 2.2 0 0 0 1.876.796 2.3 2.3 0 0 0 1.081-.864 34 34 0 0 1 2.616-2.782 2.06 2.06 0 0 1 .907-.589 1.81 1.81 0 0 1 1.745 1.027 5.4 5.4 0 0 0 1.262 1.734.72.72 0 0 0 .567.152.93.93 0 0 0 .41-.297 13.8 13.8 0 0 1 2.66-2.153 1.78 1.78 0 0 1 1.435-.36 1.9 1.9 0 0 1 .881.86l2.092 3.241"/></g></svg>