<svg xmlns="http://www.w3.org/2000/svg" viewBox="0 0 72 72"><path fill="#92d3f5" d="M17.706 53.518a2.64 2.64 0 0 1-1.875-.775l-.043-.042a2.666 2.666 0 0 1-.012-3.768L33.41 32.358l8.33-5.008 10.038-10.062a2.693 2.693 0 0 1 3.813 3.803L44.794 31.878l-8.184 5.14-17.05 15.746a2.6 2.6 0 0 1-1.85.753Z"/><path fill="#fff" d="M42.7 28.617a1 1 0 0 1-.703-.29L37.02 23.35a1 1 0 0 1-.18-.241 2.9 2.9 0 0 1-.12-2.672 2.4 2.4 0 0 1 2.25-1.04 1.2 1.2 0 0 0 .878-.237.82.82 0 0 0 .087-.587 2.96 2.96 0 0 1 .586-2.381 2.85 2.85 0 0 1 2.424-.849c.786.036 1.018-.34 1.082-.694a2.83 2.83 0 0 1 .902-2.303 2.41 2.41 0 0 1 2.427-.186 1 1 0 0 1 .359.227l4.976 4.978a1 1 0 0 1 .014 1.408l-9.288 9.541a1 1 0 0 1-.707.303Z"/><g fill="none" stroke="#000" stroke-linecap="round" stroke-miterlimit="10" stroke-width="2"><path d="m22.273 48.897-3.392 3.133a1.66 1.66 0 0 1-2.347.003l-.046-.046a1.66 1.66 0 0 1-.003-2.348l17.44-16.423 8.435-5.072 10.125-10.15a1.66 1.66 0 0 1 2.347-.003l.047.047a1.66 1.66 0 0 1 .003 2.347L44.262 31.03 36 36.22 25.205 46.256M42.993 21.404l1.078 1.077M45.631 18.767l1.077 1.077M40.919 25.834l-3.188-3.188s-1.192-2.241 1.246-2.241 1.942-2.047 1.942-2.047a1.666 1.666 0 0 1 1.976-2.01 1.876 1.876 0 0 0 2.144-1.65s-.217-2.398 1.98-1.593l3.188 3.187"/></g></svg>