<svg xmlns="http://www.w3.org/2000/svg" viewBox="0 0 72 72"><path fill="#ea5a47" d="M24.1 46.2c-.4.8-.7 1.6-1 2.4L5 43.8c.7-2.4 1.7-4.9 2.8-7zM28.7 41c-.6.4-1.2.9-1.7 1.4L13.8 29c1.7-1.7 3.6-3.1 5.7-4.4zM35.4 20.1l-.1 18.7c-.8 0-1.5.1-2.2.3l-4.8-18.2c2.4-.5 4.7-.8 7.1-.8M51.5 24.1l-9.3 16.3c-.7-.3-1.4-.6-2-.9L45 21.3c2.3.6 4.5 1.6 6.5 2.8M63.474 35.97 47.5 45.1c-.4-.6-.8-1.2-1.3-1.7l13.2-12.9c1.6 1.7 2.774 3.37 4.074 5.47"/><path fill="#d22f27" d="M66.38 44.064 48.874 48.42c-.4-1.4-.9-2.6-1.7-3.7l15.945-8.973c1.7 2.5 3.263 8.317 3.263 8.317M59.14 30.15 46.254 43.138c-1.1-1.3-2.4-2.3-3.9-3.1l9.106-15.935c3 1.6 7.974 5.927 7.678 6.049M44.9 21.3 40 39.5c-1.3-.4-2.6-.7-4.1-.7h-.7l.1-18.7h.7c3.1 0 6.1.4 8.9 1.2M33.2 39.1c-1.6.4-3.1 1-4.4 1.8l-9.3-16.3c2.7-1.7 5.7-2.9 8.9-3.7zM27 42.3c-1.2 1.1-2.2 2.4-2.9 3.9L7.8 36.8c1.6-2.8 3.6-5.4 5.9-7.7z"/><path fill="#fff" d="m23.31 48.642 12.658 3.688 12.238-3.106c1.094-.29 1.28-1.822.39-2.519l-2.321-1.815-2.28-3.546-8.08-2.49-7.261 2.691"/><g fill="none" stroke="#000" stroke-linecap="round" stroke-linejoin="round" stroke-width="2"><path d="m36.1 52-2.4-8.9M36.1 52l6.9-6.8M36.1 52l2.4-9.1M36.1 52l-6.9-6.7M27.1 49.7l9 2.3 9.2-2.1M66.6 44.6l-18.1 4.5c-1-5.9-6.1-10.4-12.3-10.4-6.1 0-11.1 4.4-12.2 10.1L6 44c3.2-13.7 15.5-23.994 30.2-24 14.933-.006 27.52 10.478 30.4 24.6M9.1 37.6l15.6 8.7M14.2 29.7l12.5 12.4M19.9 25.5l8.7 15.1M28.5 21.4 33 38.5M35.5 20.7l-.1 17.4M44.8 21.9l-4.5 16.8M51.2 24.6l-8.7 15.1M58.8 30.6 46.5 43M62.7 36.2 47.8 45"/></g></svg>