<svg xmlns="http://www.w3.org/2000/svg" viewBox="0 0 72 72"><path fill="#fff" d="M46.205 37.484c-6.054-4.036-12.3-3.94-13.837-5.189-1.057-.865-1.634-9.129.096-14.51C35.25 9.137 29.293 7.503 25.93 9.81l-4.517 2.883c-2.883 2.883-6.054 2.883-4.997 3.94.961.96 6.727.192 7.976 1.537 2.402 2.595-1.345 15.375-1.922 20.276-.865 6.342-.096 9.033 6.054 12.396 1.73.96 4.42 1.633 6.63 2.114v4.42H26.41l2.21 2.883h2.21l2.21 2.883h4.42l2.115-2.883v-6.534l4.708.672c7.015.865 12.108.096 12.108.096S54.084 42.77 46.205 37.484Z"/><path fill="#e27022" stroke="#e27022" stroke-linecap="round" stroke-linejoin="round" stroke-width="1.922" d="M35.25 57.471h-8.648l2.21 2.883h4.42z"/><path fill="#f4aa41" stroke="#f4aa41" stroke-linecap="round" stroke-linejoin="round" stroke-width="1.922" d="M39.67 60.354h-8.744l2.21 2.883h4.42zM24.584 18.266c-1.249-1.442-7.015-.577-7.975-1.538-1.058-1.057 2.113-1.057 4.996-3.94 1.922-1.922 3.363-.576 3.363 1.73z"/><g fill="none" stroke="#000" stroke-linecap="round" stroke-width="1.922"><path stroke-linejoin="round" d="M24.873 14.518c.096-2.306-1.442-3.651-3.364-1.73-2.883 2.883-6.054 2.883-4.997 3.94.961.961 6.727.192 7.976 1.538 2.402 2.594-1.345 15.374-1.922 20.275-.864 6.342-.096 9.033 6.054 12.396 3.46 1.922 11.05 2.883 11.05 2.883v6.534M26.122 9.906c3.267-2.403 9.225-.77 6.534 7.975-1.73 5.381-1.153 13.645-.096 14.51 1.537 1.25 7.687 1.057 13.837 5.19 7.88 5.284 10.186 17.103 10.186 17.103s-5.093.77-12.108-.096"/><path stroke-miterlimit="10" d="M30.734 40.463c2.306 7.88 12.588 9.32 12.588 9.32"/><path stroke-linejoin="round" d="M33.233 60.354h-4.42l-2.21-2.883h8.648v-4.42M39.67 60.354h-8.744l2.21 2.883h4.42"/></g></svg>