<svg xmlns="http://www.w3.org/2000/svg" viewBox="0 0 72 72"><circle cx="31.592" cy="45.623" r="1"/><circle cx="30.159" cy="41.739" r="1"/><circle cx="32.814" cy="39.749" r="1"/><circle cx="40.428" cy="45.623" r="1"/><circle cx="41.861" cy="41.739" r="1"/><circle cx="39.206" cy="39.749" r="1"/><rect width="2.616" height="6.88" x="46.902" y="36.421" fill="#fff" rx="1.308" ry="1.308"/><rect width="2.616" height="6.88" x="22.59" y="36.106" fill="#fff" rx="1.308" ry="1.308"/><path fill="#5c9e31" d="M43.12 34.538H28.88c-.178 0-.353-.048-.506-.138a7.09 7.09 0 0 1-3.258-6.786 3.2 3.2 0 0 1 .625-1.626 3.6 3.6 0 0 1 2.246-1.105c.205-.043.411-.084.606-.143a6.6 6.6 0 0 0 1.927-1.154c.216-.162.43-.325.65-.48a4.75 4.75 0 0 1 3.99-1.055 1 1 0 0 1 .128.044c.46.165.963.165 1.422 0 1.498-.63 2.99.21 4.12 1.011q.326.234.646.478a6.6 6.6 0 0 0 1.932 1.156c.194.059.4.1.606.143.857.088 1.653.48 2.245 1.105.356.474.572 1.037.624 1.627a7.09 7.09 0 0 1-3.256 6.785c-.154.09-.329.138-.507.138"/><path fill="#186648" d="M44.5 33.256c-2.787-2.238-7.457-1.51-8.5-1.313-1.043-.198-5.711-.926-8.5 1.312a5.78 5.78 0 0 0-2.066 4.762c0 3.486 0 14.096 9.109 15.658a1 1 0 0 0 1.053-.519l.404-.764.403.764a1 1 0 0 0 1.054.519c9.11-1.562 9.11-12.172 9.11-15.658a5.77 5.77 0 0 0-2.066-4.761"/><circle cx="31.592" cy="45.623" r="1" fill="#fcea2b"/><circle cx="30.159" cy="41.739" r="1" fill="#fcea2b"/><circle cx="32.814" cy="39.749" r="1" fill="#fcea2b"/><circle cx="40.428" cy="45.623" r="1" fill="#fcea2b"/><circle cx="41.861" cy="41.739" r="1" fill="#fcea2b"/><circle cx="39.206" cy="39.749" r="1" fill="#fcea2b"/><g fill="none" stroke="#000" stroke-linecap="round" stroke-linejoin="round" stroke-width="2"><path d="M31.746 51.68c-4.445-2.452-5.312-8.293-5.312-13.663 0-7.17 9.566-5.054 9.566-5.054V50.25l-1.288 2.441M36 50.249l1.288 2.441"/><path d="M40.254 51.68c4.445-2.452 5.312-8.293 5.312-13.663 0-7.17-9.566-5.054-9.566-5.054M26.817 43.343l-3.772 2.958 3.047 5.844M25.127 50.295s-3.006 6.004-.882 11.21M27.12 35.201l-6.241-1.084.245 4.574"/><path d="M18.35 46.24a9.71 9.71 0 0 1 2.66-9.681M26.88 31.457a6.07 6.07 0 0 1-.772-3.714c.03-.405.172-.794.409-1.125.543-.67 1.537-.672 2.362-.92a10.5 10.5 0 0 0 2.869-1.776 3.93 3.93 0 0 1 3.154-.906c.707.268 1.489.268 2.196 0 1.043-.438 2.232.252 3.154.906a10.5 10.5 0 0 0 2.869 1.776c.825.248 1.82.25 2.362.92.237.33.378.72.409 1.125a6.07 6.07 0 0 1-.773 3.713M45.183 43.343l3.772 2.958-3.047 5.844M46.873 50.295s3.006 6.004.882 11.21M44.88 35.201l6.241-1.084-.245 4.574"/><path d="M53.65 46.24a9.71 9.71 0 0 0-2.66-9.681M31.57 10.958 36 15.106l4.43-4.148M36 15.106v8.112M26.108 27.743l-2.587-3.902M20.384 15.106s-3.082 8.29 4.265 10.436M45.894 27.743l2.587-3.902M51.618 15.106s3.082 8.29-4.265 10.436"/></g></svg>