<svg xmlns="http://www.w3.org/2000/svg" viewBox="0 0 72 72"><path fill="#b399c8" d="M60.331 22.68c-.073 6.693-12.466 13.108-23.393 13.352-11.613.26-24.821-6.376-24.98-13.352-.1-4.412 5.042-8.088 9.715-11.429 3.82-2.731 8.252-5.9 14.472-5.888 6.47.013 11.545 2.932 15.794 6.153 4.938 3.744 8.434 7.324 8.392 11.164Z"/><path fill="#8967aa" d="M60.461 22.763c-.067 6.27-10.963 12.271-21.323 13.21 8.986-1.911 17.2-7.208 17.267-12.64.067-3.855-3.454-7.409-8.382-11.164C43.765 8.95 38.703 6.034 32.232 6h-.503c1.408-.335 2.883-.57 4.526-.57 6.47 0 11.567 2.917 15.825 6.169 4.928 3.722 8.415 7.309 8.381 11.164"/><path fill="none" stroke="#fff" stroke-linecap="round" stroke-linejoin="round" stroke-width="2" d="M24.405 29.593c-2.843-.865-5.338-2.395-7.275-4.537M29.094 31.167c-.654-.071-1.212-.248-1.627-.525"/><g fill="none" stroke="#b399c8" stroke-linecap="round" stroke-linejoin="round" stroke-width="3"><path d="M28.422 39.535c-1.653 1.922-3.448 4.694-3.113 7.767.42 3.85 3.853 5.142 5.21 9.293.7 2.139.943 5.334-1.217 9.859M43.578 39.498c1.653 1.922 3.448 4.693 3.113 7.766-.42 3.85-3.853 5.142-5.21 9.293-.7 2.14-.943 5.334 1.217 9.859M17.49 36.365c-3.118 3.151-3.489 5.311-3.164 6.746.566 2.505 3.337 3.174 4.63 6.39.821 2.04.608 4.016.27 5.424M54.51 36.222c3.118 3.152 3.489 5.311 3.164 6.746-.567 2.505-3.337 3.174-4.63 6.39-.821 2.04-.608 4.016-.27 5.424"/></g><g fill="none" stroke="#000" stroke-width="2"><path stroke-linecap="round" stroke-linejoin="round" d="M30.008 39.22c-1.653 1.923-3.448 4.694-3.113 7.767.42 3.85 3.853 5.142 5.21 9.293.7 2.14.944 5.334-1.217 9.859M41.62 39.22c1.653 1.923 3.449 4.694 3.113 7.767-.42 3.85-3.853 5.142-5.21 9.293-.699 2.14-.943 5.334 1.217 9.859"/><path stroke-miterlimit="10" d="M60.224 22.68c-.073 6.693-12.466 13.108-23.393 13.352-11.613.26-24.822-6.376-24.98-13.352-.1-4.412 5.042-8.088 9.714-11.429 3.821-2.731 8.253-5.9 14.473-5.888 6.47.013 11.545 2.932 15.793 6.153 4.94 3.744 8.435 7.324 8.393 11.164Z"/><path stroke-linecap="round" stroke-linejoin="round" d="M19.076 36.088c-3.118 3.152-3.489 5.311-3.164 6.746.567 2.505 3.337 3.174 4.63 6.39.821 2.04.609 4.016.27 5.424M52.924 35.945c3.118 3.152 3.489 5.311 3.164 6.746-.567 2.505-3.337 3.174-4.63 6.39-.821 2.04-.609 4.016-.27 5.424"/></g></svg>