<svg xmlns="http://www.w3.org/2000/svg" viewBox="0 0 72 72"><path fill="#8967aa" d="M39.012 14.746c-2.53-2.381-7.045-1.877-9.275.787s-2.104 6.878-.023 9.66c.854 1.14 2.024 2.146 2.314 3.54.569 2.733-2.56 4.838-5.33 5.175-4.419.537-9.215-1.128-13.19.876-3.44 1.735-5.165 6.26-3.752 9.844s5.761 5.716 9.46 4.637c2.804-.819 4.893-3.098 7.297-4.757s5.847-2.65 8.12-.816c2.882 2.323 1.601 6.82 1.255 10.505-.264 2.814.363 5.968 2.605 7.688s6.347.937 6.875-1.84c.46-2.413-1.356-5.54-1.262-8.424.066-2.026.405-4.21 1.93-5.546 2.533-2.218 5.815-2.652 8.494-.612C61.009 50.396 66.206 35.388 58.033 35c-5.119-.243-6.332.183-8.286-.46-1.866-.616-2.438-2.235-.783-4.725.95-1.428 5.686-7.781.375-8.928-4.172-.9-6.643 2.506-8.353 1.845-3.038-1.175.28-5.635-1.974-7.986"/><path fill="#b399c8" d="M52.53 42.463c7.255 4.205 6.345-7.423 5.503-7.463-5.119-.243-6.332.183-8.286-.46-1.866-.616-2.438-2.235-.783-4.724.95-1.428 5.686-7.782.375-8.928-4.172-.901-6.642 2.505-8.353 1.844-3.038-1.175.28-5.635-1.975-7.986-2.53-2.381-7.043-1.877-9.274.787s-2.104 6.878-.023 9.66c.854 1.14 2.024 2.146 2.314 3.54.569 2.733-2.56 4.838-5.33 5.175-4.419.537-9.216-1.128-13.19.876-3.353 1.691-5.067 6.029-3.845 9.567 1.998 1.829 4.935 2.678 7.553 1.914 2.804-.818 4.893-3.098 7.297-4.757 2.404-1.66 5.846-2.65 8.12-.816.907.731 1.4 1.678 1.642 2.746.122.08.242.16.358.254 2.882 2.323 1.6 6.82 1.255 10.505-.143 1.52-.012 3.133.479 4.571.045.037.08.081.126.117 2.243 1.72 5.203.929 5.732-1.847.46-2.414-1.062-5.896-.968-8.78.066-2.026 1.254-3.848 2.779-5.183 2.532-2.218 5.58-2.3 8.494-.612Z"/><path fill="none" stroke="#fff" stroke-linecap="round" stroke-linejoin="round" stroke-width="2" d="M13.508 41.879c.71-2.37 2.944-4.032 5.888-3.904M33.271 17.851c-.865.598-1.204 1.618-1.204 2.847"/><path fill="none" stroke="#000" stroke-linecap="round" stroke-linejoin="round" stroke-width="2" d="M39.012 14.746c-2.53-2.381-7.045-1.877-9.275.787s-2.104 6.878-.023 9.66c.854 1.14 2.024 2.146 2.314 3.54.569 2.733-2.56 4.838-5.33 5.175-4.419.537-9.215-1.128-13.19.876-3.44 1.735-5.165 6.26-3.752 9.844s5.761 5.716 9.46 4.637c2.804-.819 4.893-3.098 7.297-4.757s5.847-2.65 8.12-.816c2.882 2.323 1.601 6.82 1.255 10.505-.264 2.814.363 5.968 2.605 7.688s6.347.937 6.875-1.84c.46-2.413-1.356-5.54-1.262-8.424.066-2.026.405-4.21 1.93-5.546 2.533-2.218 5.815-2.652 8.494-.612C61.009 50.396 66.206 35.388 58.033 35c-5.119-.243-6.332.183-8.286-.46-1.866-.616-2.438-2.235-.783-4.725.95-1.428 5.686-7.781.375-8.928-4.172-.9-6.643 2.506-8.353 1.845-3.038-1.175.28-5.635-1.974-7.986"/></svg>