<svg xmlns="http://www.w3.org/2000/svg" viewBox="0 0 72 72"><path fill="#d22f27" d="M36.53 36.047c5.467 5.467 6.416 13.383 2.119 17.68-2.722 2.722-6.896 3.339-10.98 2.035-3.746-1.201-10.37-.484-13.06 2.205 2.69-2.689 3.407-9.313 2.206-13.059-1.304-4.084-.687-8.258 2.035-10.98 4.297-4.297 12.212-3.348 17.68 2.12Z"/><path fill="#ea5a47" d="M14.61 57.967c2.689-2.689 3.406-9.313 2.205-13.059-1.304-4.084-.687-8.258 2.035-10.98 4.297-4.297 12.212-3.348 17.68 2.12 2.733 2.733 1.466 8.432-2.83 12.729-2.723 2.722-6.008 4.228-8.745 4.272-2.509.035-7.656 2.229-10.346 4.918"/><path fill="#b1cc33" d="M38.228 37.634c3.686-2.729 9.27-4.003 15.51-1.908 2.694.905 6.673 2.589 8.12.142 1.5-2.538-.082-9.033-7.774-10.667-4.754-1.01-10.658-.326-13.704 3.67.58-2.399 2.793-9.592-2.229-14.556-1.18-1.166-3.282-1.662-4.548-.59-3.322 2.815 1.009 11.57 1.839 14.694.547 2.06 1.024 4.487-.325 6.138"/><g fill="none" stroke="#000" stroke-linecap="round" stroke-linejoin="round" stroke-width="2"><path d="m20.052 40.273 2.577 2.577M24.951 51.842l4.336 4.335M38.228 37.634c3.686-2.729 9.27-4.003 15.51-1.908 2.694.905 6.673 2.589 8.12.142 1.5-2.538-.082-9.033-7.774-10.667-4.754-1.01-10.658-.326-13.704 3.67.58-2.399 2.793-9.592-2.229-14.556-1.18-1.166-3.282-1.662-4.548-.59-3.322 2.815 1.009 11.57 1.839 14.694.547 2.06 1.024 4.487-.325 6.138M36.53 36.047c5.467 5.467 6.416 13.383 2.119 17.68-2.722 2.722-6.896 3.339-10.98 2.035v0c-3.746-1.201-10.37-.484-13.06 2.205 2.69-2.689 3.407-9.313 2.206-13.059h0c-1.304-4.084-.687-8.258 2.035-10.98 4.297-4.297 12.212-3.348 17.68 2.12ZM40.38 28.871l-.527 2.006"/></g></svg>