<svg xmlns="http://www.w3.org/2000/svg" viewBox="0 0 72 72"><path fill="#a57939" d="M35 63c-.761-1.51-1.508-3.34-2.236-5.525-.009-.017-1.746-3.714-4.73-6.76-5.513-5.634-14.127-5.407-15.23-9.096-.23-.766-.206-1.65.144-2.688 2.557-7.599 10.874.571 13.067-3.691 2.194-4.263-11.93-17.26-2.729-22.15l.166-.088c1.654-.85 3.559-.897 4.223-.85 2.079.149 5.107 2.194 6.684 5.915.517-.687.923-1.248 1.178-1.607 2.032-2.846 2.588-4.033 4.271-5.768.557-.574.835-.862 1.064-1 2.487-1.51 6.434.471 7.87 1.937.098.1.203.214.204.214.46.5 1.415 1.632 1.806 2.906 1.391 4.532-4.476 7.883-7.012 17.251-1.361 5.032-.204 6.04.104 6.257 1.17.824 2.807-.843 5.075-.042 1.78.628 3.277 2.537 3.107 4.143-.174 1.66-2.028 2.04-3.11 3.5-1.222 1.646-1.641 4.91 2.075 12.037C50.255 58.9 48.036 61.655 44 63c-4.244 1.415-7.841.385-9 0"/><path fill="#6a462f" d="M48.92 38.21c-2.228-.81-3.902.914-5.08.05-.3-.22-1.41-1.21-.1-6.26 2.41-9.29 8.42-12.67 7.01-17.25-.52-1.71-1.91-3.03-2.01-3.12-.698-.628-2.402-2.294-4.81-2.05-2.32.235-3.676 2.064-3.93 2.42 3.508 1.259 4.596 2.894 5 4 1.764 4.826-6 9.115-6.082 18.155-.018 2.054-.049 5.44 2.011 6.93 1.325.958 2.74 1.246 3.114 2.532.22.756.167 1.203.115 1.445-.312 1.462-1.286 1.449-2.009 3.002-.497 1.068-.138 2.707 2.096 7.67.836-.105 2.659-.213 4.6.729A8 8 0 0 1 51 58c-3.714-7.385-3.367-10.618-2.08-12.14 1.045-1.236 2.717-1.353 3.08-2.86.41-1.697-1.101-4.07-3.08-4.79Z"/><path fill="#fcea2b" d="M50.99 57.895c.328 1.847-3.867 4.276-7.25 5.178-3.66.977-8.728.795-9.322-1.035-.588-1.813 3.226-5.207 7.25-6.215 4.038-1.011 8.991.202 9.323 2.071"/><g fill="none" stroke="#000" stroke-linecap="round" stroke-width="2.071"><path d="M34.419 62.038a25 25 0 0 0-1.655-4.563c-.248-.52-1.992-3.964-4.73-6.76-5.513-5.634-14.127-5.407-15.23-9.096-.23-.766-.206-1.65.144-2.688 2.557-7.599 10.874.571 13.067-3.691 2.194-4.263-11.93-17.26-2.729-22.15 0 0 1.928-1.091 4.389-.938 3.466.216 7.316 4.524 9.01 10.905M37.526 15.428c2.071-3.107 3.63-5.769 6.403-5.848 2.472-.07 4.41 1.691 4.814 2.049.102.09 1.485 1.41 2.01 3.12 1.405 4.58-4.603 7.958-7.013 17.251-1.308 5.046-.204 6.04.104 6.257 1.17.824 2.807-.843 5.075-.042 1.78.628 3.277 2.537 3.107 4.143-.174 1.66-2.028 2.04-3.11 3.5-1.222 1.646-1.641 4.909 2.075 12.036"/><path d="M50.99 57.895c.328 1.847-3.867 4.276-7.25 5.178-3.66.977-8.728.795-9.322-1.035-.588-1.813 3.226-5.207 7.25-6.215 4.038-1.011 8.991.202 9.323 2.071ZM43.776 49.75c2.114.216 3.666.962 4.224 1.25M28.419 50.038c.329-.641 4.572-4.83 9.581-6.038.755-.182 1.628-.274 2.55-.301M33.5 33.517c1.49-.748 2.693-1.387 4.5-1.517 2.107-.151 3.872.474 5 1M32.692 20.07A22 22 0 0 1 35 20M22 24a21.5 21.5 0 0 1 6.316-3.098"/></g></svg>