<svg xmlns="http://www.w3.org/2000/svg" viewBox="0 0 72 72"><g fill="#fff"><path d="M41.62 48.55v.01c-.56 2.6-2.86 4.53-5.62 4.53s-5.06-1.93-5.62-4.53v-.01l2.68-6.1c.01-.01.01-.02.02-.04.86-.52 1.86-.81 2.92-.81s2.06.29 2.92.81h.01zM47.04 38.39c-.56.25-1.19.39-1.84.41a51 51 0 0 1-2.52-4.77c-.87-1.87-1.76-2.46-2.44-2.45.43-.97 1.13-1.79 2.02-2.34.8-.5 1.74-.79 2.74-.79.88 0 1.7.22 2.43.61-.49 1.8-.01 5.37-.39 9.33"/></g><circle cx="36" cy="36" r="23" fill="none" stroke="#fcea2b" stroke-linecap="round" stroke-linejoin="round" stroke-width="2"/><path fill="#fcea2b" d="M36 13c-12.703 0-23 10.297-23 23s10.297 23 23 23 23-10.297 23-23-10.297-23-23-23m5.62 35.56c-.56 2.6-2.86 4.53-5.62 4.53s-5.06-1.93-5.62-4.53v-.01l2.68-6.1c.01-.01.01-.02.02-.04.86-.52 1.86-.81 2.92-.81s2.06.29 2.92.81h.01l2.69 6.14zm5.42-10.17c-.56.25-1.19.39-1.84.41a51 51 0 0 1-2.52-4.77c-.87-1.87-1.76-2.46-2.44-2.45.43-.97 1.13-1.79 2.02-2.34.8-.5 1.74-.79 2.74-.79.88 0 1.7.22 2.43.61-.49 1.8-.01 5.37-.39 9.33"/><path fill="#fcea2b" d="M16.036 57.876c.6-3 1.169-6.197 1.369-7.097-.4-.8-.8-1.7-1.2-2.5-.2-.4-.6-1.6-1.2-8.3-.2-2-.1-3.1.5-3.8.29-.37.73-.59 1.2-.6 1.3 0 2.113 1.176 2.39 3.405 2.76-7.363 4.095-11.5 6.416-10.273 1.115.59.898 1.837.898 1.837 1.774-4.042 5.051-1.496 3.391 1.444 0 0 1.63-1.355 2.658-.029.654.843.26 1.794-1.036 4.52 1.602-1.852 3.337-.075 2.906 1.706-2.443 10.089-7.844 16.349-7.844 16.349s-.617 2.563-.741 4.04zM46.384 58.563c-.13-1.48-.864-4.023-.864-4.023s-5.41-6.26-7.85-16.35c-.43-1.78 1.14-3.18 2.53-1.79-1.55-2.92-1.78-4.25-.33-4.76.12-.04.23-.06.37-.06.68-.01 1.57.58 2.44 2.45.63 1.35 1.35 2.8 2.52 4.77.41.7.89 1.47 1.43 2.33.2-.92.33-1.84.41-2.74.38-3.96-.1-7.53.39-9.33.22-.83.65-1.29 1.46-1.24.89.06 1.56.91 1.4 2.18 0 0 .75-1.49 2.21-.72 1.22.65.74 1.89.41 9.7.27-2.22 1.09-3.4 2.39-3.4.46.01.91.23 1.2.6.6.7.7 1.8.5 3.8-.6 6.7-1 7.9-1.2 8.3-.4.8-.8 1.7-1.2 2.5.2.9.755 4.101 1.355 7.101z"/><path fill="none" stroke="#000" stroke-linecap="round" stroke-linejoin="round" stroke-width="2" d="M42.24 58.144A23 23 0 0 1 36 59a23 23 0 0 1-6.45-.916M15.875 47.143A22.9 22.9 0 0 1 13 36c0-12.702 10.298-23 23-23s23 10.298 23 23c0 4.043-1.043 7.842-2.875 11.143"/><path fill="none" stroke="#000" stroke-linecap="round" stroke-linejoin="round" stroke-width="2" d="M33.08 42.41c.86-.52 1.86-.81 2.92-.81s2.06.29 2.92.81h.01M41.62 48.55v.01c-.56 2.6-2.86 4.53-5.62 4.53s-5.06-1.93-5.62-4.53v-.01M28.637 22.343a7.18 7.18 0 0 0-8.163 3.279M43.363 22.343a7.18 7.18 0 0 1 8.163 3.279"/><path fill="none" stroke="#000" stroke-linecap="round" stroke-linejoin="round" stroke-width="2" d="M16.105 56.88c.6-3 1.1-5.2 1.3-6.1-.4-.8-.8-1.7-1.2-2.5-.2-.4-.6-1.6-1.2-8.3-.2-2-.1-3.1.5-3.8.29-.37.73-.591 1.2-.6 1.3 0 2.113 1.175 2.39 3.404 2.76-7.363 4.095-11.5 6.416-10.273 1.115.59.898 1.837.898 1.837 1.774-4.042 5.051-1.496 3.391 1.444 0 0 1.63-1.355 2.658-.029.654.843.26 1.794-1.036 4.52 1.602-1.852 3.337-.075 2.906 1.706-2.443 10.089-7.844 16.349-7.844 16.349s-.555 1.565-.68 3.042"/><path d="M46.943 33.634a1.94 1.94 0 0 1-3.878 0c0-1.07.87-1.939 1.939-1.939s1.939.87 1.939 1.94"/><path fill="none" stroke="#000" stroke-linecap="round" stroke-linejoin="round" stroke-width="2" d="M46.2 57.58c-.13-1.48-.68-3.04-.68-3.04s-5.41-6.26-7.85-16.35c-.43-1.78 1.14-3.18 2.53-1.79-1.55-2.92-1.78-4.25-.33-4.76.12-.04.23-.06.37-.06.68-.01 1.57.58 2.44 2.45.63 1.35 1.35 2.8 2.52 4.77.41.7.89 1.47 1.43 2.33.2-.92.33-1.84.41-2.74.38-3.96-.1-7.53.39-9.33.22-.83.65-1.29 1.46-1.24.89.06 1.56.91 1.4 2.18 0 0 .75-1.49 2.21-.72 1.22.65.74 1.89.41 9.7.27-2.22 1.09-3.4 2.39-3.4.46.01.91.23 1.2.6.6.7.7 1.8.5 3.8-.6 6.7-1 7.9-1.2 8.3-.4.8-.8 1.7-1.2 2.5.2.9.7 3.1 1.3 6.1"/><path fill="none" stroke="#000" stroke-miterlimit="10" stroke-width="2" d="M40.24 31.58c.43-.97 1.13-1.79 2.02-2.34.8-.5 1.74-.79 2.74-.79.88 0 1.7.22 2.43.61"/></svg>