<svg xmlns="http://www.w3.org/2000/svg" viewBox="0 0 72 72"><path fill="#fadcbc" d="M55.855 42.646a3.53 3.53 0 1 1 .095 6.999l-18.998.257-4.326-.022 13-.176a3.531 3.531 0 1 1 .094 7l-12.999.175-10.085-.052c-8.31-.425-13.63-7.752-13.205-16.06a19.62 19.62 0 0 1 5.657-12.728c3.09-2.918 14.128-12.287 14.128-12.287a3.31 3.31 0 0 1 4.111.293 3.345 3.345 0 0 1 .284 4.584l-6.966 8 5.4.04-5.4-.04 5.4.04 21.85-.04a3.531 3.531 0 1 1 .095 7l-7 .094-10.636.187 22.193-.367a3.531 3.531 0 1 1 .094 7l-24.016.205"/><path fill="none" stroke="#000" stroke-linecap="round" stroke-linejoin="round" stroke-width="2" d="M55.855 42.696a3.531 3.531 0 1 1 .094 7l-18.998.257-.951-.005 9.625-.193a3.531 3.531 0 1 1 .095 7l-12.999.175-10.085-.052c-8.31-.425-13.63-7.752-13.205-16.06a19.62 19.62 0 0 1 5.657-12.728c3.09-2.918 13.817-12.281 13.817-12.281a3.64 3.64 0 0 1 4.604.296 3.307 3.307 0 0 1 .286 4.38l-7.15 8.195 5.4.039-5.4-.039 5.4.039 21.85-.04a3.531 3.531 0 1 1 .095 7l-7 .095-10.636.186 22.193-.367a3.531 3.531 0 1 1 .094 6.999l-20.453.176"/></svg>