<svg xmlns="http://www.w3.org/2000/svg" viewBox="0 0 72 72"><path fill="#92d3f5" d="M22.606 66.657c6.576-2.819 10.513-10.335 8.08-18.405l36.077 3.373v15.032H22.606"/><path fill="#61b2e4" d="M22.606 66.657q4.697-2.819 6.576-5.637l37.581.94v4.697H22.606"/><path fill="#fadcbc" d="M18.848 59.14c-.94 0-5.637-3.823-5.637-5.637L9.453 37.533l1.879-4.698h2.677V8.961a2.49 2.49 0 0 1 4.914.32l2.508 16.742c.433 2.715 1.645 2.715 2.114 5.43.677 5.29 1.287 14.534 7.516 18.292 0 5.544.94 12.214-6.576 15.033 0-.611-4.895-5.637-5.637-5.637"/><path fill="none" stroke="#000" stroke-linecap="round" stroke-linejoin="round" stroke-width="1.879" d="M22.506 66.657c6.576-2.819 10.513-10.335 8.08-18.405l36.077 3.373v15.032z"/><path fill="none" stroke="#000" stroke-linecap="round" stroke-linejoin="round" stroke-width="1.879" d="M19.687 46.927c0-3.758-3.758-5.637-3.758-8.456 0-4.697-1.879-6.576-4.698-5.637s-1.878 9.395 0 13.153c.818 1.635.94 5.638.94 5.638.113 2.348 3.758 7.516 6.577 7.516 1.879 0 5.637 5.017 5.637 5.637M30.896 49.746c-6.23-3.759-6.84-13.013-7.488-18.302-.47-2.715-1.682-2.715-2.114-5.43L18.823 9.28a2.49 2.49 0 0 0-4.914-.32v20.162"/></svg>