<svg xmlns="http://www.w3.org/2000/svg" viewBox="0 0 72 72"><path fill="#92d3f5" d="M45.602 66.657h-40.4V51.625l36.078-3.373c-2.433 8.07 1.503 15.586 8.08 18.405z"/><path fill="#61b2e4" d="M45.602 66.657h-40.4v-4.698l37.581-.94q1.88 2.82 6.577 5.638z"/><path fill="#c19a65" d="M47.481 64.778c-7.516-2.819-6.577-9.49-6.577-15.033 6.23-3.758 6.84-13.002 7.516-18.292.47-2.715 1.682-2.715 2.114-5.43L53.043 9.28a2.49 2.49 0 0 1 4.914-.32v23.873h2.677l1.88 4.698-3.759 15.972c0 1.813-4.698 5.637-5.637 5.637-.742 0-5.637 5.026-5.637 5.637Z"/><path fill="none" stroke="#000" stroke-linecap="round" stroke-linejoin="round" stroke-width="1.879" d="M5.203 66.657V51.625l36.077-3.373c-2.433 8.07 1.503 15.586 8.08 18.405z"/><path fill="none" stroke="#000" stroke-linecap="round" stroke-linejoin="round" stroke-width="1.879" d="M47.481 64.778c0-.62 3.758-5.637 5.637-5.637 2.819 0 6.464-5.168 6.577-7.516 0 0 .122-4.003.94-5.638 1.878-3.758 2.818-12.213 0-13.153s-4.698.94-4.698 5.637c0 2.819-3.758 4.698-3.758 8.456M57.957 29.123V8.961a2.49 2.49 0 0 0-4.914.32l-2.471 16.732c-.432 2.715-1.644 2.715-2.114 5.43-.648 5.29-1.259 14.544-7.488 18.303"/></svg>