<svg xmlns="http://www.w3.org/2000/svg" viewBox="0 0 72 72"><path fill="#fadcbc" d="M31.45 51.05c-.387.82-2.432.953-2.441.953-1.93.178-3.668-2.09-5.018-3.474-5.516-5.652-11.16-10.235-12.852-10.745-2.084-.628-2.148-.867-2.148-.867V20.529s.715-.487 5 0c4.699.534 7.999 1.268 12 2 1.958.358 3.741.685 6 1 4.31.59 8.65.924 13 1 8 .208 13 0 13 0h3s2.221 1.86 2 3c-.316 1.623-3 3-3 3s.487-.23 1.028 1.062c.271.653.345 1.37.211 2.064-.27.807-.267 1.021-1.073 1.514-1.078.66-3.358-.248-3.358-.248.094.557.122 1.122.083 1.685a5.8 5.8 0 0 1-.728 2.073c-.39.866-2.015.84-2.164.85a5.43 5.43 0 0 1-3-1 21 21 0 0 0-2-1s1.146 1.309.901 2.346c-.228.962-.843 2.16-1.761 2.244-.406.038-3.354-.643-3.354-.643l-3.849-1.475-3.821-1.464-2.382-.913-1.367-.323-6.2 2.932 3.285 5.049 1.78 3.676s-.592 1.711-.771 2.092"/><g fill="none" stroke="#000" stroke-linecap="round" stroke-linejoin="round" stroke-width="2"><path d="M8.99 36.916s2.9.216 6.28 3.623c3.09 2.918 11.232 10.227 11.232 10.227 1.058.717 3.132 2.077 4.729.775a3.1 3.1 0 0 0 .77-3.96l-5.175-7.632 5.165-2.033-5.165 2.033 5.165-2.033 12-6.387 11-2h5.028s3.18 0 3.18-2.562c0-2.477-2.304-2.766-3.304-2.766s-12.652-.037-12.963 0l-13.995-.867L8.99 19.916c0 3-.424 8.692 0 17"/><path d="m33.592 37.19 11.675 4.474s3.729 1.191 4.514-.88a2.39 2.39 0 0 0-1.528-3.203l-8.958-3.21 12.385 4.348s3.798 1.514 4.706-1.073c1-2.845-2.347-3.553-2.347-3.553l-10.305-2.428 14.225 3.352s2.32.642 2.943-1.5c.61-2.1-1.313-2.808-2.214-3.051-1.366-.369-3.697-.937-3.697-.937"/></g></svg>