<svg xmlns="http://www.w3.org/2000/svg" viewBox="0 0 72 72"><path fill="#fadcbc" d="M16.145 42.671a3.531 3.531 0 1 0-.095 7l18.999.256 4.325-.021-13-.176a3.531 3.531 0 1 0-.094 7l12.999.175 10.085-.052c8.31-.425 13.63-7.752 13.205-16.06a19.62 19.62 0 0 0-5.658-12.728c-3.09-2.918-14.128-12.287-14.128-12.287a3.31 3.31 0 0 0-4.11.292 3.345 3.345 0 0 0-.284 4.584l6.966 8.001-5.4.04 5.4-.04-5.4.04-21.85-.04a3.531 3.531 0 1 0-.095 6.999l7 .095 10.636.186-22.193-.367a3.531 3.531 0 1 0-.094 6.999l24.016.206"/><path fill="none" stroke="#000" stroke-linecap="round" stroke-linejoin="round" stroke-width="2" d="M16.145 42.671a3.531 3.531 0 1 0-.095 7l18.999.256.951-.004-9.625-.193a3.531 3.531 0 1 0-.095 7l12.999.175 10.085-.052c8.31-.425 13.63-7.752 13.205-16.06a19.62 19.62 0 0 0-5.657-12.728c-3.09-2.918-13.817-12.281-13.817-12.281a3.64 3.64 0 0 0-4.604.296 3.307 3.307 0 0 0-.286 4.38l7.15 8.195-5.4.039 5.4-.039-5.4.039-21.85-.04a3.531 3.531 0 1 0-.095 7l7 .094 10.636.186-22.193-.367a3.531 3.531 0 1 0-.094 7l20.453.175"/></svg>