<svg xmlns="http://www.w3.org/2000/svg" viewBox="0 0 72 72"><path fill="#fff" d="M35.442 37.836h1.017c7.624 0 13.814 6.19 13.814 13.814v6.458H21.945v-6.775c0-7.45 6.048-13.497 13.497-13.497ZM36.601 33.865h-1.016c-7.625 0-13.815-6.19-13.815-13.814v-6.458h28.328v6.775c0 7.45-6.047 13.497-13.497 13.497"/><path fill="#fff" d="M39.257 33.55s-2.822 2.018-.17 4.547c0 0-2.035-.555-6.388.071 0 0 2.756-2.098-.094-4.73z"/><path fill="#9b9b9a" d="M44.045 43H27.956C25.136 45.584 24 49.665 24 52.318V59h24v-6.682c0-2.653-1.136-6.734-3.955-9.318"/><path fill="#a57939" d="M55 11c0 1.1-.9 2-2 2H19c-1.1 0-2-.9-2-2v-1c0-1.1.9-2 2-2h34c1.1 0 2 .9 2 2zM55 62c0 1.1-.9 2-2 2H19c-1.1 0-2-.9-2-2v-1c0-1.1.9-2 2-2h34c1.1 0 2 .9 2 2z"/><g fill="none" stroke="#000" stroke-linecap="round" stroke-linejoin="round" stroke-width="2"><path d="M31 34c-7.272-1.91-10-9.545-10-14.318V13M21 59v-6.682C21 47.546 23.728 39.91 31 38M31 38c1-.271 2-.894 2-2 0-1.104-1-1.728-2-2M41 34c7.273-1.91 10-9.545 10-14.318V13M51 59v-6.682C51 47.546 48.273 39.91 41 38M41 38c-1-.271-2-.894-2-2 0-1.104 1-1.728 2-2M55 11c0 1.1-.9 2-2 2H19c-1.1 0-2-.9-2-2v-1c0-1.1.9-2 2-2h34c1.1 0 2 .9 2 2zM55 62c0 1.1-.9 2-2 2H19c-1.1 0-2-.9-2-2v-1c0-1.1.9-2 2-2h34c1.1 0 2 .9 2 2zM29 43h14"/></g></svg>