<svg xmlns="http://www.w3.org/2000/svg" viewBox="0 0 72 72"><ellipse cx="20.767" cy="48.407" fill="#ea5a47" rx="6.586" ry="7.025" transform="rotate(-25.837 20.767 48.407)"/><path fill="#d22f27" d="M24.98 42.16c-.036-.034.104 1.5.114 1.548a9.5 9.5 0 0 1-.56 4.409c-.753 2.321-2.116 5.892-3.164 5.954-2.231.133 4.166.094 4.166.094s.438-.096.878-.878c.179-.317 1.24-.199 1.419-.813.172-.592.443-.485.702-.741.674-.667.544-.578.514-1.08-.042-.697 0-4.391 0-4.391Z"/><path fill="none" stroke="#000" stroke-linecap="round" stroke-linejoin="round" stroke-width="1.49" d="m28.054 44.314 1.033 2.742.312 2.05-1.016 2.793-.979 1.171-1.6.703-1.082.596-2.495.693-.757-.165-1.964-.025-2.03-.911-1.612-2.042-.749-2.004-.974-2.012.448-1.285.325-1.23.5-2.333 3.81-2.037L21.56 41s.936.42 1.258.56c.112.049 1.054.38 1.173.408Z"/><path fill="none" stroke="#000" stroke-linecap="round" stroke-linejoin="round" stroke-width="2" d="m26.841 36.759 19.435-19.436M31.782 37.982l23.6-23.6M35.171 40.229l15.964-15.964M40.171 18.229 43.7 14.7M25.171 33.229 28.7 29.7M33.171 46.229 36.7 42.7M56.171 19.229 59.7 15.7"/><path d="M22.608 30.496a1.126 1.126 0 0 0 0-2.25 1.126 1.126 0 0 0 0 2.25M30.608 58.496a1.126 1.126 0 0 0 0-2.25 1.126 1.126 0 0 0 0 2.25"/><path fill="none" stroke="#000" stroke-linecap="round" stroke-linejoin="round" stroke-width="2" d="M40 41h2l.75-2.25.75 2.25h2L44 42.25l.5 2L42.75 43 41 44.25l.75-2zM28 20h2l.75-2.25.75 2.25h2L32 21.25l.5 2L30.75 22 29 23.25l.75-2z"/><path d="M53.608 28.496a1.126 1.126 0 0 0 0-2.25 1.126 1.126 0 0 0 0 2.25"/></svg>