<svg xmlns="http://www.w3.org/2000/svg" viewBox="0 0 72 72"><path fill="#d22f27" d="M60.02 36.363a24.1 24.1 0 0 1-8.405 17.688c-4.08 3.496-9.343 5.676-15.105 5.823l14.24-14.241z"/><path fill="#ea5a47" d="M60.033 35.73c0 .206 0 .426-.012.633l-9.27 9.27-14.241 14.24c-.207.013-.426.013-.634.013v.012c-3.46 0-6.748-.731-9.733-2.059l18.492-18.492 13.352-13.351a24 24 0 0 1 2.046 9.733"/><path fill="#f1b31c" d="M57.987 25.996 44.635 39.347 26.143 57.84a23.8 23.8 0 0 1-6.006-3.776 19 19 0 0 1-1.352-1.267l17.091-17.091 17.067-17.067a24.2 24.2 0 0 1 5.044 7.358"/><path fill="#fcea2b" d="M52.933 18.718 35.866 35.785l-17.19 16.891-5.032-7.37 31.82-31.82a22.9 22.9 0 0 1 7.47 5.232"/><path fill="#92d3f5" d="m34.975 11.61-23.23 23.23c.45-12.62 10.61-22.78 23.23-23.23"/><path fill="#b1cc33" d="m45.451 13.558-9.575 9.575-22.17 22.171a23.9 23.9 0 0 1-1.986-9.563c0-.292 0-.584.024-.877L35 11.61c.293-.024.585-.024.877-.024v-.012c3.4 0 6.64.706 9.575 1.985"/><path fill="#fff" d="M57.105 26.39a23.1 23.1 0 0 0-4.842-7.065 22.9 22.9 0 0 0-7.114-4.852c-.029-.01-.067-.02-.087-.03a22.3 22.3 0 0 0-6.282-1.72 18 18 0 0 0-1.933-.154 12 12 0 0 0-.822-.03c-.067.01-.145.01-.222.01-.242 0-.483 0-.725.02-.029.01-.058.01-.077.01-.03 0-.058 0-.087.01-.657.019-1.295.067-1.933.154-11.115 1.382-19.862 10.738-20.268 22.113v.02c0 .02-.01.048-.01.068-.019.309-.019.55-.019.802 0 3.18.638 6.272 1.904 9.172.02.029.03.058.039.087 0 .01.01.02.01.039a21.3 21.3 0 0 0 1.749 3.237 20 20 0 0 0 1.112 1.585c.386.503.802 1.006 1.246 1.48.232.26.474.511.725.763.213.222.426.425.628.628.223.213.445.406.667.59a22.6 22.6 0 0 0 5.76 3.624 22.8 22.8 0 0 0 7.018 1.865c.725.078 1.45.116 2.184.116.068-.01.135-.01.203-.01.174 0 .357 0 .522-.009q.896-.03 1.778-.116a23.3 23.3 0 0 0 12.758-5.48c.213-.184.425-.377.628-.57.484-.435.938-.9 1.373-1.382.444-.484.86-.977 1.247-1.489.396-.502.773-1.034 1.11-1.575a23.17 23.17 0 0 0 3.712-11.966c.01-.222.01-.415.01-.609 0-3.247-.657-6.398-1.962-9.336M34.914 56.97a16 16 0 0 1-1.933-.174 20.7 20.7 0 0 1-5.683-1.614 21 21 0 0 1-5.287-3.334 6 6 0 0 1-.396-.348 19 19 0 0 1-.783-.754 18 18 0 0 1-.59-.619L21.74 48.9l11.24-9.182 1.354-1.092.58-.483zm0-21.33-1.933 1.584-12.488 10.187-1.498 1.237a20 20 0 0 1-1.111-1.594 21 21 0 0 1-1.46-2.765l-.058-.144a20.9 20.9 0 0 1-1.749-8.4c0-.241 0-.473.02-.637 0-.068.01-.145.01-.213.386-10.332 8.263-18.837 18.334-20.21a21 21 0 0 1 1.933-.164zm15.193 15.87c-.125.115-.25.231-.377.338a21.47 21.47 0 0 1-10.95 4.939c-.638.087-1.285.154-1.933.174V38.18l.532.445 1.401 1.14 11.212 9.153 1.498 1.218c-.426.474-.89.938-1.383 1.372m7.017-15.32v.097a21.1 21.1 0 0 1-3.286 10.777c-.329.55-.705 1.082-1.092 1.594l-1.498-1.218L38.78 37.263l-1.933-1.575V14.502c.648.02 1.295.077 1.933.174 1.894.251 3.74.773 5.51 1.536q.072.03.144.058a21 21 0 0 1 6.456 4.417 21.1 21.1 0 0 1 4.446 6.486 21.1 21.1 0 0 1 1.798 8.553c0 .155 0 .32-.01.464"/><path d="M58.874 25.607a25.1 25.1 0 0 0-5.249-7.655 24.8 24.8 0 0 0-7.616-5.21.5.5 0 0 0-.174-.067 24.4 24.4 0 0 0-7.18-1.914 24 24 0 0 0-2.775-.154c-.058 0-.106 0-.154.01-.252 0-.493.01-.687.019-.058 0-.116 0-.174.01-.599.019-1.188.067-1.778.144C20.92 12.124 11.292 22.272 10.78 34.663a1 1 0 0 0-.01.28c-.019.271-.019.532-.019.803 0 3.421.686 6.736 2.03 9.858.029.087.067.184.116.26a24.7 24.7 0 0 0 3.557 5.78c.106.146.212.281.338.407.406.493.85.966 1.305 1.42.464.484.947.928 1.41 1.325a24.6 24.6 0 0 0 6.244 3.923 24.75 24.75 0 0 0 10.13 2.146c.048 0 .096-.01.145-.01.183 0 .357-.01.512-.019a25.2 25.2 0 0 0 15.706-6.05 25 25 0 0 0 2.841-2.87c.01-.01.02-.01.02-.02.028-.039.057-.068.087-.116.01-.02.028-.039.038-.058 3.557-4.292 5.616-9.694 5.76-15.3.01-.232.01-.464.01-.696 0-3.518-.715-6.93-2.126-10.119m-3.876 24.897-.01-.01.03-.028zm4.06-14.169a23.17 23.17 0 0 1-3.712 11.966 18 18 0 0 1-1.112 1.575 20 20 0 0 1-1.246 1.488c-.435.484-.89.948-1.373 1.383a18 18 0 0 1-.628.57 23.3 23.3 0 0 1-14.536 5.596c-.165.01-.348.01-.522.01-.068 0-.136 0-.203.01-.735 0-1.46-.04-2.185-.117a22.8 22.8 0 0 1-7.016-1.865 22.6 22.6 0 0 1-5.76-3.624 12 12 0 0 1-.668-.59c-.203-.203-.415-.406-.628-.628a18 18 0 0 1-.725-.764c-.444-.473-.86-.976-1.247-1.479a20 20 0 0 1-1.111-1.585 21.3 21.3 0 0 1-1.75-3.238c0-.019-.01-.029-.01-.038q-.012-.044-.038-.087a22.8 22.8 0 0 1-1.904-9.172c0-.252 0-.493.02-.803 0-.019.01-.048.01-.067v-.02c.405-11.375 9.152-20.731 20.267-22.113a18 18 0 0 1 1.933-.155c.029-.01.058-.01.087-.01.02 0 .048 0 .077-.01.242-.019.483-.019.725-.019.077 0 .155 0 .222-.01.28 0 .551.01.822.03.647.019 1.295.067 1.933.154 2.165.261 4.272.841 6.282 1.72.02.01.058.02.087.03a22.917 22.917 0 0 1 7.114 4.852 23.1 23.1 0 0 1 4.842 7.065 22.9 22.9 0 0 1 1.952 9.945"/><path d="m54.988 50.495.01.01.02-.04zM32.98 14.686c-10.07 1.372-17.947 9.877-18.334 20.21 0 .067-.01.144-.01.212-.019.164-.019.396-.019.638 0 2.919.59 5.74 1.75 8.399l.058.145c.415.957.908 1.884 1.46 2.764.347.55.714 1.082 1.11 1.595l1.499-1.237L32.98 37.225l1.933-1.585V14.52a21 21 0 0 0-1.933.164m0 20.045L19.402 45.817a19 19 0 0 1-1.188-2.262c-.03-.068-.049-.126-.078-.184a18.9 18.9 0 0 1-1.585-7.625c0-.184 0-.387.01-.484.01-.106.01-.203.02-.309.357-9.298 7.383-16.962 16.4-18.306zM16.792 52.05a.77.77 0 0 1-.338-.405c.106.145.212.28.338.406M55.191 51.78l-.058.087-.029.029c.03-.039.058-.068.087-.116"/><path d="m55.017 50.466-.019.038-.01-.01zM34.334 38.626l-1.353 1.092L21.74 48.9l-1.499 1.227c.194.213.387.416.59.619.27.28.532.522.783.754.135.126.26.241.396.348a21 21 0 0 0 5.287 3.334 20.7 20.7 0 0 0 5.683 1.614c.638.097 1.286.155 1.933.174V38.143zm-1.353 16.208a18.7 18.7 0 0 1-4.92-1.43c-1.7-.735-3.305-1.75-4.803-3.035-.039-.039-.087-.068-.126-.116l9.849-8.041zM49.992 48.92 38.78 39.765l-1.401-1.14-.532-.445v18.78a18 18 0 0 0 1.933-.175 21.47 21.47 0 0 0 10.95-4.938c.126-.107.252-.223.377-.339.493-.435.957-.898 1.382-1.372zm-1.518 1.459a19.5 19.5 0 0 1-9.694 4.455V42.26l9.81 8.012c-.039.039-.077.068-.116.107M55.336 27.173a21.1 21.1 0 0 0-4.446-6.486 21 21 0 0 0-6.456-4.417l-.145-.058a20.8 20.8 0 0 0-5.509-1.536 16 16 0 0 0-1.933-.174v21.186l1.933 1.575L51.248 47.44l1.498 1.218c.387-.512.764-1.044 1.092-1.595a21.1 21.1 0 0 0 3.286-10.776v-.097c.01-.145.01-.31.01-.464 0-2.977-.61-5.857-1.798-8.553m-.135 8.91c-.01.05-.01.098-.01.156a19.3 19.3 0 0 1-2.851 9.597L38.78 34.77V16.628a18.6 18.6 0 0 1 4.746 1.363c.057.02.116.048.173.068 2.175.956 4.137 2.3 5.829 3.991a19.4 19.4 0 0 1 4.04 5.906 19.1 19.1 0 0 1 1.633 7.77z"/></svg>