<svg xmlns="http://www.w3.org/2000/svg" viewBox="0 0 72 72"><path fill="#fcea2b" stroke="#fcea2b" stroke-miterlimit="10" stroke-width=".954" d="M26.589 46.453h19.083v3.543H26.589z"/><path fill="#fcea2b" d="M38.36 53.302c.719 2.887 1.936 3.03 1.936 6.215 0 4.522-4.213 6.974-4.213 6.974l-.016.009-.015-.009s-4.213-2.452-4.213-6.974c0-3.185 1.216-3.328 1.936-6.214M33.78 42.898c-1.782-7.103-7.612-13.29-7.612-19.588 0-7.433 9.884-17.794 9.884-17.794l.015-.016.016.016s9.884 10.36 9.884 17.795c0 6.297-5.83 12.484-7.612 19.587"/><path fill="#fcea2b" d="M42.398 42.898c2.107-3.01 5.677-5.88 8.498-5.88 4.28 0 5.43 1.93 5.43 3.77a19.5 19.5 0 0 1-1.303 5.138s8.64-.46 8.64-6.9-5.113-9.282-10.787-9.282c-4.877 0-12.547 4.299-14.521 13.154M38.36 53.302c2.18 6.603 9.302 5.156 9.302 5.156a5.73 5.73 0 0 0 4.6-6.21 10.23 10.23 0 0 1-5.98 1.917 6.1 6.1 0 0 1-3.322-.861M33.775 53.304c-2.18 6.6-9.202 5.154-9.202 5.154a5.73 5.73 0 0 1-4.6-6.21 10.23 10.23 0 0 0 5.98 1.917 6.1 6.1 0 0 0 3.321-.86M29.837 42.898c-2.107-3.01-5.678-5.88-8.498-5.88-4.28 0-5.43 1.93-5.43 3.77a19.5 19.5 0 0 0 1.303 5.138s-8.641-.46-8.641-6.9 5.114-9.282 10.788-9.282c4.877 0 12.447 4.298 14.42 13.153"/><path fill="#f1b31c" d="M36.083 66.491s4.213-2.452 4.213-6.974c0-3.185-1.217-3.328-1.937-6.216h-2.292ZM36.067 42.898h2.288c1.782-7.103 7.612-13.29 7.612-19.588 0-7.433-9.884-17.794-9.884-17.794ZM54.402 45.926a19.5 19.5 0 0 0 1.303-5.137c0-1.84-1.15-3.77-5.43-3.77-2.82 0-6.391 2.87-8.498 5.88h-1.543s3.283-8.489 9.958-8.489c0 0 8.55-.75 8.55 6.337 0 0 .22 5.18-4.34 5.18M17.86 45.926a19.5 19.5 0 0 1-1.303-5.137c0-1.84 1.15-3.77 5.43-3.77 2.82 0 6.39 2.87 8.498 5.88h1.543s-3.284-8.489-9.958-8.489c0 0-8.55-.75-8.55 6.337 0 0-.22 5.18 4.34 5.18M51.514 52.694a10.23 10.23 0 0 1-5.98 1.917 4.24 4.24 0 0 1-3.376-1.31h-1.564s1.852 3.195 4.904 3.195c0 0 6.016.234 6.016-3.802M20.557 52.694a10.23 10.23 0 0 0 5.98 1.917 4.24 4.24 0 0 0 3.375-1.31h1.564s-1.852 3.195-4.904 3.195c0 0-6.015.234-6.015-3.802"/><g fill="none" stroke="#000" stroke-linecap="round" stroke-linejoin="round" stroke-width="1.908"><path d="M38.36 53.302c.719 2.887 1.936 3.03 1.936 6.215 0 4.522-4.213 6.974-4.213 6.974l-.016.009-.015-.009s-4.213-2.452-4.213-6.974c0-3.185 1.216-3.328 1.936-6.214M33.78 42.898c-1.782-7.103-7.612-13.29-7.612-19.588 0-7.433 9.884-17.794 9.884-17.794l.015-.016.016.016s9.884 10.36 9.884 17.795c0 6.297-5.83 12.484-7.612 19.587"/><path d="M42.398 42.898c2.107-3.01 5.677-5.88 8.498-5.88 4.28 0 5.43 1.93 5.43 3.77a19.5 19.5 0 0 1-1.303 5.138s8.64-.46 8.64-6.9-5.113-9.282-10.787-9.282c-4.877 0-12.547 4.299-14.521 13.154M38.36 53.302c2.18 6.603 9.302 5.156 9.302 5.156a5.73 5.73 0 0 0 4.6-6.21 10.23 10.23 0 0 1-5.98 1.917 6.1 6.1 0 0 1-3.322-.861M33.775 53.304c-2.18 6.6-9.202 5.154-9.202 5.154a5.73 5.73 0 0 1-4.6-6.21 10.23 10.23 0 0 0 5.98 1.917 6.1 6.1 0 0 0 3.321-.86M29.837 42.898c-2.107-3.01-5.678-5.88-8.498-5.88-4.28 0-5.43 1.93-5.43 3.77a19.5 19.5 0 0 0 1.303 5.138s-8.641-.46-8.641-6.9 5.114-9.282 10.788-9.282c4.877 0 12.447 4.298 14.42 13.153M45.672 49.996H26.589M26.589 46.453h19.083"/></g></svg>