<svg xmlns="http://www.w3.org/2000/svg" viewBox="0 0 72 72"><circle cx="36" cy="35.958" r="29" fill="#fff"/><path fill="none" stroke="#d0cfce" stroke-miterlimit="10" stroke-width="3" d="M54.83 55.785c-5.28-5.252-6.884-10.791-6.884-18.827 0-8.008 3.246-15.258 8.494-20.506M15.533 16.452c5.248 5.248 8.494 12.498 8.494 20.506 0 8.029-2.409 14.491-7.68 19.742"/><path fill="#d0cfce" d="M50.738 10.999c4.825 5.179 7.782 12.122 7.782 19.76 0 16.015-12.984 29-29 29a28.86 28.86 0 0 1-14.664-3.985C20.145 61.42 27.653 64.958 36 64.958c16.016 0 29-12.983 29-29 0-10.631-5.73-19.911-14.262-24.96"/><g fill="none" stroke="#000" stroke-linecap="round" stroke-linejoin="round" stroke-width="2"><circle cx="36" cy="35.958" r="29"/><path d="M56.494 56.518c-5.28-5.252-8.548-12.524-8.548-20.56 0-8.008 3.246-15.258 8.494-20.506M15.533 15.452c5.248 5.248 8.494 12.498 8.494 20.506a28.85 28.85 0 0 1-8.517 20.528"/><path d="m45.946 35.458 2 1 2-1M26.027 36.458l-2-1-2 1M25.203 43.332l-1.779-1.356-2.151.61M23.001 49.455l-1.478-1.678-2.23.176M19.598 54.647l-.773-2.099-2.143-.64M20.27 17.796l-2.15.615-.798 2.089M23.488 23.543l-2.199.109-1.286 1.854M25.475 29.755l-2.205-.374-1.622 1.539M46.77 28.584l1.78 1.356 2.15-.61M48.972 22.461l1.478 1.678 2.23-.176M52.5 17.118l.772 2.098 2.143.64M51.545 53.912l2.15-.615.797-2.09M48.482 48.429l2.234-.11 1.251-1.854M46.499 42.161l2.204.374 1.622-1.539"/></g></svg>