<svg xmlns="http://www.w3.org/2000/svg" viewBox="0 0 72 72"><path fill="#d22f27" d="M16 33h40v4H16z"/><path fill="#ea5a47" d="M22 27h4v28h-4zM46 27h4v28h-4z"/><path fill="#3f3f3f" d="M20.5 55h7v5h-7zM44.5 55h7v5h-7zM34 27h4v6h-4z"/><path fill="#ea5a47" d="M12.5 21s11.25 2 15 2H46c3.375 0 13.5-2 13.5-2l-4 3-2 3h-35l-2-3z"/><g fill="none" stroke="#000" stroke-linecap="round" stroke-linejoin="round" stroke-miterlimit="10" stroke-width="2"><path d="M16 33h6v4h-6zM26 33h20v4H26zM50 33h6v4h-6zM22 27h4v28h-4zM46 27h4v28h-4zM20.5 55h7v5h-7zM44.5 55h7v5h-7zM34 27h4v6h-4zM59.5 21l-4 3-2 3h-35l-2-3-4-3s11.25 2 15 2H46c3.38 0 13.5-2 13.5-2"/></g></svg>