<svg xmlns="http://www.w3.org/2000/svg" viewBox="0 0 72 72"><path stroke="#000" stroke-linejoin="round" stroke-width="2" d="M36 66c16.569 0 30-13.431 30-30C66 19.432 52.569 6 36 6 19.432 6 6 19.432 6 36 6 52.57 19.432 66 36 66Z"/><path fill="#3f3f3f" stroke="#000" stroke-linejoin="round" stroke-width="2" d="M36 66c16.569 0 30-13.431 30-30C66 19.432 52.569 6 36 6 19.432 6 6 19.432 6 36 6 52.57 19.432 66 36 66Z"/><path fill="none" stroke="#000" stroke-linejoin="round" stroke-width="2" d="M36 66c16.569 0 30-13.431 30-30C66 19.432 52.569 6 36 6 19.432 6 6 19.432 6 36 6 52.57 19.432 66 36 66Z"/></svg>