<svg xmlns="http://www.w3.org/2000/svg" viewBox="0 0 72 72"><path fill="#92d3f5" d="M45.498 25.016a34 34 0 0 0-3.652.102 11.7 11.7 0 0 0-6.152 1.794 1.25 1.25 0 0 1-.588.3 1.2 1.2 0 0 1-.639-.19 14.8 14.8 0 0 0-6.284-1.255c-3.312-.08-6.751.283-9.62 1.943-3.8 2.2-6.043 6.888-3.611 10.892a11.1 11.1 0 0 0 6.278 4.605 21.6 21.6 0 0 0 6.58.825 15.46 15.46 0 0 0 8.15-1.877 1.53 1.53 0 0 1 .858-.332 1.6 1.6 0 0 1 .602.222 12.2 12.2 0 0 0 4.74 1.092 21.2 21.2 0 0 0 9.065-.95c3.356-1.266 6.614-4.241 6.614-8.066 0-4.176-3.745-7.202-7.432-8.342a18.6 18.6 0 0 0-4.909-.763"/><path fill="#61b2e4" d="M51.226 38.397a21.2 21.2 0 0 1-9.066.95 12.2 12.2 0 0 1-4.74-1.092 1.6 1.6 0 0 0-.601-.222 1.53 1.53 0 0 0-.859.332 15.46 15.46 0 0 1-8.151 1.877 21.6 21.6 0 0 1-6.58-.825 11.1 11.1 0 0 1-6.277-4.606 7 7 0 0 1-.739-1.685 6.8 6.8 0 0 0 .739 5.476 11.1 11.1 0 0 0 6.278 4.605 21.6 21.6 0 0 0 6.58.825 15.46 15.46 0 0 0 8.15-1.877 1.53 1.53 0 0 1 .858-.332 1.6 1.6 0 0 1 .602.222 12.2 12.2 0 0 0 4.74 1.092 21.2 21.2 0 0 0 9.065-.95c3.356-1.266 6.614-4.241 6.614-8.066a6.8 6.8 0 0 0-.279-1.9c-.85 2.905-3.555 5.127-6.335 6.176"/><path fill="none" stroke="#000" stroke-miterlimit="10" stroke-width="2" d="M45.498 25.016a34 34 0 0 0-3.652.102 11.7 11.7 0 0 0-6.152 1.794 1.25 1.25 0 0 1-.588.3 1.2 1.2 0 0 1-.639-.19 14.8 14.8 0 0 0-6.284-1.255c-3.312-.08-6.751.283-9.62 1.943-3.8 2.2-6.043 6.888-3.611 10.892a11.1 11.1 0 0 0 6.278 4.605 21.6 21.6 0 0 0 6.58.825 15.46 15.46 0 0 0 8.15-1.877 1.53 1.53 0 0 1 .858-.332 1.6 1.6 0 0 1 .602.222 12.2 12.2 0 0 0 4.74 1.092 21.2 21.2 0 0 0 9.065-.95c3.356-1.266 6.614-4.241 6.614-8.066 0-4.176-3.745-7.202-7.432-8.342a18.6 18.6 0 0 0-4.909-.763Z"/><path fill="none" stroke="#000" stroke-linecap="round" stroke-linejoin="round" stroke-width="2" d="M35.099 21.477v3.79M36.615 42.733v3.79M28.651 21.758l.767 3.712M42.053 43.531l.768 3.711M41.547 21l-.768 3.712M30.934 44.288 30.167 48M48.185 21.201l-1.411 3.518M25.434 44.386l-1.411 3.517M24.023 21.855l1.411 3.517M47.553 43.627l1.412 3.518M53.65 22.032l-1.729 3.372M20.54 43.046l-1.729 3.373M51.792 42.553l1.729 3.373M19.569 22.79l1.729 3.372M58.113 34.121h3.79M9.81 34.879h3.79M10.792 40.165l3.371-1.732M11.023 29.326l3.393 1.689M60.416 39.165l-3.371-1.732M61.185 29.326l-3.393 1.689M14.38 24.831l2.68 2.68M55.38 40.831l2.68 2.68M58.06 24.831l-2.68 2.68M16.06 41.831l-2.68 2.68"/><circle cx="25" cy="37" r="1.25"/><circle cx="32" cy="33" r="1.25"/><circle cx="21" cy="32" r="1.25"/><circle cx="45" cy="37" r="1.25"/><circle cx="52" cy="33" r="1.25"/><circle cx="40" cy="33" r="1.25"/></svg>