<svg xmlns="http://www.w3.org/2000/svg" viewBox="0 0 72 72"><path fill="none" stroke="#fff" stroke-linecap="round" stroke-linejoin="round" stroke-width="2" d="M27.114 62.986s9.17 2.923 17.927-.041"/><circle cx="35.9" cy="35.898" r="27.226" fill="#fff"/><path fill="#d0cfce" d="M29.044 61.611c0-.927-.035-3.98-.035-7.764 0-2.646.874-4.373 1.863-5.252-6.227-.722-12.779-3.154-12.779-14.035 0-3.098 1.096-5.632 2.887-7.615-.286-.72-1.254-3.606.278-7.514 0 0 2.355-.764 7.717 2.908 2.237-.628 4.637-.946 7.026-.951 2.385.005 4.785.323 7.027.951 5.356-3.672 7.711-2.908 7.711-2.908 1.532 3.908.57 6.795.278 7.514 1.796 1.983 2.881 4.514 2.881 7.615 0 10.905-6.559 13.307-12.816 14.008 1.013.882 1.909 2.611 1.909 5.263 0 3.792-.035 6.85-.035 7.78 0 .762.505 1.641 1.93 1.369 11.146-3.758 19.177-14.396 19.177-26.932 0-15.678-12.567-28.388-28.067-28.388S7.936 20.367 7.936 36.048c0 12.541 8.04 23.182 19.202 26.934 1.395.262 1.906-.614 1.906-1.37"/><g fill="none" stroke="#000" stroke-linecap="round" stroke-linejoin="round" stroke-width="2"><path d="M29.044 61.611c0-.927-.035-3.98-.035-7.764 0-2.646.874-4.373 1.863-5.252-6.227-.722-12.779-3.154-12.779-14.035 0-3.098 1.096-5.632 2.887-7.615-.286-.72-1.254-3.606.278-7.514 0 0 2.355-.764 7.717 2.908 2.237-.628 4.637-.946 7.026-.951 2.385.005 4.785.323 7.027.951 5.356-3.672 7.711-2.908 7.711-2.908 1.532 3.908.57 6.795.278 7.514 1.796 1.983 2.881 4.514 2.881 7.615 0 10.905-6.559 13.307-12.816 14.008 1.013.882 1.909 2.611 1.909 5.263 0 3.792-.035 6.85-.035 7.78 0 .762.505 1.641 1.93 1.369 11.146-3.758 19.177-14.396 19.177-26.932 0-15.678-12.567-28.388-28.067-28.388S7.936 20.367 7.936 36.048c0 12.541 8.04 23.182 19.202 26.934 1.395.262 1.906-.614 1.906-1.37"/><path d="M16.29 48.09c2.568.78 3.58 1.635 4.789 3.661 1.205 2.026 2.62 4.287 7.933 2.999"/></g></svg>