<svg xmlns="http://www.w3.org/2000/svg" viewBox="0 0 72 72"><path fill="#b399c8" d="M59.03 60H12.96a.97.97 0 0 1-.965-.965v-46.07A.97.97 0 0 1 12.96 12h46.07a.97.97 0 0 1 .965.965v46.07a.97.97 0 0 1-.965.965"/><g fill="none" stroke="#000" stroke-linejoin="round"><path stroke-width="2" d="M59.03 60H12.96a.97.97 0 0 1-.965-.965v-46.07A.97.97 0 0 1 12.96 12h46.07a.97.97 0 0 1 .965.965v46.07a.97.97 0 0 1-.965.965z"/><g clip-rule="evenodd"><g stroke-linecap="round" stroke-miterlimit="10" stroke-width="2"><path stroke-width="3.1" d="M46.103 30.525h6.2M49.203 30.525v10.85"/></g><g stroke-linecap="round" stroke-miterlimit="10" stroke-width="2"><path stroke-width="3.1" d="M41.933 30.525h-6.2v10.85h6.2M35.733 35.95h4.65"/></g><path stroke-linecap="round" stroke-miterlimit="10" stroke-width="3.1" d="M23.783 41.375v-10.85l7.75 10.85v-10.85"/><path fill="#000" stroke="none" d="M21.132 41.375a1.55 1.55 0 1 1-3.1-.001 1.55 1.55 0 0 1 3.1.001"/></g></g></svg>