<svg xmlns="http://www.w3.org/2000/svg" viewBox="0 0 72 72"><path fill="#61b2e4" stroke="#000" stroke-linecap="round" stroke-linejoin="round" stroke-width=".89281" d="M34.45 24.33c-.697.015-1.404.091-2.12.22-3.5.64-6.362 2.434-8.523 5.265-2.009 2.617-2.981 5.6-2.586 8.919.335 2.8 1.613 5.052 3.865 6.756 2.434 1.826 5.204 2.406 8.186 2.01 3.622-.488 6.483-2.285 8.673-5.175.5-.66.96-1.203 1.317-1.927.525 1.796 1.544 3.341 3.006 4.605 2.13 1.826 4.656 2.618 7.426 2.68.79-.092 1.611-.122 2.433-.275 2.831-.578 5.297-1.856 7.306-3.895 2.83-2.861 4.018-6.208 3.502-10.319-.396-2.921-1.888-5.144-4.293-6.787-2.648-1.796-5.57-2.1-8.673-1.553-3.622.639-6.3 2.16-8.521 5.082-.961 1.258-1.68 2.589-2.118 3.997l-9.782-.039c-.457-.002-.67.303-.762.486-.426.79-1.157 2.374-1.553 3.318-.213.517-.06.912.58.912h5.873c-.305.426-.549.793-.823 1.127-1.37 1.553-3.104 2.283-5.173 2.008-2.405-.334-4.078-2.343-4.109-4.778-.03-2.465 1.034-4.443 3.103-5.782 1.735-1.127 3.593-1.4 5.51-.456.64.304.975.638 1.43 1.155.396.457.427.427.883.305 1.888-.487 3.196-.853 5.113-1.34.365-.091.486-.243.303-.517-.76-1.766-1.917-3.226-3.53-4.29-1.848-1.256-3.85-1.758-5.944-1.713zm21.265 5.862c2.474-.08 4.655 1.553 5.134 4.19.061.304.062.61.093 1.005-.153 2.617-1.462 4.565-3.866 5.813-1.612.821-3.286.912-4.96.182-2.192-.974-3.348-3.38-2.8-5.753.669-2.86 2.494-4.656 5.325-5.295q.541-.125 1.074-.142z"/><g fill="none" stroke="#000" stroke-linecap="round" stroke-linejoin="round" stroke-miterlimit="10" stroke-width="2.24"><path stroke-width="1.9998944" d="m10.892 40.064 6.645.043M7.574 31.901l9.963.082M5.077 35.975l12.46.08M34.45 24.33c-.697.015-1.404.091-2.12.22-3.5.64-6.362 2.434-8.523 5.265-2.009 2.617-2.981 5.6-2.586 8.919.335 2.8 1.613 5.052 3.865 6.756 2.434 1.826 5.204 2.406 8.186 2.01 3.622-.488 6.483-2.285 8.673-5.175.5-.66.96-1.203 1.317-1.927.525 1.796 1.544 3.341 3.006 4.605 2.13 1.826 4.656 2.618 7.426 2.68.79-.092 1.611-.122 2.433-.275 2.831-.578 5.297-1.856 7.306-3.895 2.83-2.861 4.018-6.208 3.502-10.319-.396-2.921-1.888-5.144-4.293-6.787-2.648-1.796-5.57-2.1-8.673-1.553-3.622.639-6.3 2.16-8.521 5.082-.961 1.258-1.68 2.589-2.118 3.997l-9.782-.039c-.457-.002-.67.303-.762.486-.426.79-1.157 2.374-1.553 3.318-.213.517-.06.912.58.912h5.873c-.305.426-.549.793-.823 1.127-1.37 1.553-3.104 2.283-5.173 2.008-2.405-.334-4.078-2.343-4.109-4.778-.03-2.465 1.034-4.443 3.103-5.782 1.735-1.127 3.593-1.4 5.51-.456.64.304.975.638 1.43 1.155.396.457.427.427.883.305 1.888-.487 3.196-.853 5.113-1.34.365-.091.486-.243.303-.517-.76-1.766-1.917-3.226-3.53-4.29-1.848-1.256-3.85-1.758-5.944-1.713zm21.265 5.862c2.474-.08 4.655 1.553 5.134 4.19.061.304.062.61.093 1.005-.153 2.617-1.462 4.565-3.866 5.813-1.612.821-3.286.912-4.96.182-2.192-.974-3.348-3.38-2.8-5.753.669-2.86 2.494-4.656 5.325-5.295q.541-.125 1.074-.142z"/></g></svg>