<svg xmlns="http://www.w3.org/2000/svg" viewBox="0 0 72 72"><path fill="#d22f27" d="m61.71 61.715-6.172-51.427-16.257.177-28.284 28.284-.714 16.793z"/><path fill="#ea5a47" d="M61.449 59.516 46.876 18.95 24.87 24.875l14.41-14.41 16.257-.177z"/><g fill="none" stroke="#000" stroke-linecap="round" stroke-linejoin="round" stroke-miterlimit="10" stroke-width="2"><path stroke-width="1.99998" d="m61.72 61.715-6.172-51.427-16.257.177-28.284 28.284-.714 16.793z"/><path stroke-width="1.99998" d="m47.246 19.31 14.475 42.405-28.094-28.093-8.746-8.747-5.919 21.998M19.323 47.234 61.72 61.715M10.293 55.542l45.255-45.254M24.88 24.875l22.006-5.925"/><path stroke-width="1.99998" d="m61.72 61.715-6.172-51.427-16.257.177-28.284 28.284-.714 16.793z"/></g></svg>