<svg xmlns="http://www.w3.org/2000/svg" viewBox="0 0 72 72"><path fill="#f1b31c" d="m12.231 33.089-4.22 11.054L35.645 64.14zM36.047 64.441l27.935-20.7-3.718-9.948z"/><path fill="#ea5a47" d="m25.496 32.888-6.231-19.796-7.536 19.997zM46.296 33.29h14.169l-7.436-20.097zM25.998 33.089l9.948 30.548 10.853-30.246z"/><path fill="#e27022" d="m12.131 32.888 13.867.201 9.948 30.649zM46.598 33.089l-9.747 29.845 23.112-29.543z"/><g fill="none" stroke="#000" stroke-linecap="round" stroke-width="2"><path stroke-linejoin="round" d="m8.28 43.382 9.731-29.513a1.1 1.1 0 0 1 2.096.018l5.968 19.206 20.216-.001 5.718-19.233a1.1 1.1 0 0 1 2.094-.021l9.635 28.825a1.23 1.23 0 0 1-.425 1.371l-27.255 20.62L8.725 44.762a1.23 1.23 0 0 1-.445-1.38"/><path stroke-miterlimit="10" d="M11.673 33.092h14.952M45.586 33.092h14.953"/><path stroke-linejoin="round" d="M60.337 33.079 36.245 64.617 11.79 33.079"/><path stroke-linejoin="round" d="M46.782 33.582c-.26.994-10.537 31.035-10.537 31.035.08-.304-9.935-30.726-9.935-30.726"/></g></svg>