<svg xmlns="http://www.w3.org/2000/svg" viewBox="0 0 72 72"><path fill="#fff" fill-rule="evenodd" d="M28.761 32.995c1.547.395 2.68 1.522 3.267 3.252.32.944.32 2.269 0 3.214-.556 1.635-1.54 2.705-2.964 3.221-1.053.382-2.035.31-3.147-.23-3.096-1.501-3.653-6.11-1.025-8.485 1.082-.978 2.475-1.328 3.87-.972m16.676-.005c.726.186 1.097.375 1.712.875 1.559 1.266 2.14 3.564 1.61 5.478-.33 1.191-1.205 2.39-2.145 2.941-1.092.64-2.424.853-3.62.364-1.953-.798-3.075-2.704-3.076-4.757 0-1.096.118-1.598.609-2.588.37-.745 1.286-1.664 1.998-2.004.953-.454 1.935-.558 2.912-.309" clip-rule="evenodd"/><path fill="#b399c8" fill-rule="evenodd" d="M28.126 17.154c-3.364.703-6.72 1.75-8.983 2.804-.147.068-.256.116-.354.179-.32.203-.534.57-1.607 2.327-1.44 2.359-2.97 5.522-3.73 7.71-.116.337-.282.797-.369 1.023-.24.628-1.026 3.513-1.232 4.525-.158.775-.316 1.762-.641 3.996-.173 1.186-.245 3.24-.194 5.531.063 2.854.103 3.318.306 3.473.315.24 1.905 1.307 2.61 1.75 2.766 1.74 5.737 3.121 9.197 4.276.36.12.685.218.722.218.221 0 1.976-2.622 2.063-2.752l.008-.012 1.864-2.825c.608.17 1.21.328 1.762.462 3.461.839 7.997.94 11.828.264.854-.151 1.983-.415 3.128-.726l2.11 2.832 2.145 2.757s0 .074.831-.218c1.735-.748 7.206-3.37 8.442-4.153.822-.521 2.542-1.679 2.749-1.85.197-.164.207-.207.294-1.328.173-2.228.092-6.18-.162-7.849-.04-.267-.142-.956-.225-1.532a57 57 0 0 0-.336-2.018c-.194-1.024-1.045-4.197-1.313-4.896-.087-.226-.252-.68-.366-1.01-.934-2.682-2.75-6.25-4.684-9.205-.175-.267-.284-.44-.424-.58-.273-.272-.666-.424-1.896-.92-2.218-.894-4.496-1.573-7.299-2.177-.391-.084-.83-.171-.973-.194a.365.365 0 0 0-.382.196l-.345.679a34 34 0 0 0-.653 1.35l-.06.138a.43.43 0 0 1-.448.253c-3.274-.438-7.187-.466-10.267-.073-.488.063-.894.104-.9.091-.008-.012-.312-.619-.677-1.349s-.7-1.324-.746-1.321c-.045.003-.402.072-.793.154m3.902 19.088c-.588-1.73-1.72-2.856-3.267-3.252-1.394-.356-2.787-.006-3.87.972-2.627 2.376-2.07 6.984 1.027 8.486 1.112.54 2.093.611 3.146.23 1.424-.517 2.409-1.587 2.964-3.222.32-.945.32-2.27 0-3.214m15.121-2.382c-.615-.5-.986-.689-1.712-.874-.977-.25-1.959-.145-2.911.309-.713.34-1.63 1.258-2 2.003-.49.99-.608 1.492-.607 2.588 0 2.054 1.123 3.96 3.075 4.758 1.196.489 2.528.275 3.62-.364.94-.55 1.815-1.75 2.145-2.941.53-1.915-.05-4.213-1.61-5.479" clip-rule="evenodd"/><path fill="#8967aa" d="M26.5 49c.608.17 2.498.709 3.05.842 3.46.84 7.996.94 11.827.264a38 38 0 0 0 3.128-.726l2.11 2.832 2.145 2.758s0 .073.831-.219c1.735-.748 7.207-3.37 8.442-4.152.823-.522 2.542-1.68 2.75-1.85.197-.165.206-.208.293-1.329.174-2.228.092-6.18-.162-7.848-.04-.268-.142-.957-.225-1.533a57 57 0 0 0-.336-2.018c-.194-1.023-1.045-4.197-1.313-4.896-.087-.226-.251-.68-.366-1.009-.82-2.36-2.325-5.405-3.992-8.116-.63-1.022-.653-1.246-.876 0-1.057 5.913-2.902 10.507-5.154 14.08a5.6 5.6 0 0 1 .108 3.262c-.33 1.191-1.204 2.39-2.145 2.941-1.092.639-2.423.853-3.62.364l-.053-.022C37.06 47.479 29.33 48.049 26.5 48.36c-1.354.148-2.133.136 0 .64"/><path fill="none" stroke="#000" stroke-linecap="round" stroke-width="2" d="M25.918 52.213s-1.84 2.758-2.067 2.758c-.037 0-.362-.099-.722-.219-3.46-1.154-6.43-2.535-9.198-4.276-.704-.442-2.294-1.509-2.61-1.75-.202-.154-.242-.618-.305-3.472-.05-2.292.021-4.346.194-5.532.325-2.234.483-3.22.641-3.995.206-1.012.992-3.897 1.232-4.526.087-.226.253-.686.37-1.022.76-2.188 2.29-5.352 3.73-7.71 1.404-2.302 1.338-2.217 1.96-2.507 2.263-1.053 5.619-2.1 8.983-2.803.39-.082.748-.151.793-.154s.381.591.746 1.321l.676 1.349c.007.012.413-.029.901-.091 3.08-.393 6.993-.365 10.267.073v0a.43.43 0 0 0 .448-.253l.06-.139c.104-.239.398-.846.653-1.35l.345-.678a.365.365 0 0 1 .382-.196v0c.144.023.582.11.973.194 2.803.603 5.08 1.282 7.299 2.177 1.862.75 1.805.714 2.32 1.5 1.935 2.954 3.75 6.523 4.684 9.205.114.33.279.783.365 1.01.269.699 1.12 3.872 1.314 4.895.101.535.252 1.443.336 2.019.083.575.184 1.265.225 1.532.254 1.668.335 5.62.162 7.848-.087 1.121-.097 1.164-.294 1.328-.207.172-1.927 1.33-2.75 1.85-1.234.784-6.706 3.405-8.441 4.153-.28.121-.467.186-.59.219v0c-.159.042-.298-.073-.399-.203l-1.987-2.555m-23.072-4.277c1.042.529 3.898 1.396 6.006 1.907 3.461.84 7.997.94 11.828.264 2.08-.367 5.789-1.402 7.383-2.171M28.76 32.995c1.548.395 2.68 1.522 3.267 3.252.32.944.32 2.269 0 3.214-.555 1.635-1.54 2.705-2.964 3.22-1.053.383-2.034.311-3.146-.228-3.097-1.502-3.654-6.11-1.026-8.486 1.082-.978 2.475-1.328 3.87-.972Zm16.676-.005c.726.186 1.097.375 1.712.875 1.56 1.266 2.14 3.564 1.61 5.478-.33 1.191-1.205 2.39-2.145 2.941-1.092.64-2.424.853-3.62.364-1.952-.798-3.075-2.704-3.075-4.757-.001-1.096.117-1.598.608-2.588.37-.745 1.286-1.664 1.999-2.004.952-.454 1.934-.558 2.911-.309Z"/></svg>