<svg xmlns="http://www.w3.org/2000/svg" viewBox="0 0 72 72"><path fill="#fff" d="m61.22 21.64-23.31-6.602a1 1 0 0 0-.554.002l-22.59 6.627a1 1 0 0 0-.136.072 5.383 5.383 0 0 0-1.834 9.543 5.364 5.364 0 0 0 .066 8.697 5.378 5.378 0 0 0 1.486 9.502l23.01 6.713a1 1 0 0 0 .555.002l23.31-6.651a1 1 0 0 0 .725-.962v-25.98a1 1 0 0 0-.727-.962z"/><path fill="#b399c8" d="m37.64 29.23-22.6-6.63 22.6-6.62 23.3 6.6z"/><path fill="#b399c8" d="m15.08 24.73 21.99 6.446a2 2 0 0 0 1.111.004l23.29-6.765a.61.61 0 0 0 .442-.58l.019-1.25-24.3 6.672-22.56-6.612a4.4 4.4 0 0 0-.455 8.48l23.01 6.714 24.21-6.91.04-1.242a.626.626 0 0 0-.797-.622l-23.45 6.692-22.42-6.54a2.4 2.4 0 0 1-.14-4.487"/><path fill="#1e50a0" d="m15.08 33.41 21.99 6.446a2 2 0 0 0 1.111.004l23.29-6.765a.61.61 0 0 0 .442-.58l.019-1.25-24.3 6.672-22.56-6.612a4.4 4.4 0 0 0-.455 8.48l23.01 6.714 24.21-6.91.04-1.242a.625.625 0 0 0-.797-.622l-23.45 6.692-22.42-6.54a2.4 2.4 0 0 1-.14-4.487"/><path fill="#5c9e31" d="m15.08 42.15 21.99 6.446a2 2 0 0 0 1.111.004l23.29-6.765a.61.61 0 0 0 .442-.58l.019-1.25-24.3 6.671-22.56-6.612a4.4 4.4 0 0 0-.455 8.481l23.01 6.713 24.21-6.91.04-1.241a.625.625 0 0 0-.797-.622l-23.45 6.692-22.42-6.54a2.4 2.4 0 0 1-.14-4.487"/><path fill="#8967aa" d="m44.32 17.79-5.73-1.62L16 22.8l5.81 1.7z"/><path stroke="#000" stroke-width="2" d="m37.63 55.23 23.31-6.652"/><path stroke="#000" stroke-linecap="round" stroke-linejoin="round" stroke-width="2" d="m37.64 16-22.6 6.63z"/><path fill="#a57939" d="m31 18.05-8.17 2.627 23.01 6.713 7.111-2.287-7.102 2.289.5 25.17 7.787-2.033-.117-25.77-.01.004h-.002z"/><g fill="none" stroke="#000" stroke-linecap="round" stroke-linejoin="round" stroke-width="2"><path d="m44.61 27.41-6.969 1.854-22.6-6.63 22.6-6.63 23.3 6.6-6.921 2.159M54.59 33l6.356-1.814"/><path d="M15.08 22.64c-4.388.94-4.717 7.076-.455 8.481l23.01 6.713 7.997-2.282M58.22 40.58l-.89.224 3.607-.954"/><path stroke-linecap="butt" d="m54.07 41.68 3.255-.874M15.08 31.29c-4.388.94-4.717 7.076-.455 8.481l23.01 6.713 8.176-2.357"/><path d="M15.08 40.04a4.4 4.4 0 0 0-.455 8.481l23.01 6.713 23.31-6.652"/><path stroke-width="1.5" d="m54.01 24.76.129 25.77M45.81 27.42v25.25"/><path stroke-width="1.4" d="m54.32 24.96-23.86-7.209z"/><path stroke-width="1.5" d="m45.85 27.39-23.01-6.713z"/></g></svg>