<svg xmlns="http://www.w3.org/2000/svg" viewBox="0 0 72 72"><g fill="#fcea2b"><path d="m27.265 44.925-5.288 4.873a14.2 14.2 0 0 1-3.3 2.1l-6.85 2.84a2.21 2.21 0 0 1-2.708-1.051 2.36 2.36 0 0 1 1.278-2.809l7.466-4.152 4.467-6.738zM38.289 22.968a3.92 3.92 0 0 0-2.4-3.8c-1.6-.6-4-.4-6 3.6l-5.1 9.2a8.6 8.6 0 0 0-1 3.8 5.07 5.07 0 0 0 1.5 3.3l8.77 8.3a6.48 6.48 0 0 1 1.7 3.4l1.3 10.34c.2 1.1.803 2 2 2a1.83 1.83 0 0 0 1.7-2l-.2-13.34a9.25 9.25 0 0 0-1-3.7l-4.57-7.27a6.96 6.96 0 0 1-.883-4.043zM52.438 36.798l4.57 7.6a9.25 9.25 0 0 1 1 3.7l.2 13.01a1.83 1.83 0 0 1-1.7 2c-1.153 0-1.8-.9-2-2l-1.3-10.01a6.48 6.48 0 0 0-1.7-3.4L44 40.59c-1.409-1.367-2.404-3.342-1.746-7.031l2.508-5.79a848 848 0 0 0 3.427-6.2 4.19 4.19 0 0 1 4.098-2.662c2.9 0 4.413 3.615 4.413 8.563 0 2.627-.966 3.485-2.293 3.485a3.75 3.75 0 0 1-1.798-.635z"/><circle cx="40.429" cy="14.633" r="3.543"/><circle cx="58.209" cy="14.633" r="3.543"/></g><g fill="#f1b31c"><path d="m33.479 55.438-4.404 1.94a2.245 2.245 0 0 1-2.96-1.03 2.41 2.41 0 0 1 1.134-2.81l5.369-3.157zM39.559 43.738l1.131-2.862 4.795 4.95-4.877 4.95a14.7 14.7 0 0 0-1.05-7.038"/></g><g fill="#fff"><path d="m36.111 31.413 1.659 1.433h2.412v3.468l.302 1.885-1.508 1.432-1.659-3.317-1.13-3.016zM27.185 47.967l1.943-1.818 2.885 2.445-3.449 1.693z"/></g><g fill="none" stroke="#000" stroke-linecap="round" stroke-linejoin="round" stroke-width="2"><path d="m29.247 43.098-7.27 6.7a14.2 14.2 0 0 1-3.3 2.1l-6.85 2.84a2.21 2.21 0 0 1-2.708-1.051 2.36 2.36 0 0 1 1.278-2.809l7.466-4.152 4.2-6.336"/><path d="M38.289 22.968a3.92 3.92 0 0 0-2.4-3.8c-1.6-.6-4-.4-6 3.6l-5.1 9.2a8.6 8.6 0 0 0-1 3.8h0a5.07 5.07 0 0 0 1.5 3.3l8.77 8.3a6.48 6.48 0 0 1 1.7 3.4l1.3 10.34c.2 1.1.803 2 2 2a1.83 1.83 0 0 0 1.7-2l-.2-13.34a9.25 9.25 0 0 0-1-3.7l-4.57-7.27a6.96 6.96 0 0 1-.883-4.043"/><path d="m45.229 31.088-5.02-.99a4.76 4.76 0 0 1-3.25-2.069l-2.63-4.931M51.789 23.068l-2.059 6.547c-.538 1.786.427 3.465 2.56 4.247 0 0 3.656 1.236 4.504 1.514 1.234.405 2.65 2.963 2.65 2.963"/><path d="M44.761 27.77a848 848 0 0 0 3.427-6.2 4.19 4.19 0 0 1 4.098-2.662c2.9 0 4.413 3.615 4.413 8.563 0 2.627-.97 3.485-2.26 3.485a3.66 3.66 0 0 1-1.83-.632M52.438 36.798l4.57 7.6a9.25 9.25 0 0 1 1 3.7l.2 13.01a1.83 1.83 0 0 1-1.7 2c-1.153 0-1.8-.9-2-2l-1.3-10.01a6.48 6.48 0 0 0-1.7-3.4L44 40.59c-1.409-1.367-2.404-3.342-1.746-7.031M47.437 43.845l-6.828 6.931M40.69 40.876l-1.132 2.862M33.479 55.438l-4.404 1.94a2.245 2.245 0 0 1-2.96-1.03 2.41 2.41 0 0 1 1.134-2.81l5.369-3.157M36.885 14.633a3.543 3.543 0 1 1 3.544 3.544h0M54.665 14.633a3.543 3.543 0 1 1 3.544 3.544h0"/></g></svg>