<svg xmlns="http://www.w3.org/2000/svg" viewBox="0 0 72 72"><path fill="#fcea2b" d="M8.965 37.094a30.6 30.6 0 0 1 3.55-13.741c.424 6.652 3.562 9.33 5.12 9.33 1.164 0 2.234-1.185 2.234-3.12.08-2.497.461-6.772 3.8-12.952a1.9 1.9 0 0 0 .936.26c1.308 0 3.415-1.415 1.686-12.02 0 0 12.848 8.659 12.364 22.996A1.76 1.76 0 0 0 40.55 29.7a4.68 4.68 0 0 0 3.625-2.435 18.9 18.9 0 0 1 1.968 8.828c0 10.977-6.813 19.566-18.445 19.566-10.36 0-18.732-8.728-18.732-18.264"/><path fill="#f1b31c" d="M27.836 23.47c-.349 1.343-1.512 3.58-4.886 7.43-.117.09-.117.178-.233.268-.35.626-1.88 1.776-1.88 4.314a4.6 4.6 0 0 0 .6 2.04 4.42 4.42 0 0 1-2.77 1.36c-.68 0-2.102-.648-2.212-1.658a4.3 4.3 0 0 0-1.549 3.342c0 3.995 1.877 8.143 7.23 11.365 0 0 1.512.984 1.628 1.79 0 0 0 .09.116.09h6.167c.233 0 .233 0 .233-.09 0-.18.465-1.164 3.723-3.401a12.85 12.85 0 0 0 4.304-4.743.785.785 0 0 0-.698-1.074 1.84 1.84 0 0 1-1.163-1.074s-.233-.716.698-2.327a4.3 4.3 0 0 0 .766-2.148 1.1 1.1 0 0 0-1.513-.627 2.607 2.607 0 0 1-3.325-.984s-.815-1.432-.116-4.923c.465-2.684-1.164-7.07-3.258-9.307-.582-.537-1.745-.358-1.862.358"/><path fill="#3f3f3f" d="m40.767 48.03-4.26 5.78-6.197 5.15 2.522 1.998 4.48-3.618a7.55 7.55 0 0 0 2.482-1.724l4.212-4.578Z"/><path fill="#3f3f3f" d="M46.485 44.32v1.815l3.66 4.368a4.35 4.35 0 0 1 .667 2.388l.396 8.66c.048 1.81-.991 2.4-1.797 2.4-.789 0-1.44-.599-1.704-2.196l-.748-8.105-6.018-5.45a2.96 2.96 0 0 1-.923-2.174 3.97 3.97 0 0 1 .615-2.192l2.907-5.249c1.043-1.947 2.034-2.623 3.406-2.623a3.1 3.1 0 0 1 2.65 2.667Z"/><circle cx="51.875" cy="33.151" r="3.135" fill="#3f3f3f"/><path fill="#f1b31c" d="m41.514 48.551-.794-.737-4.057 5.968-6.801 4.793.557.47 7.134-4.715ZM41.94 48.2a2.96 2.96 0 0 1-.922-2.174 3.97 3.97 0 0 1 .615-2.192l2.907-5.249c1.043-1.947 2.034-2.623 3.406-2.623a2.13 2.13 0 0 1 1.061.322ZM49.577 64.403c-.79 0-1.606-1.051-1.87-2.649l-.748-8.104-.6-.542 2.218.295ZM49.593 35.3a3.135 3.135 0 0 1 4.247-4.591 9.22 9.22 0 0 0-4.248 4.592"/><g fill="none" stroke="#000" stroke-linecap="round" stroke-linejoin="round"><path stroke-width="2" d="M55.667 43.758h-5.403l-3.811-4.246M46.55 35.979s-5.382.91-6.532 1.733c-1.469 1.052-4.134 6.245-4.134 6.245M38.149 50.224l-2.642 3.585-2.072 1.344"/><path stroke-width="2" d="M46.485 43.99v2.145l3.66 4.368a4.35 4.35 0 0 1 .667 2.388l.396 8.66c.048 1.81-.991 2.4-1.797 2.4-.789 0-1.44-.599-1.704-2.196l-.748-8.105-6.018-5.45a2.96 2.96 0 0 1-.923-2.174 3.97 3.97 0 0 1 .615-2.192l2.907-5.249c1.043-1.947 2.034-2.623 3.406-2.623a2.454 2.454 0 0 1 2.32 2.337"/><path stroke-width="1.821" d="M26.543 55.543A18.805 18.805 0 0 1 9.876 37.094a30.6 30.6 0 0 1 3.55-13.741c.424 6.652 3.562 9.33 5.12 9.33 1.163 0 2.233-1.185 2.233-3.12.08-2.497.462-6.772 3.801-12.952M26.29 4.851S39.14 13.51 38.656 27.848A1.76 1.76 0 0 0 40.55 29.7a4.68 4.68 0 0 0 3.625-2.435 13.8 13.8 0 0 1 1.28 3.377"/><path stroke-width="2" d="m42.375 52.447-2.642 3.585-6.744 4.375M48.74 33.152a3.135 3.135 0 1 1 3.135 3.134"/></g></svg>