<svg xmlns="http://www.w3.org/2000/svg" viewBox="0 0 72 72"><path fill="#fcea2b" d="M32.406 14.478a3.892 3.892 0 0 1 6.707 0L59.562 54.62a4.5 4.5 0 0 1 .575 1.916 3.927 3.927 0 0 1-3.833 3.928H15.311a3.843 3.843 0 0 1-3.832-3.832 3.46 3.46 0 0 1 .574-1.916z"/><path fill="#3f3f3f" d="M40.15 37.678h.323a3.686 3.686 0 0 0 3.712-3.632 3.9 3.9 0 0 0-1.614-3.066 2.585 2.585 0 0 0-2.582-2.502 2.25 2.25 0 0 0-1.776.726 3.4 3.4 0 0 0-2.663-1.291 3.52 3.52 0 0 0-2.34.888 2.58 2.58 0 0 0-1.937-.888 2.623 2.623 0 1 0 0 5.246 1.85 1.85 0 0 0 1.13-.323 3.48 3.48 0 0 0 3.147 2.017 1.4 1.4 0 0 0 .565-.08 2.53 2.53 0 0 0-1.05 2.017 2.635 2.635 0 0 0 2.664 2.663 2.52 2.52 0 0 0 2.421-1.775"/><path fill="#9b9b9a" d="M34.542 60.455h-16.13l7.34-7.787 2.271-4.795 3.812-2.735 2.204 2.975-1.052 4.295z"/><path fill="#d0cfce" d="M34.542 60.455h18.819l-6.358-11.891-4.943-2.141-2.657-3.381-2.299.526-2.348-.526-2.921 2.096 2.204 2.975-1.052 4.295z"/><g fill="none" stroke="#000" stroke-linecap="round" stroke-width="2"><path stroke-linejoin="round" d="M32.406 14.478a3.892 3.892 0 0 1 6.707 0L59.562 54.62a4.5 4.5 0 0 1 .575 1.916 3.927 3.927 0 0 1-3.833 3.928H15.311a3.843 3.843 0 0 1-3.832-3.832 3.46 3.46 0 0 1 .574-1.916z"/><path stroke-miterlimit="10" d="m18.412 60.455 7.34-7.787 2.271-4.795 6.733-4.831 2.348.526 2.299-.526 2.657 3.381 4.943 2.141 6.358 11.891"/><path stroke-miterlimit="10" d="m31.835 45.138 2.204 2.975-1.056 4.269.771 3.997"/><path stroke-linejoin="round" d="M32.403 32.836a3.48 3.48 0 0 0 3.147 2.017 1.4 1.4 0 0 0 .565-.08 2.53 2.53 0 0 0-1.05 2.017 2.635 2.635 0 0 0 2.664 2.663 2.52 2.52 0 0 0 2.421-1.775M42.57 30.98a2.585 2.585 0 0 0-2.581-2.502 2.25 2.25 0 0 0-1.776.727 3.4 3.4 0 0 0-2.663-1.292 3.52 3.52 0 0 0-2.34.888 2.58 2.58 0 0 0-1.937-.888 2.687 2.687 0 0 0-2.663 2.663"/></g></svg>