<svg xmlns="http://www.w3.org/2000/svg" viewBox="0 0 72 72"><path fill="#fff" d="m13.065 34.044-3.43 6.326 52.052-.164-3.259-6.245zM28.129 9.93l-.212 8.81s4.928-2.154 6.933-1.817 10.243 6.41 10.94 6.41 4.957.07 5.306-.07.523-.01.523-.01l-.11-11.69s-.935.44-2.393.357-6.712-1.375-7.4-1.87-4.813-1.98-5.198-1.98-2.324-.764-8.39 1.86"/><path fill="#92d3f5" d="M13.046 40.779h45.606v20.653H13.046z"/><path fill="#a57939" d="M18.355 46.012h12.273v15.42H18.355z"/><path fill="#fff" d="M35.927 44.87h6.467v12.562h-6.467zM47.013 44.87h6.467v12.562h-6.467z"/><path fill="#d0cfce" d="M27.917 18.74a13.5 13.5 0 0 1 6.933-1.817c4.542 0 8.438 6.247 14.334 6.247.869 0 1.304-.392 2.181-.392.728 0 1.018.52 1.018 1.439v1.565c0 .717-.783 1.531-3.081 1.531-6.91 0-10.806-3.908-14.815-3.908-2.39.045-4.71.82-6.649 2.219v-4.267zM8.831 61.432h54.036v3.419H8.831z"/><g fill="none" stroke="#000" stroke-linecap="round" stroke-width="2"><path stroke-linejoin="round" d="M13.046 61.432V45.399M8.831 64.852h54.036M62.867 61.432H8.831M19.991 33.303h-7.53l-3.63 7.476h54.036l-3.629-7.476h-30.41M58.652 61.432V45.399M26.452 55.114V52.33M22.534 55.114V52.33M18.356 46.012h12.273v15.42H18.356zM27.917 9.34a13.4 13.4 0 0 1 6.933-2.148c4.542 0 8.438 3.937 14.334 3.937.869 0 1.304-.39 2.181-.39.728 0 1.018.52 1.018 1.438v13.605c0 .717-.783 1.531-3.081 1.531-6.91 0-10.806-3.908-14.815-3.908-2.39.045-4.71.82-6.649 2.219v-4.267"/><path stroke-miterlimit="10" d="M24.579 7.347v33.432"/><path stroke-linejoin="round" d="M35.927 44.87h6.467v12.562h-6.467zM47.013 44.87h6.467v12.562h-6.467z"/></g></svg>