<svg xmlns="http://www.w3.org/2000/svg" viewBox="0 0 72 72"><path fill="#fff" d="m24.99 44.8.087 14.452 8.436-.08s6.446-.238 8.674-7.162-.478-7.64-.478-7.64-13.703-.73-16.719.43M53.668 17.211V12.51a.617.617 0 0 0-.653-.653h-34.81a.617.617 0 0 0-.654.653v16.327a.617.617 0 0 0 .654.653h34.81a.617.617 0 0 0 .653-.653v-4.375H57v-7.25z"/><path fill="#9b9b9a" d="M43.285 52.73 47 52v-7l-3.715-1.142z"/><path fill="#fcea2b" d="M24.926 51.188a.607.607 0 0 1-.643.642h-7.58a1.479 1.479 0 0 0 0 2.958h7.58a.607.607 0 0 1 .643.643M24.926 40.58a.607.607 0 0 1-.643.642h-7.58a1.479 1.479 0 0 0 0 2.958h7.58a.607.607 0 0 1 .643.642"/><path fill="#9b9b9a" d="M24.99 44.8c6-.332 12.013-.31 18.01.065-2-4.865-5-7.693-11.323-7.693H24.99z"/><path fill="#d0cfce" d="M56.572 45.594a.607.607 0 0 1-.643.643h-8.565v3.922h8.565a.607.607 0 0 1 .643.643z"/><path fill="#b1cc33" d="M21.767 25.927h4.931V15.484h-4.93z"/><g fill="none" stroke="#000" stroke-linecap="round" stroke-width="2"><path stroke-miterlimit="10" d="M24.283 51.188h-7.58a2.14 2.14 0 0 0-2.122 2.121h0a2.14 2.14 0 0 0 2.122 2.122h7.58M24.283 40.58h-7.58a2.14 2.14 0 0 0-2.122 2.12h0a2.14 2.14 0 0 0 2.122 2.122h7.58"/><path stroke-linejoin="round" d="M24.347 59.932h7.394c6.463-.02 11.686-5.273 11.668-11.736-.02-6.436-5.232-11.649-11.668-11.667h-7.394z"/><path stroke-linejoin="round" d="m42.735 52.473 3.986-1.093v-6.365l-3.986-1.028M55.929 50.802h-9.208v-5.208h9.208M53.668 17.211V12.51a.617.617 0 0 0-.653-.653h-34.81a.617.617 0 0 0-.654.653v16.327a.617.617 0 0 0 .654.653h34.81a.617.617 0 0 0 .653-.653v-4.375H57v-7.25z"/><path stroke-linejoin="round" d="M21.441 15.157h5.584v11.096h-5.584z"/></g></svg>