<svg xmlns="http://www.w3.org/2000/svg" viewBox="0 0 72 72"><path fill="#f1b31c" d="M26 38.042c-3 0-4-7-4-14 0-6 5-12 14-12s14 6 14 12c0 7-1 14-4 14"/><path fill="#fcea2b" d="M24.847 28.663c-.1 8 4.1 14 11 14 7.1 0 11.1-6 11.1-14 0-5-3-10-3-10-8 0-10 3-16 1a17.3 17.3 0 0 0-3.1 9"/><path fill="#92d3f5" d="M16.958 61.15v-4.01c0-5.01 5.011-9.02 10.022-9.02q9.02 7.517 18.04 0c5.01 0 10.022 4.01 10.022 9.02v4.01"/><path fill="#fcea2b" d="M24.51 29.123v1.042c0 8.328 4.85 14.854 11.044 14.854s11.044-6.526 11.044-14.854c0-5.067-1.871-8.183-5.56-12.123a67 67 0 0 1-9.46 6.284c-2.786 1.649-6.583 3.887-7.068 4.797"/><path fill="#fff" d="m26.447 35.399 8.983-1.567 10.111 1.494.383 1.726-5.413 8.375h-9.83l-5.497-9.664z"/><path fill="none" stroke="#000" stroke-linecap="round" stroke-linejoin="round" stroke-width="2" d="M22.089 28.077a38 38 0 0 1-.12-4.009c0-6.013 5.011-12.026 14.031-12.026s14.03 6.013 14.03 12.026a37 37 0 0 1-.119 4.009"/><path d="M41.913 30.081a2.004 2.004 0 1 1-2.004-2.004 2.01 2.01 0 0 1 2.004 2.004M33.895 30.081a2.004 2.004 0 1 1-4.008 0 2.004 2.004 0 0 1 4.008 0"/><path d="M41.913 30.081a2.004 2.004 0 1 1-2.004-2.004 2.01 2.01 0 0 1 2.004 2.004M33.895 30.081a2.004 2.004 0 1 1-4.008 0 2.004 2.004 0 0 1 4.008 0"/><path fill="none" stroke="#000" stroke-linecap="round" stroke-linejoin="round" stroke-width="2" d="M16.958 60.147v-3.006c0-5.011 5.011-9.02 10.022-9.02q9.02 7.515 18.04 0c5.01 0 10.022 4.008 10.022 9.02v3.006M46.169 35.356l3.308-2.633M25.63 35.356l-3.3-3.048M47.05 29.663c0-5-3-11-3-11-8 0-10 3-16 1 0 0-3 5-3.1 10M32.596 45.046c-1.333.01-3.625-1.852-4.497-3.072a14.8 14.8 0 0 1-2.434-5.817l-.139-.45 8.91-2.297a5.6 5.6 0 0 1 2.879.018l8.408 2.28h.544a14.5 14.5 0 0 1-1.841 5.796c-.877 1.416-3.28 3.456-4.742 3.468z"/></svg>