<svg xmlns="http://www.w3.org/2000/svg" viewBox="0 0 72 72"><ellipse cx="32.244" cy="29.359" fill="#fff" rx="4.232" ry="4.063"/><path fill="#92d3f5" d="m35.274 43.546-15.165-.179 4.221-10.684-.842-1.622s2.691-2.567 5.884-1.67 5.07 2.852 5.1 5.68a5.35 5.35 0 0 1-1.837 4.227 3.434 3.434 0 0 1 2.64 4.248"/><circle cx="38.74" cy="26.445" r="1.579" fill="#92d3f5"/><path fill="#d0cfce" d="M53.025 16.05h-3.073c-6.32 0-6.837 5.03-6.837 6.837a.61.61 0 0 0 .645.645h3.225a.686.686 0 0 0 .645-.58 2.493 2.493 0 0 1 2.386-2.45h10.34l.084-.646.56-3.16-.15-.645h-7.825"/><circle cx="29.797" cy="22.294" r="2.681" fill="#92d3f5"/><path fill="#fcea2b" d="M21.631 31.746 10.766 45.459s-3.685 9.414 1.133 12.072c4.818 2.659 8.21 2.25 8.21 2.25h8.875s4.987.963 4.734-3.259l1.623-.305a2.657 2.657 0 0 0 .27-4.401s4.761-1.653.72-4.183a3.69 3.69 0 0 0-.72-3.875l-15.503-.316 4.222-10.685a1.068 1.068 0 0 0-.842-1.621c-1.511-.29-1.857.61-1.857.61"/><path fill="#fcea2b" d="m34.822 33.545 9.716-4.47s3.165.205 1.937 2.335l-8.788 7.355 12.793 7.012s1.795 1.49.755 2.589a3.12 3.12 0 0 1-1.844 1.137s1.89 1.545.907 2.895-1.991 1.123-1.991 1.123-.959 2.375-1.148 2.621c-1.02.191-2.058.268-3.094.228h-1.236l-.48 2.217-1.22.48-6.058-2.642 1.58-2.904-.32-1.978 1.356-3.124-1.356-1.713-.179-2.635-.837-.85-.792-2.765-1.888-1.158 1.633-2.915z"/><path fill="#61b2e4" d="M33.718 32.449s-1.36 6.724-10.288 6.849h9.897M38.205 24.373s2.063 2.286.818 4.011l1.815-1.107-.456-2.243zM29.797 19.614s2.345 2.976 0 5.361-.384.295-.384.295l3.404-1.464-.1-2.266-1.088-1.634z"/><path fill="#9b9b9a" d="M50.26 16.873a6.44 6.44 0 0 0-4.983 1.75c-1.335 1.44-1.335 4.2-1.335 4.2a10.9 10.9 0 0 1 2.546-3.967 5.85 5.85 0 0 1 3.772-1.983"/><g fill="none" stroke="#000" stroke-linecap="round" stroke-linejoin="round"><path stroke-width="1.697" d="M51.282 11.254h8.475M55.52 16.05v-4.796M60.57 16.05H49.953c-6.32 0-6.837 5.03-6.837 6.837a.61.61 0 0 0 .645.645h3.225a.686.686 0 0 0 .645-.58 2.493 2.493 0 0 1 2.386-2.45h9.78"/><path stroke-width="2" d="m22.306 43.46-2.197-.018 4.221-10.685s.217-2.33-2.385-1.388L11.858 44.22a12.06 12.06 0 0 0-2.595 6.262 9.9 9.9 0 0 0 .668 4.768c1.97 4.713 9.05 4.72 10.963 4.625"/><path stroke-width="2" d="M22.085 43.467h13.256s2.368.784.99 3.239M24.587 47.548h11.54s1.513.523 1.513 1.871-1.512 1.913-1.512 1.913M24.555 51.834h10.786s1.624-.371 1.624 1.624a2.06 2.06 0 0 1-1.554 2.25H24.873M32.817 56.064c.544.583.778 1.39.63 2.173a1.69 1.69 0 0 1-1.444 1.638h-6.635M25.75 29.814a5.97 5.97 0 0 1 5.765.197c1.654.827 3.463 3.494 2.911 5.862a10.3 10.3 0 0 1-1.949 3.425c.854.29 1.543.931 1.894 1.761"/><path stroke-width="2" d="M30.49 33.218a4.5 4.5 0 0 0-3.69.288M37.162 32.501l7.231-3.136s1.998-.374 1.981 1.183a2.25 2.25 0 0 1-.842 1.658L37.64 38.91l4.223 2.392M41.447 41.076l8.903 4.848c.626.32 1.033.95 1.066 1.652.003.274-.059.544-.18.79-.536 1.088-2.214 1.056-2.214 1.056"/><path stroke-width="2" d="m39.656 44.503 9.365 4.92c.69.343 1.203.96 1.416 1.7.15.518.065 1.075-.233 1.524-.918 1.39-2.9 1.003-2.9 1.003"/><path stroke-width="2" d="m39.75 49.851 7.348 3.669a1.84 1.84 0 0 1 .698 2.851 1.62 1.62 0 0 1-2.285.543l-6.73-2.98"/><path stroke-width="2" d="M43.019 55.81s.547 1.948-.349 2.74c-.203.18-.438.322-.693.416-.592.2-1.238.16-1.8-.113l-3.416-1.558"/><circle cx="38.74" cy="26.445" r="2.197" stroke-width="2"/><circle cx="29.797" cy="22.294" r="2.865" stroke-width="2"/></g></svg>