<svg xmlns="http://www.w3.org/2000/svg" viewBox="0 0 72 72"><path fill="#92d3f5" d="M30 8.5V15l-5 7 2 4-2 3 2 3-2 3 2 3-2 3 2 3-2 3 2 3-2 3 2 3-2 3 2 3-2 4 2 1h18l2-1-2-4 2-3-2-3 2-3-2-3 2-3-2-3 2-3-2-3 2-3-2-3 2-3-2-3 2-4-5-7V8.5z"/><rect width="14" height="6.5" x="29" y="4" fill="#9b9b9a" rx="1"/><path fill="#3f3f3f" d="M43 5v5h-5V5z"/><path fill="#61b2e4" d="M42 10.5v6l4.5 5-1 4.5 1.5 3-1.5 3 1.5 3-1.5 3 1.5 3-1.5 3 1.5 3-1.5 3 1.5 3-1.5 3 1.5 3-1.5 3 1 5H42c-.283 0 2 0 2-2s-2-2-2-3 2-1 2-3-2-2-2-3 2-1 2-3-2-2-2-3 2-1 2-3-2-2-2-3 2-1 2-3-2-2-2-3 2-1 2-3-2-2-2-3 2-1 2-3-2-2-2-3 2.5-1.5 2.5-3.5C44.5 21 39 17 39 15v-4.5z"/><g fill="none" stroke="#000" stroke-linecap="round" stroke-linejoin="round" stroke-width="2"><path d="M29 10h14M30 5h12M41 13.5V15c4 5 6 6 6 8s-2 2-2 3 2 1 2 3-2 2-2 3 2 1 2 3-2 2-2 3 2 1 2 3-2 2-2 3 2 1 2 3-2 2-2 3 2 1 2 3-2 2-2 3 2 1 2 3-2 2-2 3 2 1 2 3-1.717 2-2 2H27c-.283 0-2 0-2-2s2-2 2-3-2-1-2-3 2-2 2-3-2-1-2-3 2-2 2-3-2-1-2-3 2-2 2-3-2-1-2-3 2-2 2-3-2-1-2-3 2-2 2-3-2-1-2-3 2-2 2-3-2-1-2-3 2-3 6-8v-1.5M31.5 26h9M31.5 32h9M31.5 38h9M31.5 44h9M31.5 50h9M31.5 56h9M31.5 62h9"/></g></svg>