<svg xmlns="http://www.w3.org/2000/svg" viewBox="0 0 72 72"><circle cx="30.337" cy="13.859" r="10.216" fill="#fff"/><path fill="#fcea2b" d="M54.625 48.824c0 11.975-7.161 18.39-16.25 18.39-10.129-1.815-18.501-4.08-16.616-31.152M47.84 37.592a3.5 3.5 0 1 1 6.993.294"/><path fill="#fcea2b" d="M40.842 37.36a3.5 3.5 0 1 1 6.994.293"/><path fill="#fcea2b" d="M40.846 37.225a3.5 3.5 0 1 1 6.978.562M33.805 36.88a3.5 3.5 0 0 1 6.985.449M22.292 46.185c-5.868-7.62-6.745-10.687-5.355-12.03s5.694.784 7.037 2.175M26.805 14.509a3.5 3.5 0 1 1 7 0"/><path fill="none" d="m23.844 36.455-1.958-2.213"/><path fill="#fcea2b" d="M18.619 41.424c1.952 2.144 3.373 5.168 3.3 9.522"/><path fill="none" d="m16.851 39.105 1.821 2.38"/><path fill="#fcea2b" d="m33.915 41.924-7.063-1.967V14.174h6.953zM33.915 36.844h20.921V49.07H33.915zM26.805 40.065l-2.656-.995.51-3.186 2.163 2.93z"/><g fill="none" stroke="#000" stroke-linecap="round" stroke-linejoin="round" stroke-width="2"><path d="M33.79 23.71c4.13-1.45 7.09-5.39 7.09-10.02 0-5.87-4.75-10.63-10.62-10.63S19.64 7.82 19.64 13.69c0 4.65 2.99 8.6 7.15 10.04M54.816 50.774c0 9.089-7.367 16.456-16.456 16.456s-16.455-7.367-16.455-16.456M54.816 49.901v-12M47.824 37.607a3.5 3.5 0 1 1 6.994.294M40.827 37.375a3.5 3.5 0 1 1 6.994.293"/><path d="M40.831 37.24a3.5 3.5 0 1 1 6.978.562M33.79 36.896a3.5 3.5 0 0 1 6.985.448M16.836 39.12a3.5 3.5 0 1 1 5.035-4.863M26.79 14.524a3.5 3.5 0 1 1 7 0M33.789 36.859V14.524M26.79 14.524v27.791M23.829 36.471l-1.958-2.214M18.603 41.44c1.953 2.143 3.374 5.167 3.302 9.521M16.836 39.12l1.821 2.38M54.832 50.76c0 9.087-7.368 16.455-16.456 16.455S21.92 59.847 21.92 50.759"/></g></svg>