<svg xmlns="http://www.w3.org/2000/svg" viewBox="0 0 72 72"><path fill="#fcea2b" d="M40.842 37.36a3.5 3.5 0 1 1 6.994.293M26.805 14.509a3.5 3.5 0 1 1 7 0"/><path fill="none" d="m23.844 36.455-1.958-2.213M16.851 39.105l1.821 2.38"/><path fill="#fcea2b" d="M54.836 36.844h-.133a3.49 3.49 0 0 0-3.22-2.602 3.5 3.5 0 0 0-3.527 2.602h-.199a3.49 3.49 0 0 0-3.141-2.827c-1.795-.144-3.366 1.1-3.7 2.827h-.143a3.49 3.49 0 0 0-3.252-3.232 3.49 3.49 0 0 0-3.628 2.739l-.088-22.177h-6.953V38.04l-.843-.328-1.859-2.23c-1.343-1.39-5.717-2.55-7.213-1.326-2.812 2.3 4.616 10.243 3.407 8.916l1.76 4.723c.945 16.916 12.375 19.308 16.272 19.42 9.02.259 16.14-6.328 16.24-18.145h.22zm-20.941.043.02.001v3.894l-.005-.001z"/><g fill="none" stroke="#000" stroke-linecap="round" stroke-linejoin="round" stroke-width="2"><path d="M33.79 23.71c4.13-1.45 7.09-5.39 7.09-10.02 0-5.87-4.75-10.63-10.62-10.63S19.64 7.82 19.64 13.69c0 4.65 2.99 8.6 7.15 10.04"/><path d="M33.79 20.57a7.73 7.73 0 0 0 4.2-6.88c0-4.28-3.46-7.74-7.73-7.74s-7.74 3.46-7.74 7.74c0 3.02 1.74 5.64 4.27 6.91M54.816 50.774c0 9.089-7.367 16.456-16.456 16.456s-16.455-7.367-16.455-16.456M54.816 49.901v-12M47.824 37.607a3.5 3.5 0 1 1 6.994.294M40.827 37.375a3.5 3.5 0 1 1 6.994.293"/><path d="M40.831 37.24a3.5 3.5 0 1 1 6.978.562M33.79 36.896a3.5 3.5 0 0 1 6.985.448M16.836 39.12a3.5 3.5 0 1 1 5.035-4.863M26.79 14.524a3.5 3.5 0 1 1 7 0M33.789 36.859V14.524M26.79 14.524v27.791M23.829 36.471l-1.958-2.214M18.603 41.44c1.953 2.143 3.374 5.167 3.302 9.521M16.836 39.12l1.821 2.38M54.832 50.76c0 9.087-7.368 16.455-16.456 16.455S21.92 59.847 21.92 50.759"/></g></svg>