<svg xmlns="http://www.w3.org/2000/svg" viewBox="0 0 72 72"><circle cx="39.882" cy="38.895" r="2.14" fill="#fcea2b"/><circle cx="46.083" cy="38.895" r="2.14" fill="#fcea2b"/><circle cx="52.042" cy="39.45" r="2.14" fill="#fcea2b"/><circle cx="33" cy="12" r="4" fill="#92d3f5"/><circle cx="34" cy="19" r="3" fill="#fcea2b"/><path fill="#fcea2b" d="M33.78 19.045c1.323 0 2.395 1.401 2.395 3.13V38.87c0 1.728-1.072 3.13-2.395 3.13s-2.396-1.402-2.396-3.13V22.175c0-1.729 1.073-3.13 2.396-3.13M28.791 56.671l2.526 3.437q.227.305.54.515l3.97 2.638c.29.192.622.31.966.343l5.62.534c.328.031.66-.016.968-.137l5.234-2.065c.373-.147.698-.399.937-.726l3.565-4.88c.202-.277.337-.6.39-.941l.255-1.61c.21-1.327-.815-2.523-2.14-2.497l-21.533.429c-1.315.026-2.292 1.247-2.045 2.559s.385 1.619.385 1.619c.068.283.19.549.362.782M28.878 49.12a1.92 1.92 0 0 1-1.356-.867l-4.475-7.003-1.22-1.936a1.92 1.92 0 0 1 .284-2.398l.302-.294a1.92 1.92 0 0 1 1.615-.526l3.631.525a1.92 1.92 0 0 1 1.132.593l1.634 1.76c.233.25.395.56.468.894l.546 2.487q.064.294.036.594l-.424 4.452a1.92 1.92 0 0 1-2.172 1.72Z"/><path fill="#fcea2b" d="M31.323 40.34v.106c0 1.01-.865 1.828-1.931 1.828s-1.932.818-1.932 1.827v9.071c0 1.01.865 1.828 1.932 1.828h22.79c1.067 0 1.932-.818 1.932-1.828V40.34c0-1.009-.865-1.827-1.931-1.827H33.254c-1.066 0-1.931.818-1.931 1.827"/><g stroke="#000" stroke-linecap="round" stroke-linejoin="round" stroke-width="2"><path d="M40.568 11.595s7.21 0 14.42 4.807M26.148 11.595s-7.21 0-14.42 4.807"/><path fill="none" d="m54.624 10 1.307 7.239M48.692 18.546l7.239-1.307M12.343 10l-1.307 7.239M18.275 18.546l-7.239-1.307M55.02 50.547c0 7.806-6.328 14.135-14.135 14.135S26.75 58.353 26.75 50.547M55.021 49.796V39.488M49.015 39.236a3.006 3.006 0 1 1 6.007.252M43.004 39.036a3.006 3.006 0 0 1 6.008.252"/><path fill="none" d="M43.008 38.921a3.006 3.006 0 0 1 5.993.482M36.96 38.626a3.007 3.007 0 0 1 6 .384M22.396 40.536a3.006 3.006 0 0 1 4.325-4.178M30.946 19.408a3.006 3.006 0 1 1 6.013 0M36.959 38.594V19.408M30.946 19.408V43.28M28.403 38.26l-1.682-1.902M23.915 42.528c1.677 1.842 2.897 4.439 2.835 8.18M22.396 40.535l1.565 2.045M35.527 13.618a3 3 0 1 0-4.648.503"/></g></svg>