<svg xmlns="http://www.w3.org/2000/svg" viewBox="0 0 72 72"><circle cx="33" cy="12" r="4" fill="#92d3f5"/><g fill="#fcea2b"><path d="M39.955 36.82a2.38 2.38 0 0 1 2.377 2.377v.632h-4.76v-.626a2.385 2.385 0 0 1 2.383-2.384ZM45.81 37.02a2.38 2.38 0 0 1 2.377 2.378v.632h-4.761v-.626a2.385 2.385 0 0 1 2.383-2.383ZM54.032 40.633l-4.067.062v-1.403c0-1.316.807-1.966 2.123-1.966l.157-.022c.938.067 1.787.563 1.787 1.877z"/><path d="m29.152 56.928 1.567 2.285c.137.2.309.373.507.513l4.546 3.207c.257.182.553.301.864.35l4.718.558c.344.053 2.37-.149 2.697-.27l3.188-1.377c.258-.096 1.871-1.178 2.07-1.368l1.966-2.042c.115-.11 1.06-1.495 1.146-1.628l.915-1.917c.19-.29.39-1.049.414-1.396l.29-1.513c.003-.049.173-1.5.173-1.55l.102-8.955a2.04 2.04 0 0 0-2.006-2.036l-14.076-.24a2.04 2.04 0 0 1-2.006-2.038l-.028-16.983-.064-.144c.112-.314.037-.398.048-.75.04-1.294-.65-2.28-2.06-2.363-.826-.049-2.198.771-2.235 1.804-.013.352-.094.67.018.984l-.036 1.604-.045 19.034-.99-1.27a2 2 0 0 0-.114-.134L28.778 37.2a2.04 2.04 0 0 0-1.092-.612l-2.246-.454a2.04 2.04 0 0 0-1.257.146l-.721.332a2.042 2.042 0 0 0-.83 3.01l3.402 4.956q.186.271.277.586l.694 2.386q.05.174.07.354l.435 4.1q.01.105.033.21l.373 1.753q.038.182.11.355l.923 2.232q.081.197.203.375Z"/></g><g stroke="#000" stroke-linecap="round" stroke-linejoin="round" stroke-width="2"><path d="M40.568 11.595s7.21 0 14.42 4.807"/><path fill="none" d="m54.624 10 1.307 7.239M48.692 18.546l7.239-1.307M55.02 50.547c0 7.806-6.328 14.135-14.135 14.135S26.75 58.353 26.75 50.547M55.021 49.796V39.488M49.015 39.236a3.006 3.006 0 1 1 6.007.252M43.004 39.036a3.006 3.006 0 0 1 6.008.252"/><path fill="none" d="M43.008 38.921a3.006 3.006 0 0 1 5.993.482M36.96 38.626a3.007 3.007 0 0 1 6 .384M22.396 40.536a3.006 3.006 0 0 1 4.325-4.178M30.946 19.408a3.006 3.006 0 1 1 6.013 0M36.959 38.594V19.408M30.946 19.408V43.28M28.403 38.26l-1.682-1.902M23.915 42.528c1.677 1.842 2.897 4.439 2.835 8.18M22.396 40.535l1.565 2.045M35.527 13.618a3 3 0 1 0-4.648.503"/></g></svg>