<svg xmlns="http://www.w3.org/2000/svg" viewBox="0 0 72 72"><circle cx="14.229" cy="21.724" r="4" fill="#92d3f5"/><g fill="#fcea2b"><path d="m42.585 52.374.767.287c1.25.468 2.558.77 3.888.897l.375.036a12.7 12.7 0 0 0 5.431-.664 13.4 13.4 0 0 0 4.485-2.653l.906-.81a8 8 0 0 0 1.977-2.718l.978-2.212a7.6 7.6 0 0 0 .642-2.75l.101-2.371a9 9 0 0 0-.496-3.354 4.4 4.4 0 0 0-.432-.87l-1.577-2.53a5 5 0 0 0-.979-1.146l-9.666-8.114-11.279 12.222L22.31 24.422l-.107-.075c-.17-.288-.56-.56-1.088-.743-.893-.193-2.066.474-2.27.69-1.066 1.268-.696 2.026-.228 2.494.27.227.69.753 1.003.87l2.275 2.073 13.132 11.065-3.612.298-2.67 1.71a7.4 7.4 0 0 0-1.075.838l-.21.197a1.8 1.8 0 0 0-.571 1.3c-.006.543.22 1.063.62 1.43l.112.103c.45.412 1.03.655 1.639.687l2.893.152c1.131.06 2.246.295 3.304.698l3.018 1.149"/><path d="m40.854 32.58-2.689 2.688a.13.13 0 0 1-.186 0l-.223-.222a2.04 2.04 0 0 1 0-2.887c.79-.79 2.074-.79 2.864 0l.234.234a.13.13 0 0 1 0 .186M45.05 28.11l-2.689 2.69a.13.13 0 0 1-.186 0l-.223-.223a2.04 2.04 0 0 1 0-2.886c.79-.79 2.074-.79 2.864 0l.234.233a.13.13 0 0 1 0 .187M49.007 23.676l-2.689 2.689a.13.13 0 0 1-.186 0l-.223-.223a2.04 2.04 0 0 1 0-2.886c.79-.79 2.074-.79 2.865 0l.233.234a.13.13 0 0 1 0 .186"/></g><g fill="none" stroke="#000" stroke-linecap="round" stroke-linejoin="round" stroke-width="2"><path d="M57.855 29.586c5.98 5.018 6.76 13.934 1.742 19.914s-13.934 6.76-19.914 1.742M57.28 29.104l-7.896-6.626M45.33 26.917a3.006 3.006 0 1 1 4.055-4.44M41.314 31.393a3.006 3.006 0 1 1 4.054-4.44"/><path d="M41.228 31.316a3.006 3.006 0 1 1 4.222-4.281M37.113 35.76a3.006 3.006 0 0 1 4.152-4.35M29.215 48.143a3.006 3.006 0 0 1-.42-5.998M18.527 28.013a3.007 3.007 0 0 1 3.865-4.606M37.089 35.739 22.392 23.407M18.527 28.013l18.286 15.344M31.333 42.079l-2.538.066M31.718 48.26c2.489-.1 5.263.634 8.088 3.086M29.215 48.143l2.572.116M17.09 20.817a3 3 0 1 0-2.602 3.884M13.524 29.136v19.085M18.696 44.35l-5.201 5.202M8.293 44.351l5.202 5.201"/></g></svg>