<svg xmlns="http://www.w3.org/2000/svg" viewBox="0 0 72 72"><path fill="#d0cfce" d="M20.787 13.748c4.486-1.907 9.793-2.443 15.538-2.257 6.093-.08 11.718.481 16.128 2.738 4.115 1.533 3.636 7.558 3.603 13.558.066 5.122.357 9.398-1.457 13.537-2.018 6.04-5.353 10.528-8.929 14.747a24.2 24.2 0 0 1-4.685 3.521c-1.539.502-3.131.917-4.988.904l-3.452-.398c-2.797-.936-4.442-2.412-6.063-3.9-3.49-3.68-6.747-8.311-9.235-16.108-1.045-3.182-1.92-6.822-1.307-14.457-.035-6.011.546-10.528 4.847-11.878z"/><path fill="none" stroke="#3f3f3f" stroke-linecap="round" d="m32.02 36.1 1.35-10.91M39.85 36.1l-1.01-10.98" transform="matrix(.9998 0 0 .9998 0 -.001)"/><path fill="none" stroke="#9b9b9a" d="M16 36.25c4.697 2.945 9.711 4.327 15.89 0M55.88 36.22c-4.697 2.945-9.711 4.327-15.89 0" transform="matrix(.9998 0 0 .9998 0 -.001)"/><path fill="none" stroke="#000" stroke-linecap="round" stroke-linejoin="round" stroke-width="2" d="M32.02 36.1c-2.187 2.411-1.531 2.89-1.409 3.732 1.997-.32 3.52 1.314 5.322 1.664M39.85 36.1c2.187 2.411 1.531 2.89 1.409 3.732-1.997-.32-3.52 1.314-5.322 1.664" transform="matrix(.9998 0 0 .9998 0 -.001)"/><path d="m36.066 60.49 2.481-.237.155-3.483s.081-1.79.466-3.713c1.055-5.257 1.291-4.882-3.075-4.882h-.027z" class="UnoptimicedTransforms"/><path d="m36.126 60.487-2.481-.237-.155-3.483s-.081-1.791-.466-3.713c-1.055-5.258-1.291-4.882 3.075-4.882h.027z" class="UnoptimicedTransforms"/><path d="M30.776 46.522c-.66-.999.496-1.258 5.603-1.257 4.843 0 5.323.067 5.188.726-.13.634-.807.742-5.328.843-3.214.072-5.287-.046-5.462-.312zM50.903 23.977c.377.22.467-.65.467-1.901 0-1.6-.015-1.714-3.208-2.043-2.207-.143-3.003.02-5.335 1.093-1.508.694-3.307 1.813-3.999 2.488-1.065 1.039-1.18 1.36-.757 2.098.676 1.182 2.053 1.097 3.735-.228 3.047-2.4 6.521-3.143 9.096-1.505zM21.287 23.976c-.377.22-.467-.651-.467-1.902 0-1.6.015-1.714 3.208-2.042 2.207-.143 3.003.02 5.336 1.094 1.507.693 3.306 1.813 3.998 2.487 1.065 1.04 1.18 1.36.757 2.1-.676 1.18-2.053 1.096-3.735-.23-3.047-2.4-6.521-3.143-9.096-1.506zM23.997 31.105c-2.437-.658-1.589-2.353 1.26-2.52 2.377-.141 5.607.471 6.239 1.182.48.541.436.742-.271 1.225-.958.654-4.988.717-7.228.113zm17.427-.113c-1.239-.847-.207-1.794 2.378-2.184 3.847-.58 6.294-.059 6.294 1.34 0 1.266-7.052 1.951-8.672.844"/><path fill="none" stroke="#000" stroke-linecap="round" stroke-linejoin="round" stroke-width="2.5" d="m22.57 38.8 2.911 5.042h7.669l1.512-2.44M49.27 38.78l-2.911 5.042H38.69l-1.512-2.427" transform="matrix(.9998 0 0 .9998 0 -.001)"/><path fill="none" stroke="#000" stroke-linecap="round" stroke-linejoin="round" stroke-width="3" d="M20.79 13.75c4.486-1.907 9.794-2.444 15.54-2.258 6.094-.081 11.72.48 16.13 2.738 4.116 1.533 3.637 7.559 3.604 13.56.066 5.123.357 9.4-1.457 13.54-2.018 6.04-5.354 10.53-8.93 14.75a24.2 24.2 0 0 1-4.686 3.522c-1.539.502-3.132.918-4.989.905l-3.452-.398c-2.798-.936-4.443-2.413-6.064-3.901-3.49-3.68-6.748-8.312-9.237-16.11-1.045-3.183-1.92-6.823-1.307-14.46-.035-6.012.546-10.53 4.848-11.88z" transform="matrix(.9998 0 0 .9998 0 -.001)"/><path fill="none" stroke="#000" stroke-linecap="round" d="m32.02 36.09 1.35-10.91M39.84 36.09l-1.01-10.98"/></svg>