<svg xmlns="http://www.w3.org/2000/svg" viewBox="0 0 72 72"><g fill="none" stroke="#000" stroke-linecap="round" stroke-linejoin="round" stroke-width="2"><path d="m29.757 17.556 1.38 14.5M31.467 41.056l-.432 1-1.161 17.5"/></g><path fill="#fff" d="m46.635 27.113 1.912-7.441 4.909.155 1.55 1.602-5.322 10.23-3.927-.93z"/><path fill="#3f3f3f" stroke="#3f3f3f" stroke-linecap="round" stroke-linejoin="round" stroke-width="2" d="m55.257 15.556-12.798-.005 5.798 3.505h5.5l2 2.5-6.233 10.64.092 3.78 9.64-15.42z"/><path fill="#d0cfce" d="m24.757 42.056-3 19.5.5 1h24l1-1-3-19.5-1-1h-17.5z"/><path fill="#3f3f3f" fill-rule="evenodd" d="M36.078 61.618v-21.5h6.5l1 1 3 19.5-1 1z"/><path fill="#9b9b9a" d="m30.05 41.556-1.293 19.5.215 1h10.353l.432-1-1.295-19.5-.43-1h-7.55z"/><path fill="none" stroke="#3f3f3f" stroke-linejoin="round" stroke-width="2" d="m39.757 61.056-1.294-19.5-.432-1"/><path fill="#d0cfce" fill-rule="evenodd" d="m44.434 32.42 3.038-11.812a3.51 3.51 0 0 0-2.167-4.16l-8.452-3.17a3.5 3.5 0 0 0-1.233-.223h-1.98a3.5 3.5 0 0 0-1.662.42l-5.552 2.986q-.444.239-.938.343l-3.188.673c-2.381.502-3.54 3.216-2.258 5.283l3.498 5.64c.205.329.353.69.44 1.068l.653 2.86a3.51 3.51 0 0 0 3.421 2.727h12.982c1.601 0 3-1.084 3.398-2.635"/><path fill="#3f3f3f" fill-rule="evenodd" d="M33.757 35.056v-22h3l12 4.5-4.5 17.5z"/><path fill="#9b9b9a" d="m39.757 17.556-1.834 17.5h-7.537l-1.63-17.5 4.686-4.5h1.426z"/><path fill="none" stroke="#3f3f3f" stroke-linecap="round" stroke-linejoin="round" stroke-width="2" d="m38.124 34.991 1.633-17.435"/><path fill="#9b9b9a" d="m24.642 18.239-1.518 8.257-5.51-7.485a.66.66 0 0 1 .584-1.038z"/><path fill="#d0cfce" d="M25.757 36.056h18v4h-18z"/><g fill="#3f3f3f"><path d="M35.757 36.056h8v4h-8z"/><path d="M35.757 36.056h8v4h-8z"/></g><path fill="#9b9b9a" d="M31.757 36.056h5v4h-5z"/><path fill="#3f3f3f" d="M31.757 7.056h5l-1 6h-3z"/><g fill="none" stroke="#000" stroke-width="2"><path stroke-linejoin="round" d="m24.757 41.556-3 19.5.5 1h24l1-1-3-19.5-1-1h-17.5z"/><path stroke-linecap="round" stroke-linejoin="round" d="M51.257 15.556h4l4 5-10.25 17.75v-6l6.444-11.32-1.694-1.93h-5.5M39.757 17.556l-1.35 14.5M38.031 40.556l.432 1 1.16 17.5"/><path stroke-linejoin="round" d="M31.757 7.056h5l-1 6h-3z"/><path stroke-linecap="round" stroke-linejoin="round" d="M21.344 17.556h18.413"/><path stroke-linecap="round" d="m25.745 17.63-1.295 7.357M26.757 35.306v2.75M42.757 35.306v4.75"/><path stroke-miterlimit="10" d="M16.88 17.508h4.277l11.5-4.5h3.5l11.857 4.269c.363.13.564.518.462.89l-4.452 16.947h-18.83l-1.3-6.286-7.517-10.33a.623.623 0 0 1 .504-.99Z"/></g></svg>