<svg xmlns="http://www.w3.org/2000/svg" viewBox="0 0 72 72"><path fill="#3f3f3f" d="M59.402 58.136c.299-.732 0-1.552 0-1.552l-3.088-13.713s-7.305-4.462-9.272-5.18l.022 9.259c.006.304-.478 1.071-.712 1.266l-.783 3.072-.002 4.274c-.046.325-.134 2.435-.402 2.581zM30.858 56.236l-.532-4.674-.97-3.629c-.265-.205-.156-1.477-.131-1.811l.116-10.363c-2.671 1.108-10.376 4.284-11.77 5.9-1.569 1.816-4.346 9.923-5.482 14.342-.072.278.128 2.01-.106 2.14l18.868-.008c-.282-.154.04-1.554.007-1.897"/><path fill="#ea5a47" d="M40.93 44.304c0-.438-.343-1.202-.41-1.691-.222-.001-3.845.063-4.2 0-.31.28-.988 2.461-.988 3.066 0 .982.893 2.64 1.168 3.07.137.213-1.168 7.584-1.168 7.584-.056.31-.155 1.663-.41 1.803h6.459l-1.786-9.995s1.335-2.541 1.335-3.837"/><path fill="#fff" d="m35.085 56.367 1.163-8.659c-.377-.662-.9-3.695-.898-3.714.034-.78.605-.872.97-1.381-1.287-.632-6.812-6.605-6.979-6.854 0 0-1.073 13.326-1.251 13.19l1.241 2.708c-.053-.55 1.597 6.47 1.597 6.471l3.97.008c-.073-.04.165-1.647.187-1.77"/><path fill="#d22f27" d="m40.974 55.86-1.338-7.517c-.061-.297.421-.931.615-1.164.325-.397.954-1.447.954-2.417 0-.655-1.278-1.965-1.522-2.175-.135.005-.891.316-.906.316.066.489.26 1.709.26 2.146 0 1.296-.841 3.036-.841 3.036l1.087 10.058 2.098-.007c-.25-.136-.345-1.976-.407-2.276M41.915 58.002"/><path fill="#fff" d="M46.213 39.82c-.271.276-5.056 2.927-5.248 2.975.221.439-.047.918-.035 1.509 0 .01-.472 2.941-.95 3.613l1.16 7.733c.025.123.471 2.44.387 2.486l3.561.007s1.932-6.845 1.854-6.298l.992-4.078c-.182.151-1.721-7.947-1.721-7.947"/><path fill="#fcea2b" d="M54.222 15.293a5 5 0 0 1-4.187.264c-3.029-1.27-6.474-3.82-10.58-4.834-2.849-.7-6.005-.811-8.979 1.267-2.518 1.754-5.229 8.09-4.64 13.479 0 0 .947-2.771 2.89-.291l.6 2.725a19 19 0 0 1-.229-3.1c.138-.815.387-.87 1.16-2.545 1.122-2.431.958-3.65.313-4.268.2.052.376.1.51.146 2.97.974 3.671 1.442 4.53 1.734 2.363.801 7.612 1.372 11.53.957-.091.077-.168.13-.219.14.755 2.297 1.59 5.517 1.68 7.989.022.413 2.025.132 2.025.132.036-1.038.003-4.917-.232-9.01 2.542-1.145 3.828-4.785 3.828-4.785"/><path fill="#f1b31c" d="M44.718 41.356a10.9 10.9 0 0 0 3.842-7.539 41.7 41.7 0 0 0 .164-6.986 17 17 0 0 0-.139-1.53 16 16 0 0 0-.2-1.11c-.023-.111-.04-.224-.064-.335q-.159-.69-.374-1.364l-.008-.026q-.225-.699-.51-1.38a31 31 0 0 1-.931.044 38 38 0 0 1-2.575-.004 45 45 0 0 1-.79-.033l-.028-.001q-.74-.04-1.46-.101-.156-.013-.31-.027a47 47 0 0 1-1.724-.191 39 39 0 0 1-1.064-.156 34 34 0 0 1-.571-.096l-.308-.055a26 26 0 0 1-.788-.16l-.17-.04q-.309-.071-.587-.145l-.193-.051a12 12 0 0 1-.624-.189c-.35-.118-1.503-.502-1.92-.684l-.004-.001c-.47-.177-2.293-1.146-2.302-1.06-.007.072-.981 5.089-1.178 5.445-.229.413-2.148.618-2.933.371-.028-.008-.769.868-.79.895l-.052.07q-.05.075-.098.158l-.007.013a2 2 0 0 0-.096.19v.002a8.3 8.3 0 0 0 .132 2.193c.006.032.018.062.025.094.068.326.15.648.257.964q.18.526.43 1.028c.26.44.594.643.98.878.51.31 1.208.734 1.44 1.748 1.37 5.974 5.537 10.687 9.487 10.728a9.86 9.86 0 0 0 6.041-1.557"/><path fill="none" stroke="#000" stroke-linecap="round" stroke-linejoin="round" stroke-width="2" d="M47.54 38.189c1.81.623 6.21 2.31 8.356 4.628 2.968 3.205 3.479 13.024 3.534 14.32M12.089 57.137c.303-1.177 3.406-13.074 5.481-15.478 1.938-2.246 10.925-5.9 10.925-5.9l1.526.181M45.952 51.704l-.769 5.433M30.858 57.137l-.532-5.575M20.315 57.137v-9.811M53.505 57.137v-8.921M44.115 47.326l2.91.607-.203-9.13"/><path fill="none" stroke="#000" stroke-linecap="round" stroke-linejoin="round" stroke-width="2" d="m31.14 47.326-2.439.83.955-13.288M39.683 42.587s1.314.755 1.314 2.308-1.402 3.246-1.402 3.246l1.85 8.996M34.946 57.137l1.624-8.981s-1.15-1.78-1.15-3.284 1.51-2.467 1.51-2.467M50.354 20.576c.353 3.562.705 8.402.115 8.784l-1.148.75"/><path fill="none" stroke="#000" stroke-linecap="round" stroke-linejoin="round" stroke-width="2" d="M46.921 20.967a16 16 0 0 1 1.47 6.057 38.3 38.3 0 0 1-.15 6.433 10.78 10.78 0 0 1-3.865 7.534 9.8 9.8 0 0 1-6.057 1.6c-4.079-.043-8.179-4.6-9.522-10.453-.23-1.006-1.316-.801-2.1-2.143a8.4 8.4 0 0 1-.862-4.525"/><circle cx="43.199" cy="26.436" r="2"/><circle cx="35.149" cy="26.436" r="2"/><path fill="none" stroke="#000" stroke-linecap="round" stroke-linejoin="round" stroke-miterlimit="10" stroke-width="2" d="M50.035 15.557c-3.029-1.27-6.474-3.82-10.58-4.834-2.849-.7-6.005-.811-8.979 1.267-2.518 1.754-5.229 8.09-4.64 13.479 0 0 .947-2.771 2.89-.291l.6 2.725a19 19 0 0 1-.229-3.1c.138-.815.387-.87 1.16-2.545 1.122-2.431.958-3.65.313-4.268.2.052.376.1.51.146 2.97.974 3.671 1.442 4.53 1.734 3.088 1.047 11.113 1.707 14.641.277 2.64-1.068 3.971-4.854 3.971-4.854a5 5 0 0 1-4.187.264"/><path fill="none" stroke="#000" stroke-linecap="round" stroke-linejoin="round" stroke-width="2" d="M39.72 33.137A1.57 1.57 0 0 1 40.93 35l-.253 1.189a1.57 1.57 0 0 1-1.863 1.209h0a1.57 1.57 0 0 1-1.21-1.863l.252-1.19a1.57 1.57 0 0 1 1.864-1.208"/></svg>