<svg xmlns="http://www.w3.org/2000/svg" viewBox="0 0 72 72"><path fill="#3f3f3f" d="M26 36h20v14H26z"/><path fill="#fcea2b" d="M51.6 47.4A7.67 7.67 0 0 0 53 43a7.99 7.99 0 0 0-7-7.9v10c-.3 0-.7-.1-1-.1l-12 2v1.3a18 18 0 0 1-6-3.3 3.4 3.4 0 0 0-1 .1v-10a8.07 8.07 0 0 0-7 7.9 7.44 7.44 0 0 0 1.4 4.4A8.64 8.64 0 0 0 17 54v5h38v-5a8.8 8.8 0 0 0-3.4-6.6"/><path fill="#a57939" d="M28.4 40a1.33 1.33 0 0 1-.3.8 2.3 2.3 0 0 1-.5.5c.5 1 1.1 2.3.4 3.4a7 7 0 0 1-.5.6c.5 1.1 1.1 2.3.4 3.4a2.7 2.7 0 0 1-.5.6c.5 1.1 1.1 2.3.4 3.4a1.7 1.7 0 0 1-.6.6v.1c.5 1 1.1 2.2.4 3.3a1.7 1.7 0 0 1-.6.6c0 .1.1.1.1.2.5 1 1.1 2.2.5 3.2a1.97 1.97 0 0 1-1.7.9 1.367 1.367 0 0 1-1.4-1.4.98.98 0 0 1 .4-.9c-.1-.2-.2-.3-.2-.4-.5-1-1.1-2.2-.5-3.2.1-.2.3-.3.5-.5 0-.1-.1-.2-.1-.3-.5-1-1.1-2.2-.4-3.3a2.3 2.3 0 0 1 .5-.5c0-.1-.1-.1-.1-.2-.5-1.1-1.1-2.3-.4-3.4.1-.1.2-.3.4-.5a.1.1 0 0 0-.1-.1c-.5-1.1-1.2-2.3-.4-3.5.1-.1.2-.3.4-.4v-.1c-.5-1-1.2-2.4-.4-3.5.1-.1.2-.3.3-.4-.5-1.1-1.2-2.4-.4-3.6.1-.1.1-.2.2-.3-.6-1.1-1.2-2.5-.4-3.8l-.3-1.3C22.9 21 27 14.5 36 14.5S49.1 21 48.5 30l-.2 1.1c.8 1.3.2 2.7-.4 3.8.1.1.2.2.2.3.8 1.2.1 2.6-.4 3.6.2.2.3.3.3.4.7 1.2.1 2.5-.4 3.5v.1l.4.4c.7 1.1.1 2.4-.4 3.5a.1.1 0 0 1-.1.1 1.8 1.8 0 0 1 .4.5c.7 1.1.1 2.3-.4 3.4 0 .1-.1.1-.1.2.2.2.4.3.5.5.7 1.1.1 2.2-.4 3.3 0 .1-.1.2-.1.3l.5.5c.6 1 .1 2.1-.5 3.2-.1.1-.1.3-.2.4a1.5 1.5 0 0 1 .4.9 1.367 1.367 0 0 1-1.4 1.4 1.77 1.77 0 0 1-1.7-.9c-.6-1-.1-2.1.5-3.2 0-.1.1-.1.1-.2a1.7 1.7 0 0 1-.6-.6c-.7-1.1-.1-2.2.4-3.3v-.1a1.7 1.7 0 0 1-.6-.6c-.7-1.1-.1-2.3.4-3.4a1.33 1.33 0 0 1-.5-.6c-.7-1.1-.1-2.3.4-3.4a1.33 1.33 0 0 1-.5-.6c-.7-1.1-.1-2.4.4-3.4l-.5-.5a1.33 1.33 0 0 1-.3-.8H28.4Z"/><path fill="#fadcbc" d="M36 20c-4.1-1.5-7.1-.2-9.1 2.2A15.3 15.3 0 0 0 25 30c0 7.2 3.7 13 11 13s11-5.8 11-13a15.3 15.3 0 0 0-1.9-7.8c-2-2.4-5-3.7-9.1-2.2"/><path fill="none" stroke="#000" stroke-linecap="round" stroke-linejoin="round" stroke-width="2" d="M36 20c8-3 12 5 12 10 .6-9-3-15.5-12-15.5M36 20c-8-3-12 5-12 10-.6-9 3-15.5 12-15.5"/><path d="M41.6 29a1.8 1.8 0 1 1-1.8-1.8 1.793 1.793 0 0 1 1.8 1.8M33.6 29a1.8 1.8 0 1 1-1.8-1.8 1.793 1.793 0 0 1 1.8 1.8M38.5 51a1.5 1.5 0 1 1-1.5-1.5 1.54 1.54 0 0 1 1.5 1.5"/><path fill="none" stroke="#000" stroke-linecap="round" stroke-linejoin="round" stroke-width="2" d="M33 36.5a6.67 6.67 0 0 0 6 0"/><path fill="none" stroke="#000" stroke-miterlimit="10" stroke-width="2" d="M26.8 22.3A15.65 15.65 0 0 0 25 30c0 7.2 3.7 13 11 13s11-5.8 11-13a16.3 16.3 0 0 0-1.8-7.8"/><path fill="none" stroke="#000" stroke-linecap="round" stroke-linejoin="round" stroke-width="2" d="M43.6 40a1.33 1.33 0 0 0 .3.8 2.3 2.3 0 0 0 .5.5c-.5 1-1.1 2.3-.4 3.4a7 7 0 0 0 .5.6c-.5 1.1-1.1 2.3-.4 3.4a2.7 2.7 0 0 0 .5.6h0c-.5 1.1-1.1 2.3-.4 3.4a1.7 1.7 0 0 0 .6.6v.1c-.5 1-1.1 2.2-.4 3.3a1.7 1.7 0 0 0 .6.6c0 .1-.1.1-.1.2-.5 1-1.1 2.2-.5 3.2a1.97 1.97 0 0 0 1.7.9 1.367 1.367 0 0 0 1.4-1.4.98.98 0 0 0-.4-.9c.1-.2.2-.3.2-.4.5-1 1.1-2.2.5-3.2-.1-.2-.3-.3-.5-.5 0-.1.1-.2.1-.3.5-1 1.1-2.2.4-3.3a2.3 2.3 0 0 0-.5-.5c0-.1.1-.1.1-.2.5-1.1 1.1-2.3.4-3.4-.1-.1-.2-.3-.4-.5a.1.1 0 0 1 .1-.1c.5-1.1 1.2-2.3.4-3.5-.1-.1-.2-.3-.4-.4v-.1c.5-1 1.2-2.4.4-3.5-.1-.1-.2-.3-.3-.4.5-1.1 1.2-2.4.4-3.6-.1-.1-.1-.2-.2-.3.6-1.1 1.2-2.5.4-3.8a2.56 2.56 0 0 0-1.3-1M28.4 40a1.33 1.33 0 0 1-.3.8 2.3 2.3 0 0 1-.5.5c.5 1 1.1 2.3.4 3.4a7 7 0 0 1-.5.6c.5 1.1 1.1 2.3.4 3.4a2.7 2.7 0 0 1-.5.6h0c.5 1.1 1.1 2.3.4 3.4a1.7 1.7 0 0 1-.6.6v.1c.5 1 1.1 2.2.4 3.3a1.7 1.7 0 0 1-.6.6c0 .1.1.1.1.2.5 1 1.1 2.2.5 3.2a1.97 1.97 0 0 1-1.7.9 1.367 1.367 0 0 1-1.4-1.4.98.98 0 0 1 .4-.9c-.1-.2-.2-.3-.2-.4-.5-1-1.1-2.2-.5-3.2.1-.2.3-.3.5-.5 0-.1-.1-.2-.1-.3-.5-1-1.1-2.2-.4-3.3a2.3 2.3 0 0 1 .5-.5c0-.1-.1-.1-.1-.2-.5-1.1-1.1-2.3-.4-3.4.1-.1.2-.3.4-.5a.1.1 0 0 0-.1-.1c-.5-1.1-1.2-2.3-.4-3.5.1-.1.2-.3.4-.4v-.1c-.5-1-1.2-2.4-.4-3.5.1-.1.2-.3.3-.4-.5-1.1-1.2-2.4-.4-3.6.1-.1.1-.2.2-.3-.6-1.1-1.2-2.5-.4-3.8a2.56 2.56 0 0 1 1.3-1"/><path fill="none" stroke="#000" stroke-linecap="round" stroke-linejoin="round" stroke-width="2" d="M20.3 47.4a8.094 8.094 0 0 1 3.3-11.7M27.7 45.5a16.1 16.1 0 0 0 5.3 2.8"/><path fill="none" stroke="#000" stroke-linecap="round" stroke-linejoin="round" stroke-width="2" d="M17 58v-4c0-4 3.1-7.3 6.9-8.5M44.3 45.1 33 47v11M55 58v-4c0-4-3.1-7.3-6.9-8.5"/><path fill="none" stroke="#000" stroke-linecap="round" stroke-linejoin="round" stroke-width="2" d="M51.7 47.4A7.58 7.58 0 0 0 53 43a8.14 8.14 0 0 0-4.6-7.3"/></svg>