<svg xmlns="http://www.w3.org/2000/svg" viewBox="0 0 72 72"><path fill="#9b9b9a" d="M16.564 17.065h37.685l3.125 10.846h2.758v14.086H56.96l-6.572 14.982h-31.16L13.255 42.77h-2.206V26.532h2.206z"/><circle cx="25.388" cy="29.275" r="5.883" fill="#d0cfce"/><circle cx="27.41" cy="46.11" r="4.044" fill="#d0cfce"/><circle cx="44.322" cy="36.023" r="7.85" fill="#d0cfce"/><path fill="#fff" d="M20.75 15.944c0-1.595 1.175-2.888 2.625-2.888S26 14.35 26 15.944M28.625 15.944c0-1.595 1.175-2.888 2.625-2.888s2.625 1.293 2.625 2.888M36.5 15.944c0-1.595 1.175-2.888 2.625-2.888s2.625 1.293 2.625 2.888M44.375 15.944c0-1.595 1.175-2.888 2.625-2.888s2.625 1.293 2.625 2.888"/><g fill="none" stroke="#000" stroke-linecap="round" stroke-linejoin="round" stroke-miterlimit="10" stroke-width="2"><path d="M16.564 17.065h37.685l3.125 10.846h2.758v14.086H56.96l-6.572 14.982h-31.16L13.255 42.77h-2.206V26.532h2.206z"/><circle cx="25.388" cy="29.275" r="5.883"/><circle cx="27.41" cy="46.11" r="4.044"/><circle cx="44.322" cy="36.023" r="7.85"/><path d="m25.388 23.392 18.934 4.781M19.505 29.275s2.252 14.997 3.86 18.444 4.045 2.435 4.045 2.435c4.044-.367 20.91-7.384 20.91-7.384M20.75 15.944c0-1.595 1.175-2.888 2.625-2.888S26 14.35 26 15.944M28.625 15.944c0-1.595 1.175-2.888 2.625-2.888s2.625 1.293 2.625 2.888M36.5 15.944c0-1.595 1.175-2.888 2.625-2.888s2.625 1.293 2.625 2.888M44.375 15.944c0-1.595 1.175-2.888 2.625-2.888s2.625 1.293 2.625 2.888"/></g></svg>