<svg xmlns="http://www.w3.org/2000/svg" viewBox="0 0 72 72"><path d="M20 20h4v4h-4zM20 48h4v4h-4zM48 20h4v4h-4z"/><g stroke="#000" stroke-linejoin="round" stroke-width="2"><path fill="#fff" d="M12 12h48v48H12z"/><path fill="#3f3f3f" d="M20 20h4v4h-4zM20 48h4v4h-4zM48 20h4v4h-4z"/></g><circle cx="18" cy="40" r="1"/><circle cx="16" cy="38" r="1"/><circle cx="20" cy="38" r="1"/><circle cx="34" cy="46" r="1"/><circle cx="40" cy="38" r="1"/><circle cx="40" cy="28" r="1"/><circle cx="32" cy="16" r="1"/><circle cx="46" cy="32" r="1"/><circle cx="52" cy="32" r="1"/><circle cx="52" cy="44" r="1"/><circle cx="54" cy="48" r="1"/><circle cx="56" cy="56" r="1"/><circle cx="32" cy="56" r="1"/><circle cx="44" cy="56" r="1"/><circle cx="46" cy="54" r="1"/><circle cx="44" cy="52" r="1"/><circle cx="16" cy="32" r="1"/><circle cx="40" cy="54" r="1"/><path fill="none" stroke="#000" stroke-linejoin="round" stroke-width="2" d="M12 12h48v48H12z"/><path fill="none" stroke="#000" stroke-linejoin="round" stroke-width="2" d="M16 16h12v12H16z"/><path fill="none" stroke="#000" stroke-linejoin="round" stroke-width="2" d="M20 20h4v4h-4zM16 44h12v12H16z"/><path fill="none" stroke="#000" stroke-linejoin="round" stroke-width="2" d="M20 48h4v4h-4zM44 16h12v12H44z"/><path fill="none" stroke="#000" stroke-linejoin="round" stroke-width="2" d="M48 20h4v4h-4z"/><path fill="none" stroke="#000" stroke-linecap="round" stroke-linejoin="round" stroke-width="2" d="M18 36v-2h8M20 34v-2M24 34v6M24 38h2M38 32v-2M56 34h-2M42 42h2v-2M28 32h2M34 32h6M38 16v4h-2v8M36 26h-4v2M36 20h-4"/><path fill="none" stroke="#000" stroke-linecap="round" stroke-linejoin="round" stroke-width="2" d="M36 22h-2v-4M28 36h8M30 36v4h-2M34 36v2M32 44v-2h6v6h4v-2h8v10"/><path fill="none" stroke="#000" stroke-linecap="round" stroke-linejoin="round" stroke-width="2" d="M36 40v4h6m4-4h-4v8h2M48 34v4h2v4h-2v4M50 38v-2h2M52 50h-4v2M32 52h2v2h2v-4M56 32v6h-2M44 36v-2M56 42v2M54 52h2M40 22v2"/></svg>