<svg xmlns="http://www.w3.org/2000/svg" viewBox="0 0 72 72"><path fill="#fff" d="M5 17h62v38H5z"/><g stroke="#000" stroke-linejoin="round" stroke-width="2"><path fill="none" d="M5 17h62v38H5z"/><path fill="none" stroke-linecap="round" d="M9 21v31M12 21v31M12 21v31M20 21v29M28 21v29"/><path stroke-linecap="round" d="M15 50V21h2v29zM23 50V21h2v29zM31 50V21h1v29z"/><path fill="none" stroke-linecap="round" d="M46 21v29M49 21v29M57 21v29"/><path stroke-linecap="round" d="M41 50V21h2v29zM52 50V21h2v29z"/><path fill="none" stroke-linecap="round" d="M60 21v31M63 21v31M35 21v31M38 21v31"/></g></svg>