<svg xmlns="http://www.w3.org/2000/svg" viewBox="0 0 72 72"><path fill="#3f3f3f" d="M38 18v-3h-1v-2h-2v2h-1v3h-1v8h6v-8zM20 38h9v-6h.049l3.475-4 1.142-1.314h-2.295l-9.258 5.143a13.3 13.3 0 0 1-1.028 3.085 5 5 0 0 1-3.086 2.057H18V38ZM50.914 34.914a13.3 13.3 0 0 1-1.028-3.085l-9.257-5.143h-2.295L39.476 28l3.475 4H43v6h11v-1.029a5 5 0 0 1-3.086-2.057"/><path fill="#e67a94" d="m43 38 2-6h-2.049l-3.475-4L36 24l-3.476 4-3.475 4H27l2 6h-9v22h32V38z"/><path fill="#d0cfce" d="M20 51h32v10H20z"/><circle cx="36" cy="32" r="2" fill="#fff"/><rect width="5" height="8" x="34" y="52" fill="#a57939" rx="1.409"/><g fill="none" stroke="#000" stroke-width="2"><path stroke-linecap="round" stroke-linejoin="round" d="M39 26v-8h-1v-3h-1v-2h-2v2h-1v3h-1v8"/><rect width="5" height="8" x="34" y="52" stroke-linecap="round" stroke-linejoin="round" rx="1.409"/><path stroke-linecap="round" stroke-linejoin="round" d="M36 8v5M33.65 42.085v2.113M36.65 42.085v2.113M39.65 42.085v2.113M33.65 47.085v2.113M36.65 47.085v2.113M39.65 47.085v2.113M23.65 41.085v2.113M26.65 41.085v2.113M23.65 46.085v2.113M26.65 46.085v2.113M45.65 41.085v2.113M48.65 41.085v2.113M45.65 46.085v2.113M48.65 46.085v2.113M33.65 37.085v2.113M36.65 37.085v2.113M39.65 37.085v2.113M23.65 53.085v2.113M26.65 53.085v2.113M45.65 53.085v2.113M48.65 53.085v2.113M43 38l2-6h-2.049l-3.475-4L36 24l-3.476 4-3.475 4H27l2 6h-9v22h32V38z"/><circle cx="36" cy="32" r="2" stroke-miterlimit="10"/><path stroke-linecap="round" stroke-linejoin="round" d="M33.666 26.686h-2.295l-9.258 5.143a13.3 13.3 0 0 1-1.028 3.085 5 5 0 0 1-3.086 2.057H18V38h2M52 38h2v-1.029a5 5 0 0 1-3.086-2.057 13.3 13.3 0 0 1-1.028-3.085l-9.257-5.143h-2.295"/></g></svg>