<svg xmlns="http://www.w3.org/2000/svg" viewBox="0 0 72 72"><path fill="#d0cfce" d="M12 13h48v47H12z"/><path fill="#d0cfce" stroke="#9b9b9a" stroke-linejoin="round" stroke-width="2" d="M44 27h10l-2 5h-6z"/><path fill="none" stroke="#9b9b9a" stroke-linejoin="round" stroke-width="2" d="M43.5 34.5 40 31h-4v-4h8M42 38h-6v-7M54.5 34.5 58 31h1M56 38h3M56 45h3M56 52h3M36 45h5M36 52h5"/><path fill="#a57939" fill-rule="evenodd" d="M42 39a7 7 0 1 1 14 0v21H42z"/><path fill="#3f3f3f" d="M17 40h16v14H17z"/><path fill="#6a462f" d="M50 40h4v18h-4zM44 40h4v18h-4z"/><path fill="#6a462f" fill-rule="evenodd" d="M44 39a5 5 0 0 1 10 0z"/><path fill="none" stroke="#9b9b9a" stroke-width="2" d="M54 27h5"/><g fill="none" stroke-width="4"><path stroke="#ea5a47" d="M17 37V27M25 37V27M33 37V27"/><path stroke="#fff" d="M29 37V27M21 37V27"/><path stroke="#d22f27" d="M17 39v-2M25 39v-2M33 39v-2"/><path stroke="#d0cfce" d="M29 39v-2M21 39v-2"/></g><path fill="none" stroke="#000" stroke-linecap="round" stroke-width="2" d="M18 54h14"/><path d="M15 27v-1a1 1 0 0 0-1 1zm20 0h1a1 1 0 0 0-1-1zM20 38a1 1 0 1 0-2 0zm4 0a1 1 0 1 0-2 0zm4 0a1 1 0 1 0-2 0zm4 0a1 1 0 1 0-2 0zM15 28h20v-2H15zm1 10V27h-2v11zm1 1a1 1 0 0 1-1-1h-2a3 3 0 0 0 3 3zm1-1a1 1 0 0 1-1 1v2a3 3 0 0 0 3-3zm3 1a1 1 0 0 1-1-1h-2a3 3 0 0 0 3 3zm1-1a1 1 0 0 1-1 1v2a3 3 0 0 0 3-3zm3 1a1 1 0 0 1-1-1h-2a3 3 0 0 0 3 3zm1-1a1 1 0 0 1-1 1v2a3 3 0 0 0 3-3zm3 1a1 1 0 0 1-1-1h-2a3 3 0 0 0 3 3zm1-1a1 1 0 0 1-1 1v2a3 3 0 0 0 3-3zm3 1a1 1 0 0 1-1-1h-2a3 3 0 0 0 3 3zm1-1a1 1 0 0 1-1 1v2a3 3 0 0 0 3-3zm0-11v11h2V27z"/><path fill="none" stroke="#000" stroke-linecap="round" stroke-width="2" d="M35 59V43M15 59V43"/><path d="M49 33a6 6 0 0 0-6 6h-2a8 8 0 0 1 8-8zm6 6a6 6 0 0 0-6-6v-2a8 8 0 0 1 8 8zm0 20.005V39h2v20.005zM43 39v20.007h-2V39z"/><path fill="none" stroke="#000" stroke-linejoin="round" stroke-width="2" d="M12 13h48v47H12z"/><g fill="none" stroke="#000" stroke-linecap="round" stroke-linejoin="round" stroke-width="2"><path d="M50.03 16h-4v7h4M46.03 19.5h3"/></g><g fill="none" stroke="#000" stroke-linecap="round" stroke-linejoin="round" stroke-width="2"><path d="M57.03 16h-4v7h4M53.03 19.5h3"/></g><g fill="none" stroke="#000" stroke-linecap="round" stroke-linejoin="round" stroke-width="2"><path d="m29.03 23-3-7-3 7M24.03 21.32h4"/></g><path fill="none" stroke="#000" stroke-linecap="round" stroke-linejoin="round" stroke-width="2" d="M35.03 19.5h-3V23v-7h4M42.2 19.5h-3V23v-7h4"/><g fill="none" stroke="#000" stroke-linecap="round" stroke-linejoin="round" stroke-width="2"><path d="M16 16v7M16.02 20.539l4-4.539M17.986 18.357l2.397 4.647"/></g></svg>