<svg xmlns="http://www.w3.org/2000/svg" viewBox="0 0 72 72"><path fill="none" stroke="#000" stroke-linecap="round" stroke-linejoin="round" stroke-width="2" d="m27 31 3-1 2 2 3-2 2 1 2-1 2 2 1-1"/><path fill="#fff" d="M21.38 27.63c1.636.377 3.012.948 4.016 1.579-2.246.631-3.65 13.32-10.57 17.69-4.659-2.517-7.075-9.495-4.782-13.8 2.43-8.036 10.83-5.355 11.33-5.47zM58.01 33.3c.602.12 3.002-.243 4.54.451 3.639 1.302 4.828 4.206 4.63 8.066.012 1.955-1.178 3.259-2.724 4.006-1.337.647-2.902.749-4.3.247-2.129-.766-2.103-2.071-2.748-1.71-5.214 2.912-14.63-7.578-13.72-12.99 4.296-10.07 15.93-1.789 14.32 1.932z"/><path fill="#3f3f3f" d="m16.76 45.06 2.9-10.63 1.93 4.83 5.8-15.46 2.49 3 5.43-14.35 2.71 5.56 2.9 9.66 1.93-3.87 2.9 12.56 2.89-6.76 2.9 15.46"/><path fill="#fff" d="m44.05 29-3.13 1.57-2.9-.97-1.94-.97-3.86 1.94-1.93-1.94-2.9.97-1.24-2.48 1.24-3.32 2.49 3 5.43-14.35 2.71 5.56 2.9 9.66 1.93-3.87zM38.56 40.49l3.219-1.266s3.964-.933 6.863.034a8.76 8.76 0 0 1 5.797 8.694c.017 2.846-.528 6.482-2.412 8.614-2.843 2.527-5.311 2.811-8.038 2.935-1.547.122-3.918-.135-4.749-1.445l-1.522-2.154c-1.403 1.931-4.082 3.491-6.465 3.643-2.281 0-4.895-.474-6.263-2.299l-2.016-2.255a3.68 3.68 0 0 1-3.314 1.655c-1.932 0-5.797-.966-5.797-5.797-.196-3.444 2.529-7.395 5.963-7.728l3.057.166c-.625-2.6 2.355-6.929 7.403-6.929 2.325 0 6.707.895 8.274 4.131z"/><g fill="none" stroke="#000" stroke-linecap="round" stroke-width="2"><path stroke-linejoin="round" d="M61.2 34.43a6.43 6.43 0 0 1 5.797 6.763c0 4.83-3.864 5.797-5.797 5.797a3.54 3.54 0 0 1-3.864-3.864M21.59 28.63s-3.864-.966-6.763 0-4.83 2.898-4.83 7.729a11.57 11.57 0 0 0 2.898 7.729M16.76 45.06l2.9-10.63 1.93 4.83 5.8-15.46 2.49 3 5.43-14.35 2.71 5.56 2.9 9.66 1.93-3.87 2.9 12.56 2.89-6.76L51 40"/><path stroke-linejoin="round" d="M19.66 44.09a6.43 6.43 0 0 0-5.797 6.763c0 4.83 3.864 5.797 5.797 5.797a3.54 3.54 0 0 0 3.864-3.864M25.46 56.65a7.25 7.25 0 0 0 5.797 2.898c3.864 0 6.763-3.864 6.763-4.83M39.95 57.62a4.19 4.19 0 0 0 3.864 1.932 5.175 5.175 0 0 0 4.83-4.83M23.53 45.06c-1.932-1.932.966-8.695 6.763-8.695 2.898 0 8.695.966 8.695 6.763M41.88 40.23s3.864-1.932 6.763-.966a8.76 8.76 0 0 1 5.797 8.695 11.57 11.57 0 0 1-2.898 7.729"/><path stroke-miterlimit="10" d="M57.34 35.4c1.932-1.932-.966-8.695-6.763-8.695a10.77 10.77 0 0 0-6.6 1.993"/></g></svg>