<svg xmlns="http://www.w3.org/2000/svg" viewBox="0 0 72 72"><path fill="#f4aa41" d="m50.846 56-9.8-10.557.352-1.979 2.423-2.892 2.298-1.182 4.244-5.064L57.431 56z"/><path fill="#e27022" d="M51.957 55 25.968 26.963 35.078 56h5.306z"/><path fill="#f4aa41" d="m33.477 35.064-7.509-8.101 2.642 8.101h4.867"/><path fill="#f4aa41" d="m2.473 55 23.495-28.037L35.111 55z"/><path fill="#fcea2b" d="m19.18 35.064 6.788-8.101 2.642 8.101z"/><path fill="#e27022" d="M69.527 55 50.363 34.326 57.105 55h12.422"/><g fill="none" stroke="#000" stroke-linecap="round" stroke-linejoin="round" stroke-width="2"><path d="m44.586 41.219 5.777-6.893L57.105 55"/><path d="M69.527 55 50.363 34.326 57.105 55h12.422M2.473 55l23.495-28.037L35.111 55zM39.449 55h12.508L25.968 26.963"/></g></svg>