<svg xmlns="http://www.w3.org/2000/svg" viewBox="0 0 72 72"><path fill="#d0cfce" d="M64.295 54.96v-9.227H7.705v9.227h5.592v-.544a4.07 4.07 0 1 1 8.14 0v.544h4.282v-.544a4.07 4.07 0 1 1 8.14 0v.544h4.282v-.544a4.07 4.07 0 1 1 8.14 0v.544h4.283v-.544a4.07 4.07 0 1 1 8.14 0v.544Z"/><path fill="#b1cc33" d="M56.97 36.507a3.56 3.56 0 0 0-3.557-3.558H18.587a3.56 3.56 0 0 0-3.558 3.558z"/><path fill="#d0cfce" d="M13.125 36.506h45.75v9.227h-45.75z"/><path fill="#b1cc33" d="M47.657 23.722V22.72h-3.812l-.45 1.002H24.343a3.56 3.56 0 0 0-3.558 3.558h30.43a3.56 3.56 0 0 0-3.558-3.558"/><path fill="#d0cfce" d="M18.707 32.948V27.28h22.734l.571-1.001h11.281v6.669z"/><path fill="#b1cc33" d="M58.715 42.175h-17.24v-1.002H23.08v1.002h-9.794a3.56 3.56 0 0 0-3.558 3.558h52.545a3.56 3.56 0 0 0-3.559-3.558"/><g fill="none" stroke="#000" stroke-linecap="round" stroke-linejoin="round" stroke-width="2"><path d="M13.125 42.175v-5.669h45.75v5.669M18.707 32.948V27.28h23.305M31.535 18.098a6.355 6.355 0 0 0-7.214 0"/><path d="M30.358 13.057a7.87 7.87 0 0 0-6.037 5.041M15.943 15.853a8.36 8.36 0 0 1 8.378 2.245"/><path d="M18.423 19.212a5.92 5.92 0 0 1 5.898-1.114M21.372 12.84c2.698 1.092 2.95 5.258 2.95 5.258M45.287 29.78a7.56 7.56 0 0 1 8.006-1.113M47.657 23.722c4.347 0 5.636 4.945 5.636 4.945M61.672 26.421a8.36 8.36 0 0 0-8.379 2.246"/><path d="M59.192 29.78a5.92 5.92 0 0 0-5.899-1.113M56.242 23.41c-2.698 1.091-2.949 5.257-2.949 5.257M56.97 36.507a3.56 3.56 0 0 0-3.557-3.558H18.587a3.56 3.56 0 0 0-3.558 3.558h0M64.295 54.96v-9.227H7.705v9.227h5.592v-.544a4.07 4.07 0 1 1 8.14 0v.544h4.282v-.544a4.07 4.07 0 1 1 8.14 0v.544h4.282v-.544a4.07 4.07 0 1 1 8.14 0v.544h4.283v-.544a4.07 4.07 0 1 1 8.14 0v.544ZM24.321 18.098v14.851M53.293 28.667v7.84M23.08 42.175h-9.794a3.56 3.56 0 0 0-3.558 3.558h52.545a3.56 3.56 0 0 0-3.559-3.558H41.476"/><path d="M38.013 42.156c-3.194 0-5.387 3.577-5.387 3.577a11 11 0 0 0-.06-4.904M26.393 42.74a6.41 6.41 0 0 1 6.233 2.994M43.845 23.722H24.343a3.56 3.56 0 0 0-3.558 3.558h21.227"/></g></svg>