<svg xmlns="http://www.w3.org/2000/svg" viewBox="0 0 72 72"><path fill="#9b9b9a" d="M27.504 27.245h16.992v13.25H27.504z"/><path fill="#d0cfce" d="M20.687 24.142h30.627v3.103H20.687zM49.443 24.142l-9.392-9.391h-8.129l-9.365 9.364zM53.742 42.549v13.807H18.258V42.549l2.054-2.054h31.376zM53.739 56.361l1.501 1.501v2.995H16.76v-2.995l1.501-1.501z"/><g fill="none" stroke="#000" stroke-linecap="round" stroke-linejoin="round" stroke-width="2"><path d="M20.687 24.142h30.627v3.103H20.687zM49.443 24.142l-9.392-9.391h-8.129l-9.365 9.364zM21.84 27.245v13.25M27.504 27.245v13.25M33.168 27.245v13.25M38.832 27.245v13.25M44.496 27.245v13.25M50.16 27.245v13.25M53.742 42.549v13.807H18.258V42.549l2.054-2.054h31.376zM53.739 56.361l1.501 1.501v2.995H16.76v-2.995l1.501-1.501zM36 11.373V7.819M31.922 14.751l-.962-4.782M40.051 14.751l.962-4.782M34.011 12.748V9.999M37.989 9.999v2.749"/></g></svg>