<svg xmlns="http://www.w3.org/2000/svg" viewBox="0 0 72 72"><g fill="none" stroke="#000" stroke-linecap="round" stroke-linejoin="round" stroke-miterlimit="10" stroke-width="2"><path d="M8.042 29h56M8.042 26v8M64.042 26v8M36.042 26v8M22.042 26v6M50.042 26v6M8.009 45.905a1.916 1.916 0 0 1-1.916-1.915v-3.17c0-1.057.858-1.915 1.916-1.915h0c1.057 0 1.915.858 1.915 1.916v3.169a1.916 1.916 0 0 1-1.915 1.915M61.833 40.612a2.15 2.15 0 0 1 2.107-1.717h0c.594 0 1.131.24 1.52.63.606.605.55 1.61-.018 2.251l-3.652 4.119h4.3M35.12 40.412l1.939-1.451v7"/></g></svg>