<svg xmlns="http://www.w3.org/2000/svg" viewBox="0 0 72 72"><g fill="#fcea2b"><circle cx="21" cy="17" r="3"/><circle cx="55.992" cy="26.324" r="3"/><circle cx="29.993" cy="47.008" r="3"/><path d="M17.103 25.637a5.32 5.32 0 0 1 3.3-1.324l.288-.012a6.28 6.28 0 0 1 4.59 1.728 4.33 4.33 0 0 1 1.283 2.405L27.005 31l-12.081-.007.222-1.687a5.92 5.92 0 0 1 1.957-3.668M51.759 35.314l.593-.523a4.6 4.6 0 0 1 2.846-1.141l.675-.028a5.98 5.98 0 0 1 4.37 1.646 4.72 4.72 0 0 1 1.397 2.618l.42 2.44-12.081-.008.291-2.213a4.5 4.5 0 0 1 1.489-2.79ZM26.688 55.172c.568-.5 1.291-.791 2.048-.822l.452-.018a7.58 7.58 0 0 1 5.54 2.085c.416.396.693.916.79 1.482l.535 3.108-12.081-.008.129-.977a7.83 7.83 0 0 1 2.587-4.85"/></g><g fill="none" stroke="#000" stroke-width="2"><circle cx="21" cy="17" r="3" stroke-miterlimit="10"/><path stroke-linecap="round" stroke-linejoin="round" d="M15 30s1-4.311 3-5.311 4-1 6 0S27 30 27 30"/><circle cx="55.992" cy="26.324" r="3" stroke-miterlimit="10"/><path stroke-linecap="round" stroke-linejoin="round" d="M49.992 39.324s1-4.311 3-5.311 4-1 6 0 3 5.31 3 5.31"/><circle cx="29.993" cy="47.008" r="3" stroke-miterlimit="10"/><path stroke-linecap="round" stroke-linejoin="round" d="M23.993 60.008s1-4.311 3-5.311 4-1 6 0 3 5.31 3 5.31M52.552 20.136C48.333 15.159 42.035 12 35 12c-2.77 0-5.424.49-7.883 1.387M39.433 57.573c8.213-1.604 14.862-7.577 17.427-15.402M12.087 32.988A23 23 0 0 0 12 35c0 7.974 4.058 15 10.222 19.127"/></g></svg>