<svg xmlns="http://www.w3.org/2000/svg" viewBox="0 0 72 72"><path fill="#fcea2b" d="M55.624 48.06c0 11.974-7.162 18.307-16.25 18.39-5.77.053-18.405-.85-16.617-31.153M48.84 37.592a3.5 3.5 0 1 1 6.993.294"/><path fill="#fcea2b" d="M41.842 37.36a3.5 3.5 0 1 1 6.994.293"/><path fill="#fcea2b" d="M41.846 37.225a3.5 3.5 0 1 1 6.978.562M34.805 36.88a3.5 3.5 0 0 1 6.985.449M23.292 46.185c-2.002-4.561-3.368-5.368-4.792-7.109-1.95-2.384-1.41-4.103-.563-4.92 1.39-1.343 5.694.783 7.037 2.174M27.805 14.509a3.5 3.5 0 1 1 7 0"/><path fill="none" d="m24.844 36.455-1.958-2.213M17.851 39.105l1.821 2.38"/><path fill="#fcea2b" d="m34.915 41.924-7.063-1.967V14.174h6.953zM34.915 36.844h20.921V49.07H34.915zM27.805 40.065l-2.656-.995.51-3.186 2.163 2.93z"/><path d="M23.649 13.422a7.735 7.735 0 1 1 12.06 6.414c-.78.527-.413-4.99-1.825-7.656-.823-1.554-3.493-.825-4.083-.825-1.51 0-1.337 9.37-2.527 8.621a7.73 7.73 0 0 1-3.625-6.554"/><path fill="none" stroke="#000" stroke-linecap="round" stroke-linejoin="round" stroke-width="2" d="M55.816 50.774c0 9.089-7.367 16.456-16.456 16.456s-16.455-7.367-16.455-16.456M55.816 50.951v-13.05M48.824 37.607a3.5 3.5 0 1 1 6.994.294M41.827 37.375a3.5 3.5 0 1 1 6.994.293"/><path fill="none" stroke="#000" stroke-linecap="round" stroke-linejoin="round" stroke-width="2" d="M41.831 37.24a3.5 3.5 0 1 1 6.978.562M34.79 36.896a3.5 3.5 0 0 1 6.985.448M17.836 39.12a3.5 3.5 0 1 1 5.035-4.863M27.79 14.524a3.5 3.5 0 1 1 7 0M34.789 36.859V14.524M27.79 14.524v27.791M24.829 36.471l-1.958-2.214M19.603 41.44c1.953 2.143 3.374 5.167 3.302 9.521M17.836 39.12l1.821 2.38"/></svg>