<svg xmlns="http://www.w3.org/2000/svg" viewBox="0 0 72 72"><path fill="#d0cfce" d="M24 18h36v7H24zM24 33h36v7H24zM24 48h36v7H24z"/><path fill="#9b9b9a" d="M12 48h7v7h-7zM12 33h7v7h-7zM12 18h7v7h-7z"/><g fill="none" stroke="#000" stroke-linecap="round" stroke-linejoin="round" stroke-miterlimit="10" stroke-width="2"><path d="M59 25H25a1 1 0 0 1-1-1v-5a1 1 0 0 1 1-1h34a1 1 0 0 1 1 1v5a1 1 0 0 1-1 1M59 40H25a1 1 0 0 1-1-1v-5a1 1 0 0 1 1-1h34a1 1 0 0 1 1 1v5a1 1 0 0 1-1 1M59 55H25a1 1 0 0 1-1-1v-5a1 1 0 0 1 1-1h34a1 1 0 0 1 1 1v5a1 1 0 0 1-1 1M18 25h-5a1 1 0 0 1-1-1v-5a1 1 0 0 1 1-1h5a1 1 0 0 1 1 1v5a1 1 0 0 1-1 1M18 40h-5a1 1 0 0 1-1-1v-5a1 1 0 0 1 1-1h5a1 1 0 0 1 1 1v5a1 1 0 0 1-1 1M18 55h-5a1 1 0 0 1-1-1v-5a1 1 0 0 1 1-1h5a1 1 0 0 1 1 1v5a1 1 0 0 1-1 1"/></g></svg>