<svg xmlns="http://www.w3.org/2000/svg" viewBox="0 0 72 72"><path fill="#ea5a47" d="M27.443 49.035a9.46 9.46 0 0 0-9.458 9.657v4.225h38.628v-4.225a9.796 9.796 0 0 0-9.856-9.657"/><path fill="#d22f27" d="M56.487 58.67v4.22h-5.14a12.4 12.4 0 0 0 .76-4.3 12.23 12.23 0 0 0-4.48-9.53 9.785 9.785 0 0 1 8.86 9.61"/><path fill="#fcea2b" d="M49.102 34.014c0 .11 0 .22-.01.33-.11 7.04-4.03 11.02-9.05 12.1-.01 0-.02.01-.04.01-.3.07-.6.12-.9.16a15 15 0 0 1-2 .14 12.8 12.8 0 0 1-4.39-.73q-.285-.105-.54-.21a10.15 10.15 0 0 1-3.48-2.42.3.3 0 0 1-.06-.05c-1.9-2.06-3.08-5.05-3.14-9.02v-.31c0-.39.01-.77.02-1.13v-.01a22 22 0 0 1 .87-5.65h.01a10.3 10.3 0 0 1 1.37-2.91 8.6 8.6 0 0 0-.51 2.68c3.73-.76 10.4.09 10.4.09s5.98-.8 9.55-.14c0-.11-.01-.22-.02-.34v-.01a14.7 14.7 0 0 0-2.96-5 14 14 0 0 1 1.66 1.69 3.6 3.6 0 0 1 .68.69 9.6 9.6 0 0 1 1.64 3.22 22.7 22.7 0 0 1 .9 6.82"/><path fill="#a57939" d="M48.627 26.944c-3.57-.66-9.512-1.187-9.512-1.187s-7.846.668-11.576 1.428c.03-.93.825-2.092 1.135-2.942.13-.38.793-.669.973-1.029.01-.02.02-.03.03-.05a13.2 13.2 0 0 1 1.81-2.16 11 11 0 0 1 .91-.78c.15-.12.31-.23.47-.35a10.2 10.2 0 0 1 3.12-1.45 9.2 9.2 0 0 1 4.58 0 11 11 0 0 1 1.08.36 10.3 10.3 0 0 1 2.04 1.09c.16.12.32.23.48.35a11 11 0 0 1 .9.78c.2.19.39.38.58.59a14.7 14.7 0 0 1 2.96 5v.01c.01.12.02.23.02.34"/><path fill="#6a462f" d="M48.202 26.969c-1.35-.25-2.792-1.064-4.382-1.014.17-1-.108-1.296-.378-2.376a6.85 6.85 0 0 0-6.05-5.4 4 4 0 0 1 .46-.02 9.2 9.2 0 0 1 2.29.29 10.2 10.2 0 0 1 3.12 1.45c.15.12.32.23.47.35a11 11 0 0 1 .91.78c.2.19.39.38.58.59a14.7 14.7 0 0 1 2.95 5v.01a2 2 0 0 1 .03.34"/><path fill="#fff" d="M57.809 32.654c-1.29-1.42.2-2.22.61-3.18a6.2 6.2 0 0 1-1.08-1.81c-.15-.75-.31-1.11-1.14-1.21-1.04-.12-1.2-.68-.6-1.52.17-.23.36-.44.63-.76-1.47-1.45-3.2-2.72-2.52-5.08v-.01a11 11 0 0 1-1.52-.09 1.3 1.3 0 0 1-.35-.1.6.6 0 0 1-.15-.1c-.23-.21-.09-.6.24-1.29-.5-.65-.87-1.15-1.24-1.65-.14-.19-.32-.56-.43-.54-1.38.24-1.28-.69-1.39-1.58-.1-.77-.35-1.39-1.44-.91-1.5.66-2.28.36-2.98-1.16a1.66 1.66 0 0 0-1.93-.89c-1.43.59-1.57-.16-1.68-1.2a7 7 0 0 0-.26-.98c-.21.11-.43.21-.64.3s-.42.18-.62.27a4 4 0 0 0-.54.29 1.8 1.8 0 0 0-.41.37 1.9 1.9 0 0 1-.72.63 1.02 1.02 0 0 1-.818 0c-.017-.006-.033-.018-.049-.025a3.7 3.7 0 0 1-.733-.455c-.06-.04-.11-.09-.17-.13a5 5 0 0 1-.72-.9c-.14.13-.27.19-.32.3-.83 1.77-.82 1.75-2.89 1.52-.36-.04-1.02.16-1.11.4-.51 1.45-1.63 1.55-2.78 1.42a2 2 0 0 0-.34.8c-.02.11-.05.23-.07.34-.02.05-.03.11-.05.16a1 1 0 0 1-.13.3 1.05 1.05 0 0 1-1.05.47 6.4 6.4 0 0 0-2.23.91 3.9 3.9 0 0 0-1.21.91c-.34.39-.95.94-.86 1.27.58 2.2-1.24 3.15-2.2 4.56.32.74.46 1.04.08 1.26a2 2 0 0 1-.18.09 13 13 0 0 1-1.47.36v.01c.44 1.02.65 1.5.4 1.82a1 1 0 0 1-.15.13 2 2 0 0 1-.21.12c-.08.03-.17.07-.28.11-.11.03-.22.07-.36.11-.13.04-.27.08-.43.12s-.33.08-.52.13l.01.01a6 6 0 0 1 .74.67c.6.65.95 1.39.29 2.1-1.13 1.2.46 2.48-.48 3.5.87.89-.05 1.48-.38 2.15a10 10 0 0 1-.81 1.19 2 2 0 0 1 .65.46c.86.9-.18 2.08-.07 3.12.96.13 2.22.04 1.47 1.65 1.37.79.3 1.69-.02 2.55 2.24-.03 2.74.32 3.39 2.09.66.13 1.41.04 1.67.36a25.4 25.4 0 0 1 1.85 2.95c.22-.16.51-.57.82-.58.7-.02 1.63-.08 2.06.31a3.2 3.2 0 0 0 .99.63 3 3 0 0 0 .58.18 2.05 2.05 0 0 0 1.63-.23 2 2 0 0 1 .4-.23c.57-.23.9.1 1.08.82.04.16.07.33.11.5.03.16.06.32.1.48a3 3 0 0 0 .27.04c.17.02.32.05.46.07h.01a3.58 3.58 0 0 0 2.48-.35c.24-.1.5-.22.82-.37a8.5 8.5 0 0 1 .99-.39 8 8 0 0 1 1.03-.26h.06a1.46 1.46 0 0 1 .86.49 4.2 4.2 0 0 1 .54.98c.82-.04 1.71.24 2.04-.87.04-.13.45-.21.69-.22.75-.03 1.5-.01 2.24-.01-.04-.1-.09-.19-.14-.29.45-.35.89-.99 1.35-1.01l1.06-.03a5 5 0 0 0 1.25-.18 2.7 2.7 0 0 0 .47-.19 4 4 0 0 0 .44-.28 2 2 0 0 0 .2-.19 2.6 2.6 0 0 0 .39-.46.5.5 0 0 1 .1-.11 1 1 0 0 1 .28-.19 4 4 0 0 1 .5-.21 3 3 0 0 0 .33-.14c.16-.08.43-.1.47-.22.6-1.56 1.45-2.72 3.38-2.52.24.02.5-.19.73-.28-.36-.78-1.07-1.6-.89-2.1a17.7 17.7 0 0 1 1.98-3.32c.06-.25.17-.7.23-1.14a1.2 1.2 0 0 0-.01-.46.3.3 0 0 0-.04-.1l-.02-.02c-.49-.56-.31-.96.16-1.43.2-.2.29-.86.15-.98-.81-.71-.65-1.3.07-1.85m-17.37 13.8a9 9 0 0 1-6.88-.24 3 3 0 0 1-.41-.19 11.4 11.4 0 0 1-3.74-3.05 16.14 16.14 0 0 1-3.35-8.43c-.06-.54-.1-1.1-.11-1.66v-.3a17.8 17.8 0 0 1 .8-5.33 15.4 15.4 0 0 1 1.91-4.04c0-.02.02-.03.03-.05a13.2 13.2 0 0 1 1.81-2.16 11 11 0 0 1 .91-.78c.15-.12.31-.23.47-.35a10.2 10.2 0 0 1 3.12-1.45 9.2 9.2 0 0 1 4.58 0 11 11 0 0 1 1.08.36 10.3 10.3 0 0 1 2.04 1.09c.16.12.32.23.48.35a11 11 0 0 1 .9.78c.2.19.39.38.58.59a14.7 14.7 0 0 1 2.96 5v.01c.05.12.09.24.13.36a14 14 0 0 1 .41 1.46l.12.53a18.7 18.7 0 0 1 .36 3.63 17.6 17.6 0 0 1-.3 3.28 15.76 15.76 0 0 1-3.08 7 11.4 11.4 0 0 1-3.71 3.1 8.6 8.6 0 0 1-1.07.48c-.01 0-.02.01-.04.01"/><path fill="#d0cfce" d="M57.672 34.868c.14.12.05.78-.15.98-.47.47-.65.87-.16 1.43l.02.02a.3.3 0 0 1 .04.1 1.2 1.2 0 0 1 .01.46c-.06.44-.17.89-.23 1.14a17.7 17.7 0 0 0-1.98 3.32c-.18.5.53 1.32.89 2.1-.23.09-.49.3-.73.28-1.93-.2-2.78.96-3.38 2.52-.04.12-.31.14-.47.22a3 3 0 0 1-.33.14 4 4 0 0 0-.5.21 1 1 0 0 0-.28.19.5.5 0 0 0-.1.11 2.6 2.6 0 0 1-.39.46 2 2 0 0 1-.2.19 3.6 3.6 0 0 1-.44.28 2.7 2.7 0 0 1-.47.19 4.8 4.8 0 0 1-1.15.17c2.77-4.35 4.51-10.67 4.51-17.7 0-7.43-1.94-14.07-4.98-18.43a1 1 0 0 0 .16-.06c1.09-.48 1.34.14 1.44.91.11.89.01 1.82 1.39 1.58.11-.02.29.35.43.54.37.5.74 1 1.24 1.65-.33.69-.47 1.08-.24 1.29a.6.6 0 0 0 .15.1 1.3 1.3 0 0 0 .35.1 11 11 0 0 0 1.52.09v.01c-.68 2.36 1.05 3.63 2.52 5.08-.27.32-.46.53-.63.76-.6.84-.44 1.4.6 1.52.83.1.99.46 1.14 1.21a6.2 6.2 0 0 0 1.08 1.81c-.41.96-1.9 1.76-.61 3.18-.72.55-.88 1.14-.07 1.85"/><path fill="#a57939" d="M28.636 43.344s8.776-10.296 16.566 0c0 0-8.006 7.956-16.566 0"/><path fill="#6a462f" d="M45.202 42.86a14.06 14.06 0 0 1-5.36 3.07c.27-.42.54-.85.8-1.3a25 25 0 0 0 2.02-4.41 14 14 0 0 1 2.54 2.64"/><g fill="#d0cfce"><path d="M37.573 32.508c-3.498.194-1.065 4.663-5.7 4.696-5.053.036-6.38-1.068-6.834-5.409-.539-5.154 6.862-5.473 6.862-5.473h5.672"/><path d="M37.448 32.508c3.498.194 1.065 4.663 5.7 4.696 5.053.036 6.38-1.068 6.834-5.409.539-5.154-6.862-5.473-6.862-5.473h-5.672"/></g><path fill="#fff" d="M44.691 26.7 40.84 36.99l3.952.215 3.75-9.726z"/><g fill="none" stroke="#000" stroke-linecap="round" stroke-linejoin="round"><path stroke-width="1.6" d="M29.29 42.66s7.512-10.081 16.284.028"/><g stroke-width="2"><path d="M26.14 35.318c1.046 6.588 5.737 11.56 11.37 11.56s10.324-4.972 11.37-11.56M48.477 27.928c-1.554-5.652-5.871-9.724-10.967-9.724s-9.413 4.072-10.967 9.724"/></g><path stroke-width="1.644" d="M27.443 48.903a9.46 9.46 0 0 0-9.458 9.657v3.351M56.613 61.911V58.56a9.796 9.796 0 0 0-9.856-9.657"/><path stroke-width="2" d="M57.372 32.654c-1.115-1.227-.154-1.991.392-2.795a.63.63 0 0 0-.014-.724 4.1 4.1 0 0 1-.848-1.471c-.15-.75-.31-1.11-1.14-1.21-1.04-.12-1.2-.68-.6-1.52.17-.23.36-.44.63-.76-1.47-1.45-3.2-2.72-2.52-5.08a10 10 0 0 1-1.52-.1 1.3 1.3 0 0 1-.35-.1.6.6 0 0 1-.15-.1c-.192-.175-.127-.475.091-.97a.63.63 0 0 0-.088-.629c-.385-.505-.694-.923-1.003-1.341-.14-.19-.32-.56-.43-.54-1.38.24-1.28-.69-1.39-1.58-.1-.77-.35-1.39-1.44-.91-1.5.66-2.28.36-2.98-1.16a1.66 1.66 0 0 0-1.93-.89c-1.43.59-1.57-.16-1.68-1.2a7 7 0 0 0-.26-.98c-.21.11-.43.21-.64.3s-.42.18-.62.27a4 4 0 0 0-.54.29 1.8 1.8 0 0 0-.41.37 1.9 1.9 0 0 1-.72.63c-.56.25-1.07-.08-1.6-.48-.06-.04-.11-.09-.17-.13a5 5 0 0 1-.72-.9c-.14.13-.27.19-.32.3-.83 1.77-.82 1.75-2.89 1.52-.36-.04-1.02.16-1.11.4-.51 1.45-1.63 1.55-2.78 1.42a2 2 0 0 0-.34.8c-.02.11-.05.23-.07.34-.02.05-.03.11-.05.16a1 1 0 0 1-.13.3 1.05 1.05 0 0 1-1.05.47 6.4 6.4 0 0 0-2.23.91 3.9 3.9 0 0 0-1.21.91c-.34.39-.95.94-.86 1.27.54 2.046-.998 3.011-1.987 4.27a.62.62 0 0 0-.073.616c.211.509.258.75-.06.934a2 2 0 0 1-.18.09 11 11 0 0 1-1.47.37c.44 1.02.65 1.5.4 1.82a.6.6 0 0 1-.15.13 2 2 0 0 1-.21.12 1.5 1.5 0 0 1-.28.11 3 3 0 0 1-.36.11c-.13.04-.27.08-.43.12-.16.05-.622.006-.51.14a10 10 0 0 1 .74.67c.6.65.95 1.39.29 2.1-1.13 1.2.46 2.48-.48 3.5.87.89-.05 1.48-.38 2.15a10 10 0 0 1-.81 1.19 2.1 2.1 0 0 1 .65.46c.672.704.183 1.579-.01 2.424a.624.624 0 0 0 .533.763c.79.095 1.476.295.876 1.583a1.05 1.05 0 0 1 .446 1.655.62.62 0 0 0 .497.915 2.23 2.23 0 0 1 2.296 1.726.64.64 0 0 0 .52.4c.543.055 1.073.046 1.283.304a25.4 25.4 0 0 1 1.85 2.95c.22-.16.51-.57.82-.58.7-.02 1.63-.08 2.06.31a3.2 3.2 0 0 0 .99.63 3 3 0 0 0 .58.18 2.05 2.05 0 0 0 1.63-.23 4 4 0 0 1 .4-.23c.57-.23.9.1 1.08.82.04.16.07.33.11.5l.09.48h.01a3 3 0 0 0 .27.04c.17.02.32.05.46.07h.01a3.58 3.58 0 0 0 2.48-.35c.24-.1.5-.22.82-.37a8.5 8.5 0 0 1 .99-.39 8 8 0 0 1 .842-.213c.062-.011.126-.028.187-.037.02 0 .04-.01.06-.01a1.46 1.46 0 0 1 .86.49 4.2 4.2 0 0 1 .54.98c.82-.04 1.71.24 2.04-.87.04-.13.45-.21.69-.22.75-.03 1.5-.01 2.24-.01-.04-.1-.09-.19-.14-.29.45-.35.89-.99 1.35-1.01l1.06-.03a5 5 0 0 0 1.25-.18 2.7 2.7 0 0 0 .47-.19 3.6 3.6 0 0 0 .44-.28 2 2 0 0 0 .2-.19 2.6 2.6 0 0 0 .39-.46.5.5 0 0 1 .1-.11 1.5 1.5 0 0 1 .28-.19 4 4 0 0 1 .5-.21 3 3 0 0 0 .33-.14c.16-.08.43-.1.47-.22.6-1.56 1.45-2.72 3.38-2.52.24.02.5-.19.73-.28-.36-.78-1.07-1.6-.89-2.1a16.6 16.6 0 0 1 1.921-3.227.6.6 0 0 0 .083-.191c.062-.26.154-.655.206-1.042a1.2 1.2 0 0 0-.01-.46.3.3 0 0 0-.04-.1l-.02-.02c-.49-.56-.31-.96.16-1.43.2-.2.29-.86.15-.98-.81-.71-.65-1.3.07-1.85m-29.61-8.34"/><g stroke-width="2"><path d="M37.573 32.31c-3.498.194-1.065 4.663-5.7 4.697-5.053.036-6.38-1.07-6.834-5.41-.539-5.154 6.862-5.473 6.862-5.473h5.672"/><path d="M37.448 32.31c3.498.194 1.065 4.663 5.7 4.697 5.053.036 6.38-1.07 6.834-5.41.539-5.154-6.862-5.473-6.862-5.473h-5.672"/></g></g></svg>