<svg xmlns="http://www.w3.org/2000/svg" viewBox="0 0 72 72"><path fill="#d0cfce" d="M38.889 12.278a5.258 5.258 0 0 1 9.225-3.471 4.195 4.195 0 0 1 7.643 2.417l.02-.002a4.222 4.222 0 1 1 0 8.445c-.068 0-.131-.017-.2-.02a3.115 3.115 0 0 1-1.947 4.06c.006.063.037.117.037.182a2.111 2.111 0 1 1-4.222 0 2.09 2.09 0 0 1 .547-1.388 3.2 3.2 0 0 1-.425-.955 3.143 3.143 0 0 1-4.3-2.489 4.199 4.199 0 0 1-6.087-5.124 5.2 5.2 0 0 1-.291-1.655"/><path fill="#9b9b9a" d="M11.106 44.03h49.788V60H11.106z"/><path fill="#d0cfce" d="M15.803 48.727h12.212V60H15.803z"/><path fill="#92d3f5" d="M51.5 48.727H32.712v4.697h23.485v-4.697z"/><path fill="#9b9b9a" d="M54.788 44.03h-5.636L50.091 29h3.757z"/><path fill="#d0cfce" d="m15.8 37.455.005 6.575h9.389zM25.667 37.455l.004 6.575h9.39zM35.061 37.455l.004 6.575h9.39z"/><g fill="none" stroke="#000" stroke-linecap="round" stroke-linejoin="round" stroke-width="2"><path d="M11.106 44.03h49.788V60H11.106z"/><path d="M15.803 48.727h12.212V60H15.803zM15.803 52.485h12.212M15.803 56.242h12.212M37.409 53.424h-4.697v-4.697h4.697M42.106 53.424h-4.697M37.409 48.727h4.697M46.803 53.424h-4.697M42.106 48.727h4.697M51.5 53.424h-4.697M46.803 48.727H51.5M51.5 48.727h4.697v4.697H51.5M54.788 44.03h-5.636L50.091 29h3.757zM15.8 37.455l.005 6.575h9.389zM25.667 37.455l.004 6.575h9.39zM35.061 37.455l.004 6.575h9.39zM38.889 12.278a5.258 5.258 0 0 1 9.225-3.471 4.195 4.195 0 0 1 7.643 2.417l.02-.002a4.222 4.222 0 1 1 0 8.445c-.068 0-.131-.017-.2-.02a3.115 3.115 0 0 1-1.947 4.06c.006.063.037.117.037.182a2.111 2.111 0 1 1-4.222 0 2.09 2.09 0 0 1 .547-1.388 3.2 3.2 0 0 1-.425-.955 3.143 3.143 0 0 1-4.3-2.489 4.199 4.199 0 0 1-6.087-5.124 5.2 5.2 0 0 1-.291-1.655"/></g></svg>