<svg xmlns="http://www.w3.org/2000/svg" viewBox="0 0 72 72"><path fill="#fcea2b" d="M20.684 12.084h29.619v48.13H20.684z"/><path fill="#f1b31c" d="M40.431 12.084h10.018v48.13H40.431z"/><g stroke="#000" stroke-linecap="round" stroke-linejoin="round" stroke-width="2"><path fill="none" d="M19.178 60.214h32.358M51.536 11.677H19.178M37.276 10.214h5.393M19.178 11.677c1.735 1.657 2.173 4.561 2.173 7.868 0 3.625-.154 6.766-2.173 8.31M19.178 27.856c1.735 1.657 2.173 4.561 2.173 7.869 0 3.624-.154 6.765-2.173 8.31"/><path fill="none" d="M19.178 44.035c1.735 1.657 2.173 4.562 2.173 7.869 0 3.624-.154 6.765-2.173 8.31M51.536 11.677c-1.735 1.657-2.173 4.561-2.173 7.868 0 3.625.155 6.766 2.173 8.31M51.536 27.856c-1.735 1.657-2.173 4.561-2.173 7.869 0 3.624.155 6.765 2.173 8.31"/><path fill="none" d="M51.536 44.035c-1.735 1.657-2.173 4.562-2.173 7.869 0 3.624.155 6.765 2.173 8.31"/><path d="M36.727 35.489a1.233 1.233 0 1 1-.617-1.069 1.23 1.23 0 0 1 .617 1.069M30.557 35.489a4.93 4.93 0 0 1 2.467-4.276l-2.468-4.276a9.87 9.87 0 0 0-4.936 8.552ZM37.962 39.764a4.94 4.94 0 0 1-4.938 0l-2.468 4.276a9.89 9.89 0 0 0 9.874 0ZM37.962 31.213a4.93 4.93 0 0 1 2.467 4.276h4.937a9.87 9.87 0 0 0-4.936-8.552Z"/></g></svg>