<svg xmlns="http://www.w3.org/2000/svg" viewBox="0 0 72 72"><path fill="#fff" d="m30.985 21.007-.044-12.75s5.132-2.956 10.07.073l.02 12.677z"/><path fill="#9b9b9a" d="m39 30 5-5v-3H28v3l5 5z"/><path fill="#d0cfce" d="M33 20h6v10h-6z"/><path fill="#9b9b9a" d="m39 30 7 8v19c0 5.523-4.477 10-10 10s-10-4.477-10-10V38l7-8z"/><path fill="#d0cfce" d="M36 67c-5.523 0-10-4.477-10-10V38l7-8h6l3 8v19c0 5.523-2.686 10-6 10"/><g stroke="#000" stroke-linecap="round" stroke-linejoin="round"><path fill="none" stroke-width="2" d="M46 57c0 5.523-4.477 10-10 10s-10-4.477-10-10M46 57V38H26v19M33 20h6v10h-6zM26 38l7-8-5-5v-3h4.972M46 38l-7-8 5-5v-3h-4.73M36 15V5M30 7v11M42 7v11"/><path d="M37.006 51.875a.76.76 0 1 1-1.52 0 .76.76 0 0 1 1.52 0M33.206 51.875c0-1.086.58-2.09 1.52-2.633l-1.52-2.633a6.08 6.08 0 0 0-3.04 5.266zM37.767 54.508c-.941.542-2.1.542-3.041 0l-1.52 2.633a6.09 6.09 0 0 0 6.081 0zM37.767 49.242a3.04 3.04 0 0 1 1.52 2.633h3.04a6.08 6.08 0 0 0-3.04-5.266z"/></g></svg>