<svg xmlns="http://www.w3.org/2000/svg" viewBox="0 0 72 72"><path fill="#fff" d="M27.195 21.99v-7.97s6.72.26 9.19-2.64c2.47 2.9 9.19 2.64 9.19 2.64v7.94l-9.07-.88Z"/><path fill="#d22f27" d="M34.406 17.384h1.441v1.442h1.016v-1.442h1.441v-1.015h-1.441v-1.442h-1.016v1.442h-1.441z"/><path fill="#fff" d="M17.044 60.88s-2.1-14.9 9.9-14.9c3.192 2.129 6.026 3.799 9.1 3.793l.275.1c3.074.006 5.908-1.864 9.1-3.992 11.564-.035 9.509 14.9 9.74 15"/><circle cx="25.01" cy="56.805" r="3" fill="#9b9b9a"/><path fill="#d0cfce" d="M45.473 45.868c-3.17 2.113-5.275 3.5-9.338 4.089 13.063.411 12.963 6.911 13.725 10.911h5.113s2.614-15.002-9.5-15"/><path fill="#fcea2b" d="m45.96 22.844-9.994-1.593-10.792 7.322a18 18 0 0 0-.196 2.64c0 7.828 5.076 14.174 11.338 14.174s11.34-6.346 11.34-14.173a21.9 21.9 0 0 0-1.696-8.37"/><g fill="#a57939"><path d="m31.863 43.1-3.17.02h-.33a13.3 13.3 0 0 1-2.95-.41c-.33-.08-.66-.17-.98-.28-4.15-1.5-6.52-6.3.21-16.12.52-.76 1.09-1.56 1.73-2.38h1a.9.9 0 0 1-.03.23.7.7 0 0 1-.07.2c-.02.05-.05.1-.08.16l-.02.02c-.32.6-1.246 1.12-1.916 2.03-.26.35-.453 1.146-.733 1.536.5-.19 1.31-.546 1.92-.766a14.5 14.5 0 0 0-.39 2.28c-.05.53-.08 1.06-.08 1.59 0 5.23 2.41 9.76 5.89 11.89M44.253 43.02h-.22l-3.18.02c3.43-2.14 5.8-6.64 5.8-11.83a15.9 15.9 0 0 0-1.53-6.89 1.1 1.1 0 0 1-.1-.39h1.22c.64.83 1.23 1.63 1.75 2.4 8.69 12.65 2.14 16.69-3.74 16.69"/><path d="M35.39 21.46c-2.976-1.151-8.233 1.36-8.233 1.36a12.6 12.6 0 0 0-2.127 6.245c5.63-1.352 12.837-7.151 12.837-7.151-.354-.21-2.09-.304-2.477-.454"/></g><path d="M48.228 42.622a1 1 0 0 1-.326-1.945 4.47 4.47 0 0 0 3.104-2.888c.596-1.993.114-5.908-5.558-13.249a1 1 0 0 1 .18-1.403.826.826 0 0 1 1.25.172c4.971 6.432 7.104 11.502 6.044 15.053a6.44 6.44 0 0 1-4.368 4.206 1 1 0 0 1-.326.054M28.274 23.065a.8.8 0 0 1-.033.24.7.7 0 0 1-.078.21c-.023.052-.356-.257-.389-.194-.011.01.407-.08.395-.07a53 53 0 0 0-3.513 5.036c-3.062 4.741-3.306 7.577-2.828 9.2a4.7 4.7 0 0 0 3.162 2.993 1.03 1.03 0 0 1 .635 1.36 1.12 1.12 0 0 1-1.036.66 1.1 1.1 0 0 1-.412-.073 6.76 6.76 0 0 1-4.486-4.385c-1.091-3.705 1.124-8.97 6.59-15.615a1.13 1.13 0 0 1 .824-.409h.01a1.3 1.3 0 0 1 .401.053 1 1 0 0 1 .179.073.5.5 0 0 1 .155.094 1 1 0 0 1 .178.178.6.6 0 0 1 .112.167.5.5 0 0 1 .089.2.8.8 0 0 1 .045.282"/><path d="M48.653 31.21a16.57 16.57 0 0 1-4.62 11.81 10.54 10.54 0 0 1-15.34.1 16.57 16.57 0 0 1-4.72-11.91c0-.26.01-.52.02-.78a15 15 0 0 1 .13-1.51 16 16 0 0 1 .52-2.61 16.3 16.3 0 0 1 1.06-2.86 1 1 0 0 1 .62-.52h.01a.13.13 0 0 1 .06-.01.8.8 0 0 1 .3.06.3.3 0 0 1 .12.04c.01.01.03.02.04.03a.4.4 0 0 1 .14.09.9.9 0 0 1 .16.17.5.5 0 0 1 .1.16.5.5 0 0 1 .08.19.8.8 0 0 1 .04.27.9.9 0 0 1-.03.23.7.7 0 0 1-.07.2c-.02.05-.05.1-.08.16l-.02.02c-.32.6-2.313 1.066-2.309 2.196.002.502.486 1.016-.09 1.234.5-.19 1.06-.41 1.67-.63a14.5 14.5 0 0 0-.39 2.28c-.05.53-.08 1.06-.08 1.59 0 5.23 2.41 9.76 5.89 11.89a8.37 8.37 0 0 0 8.99-.06c3.43-2.14 5.8-6.64 5.8-11.83a15.9 15.9 0 0 0-1.53-6.89 8 8 0 0 1-.373-1.034 1.02 1.02 0 0 1 .616-.907c.5-.24.839-.71 1.116-.058.395.93 1.24 3.009 1.51 4.009a18 18 0 0 1 .66 4.88"/><path d="M42.317 29.853a2 2 0 1 1-2-2 2 2 0 0 1 2 2M34.317 29.853a2 2 0 1 1-2-2 2 2 0 0 1 2 2M36.316 39.855a7.65 7.65 0 0 1-3.447-.858 1 1 0 0 1 .895-1.789 5.38 5.38 0 0 0 5.105 0 1 1 0 1 1 .895 1.79 7.65 7.65 0 0 1-3.448.857M27.196 23.693a1 1 0 0 1-.285-1.958 31.86 31.86 0 0 1 18.965.004 1 1 0 1 1-.598 1.908 29.9 29.9 0 0 0-17.795.004 1 1 0 0 1-.287.042"/><path d="M35.587 10.776c.02-.01.03-.03.04-.04a.9.9 0 0 1 .47-.31.3.3 0 0 1 .12-.03.5.5 0 0 1 .17-.02.5.5 0 0 1 .17.02.3.3 0 0 1 .12.03.9.9 0 0 1 .36.19.8.8 0 0 1 .15.16c1.65 1.86 5.85 2.25 7.85 2.26.19 0 .36-.01.5-.01a.98.98 0 0 1 .73.27 1 1 0 0 1 .31.72v8.47a1 1 0 0 1-2 0v-7.47c-.22 0-.48-.01-.76-.03-2.04-.12-5.36-.57-7.43-2.24a4.7 4.7 0 0 1-.76-.72.994.994 0 0 1-.04-1.25"/><path d="M26.197 22.486v-8.47a1.02 1.02 0 0 1 .3-.72 1.06 1.06 0 0 1 .74-.28c.14.01.31.01.49.01 2.01 0 6.22-.38 7.86-2.25.02-.01.03-.03.04-.04a.9.9 0 0 1 .47-.31.3.3 0 0 1 .12-.03.5.5 0 0 1 .17-.02.5.5 0 0 1 .17.02.3.3 0 0 1 .12.03.9.9 0 0 1 .36.19.8.8 0 0 1 .15.16.994.994 0 0 1-.04 1.25 4.7 4.7 0 0 1-.76.72c-2.07 1.67-5.39 2.12-7.43 2.24-.28.02-.54.03-.76.03v7.47a1 1 0 0 1-2 0"/><path d="M36.863 14.927v1.442h1.441v1.015h-1.442v1.442h-1.015v-1.442h-1.442V16.37h1.442v-1.442zm0-1h-1.015a1 1 0 0 0-1 1v.442h-.442a1 1 0 0 0-1 1v1.015a1 1 0 0 0 1 1h.442v.442a1 1 0 0 0 1 1h1.015a1 1 0 0 0 1-1v-.442h.442a1 1 0 0 0 1-1V16.37a1 1 0 0 0-1-1h-.442v-.442a1 1 0 0 0-1-1M25.31 30.31a1 1 0 0 1-.976-1.222q.002-.075.003-.189a11.57 11.57 0 0 1 1.996-6.643 1 1 0 0 1 .504-.382c.26-.089 6.452-2.163 11.609-1.51a1 1 0 0 1 .542 1.737c-.31.277-7.637 6.786-13.445 8.18a1 1 0 0 1-.234.028m2.488-6.644a9.4 9.4 0 0 0-1.42 4.274 37.9 37.9 0 0 0 9.304-5.691 32.8 32.8 0 0 0-7.884 1.417M25.01 60.805a4 4 0 1 1 4-4 4.004 4.004 0 0 1-4 4m0-6a2 2 0 1 0 2 2 2 2 0 0 0-2-2"/><path d="M25.007 54.803a1 1 0 0 1-.961-.732 11.06 11.06 0 0 1 1.608-8.42 1 1 0 0 1 1.683 1.082 9.05 9.05 0 0 0-1.362 6.809 1 1 0 0 1-.703 1.225 1 1 0 0 1-.265.036M55.166 60.922a.996.996 0 0 1-.99-1.15c.011-.08 1.16-8.126-4.314-10.876a1 1 0 1 1 .899-1.788c6.779 3.406 5.45 12.578 5.391 12.967a1 1 0 0 1-.986.847M36.265 51.515h-.104l-.04-.001c-2.373-.032-4.674-.829-7.653-2.647a1 1 0 0 1 1.042-1.707c2.685 1.639 4.698 2.345 6.715 2.354a12.27 12.27 0 0 0 6.29-2.098 1 1 0 0 1 1.015 1.723 14.37 14.37 0 0 1-7.196 2.374c-.022.002-.044 0-.069.002M17.287 60.922a1 1 0 0 1-.987-.847c-.063-.412-1.467-10.134 6.02-13.255a1 1 0 0 1 .77 1.846c-6.036 2.517-4.825 11.02-4.812 11.107a.996.996 0 0 1-.99 1.149Z"/><path d="M45.462 61.853q-.048 0-.098-.005a1 1 0 0 1-.898-1.09l.072-.748a2.3 2.3 0 0 1-.667-.506c-1.363-1.485-1.015-4.892-.9-5.757-.017-1.47.647-4 3.148-4.665a6.1 6.1 0 0 0-1.367-2.753 1 1 0 1 1 1.44-1.389 8.93 8.93 0 0 1 2.086 4.897 1 1 0 0 1-.963 1.084c-2.285.076-2.353 2.394-2.343 2.858a1 1 0 0 1-.01.163 11.5 11.5 0 0 0 .019 3.303.98.98 0 0 1 .859-.35 1 1 0 0 1 .9 1.09l-.115 1.208a1 1 0 0 1-.004.144l-.164 1.616a1 1 0 0 1-.995.9"/><path d="M49.505 61.853a1 1 0 0 1-.994-.899l-.165-1.616a1 1 0 0 1-.004-.148l-.115-1.205a1 1 0 0 1 .9-1.09.97.97 0 0 1 .86.351 11.5 11.5 0 0 0 .02-3.304 1 1 0 0 1-.01-.168c.01-.459-.058-2.777-2.343-2.853a1 1 0 1 1 .066-1.998c3.437.113 4.297 3.154 4.277 4.824.115.865.462 4.272-.901 5.756a2.3 2.3 0 0 1-.666.507l.071.747a1 1 0 0 1-.896 1.09 1 1 0 0 1-.1.005M36.007 60.923a1 1 0 0 1-.892-.547l-5.658-11.133a1 1 0 1 1 1.783-.906l5.658 11.133a1 1 0 0 1-.89 1.453Z"/><path d="M36.005 60.923a1 1 0 0 1-.886-1.461l5.657-10.902a1 1 0 0 1 1.775.922l-5.657 10.902a1 1 0 0 1-.889.539"/></svg>