<svg xmlns="http://www.w3.org/2000/svg" viewBox="0 0 72 72"><path fill="#fff" d="M16.672 60.88s-2.13-13.78 9.87-13.78a15.3 15.3 0 0 0 9.13 2.673l.275.1a16.96 16.96 0 0 0 9.501-3.052c11.565-.035 9.108 13.96 9.339 14.06"/><path fill="#d0cfce" d="M45.022 46.263a18.3 18.3 0 0 1-8.87 3.514c13.1.4 13.1 7.1 13.8 11.1h5.1s1.97-14.614-10.03-14.614"/><path fill="#fff" d="M27.102 21.99v-7.97s6.72.26 9.19-2.64c2.47 2.9 9.19 2.64 9.19 2.64v7.94l-9.07-.88Z"/><path fill="#d22f27" d="M34.312 17.384h1.442v1.442h1.015v-1.442h1.442v-1.015h-1.442v-1.442h-1.015v1.442h-1.442z"/><path fill="#fcea2b" d="m45.867 22.844-9.994-1.593-10.792 7.322a18 18 0 0 0-.196 2.64c0 7.828 5.076 14.174 11.338 14.174s11.339-6.346 11.339-14.173a21.9 21.9 0 0 0-1.695-8.37"/><g fill="#a57939"><path d="m31.77 43.1-3.17.02h-.33a13.3 13.3 0 0 1-2.95-.41c-.33-.08-.66-.17-.98-.28-4.15-1.5-6.52-6.3.21-16.12.52-.76 1.09-1.56 1.73-2.38h1a.9.9 0 0 1-.03.23.7.7 0 0 1-.07.2c-.02.05-.05.1-.08.16l-.02.02c-.32.6-1.247 1.12-1.917 2.03-.26.35-.452 1.146-.732 1.536.5-.19 1.309-.546 1.919-.766a14.5 14.5 0 0 0-.39 2.28c-.05.53-.08 1.06-.08 1.59 0 5.23 2.41 9.76 5.89 11.89M44.16 43.02h-.22l-3.18.02c3.43-2.14 5.8-6.64 5.8-11.83a15.9 15.9 0 0 0-1.53-6.89 1.1 1.1 0 0 1-.1-.39h1.22c.64.83 1.23 1.63 1.75 2.4 8.69 12.65 2.14 16.69-3.74 16.69"/><path d="M35.297 21.46c-2.976-1.151-8.232 1.36-8.232 1.36a12.6 12.6 0 0 0-2.128 6.244c5.63-1.352 12.837-7.151 12.837-7.151-.354-.208-2.09-.303-2.477-.453"/></g><path d="M54.855 60.976a1 1 0 0 1-.153-.011 1 1 0 0 1-.838-1.139c.009-.057.827-5.741-2.129-9.178-1.482-1.722-3.71-2.62-6.627-2.67l-.015.007c-3.29 2.22-5.98 3.591-9.14 3.591h-.134c-3.134-.104-5.942-1.507-9.159-3.596a13.8 13.8 0 0 0-3.812.698c-2.967.904-4.335 4.768-4.348 4.807a15.3 15.3 0 0 0-.56 6.341 1 1 0 0 1-1.977.303 17.15 17.15 0 0 1 .644-7.292c.071-.204 1.728-4.875 5.657-6.072a15.5 15.5 0 0 1 4.688-.788 1 1 0 0 1 .549.164c3.13 2.053 5.624 3.344 8.384 3.436 2.755 0 5.174-1.274 8.206-3.33a1 1 0 0 1 .123-.07 1.1 1.1 0 0 1 .638-.2c3.656 0 6.484 1.135 8.407 3.377 3.554 4.142 2.622 10.506 2.581 10.775a1 1 0 0 1-.986.847m-10.203-14.9"/><path d="M30.652 56.877a1 1 0 0 1-.924-.616l-3.7-8.9a1 1 0 1 1 1.848-.768l3.114 7.491 4.041-4.201a1 1 0 0 1 1.442 1.387l-5.1 5.3a1 1 0 0 1-.72.307"/><path d="M38.353 54.177a1 1 0 0 1-.708-.293l-2.6-2.6a1 1 0 1 1 1.414-1.415l2.601 2.601a1 1 0 0 1-.707 1.707Z"/><path d="M40.952 56.877a1 1 0 0 1-.72-.307l-2.6-2.7a1 1 0 0 1 1.44-1.386l1.547 1.605 3.087-7.342a1.02 1.02 0 0 1 .946-.72.96.96 0 0 1 1 .95v.1a1 1 0 0 1-.078.387l-3.7 8.801a1 1 0 0 1-.738.596 1 1 0 0 1-.184.016M50.86 59.377h-5.8a1 1 0 0 1 0-2h5.8a.945.945 0 0 1 1 1 1 1 0 0 1-1 1M48.135 42.622a1 1 0 0 1-.327-1.945 4.47 4.47 0 0 0 3.105-2.888c.596-1.993.114-5.908-5.558-13.249a1 1 0 0 1 .18-1.403.826.826 0 0 1 1.25.172c4.971 6.432 7.105 11.502 6.044 15.053a6.44 6.44 0 0 1-4.368 4.206 1 1 0 0 1-.326.054M28.18 23.065a.8.8 0 0 1-.033.24.7.7 0 0 1-.078.21c-.022.052-.355-.257-.388-.194-.011.01.406-.08.395-.07a53 53 0 0 0-3.513 5.036c-3.062 4.741-3.307 7.577-2.828 9.2a4.7 4.7 0 0 0 3.162 2.993 1.03 1.03 0 0 1 .634 1.36 1.12 1.12 0 0 1-1.035.66 1.1 1.1 0 0 1-.412-.073 6.76 6.76 0 0 1-4.486-4.386c-1.091-3.704 1.124-8.969 6.59-15.615a1.13 1.13 0 0 1 .823-.408h.011a1.3 1.3 0 0 1 .401.053 1 1 0 0 1 .178.073.5.5 0 0 1 .156.094 1 1 0 0 1 .178.178.6.6 0 0 1 .112.167.5.5 0 0 1 .089.2.8.8 0 0 1 .045.282"/><path d="M48.56 31.21a16.57 16.57 0 0 1-4.62 11.81 10.54 10.54 0 0 1-15.34.1 16.57 16.57 0 0 1-4.72-11.91c0-.26.01-.52.02-.78a15 15 0 0 1 .13-1.51 16 16 0 0 1 .52-2.61 16.3 16.3 0 0 1 1.06-2.86 1 1 0 0 1 .62-.52h.01a.13.13 0 0 1 .06-.01.8.8 0 0 1 .3.06.3.3 0 0 1 .12.04c.01.01.03.02.04.03a.4.4 0 0 1 .14.09.9.9 0 0 1 .16.17.5.5 0 0 1 .1.16.5.5 0 0 1 .08.19.8.8 0 0 1 .04.27.9.9 0 0 1-.03.23.7.7 0 0 1-.07.2c-.02.05-.05.1-.08.16l-.02.02c-.32.6-2.313 1.066-2.31 2.196.003.502.487 1.016-.09 1.234.5-.19 1.06-.41 1.67-.63a14.5 14.5 0 0 0-.39 2.28c-.05.53-.08 1.06-.08 1.59 0 5.23 2.41 9.76 5.89 11.89a8.37 8.37 0 0 0 8.99-.06c3.43-2.14 5.8-6.64 5.8-11.83a15.9 15.9 0 0 0-1.53-6.89 8 8 0 0 1-.372-1.034 1.02 1.02 0 0 1 .616-.907c.5-.24.839-.71 1.116-.058.395.93 1.24 3.009 1.51 4.009a18 18 0 0 1 .66 4.88"/><path d="M42.223 29.853a2 2 0 1 1-2-2 2 2 0 0 1 2 2M34.223 29.853a2 2 0 1 1-2-2 2 2 0 0 1 2 2M36.223 39.855a7.65 7.65 0 0 1-3.447-.858 1 1 0 0 1 .894-1.789 5.38 5.38 0 0 0 5.106 0 1 1 0 0 1 .894 1.79 7.65 7.65 0 0 1-3.447.857M45.483 23.693a1 1 0 0 1-.3-.046 29.9 29.9 0 0 0-17.794.004 1 1 0 1 1-.572-1.916 31.86 31.86 0 0 1 18.966.004 1 1 0 0 1-.3 1.954Z"/><path d="M35.494 10.776c.02-.01.03-.03.04-.04a.9.9 0 0 1 .47-.31.3.3 0 0 1 .12-.03.5.5 0 0 1 .17-.02.5.5 0 0 1 .17.02.3.3 0 0 1 .12.03.9.9 0 0 1 .36.19.8.8 0 0 1 .15.16c1.65 1.86 5.85 2.25 7.85 2.26.19 0 .36-.01.5-.01a.98.98 0 0 1 .73.27 1 1 0 0 1 .31.72v8.47a1 1 0 0 1-2 0v-7.47c-.22 0-.48-.01-.76-.03-2.04-.12-5.36-.57-7.43-2.24a4.7 4.7 0 0 1-.76-.72.994.994 0 0 1-.04-1.25"/><path d="M26.104 22.486v-8.47a1.02 1.02 0 0 1 .3-.72 1.06 1.06 0 0 1 .74-.28c.14.01.31.01.49.01 2.01 0 6.22-.38 7.86-2.25.02-.01.03-.03.04-.04a.9.9 0 0 1 .47-.31.3.3 0 0 1 .12-.03.5.5 0 0 1 .17-.02.5.5 0 0 1 .17.02.3.3 0 0 1 .12.03.9.9 0 0 1 .36.19.8.8 0 0 1 .15.16.994.994 0 0 1-.04 1.25 4.7 4.7 0 0 1-.76.72c-2.07 1.67-5.39 2.12-7.43 2.24-.28.02-.54.03-.76.03v7.47a1 1 0 0 1-2 0"/><path d="M36.77 14.927v1.442h1.441v1.015H36.77v1.442h-1.015v-1.442h-1.442V16.37h1.442v-1.442zm0-1h-1.015a1 1 0 0 0-1 1v.442h-.442a1 1 0 0 0-1 1v1.015a1 1 0 0 0 1 1h.442v.442a1 1 0 0 0 1 1h1.015a1 1 0 0 0 1-1v-.442h.442a1 1 0 0 0 1-1V16.37a1 1 0 0 0-1-1h-.442v-.442a1 1 0 0 0-1-1M25.216 30.31a1 1 0 0 1-.975-1.223l.002-.19a11.57 11.57 0 0 1 1.996-6.641 1 1 0 0 1 .504-.382c.26-.089 6.452-2.163 11.61-1.51a1 1 0 0 1 .541 1.737c-.309.277-7.636 6.786-13.445 8.18a1 1 0 0 1-.233.028m2.49-6.644a9.4 9.4 0 0 0-1.42 4.274 37.8 37.8 0 0 0 9.303-5.691 32.8 32.8 0 0 0-7.884 1.417"/></svg>