<svg xmlns="http://www.w3.org/2000/svg" viewBox="0 0 72 72"><path fill="#e67a94" d="M28.707 21.165c.15-.839.256-1.624.44-2.39a6 6 0 0 1 .562-1.523 1.222 1.222 0 0 1 2.108-.164 2.7 2.7 0 0 1 .587 1.103 41 41 0 0 1 .832 4.978 3.236 3.236 0 0 1-3.133 3.554c-.624.073-1.256.079-1.92.117-.027.272-.054.566-.086.859a2.96 2.96 0 0 1-1.532 2.388c-.344.194-.389.376-.32.748a5.89 5.89 0 0 1-1.5 5.572 7.52 7.52 0 0 1 .35 6.327 1.7 1.7 0 0 0 .265 1.927c1.01 1.307 1.16 2.07 1.261 4.458.477.167.952.348 1.439.492a.6.6 0 0 0 .43-.078A6.17 6.17 0 0 1 35 49.15a.45.45 0 0 0 .405-.03 6 6 0 0 1 7.402.061l2.83-1.36a6.33 6.33 0 0 1 .862-5.48c-.21-.36-.42-.686-.593-1.03a4.4 4.4 0 0 1-.027-3.922.69.69 0 0 0 .004-.582 5.7 5.7 0 0 1-1.275-5.32 1.18 1.18 0 0 0-.2-1.014 5.8 5.8 0 0 1-1.058-4.198 3.87 3.87 0 0 1 2.519-3.022 6.8 6.8 0 0 1 4.395-.376 4.45 4.45 0 0 1 3.225 4.932 2.06 2.06 0 0 0 .49 1.81 4.96 4.96 0 0 1 .996 4.801.85.85 0 0 0 .119.606 5.58 5.58 0 0 1 .384 5.67c-.146.3-.022.45.11.648a4.94 4.94 0 0 1-.118 5.69 1.53 1.53 0 0 0-.303 1.658c.858 2.94-.577 5.604-3.35 6.274a3.9 3.9 0 0 0-1.354.635 6.92 6.92 0 0 1-7.373.747.97.97 0 0 0-.719.033 7.44 7.44 0 0 1-6.86-.014.78.78 0 0 0-.61.063 6.76 6.76 0 0 1-6.045.477 3.5 3.5 0 0 0-2.671-.21 4.8 4.8 0 0 1-4.712-1.316 2.1 2.1 0 0 0-.701-.428c-3.144-1.02-4.237-2.86-3.515-6.093a2.29 2.29 0 0 0-.359-1.989 7.2 7.2 0 0 1-.846-6.741.9.9 0 0 0 .053-.504 6.15 6.15 0 0 1 1.18-5.375 1.07 1.07 0 0 0 .154-.758 5.15 5.15 0 0 1 2.145-5.554 1.06 1.06 0 0 0 .47-.864 6 6 0 0 1 1.17-3.228 4.43 4.43 0 0 1 2.342-1.538 9.7 9.7 0 0 0 1.466-.541 5.74 5.74 0 0 1 3.675-.602"/><path fill="none" stroke="#000" stroke-linecap="round" stroke-linejoin="round" stroke-width="2" d="M28.707 21.165c.15-.839.256-1.624.44-2.39a6 6 0 0 1 .562-1.523 1.222 1.222 0 0 1 2.108-.164 2.7 2.7 0 0 1 .587 1.103 41 41 0 0 1 .832 4.978 3.236 3.236 0 0 1-3.133 3.554c-.624.073-1.256.079-1.92.117-.027.272-.054.566-.086.859a2.96 2.96 0 0 1-1.532 2.388c-.344.194-.389.376-.32.748a5.89 5.89 0 0 1-1.5 5.572 7.52 7.52 0 0 1 .35 6.327 1.7 1.7 0 0 0 .265 1.927c1.01 1.307 1.16 2.07 1.261 4.458.477.167.952.348 1.439.492a.6.6 0 0 0 .43-.078A6.17 6.17 0 0 1 35 49.15a.45.45 0 0 0 .405-.03 6 6 0 0 1 7.402.061l2.83-1.36a6.33 6.33 0 0 1 .862-5.48c-.21-.36-.42-.686-.593-1.03a4.4 4.4 0 0 1-.027-3.922.69.69 0 0 0 .004-.582 5.7 5.7 0 0 1-1.275-5.32 1.18 1.18 0 0 0-.2-1.014 5.8 5.8 0 0 1-1.058-4.198 3.87 3.87 0 0 1 2.519-3.022 6.8 6.8 0 0 1 4.395-.376 4.45 4.45 0 0 1 3.225 4.932 2.06 2.06 0 0 0 .49 1.81 4.96 4.96 0 0 1 .996 4.801.85.85 0 0 0 .119.606 5.58 5.58 0 0 1 .384 5.67c-.146.3-.022.45.11.648a4.94 4.94 0 0 1-.118 5.69 1.53 1.53 0 0 0-.303 1.658c.858 2.94-.577 5.604-3.35 6.274a3.9 3.9 0 0 0-1.354.635 6.92 6.92 0 0 1-7.373.747.97.97 0 0 0-.719.033 7.44 7.44 0 0 1-6.86-.014.78.78 0 0 0-.61.063 6.76 6.76 0 0 1-6.045.477 3.5 3.5 0 0 0-2.671-.21 4.8 4.8 0 0 1-4.712-1.316 2.1 2.1 0 0 0-.701-.428c-3.144-1.02-4.237-2.86-3.515-6.093a2.29 2.29 0 0 0-.359-1.989 7.2 7.2 0 0 1-.846-6.741.9.9 0 0 0 .053-.504 6.15 6.15 0 0 1 1.18-5.375 1.07 1.07 0 0 0 .154-.758 5.15 5.15 0 0 1 2.145-5.554 1.06 1.06 0 0 0 .47-.864 6 6 0 0 1 1.17-3.228 4.43 4.43 0 0 1 2.342-1.538 9.7 9.7 0 0 0 1.466-.541 5.74 5.74 0 0 1 3.675-.602"/></svg>