<svg xmlns="http://www.w3.org/2000/svg" viewBox="0 0 72 72"><g fill="#a57939"><path d="M53.236 41.337c-.008-.042-.016-.092-.025-.134a14 14 0 0 0-.067-.585c-.041-.417-.092-.835-.125-1.253a2.6 2.6 0 0 0-1.053-1.98 5.093 5.093 0 0 1-7.226-.384c-.159.1-.3.2-.451.3a17 17 0 0 1-1.395.878c-.335.175-.401.292-.351.635a6.3 6.3 0 0 1-.51 3.567 13 13 0 0 1-.777 1.328c-.075.117-.159.234-.234.36a.1.1 0 0 1 .033.008 7 7 0 0 0 .677.184 2.655 2.655 0 0 0 3.593-2.181 10 10 0 0 0 .209-1.337l.008-.142c.084-.726.526-.877.794-.902a.866.866 0 0 1 .96.694c.076-.034.142-.067.218-.092a3.116 3.116 0 0 1 4.185 1.244 1.37 1.37 0 0 1 .284.994.85.85 0 0 1-.393.518c-.726.452-1.21-.292-1.37-.543a1.44 1.44 0 0 0-1.06-.793 2.67 2.67 0 0 0-2.306 1.437 4.15 4.15 0 0 1-3.668 2.965c-.309.026-.618.017-.919.017a2 2 0 0 0-.234-.008l-.108.501c.092.059.184.109.275.167a10 10 0 0 1 .92.56.87.87 0 0 1 .375.551.9.9 0 0 1-.15.66.88.88 0 0 1-1.203.243c-.083-.05-.158-.109-.242-.167-.058-.042-.125-.084-.192-.126a2.414 2.414 0 0 0-2.99.15.89.89 0 0 1-1.32-.033.87.87 0 0 1 .15-1.278 4.04 4.04 0 0 1 2.271-1.02.6.6 0 0 0 .368-.183.34.34 0 0 0 .067-.284.64.64 0 0 0-.384-.351l-.418-.192c-.376-.167-.752-.335-1.111-.518a1.01 1.01 0 0 1-.552-.585.82.82 0 0 1 .076-.652.897.897 0 0 1 1.22-.359.34.34 0 0 0 .208-.008 4.73 4.73 0 0 0 1.446-4.378 3.18 3.18 0 0 1-2.523-1.145l-.084.084c-.167.175-.317.343-.468.51l-.158.175a2.85 2.85 0 0 1-1.721 1.17c.108.11.2.21.284.31a4.6 4.6 0 0 1 .66 4.594 1.3 1.3 0 0 0-.109.502c.025.643.059 1.295.092 1.938.033.743.075 1.487.1 2.23a.35.35 0 0 0 .192.343c.343.217.685.451 1.02.677l.55.376a1.955 1.955 0 0 0 2.281-.167 7 7 0 0 1 1.011-.66l.26-.15c.191-.117.384-.218.584-.326a7 7 0 0 0 .978-.585c.651-.485 1.278-1.028 1.88-1.554l.359-.3a3.8 3.8 0 0 0 .493-.569.96.96 0 0 0 .217-.844.95.95 0 0 1 .125-.726.89.89 0 0 1 .577-.368.874.874 0 0 1 1.036.718c.025.126.05.184.117.21a.4.4 0 0 0 .2 0l.15-.026a1 1 0 0 0 .242-.042l.268-.1c.685-.267 1.387-.534 2.072-.827a3.44 3.44 0 0 0 1.83-2.748 1 1 0 0 0-.018-.193M51.783 24.46a2.94 2.94 0 0 0-1.939-1.545 4.4 4.4 0 0 0-1.386-.142 17 17 0 0 0-1.964.384l-.4.092a11.05 11.05 0 0 1-4.62-.092 9.5 9.5 0 0 1-3.125-1.145 7.5 7.5 0 0 0-5.731-.793 9.1 9.1 0 0 1-2.966.225 3.53 3.53 0 0 1-3.191-2.865 7.6 7.6 0 0 1-.092-1.37c0-.142.022-.046.022-.188h-1.822a11.7 11.7 0 0 0 .588 3.187 3.36 3.36 0 0 0 1.37 1.888 10.7 10.7 0 0 0 2.808 1.203 3.76 3.76 0 0 0 3.308-.426 3 3 0 0 1 3.033-.267c.985.468 1.963.985 2.915 1.478l.368.2c.184.092.2.1.3.017a3.43 3.43 0 0 1 1.972-.727 9.5 9.5 0 0 1 3.918.669 1.07 1.07 0 0 0 .602.033 7.7 7.7 0 0 1 2.606-.3 3.07 3.07 0 0 1 2.14 1.052 4.02 4.02 0 0 1 .801 2.774 8 8 0 0 0 .05 1.052c.017.217.05.426.084.643a4.6 4.6 0 0 1 .025 1.855A10.8 10.8 0 0 1 49 35.681a.95.95 0 0 1-.485.275.815.815 0 0 1-.919-.384.84.84 0 0 1-.058-.777 3.4 3.4 0 0 1-.577.501 5.4 5.4 0 0 1-.752.41c-.05.025-.108.05-.159.075.009 0 .009.008.017.017a3.6 3.6 0 0 0 .368.417 3.11 3.11 0 0 0 2.573.71 2.2 2.2 0 0 0 2.172-1.73 9.6 9.6 0 0 0 .226-2.088 4.4 4.4 0 0 1 .384-1.787 4.2 4.2 0 0 0 .409-1.22 26 26 0 0 0 .234-3.083 5.3 5.3 0 0 0-.651-2.556m-2.314 7.243a2.44 2.44 0 0 0 .292-1.261 47 47 0 0 0-.109-1.078 15 15 0 0 1-.142-2.047 1.56 1.56 0 0 0-.518-1.311 1.95 1.95 0 0 0-1.562-.25 3.33 3.33 0 0 1 .501 3.282 2.25 2.25 0 0 0 .042.936l.025.15c.042.226.1.451.159.677a7 7 0 0 1 .184.852 4.5 4.5 0 0 1-.21 2.189c.46-.693.928-1.403 1.337-2.139M48.14 47.026a23.4 23.4 0 0 1-4.42 3.801 4.44 4.44 0 0 0 3.133-.885 5.78 5.78 0 0 0 1.888-2.916ZM46.327 30.77a4.3 4.3 0 0 1-.025-2.557 1.3 1.3 0 0 0-.476-1.554 6.9 6.9 0 0 0-1.913-.994 5 5 0 0 0-.493-.15 7 7 0 0 0-.86-.15 7 7 0 0 0-1.463 0 2 2 0 0 0-.217.042 1.3 1.3 0 0 0-.384.15 1.37 1.37 0 0 0-.61.827.37.37 0 0 0 .05.267 3.5 3.5 0 0 1 .936 1.863 8 8 0 0 0 .342 1.162c.05.125.092.25.134.367.058.176.125.343.2.518a6 6 0 0 1 .334 1.011 2.6 2.6 0 0 0 1.078 1.955.73.73 0 0 1 .317.476.9.9 0 0 1-.15.685.88.88 0 0 1-1.178.25 3.67 3.67 0 0 1-1.687-2.439 11 11 0 0 0-.385-1.261q-.11-.3-.208-.602c-.05-.167-.109-.334-.167-.5a6.4 6.4 0 0 1-.351-1.204 1.74 1.74 0 0 0-.936-1.37 3.94 3.94 0 0 0-3.71.042 1.73 1.73 0 0 0-1.085 1.754 11 11 0 0 0 .134 1.529 4.48 4.48 0 0 0 1.236 2.69.802.802 0 0 1 .017 1.194.87.87 0 0 1-.627.31h-.025a.8.8 0 0 1-.543-.226 5.8 5.8 0 0 1-1.01-1.253 9 9 0 0 1-.535-1.254q-.026-.06-.05-.133a3.75 3.75 0 0 1-2.09 1.596.22.22 0 0 0-.083.125l-.016.16a8 8 0 0 0-.034 1.286 2.65 2.65 0 0 0 2.222 2.681 7.9 7.9 0 0 0 3.626-.242c.025 0 .059-.025.15-.117.26-.276.51-.56.77-.835.35-.376.7-.76 1.06-1.145.184-.192.159-.317.1-.4a9 9 0 0 1-.209-.393 3.5 3.5 0 0 0-.668-.995 3.7 3.7 0 0 1-1.145-2.681 2.05 2.05 0 0 0-.334-.92 3 3 0 0 1-.568-1.98.89.89 0 0 1 .952-.918c.285.016.777.175.836 1.01a1.8 1.8 0 0 0 .25.853 3.3 3.3 0 0 1 .652 1.946 1.79 1.79 0 0 0 .552 1.395 7.4 7.4 0 0 1 1.06 1.412 2.24 2.24 0 0 1 .36 1.896c-.109.335 0 .51.26.76a1.32 1.32 0 0 0 1.26.326 5.32 5.32 0 0 0 3.117-2.063 1.84 1.84 0 0 0 .35-1.68 8.3 8.3 0 0 0-.826-1.787 2.78 2.78 0 0 1-.435-2.34 1.78 1.78 0 0 0-.276-1.704.878.878 0 0 1 .117-1.312.82.82 0 0 1 .652-.167 1.03 1.03 0 0 1 .676.468 3.27 3.27 0 0 1 .56 3.058.91.91 0 0 0 .084.852 6 6 0 0 1 1.278 3.2 1.28 1.28 0 0 0 .31-.902 8 8 0 0 0-.26-1.888m-4.703 21.47a.9.9 0 0 0-.36.025c-.426.117-.86.242-1.286.367a.6.6 0 0 0-.2.075 5 5 0 0 0-.317.477l-.009.008a3.34 3.34 0 0 0 2.807-.802 10 10 0 0 0-.635-.15Zm-5.071-.878a1 1 0 0 1-.034.084 2.4 2.4 0 0 1-.342.66 15.6 15.6 0 0 1-1.704 1.838 3.8 3.8 0 0 1-1.496.827c-.752.2-1.504.334-2.239.468l-.292.05a5.16 5.16 0 0 0 3.442.075 6.51 6.51 0 0 0 4.035-3.1ZM34.63 40.978a2.9 2.9 0 0 0-2.13-1.078 4.62 4.62 0 0 1-3.484-1.68.93.93 0 0 1-.326.46.87.87 0 0 1-.818.075 7.3 7.3 0 0 1-4.019-3.308c-.125-.234-.209-.276-.25-.284a.42.42 0 0 0-.26.142l-.258.217a14.5 14.5 0 0 0-1.63 1.571c-.91 1.103-.91 1.796-.016 2.983a2.73 2.73 0 0 1 .476 2.573 3.15 3.15 0 0 0 .092 2.138 7.9 7.9 0 0 0 1.646 2.54.62.62 0 0 0 .585.25 4.23 4.23 0 0 1 2.456.519l-.05-.393a12 12 0 0 1-.159-1.855 3.46 3.46 0 0 1 2.139-3.258.9.9 0 0 1 1.236.351.84.84 0 0 1 .067.66 1.06 1.06 0 0 1-.552.577 1.91 1.91 0 0 0-1.144 1.87 7.7 7.7 0 0 0 .96 3.51c.026.016.143.083.184.058a1.7 1.7 0 0 0 1.58-1.07 1.03 1.03 0 0 0 .075-.86 4.93 4.93 0 0 1 .117-4.335c-.092-.059-.193-.117-.284-.175a10 10 0 0 0-.978-.56 2.48 2.48 0 0 0-1.963-.15 2.6 2.6 0 0 0-1.395 1.478 3.7 3.7 0 0 1-.593 1.028.8.8 0 0 1-.15.133 1.2 1.2 0 0 1-.477.184.7.7 0 0 1-.234.009.73.73 0 0 1-.576-.36.94.94 0 0 1-.042-.86c.075-.192.176-.376.268-.56a4 4 0 0 0 .359-.827 3.03 3.03 0 0 0-1.22-3.334.882.882 0 1 1 1.111-1.353 4.96 4.96 0 0 1 1.913 3.008 3.9 3.9 0 0 1 2.774-.326 6.5 6.5 0 0 1 2.656 1.386c.142.11.193.117.335.042a1.6 1.6 0 0 1 .71-.192.81.81 0 0 1 .802.719.86.86 0 0 1-.635 1.002 1.64 1.64 0 0 0-1.011.927 2.55 2.55 0 0 0-.017 1.797c.059-.025.109-.05.167-.076a2.3 2.3 0 0 1 .46-.158.875.875 0 0 1 1.019.618.92.92 0 0 1-.501 1.06 1.9 1.9 0 0 0-.619.519 3.1 3.1 0 0 0-.342.668l-.075.184a3.44 3.44 0 0 1-2.18 2.022 3.8 3.8 0 0 1-3.944-1.061 2.77 2.77 0 0 0-2.356-.81 5.4 5.4 0 0 0-2.464 1.12c-.276.183-.56.376-.853.551l.059.125a4.8 4.8 0 0 1 1.454-.25 5 5 0 0 1 .584.041 7.5 7.5 0 0 1 3.868 1.805 3.5 3.5 0 0 0 2.047.777 8 8 0 0 0 1.445.025 5.07 5.07 0 0 0 4.278-2.189 1.95 1.95 0 0 0 .41-.986l.008-.209c.025-1.06.058-2.155.033-3.224a11 11 0 0 0-.067-.886 4.8 4.8 0 0 1 .276-2.665v-.058a.3.3 0 0 0 .008-.084 2.87 2.87 0 0 0-.585-2.248m-6.616-6.81-2.273.97a6 6 0 0 0 2.632 1.93 7 7 0 0 1-.36-2.9m3.116-6.114a11 11 0 0 0-2.005-1.07 6.7 6.7 0 0 0-1.028-.3 7.6 7.6 0 0 1-1.194-.368 5.2 5.2 0 0 0-3.058-.318 4.16 4.16 0 0 1-3.668-.86.58.58 0 0 0-.342-.092 1 1 0 0 0-.142.017 7.6 7.6 0 0 0-1.186.46 1.105 1.105 0 0 0-.777 1.336 6.9 6.9 0 0 0 .61 1.705 3.52 3.52 0 0 1 .317 2.23 6.3 6.3 0 0 0 .059 2.465c.15.727.518 1.027 1.203.986a7 7 0 0 0 1.846-.41 6.7 6.7 0 0 1 2.44-.4l.008.008a3.68 3.68 0 0 0 2.331-.577 4.2 4.2 0 0 1 1.855-.551l.426-.05a2.24 2.24 0 0 0 1.838-1.245 3 3 0 0 1 .568-.744c.092-.092.175-.183.259-.284l.1-.1a.5.5 0 0 0 .067-.075 1.59 1.59 0 0 0-.527-1.764m-2.197 1.42a.94.94 0 0 1-.618.367.76.76 0 0 1-.569-.159c-.267-.217-.46-.2-.827.059a2.95 2.95 0 0 1-3.2.267c-.61-.3-.985-.225-1.336.26a12.5 12.5 0 0 0-1.053 1.912c-.226.476-.51.719-.86.719a1 1 0 0 1-.292-.05.85.85 0 0 1-.527-.443 1.03 1.03 0 0 1 .017-.819 15 15 0 0 1 .827-1.754.4.4 0 0 0 .017-.46 3.93 3.93 0 0 0-1.663-1.729.873.873 0 1 1 .76-1.57 5.24 5.24 0 0 1 2.23 2.063c.05.075.093.15.143.226a2.71 2.71 0 0 1 2.514.067 1.22 1.22 0 0 0 1.395-.117 2.24 2.24 0 0 1 2.18-.443 2.5 2.5 0 0 1 .71.417.85.85 0 0 1 .152 1.187Zm-7.127 18.413c-.25-.335-.5-.669-.726-1.028a5.4 5.4 0 0 1-.86-4.695 1.11 1.11 0 0 0-.226-1.078 4 4 0 0 1-.919-1.83 4.05 4.05 0 0 1 .919-3.183v-.008l-1.821-.443c-.067.192-.142.393-.21.593-.225.61-.46 1.245-.626 1.888a2.17 2.17 0 0 0 .66 2.306 2.47 2.47 0 0 1 .585 2.74 4.5 4.5 0 0 0-.209.735.69.69 0 0 0 .21.619 7.3 7.3 0 0 1 1.026 1.362 4.35 4.35 0 0 0 1.972 2.005c.1.042.192.083.3.117Z"/><path d="M35.216 43.225a.3.3 0 0 1-.008.083v.059a4.8 4.8 0 0 0-.276 2.665c.033.292.058.593.067.885.025 1.07-.009 2.164-.034 3.225l-.008.21a1.95 1.95 0 0 1-.41.985 5.07 5.07 0 0 1-4.277 2.189 8 8 0 0 1-1.445-.025 3.5 3.5 0 0 1-2.047-.777 7.5 7.5 0 0 0-3.868-1.805 5 5 0 0 0-.585-.042 4.8 4.8 0 0 0-1.453.251l-.059-.125c.292-.176.576-.368.852-.552a5.4 5.4 0 0 1 2.465-1.12 2.77 2.77 0 0 1 2.356.81 3.8 3.8 0 0 0 3.943 1.061 3.44 3.44 0 0 0 2.181-2.02l.075-.184a3.1 3.1 0 0 1 .343-.669 1.9 1.9 0 0 1 .618-.518.92.92 0 0 0 .501-1.06.875.875 0 0 0-1.02-.619 2.3 2.3 0 0 0-.459.159c-.058.025-.108.05-.167.075a2.55 2.55 0 0 1 .017-1.796 1.64 1.64 0 0 1 1.01-.927.86.86 0 0 0 .636-1.003.81.81 0 0 0-.802-.718 1.6 1.6 0 0 0-.71.192c-.142.075-.192.067-.334-.042a6.5 6.5 0 0 0-2.657-1.387 3.9 3.9 0 0 0-2.774.326 4.96 4.96 0 0 0-1.913-3.007.882.882 0 1 0-1.11 1.353 3.03 3.03 0 0 1 1.22 3.333 4 4 0 0 1-.36.827c-.092.184-.192.368-.268.56a.94.94 0 0 0 .042.86.73.73 0 0 0 .577.36.7.7 0 0 0 .234-.008 1.2 1.2 0 0 0 .476-.184.8.8 0 0 0 .15-.134 3.7 3.7 0 0 0 .593-1.027 2.6 2.6 0 0 1 1.395-1.479 2.48 2.48 0 0 1 1.963.15 10 10 0 0 1 .978.56c.092.058.192.117.284.175a4.93 4.93 0 0 0-.117 4.336 1.03 1.03 0 0 1-.075.86 1.7 1.7 0 0 1-1.58 1.07c-.041.025-.158-.042-.183-.059a7.7 7.7 0 0 1-.96-3.509 1.91 1.91 0 0 1 1.144-1.871 1.06 1.06 0 0 0 .551-.576.84.84 0 0 0-.067-.66.9.9 0 0 0-1.236-.351 3.46 3.46 0 0 0-2.139 3.258 12 12 0 0 0 .159 1.854l.05.393a4.23 4.23 0 0 0-2.456-.518.62.62 0 0 1-.585-.25 7.9 7.9 0 0 1-1.646-2.54 3.15 3.15 0 0 1-.092-2.14 2.73 2.73 0 0 0-.476-2.572c-.894-1.187-.894-1.88.017-2.983a14.5 14.5 0 0 1 1.629-1.57l.259-.218a.42.42 0 0 1 .259-.142c.042.009.125.05.25.284a7.3 7.3 0 0 0 4.019 3.309.87.87 0 0 0 .819-.075.93.93 0 0 0 .325-.46 4.62 4.62 0 0 0 3.484 1.68 2.9 2.9 0 0 1 2.13 1.078 2.87 2.87 0 0 1 .585 2.247M53.253 41.529a3.44 3.44 0 0 1-1.83 2.749c-.685.292-1.387.56-2.072.827l-.267.1a1 1 0 0 1-.242.042l-.15.025a.4.4 0 0 1-.201 0c-.067-.025-.092-.084-.117-.21a.874.874 0 0 0-1.036-.718.89.89 0 0 0-.576.368.95.95 0 0 0-.126.727.96.96 0 0 1-.217.843 3.8 3.8 0 0 1-.493.569l-.36.3c-.6.526-1.227 1.07-1.88 1.554a7 7 0 0 1-.976.585c-.2.109-.393.209-.585.326l-.26.15a7 7 0 0 0-1.01.66 1.955 1.955 0 0 1-2.28.167l-.552-.376c-.335-.226-.677-.46-1.02-.677a.35.35 0 0 1-.192-.342c-.025-.744-.067-1.487-.1-2.231-.033-.643-.066-1.295-.092-1.938a1.3 1.3 0 0 1 .11-.502 4.6 4.6 0 0 0-.66-4.594c-.084-.1-.176-.2-.285-.31a2.85 2.85 0 0 0 1.721-1.17l.159-.175c.15-.167.3-.334.468-.51l.083-.083a3.18 3.18 0 0 0 2.523 1.144 4.73 4.73 0 0 1-1.445 4.378.34.34 0 0 1-.209.008.897.897 0 0 0-1.22.36.82.82 0 0 0-.075.651 1.01 1.01 0 0 0 .551.585c.36.184.735.35 1.111.518l.418.192a.64.64 0 0 1 .384.35.34.34 0 0 1-.066.285.6.6 0 0 1-.368.184 4.04 4.04 0 0 0-2.272 1.02.87.87 0 0 0-.15 1.278.89.89 0 0 0 1.32.034 2.414 2.414 0 0 1 2.99-.15q.103.062.193.125c.083.058.159.117.242.167a.88.88 0 0 0 1.203-.242.9.9 0 0 0 .15-.66.87.87 0 0 0-.376-.552 10 10 0 0 0-.919-.56c-.092-.058-.184-.108-.276-.167l.11-.5a2 2 0 0 1 .233.007c.3 0 .61.009.919-.016a4.15 4.15 0 0 0 3.668-2.966 2.67 2.67 0 0 1 2.305-1.437 1.44 1.44 0 0 1 1.061.794c.159.25.644.994 1.37.543a.85.85 0 0 0 .393-.518 1.37 1.37 0 0 0-.284-.994 3.116 3.116 0 0 0-4.186-1.245c-.075.025-.142.058-.217.092a.866.866 0 0 0-.96-.694c-.268.025-.71.176-.794.903l-.009.142a10 10 0 0 1-.208 1.336 2.655 2.655 0 0 1-3.593 2.18 7 7 0 0 1-.676-.183.1.1 0 0 0-.034-.008c.075-.126.159-.243.234-.36a13 13 0 0 0 .777-1.328 6.3 6.3 0 0 0 .51-3.567c-.05-.343.017-.46.35-.635.477-.26.928-.56 1.396-.877.15-.1.292-.2.451-.301a5.093 5.093 0 0 0 7.227.384 2.6 2.6 0 0 1 1.052 1.98c.034.418.084.836.126 1.253.025.192.05.393.066.585l.026.134a1 1 0 0 1 .016.192M46.586 32.657a1.28 1.28 0 0 1-.309.902 6 6 0 0 0-1.278-3.2.91.91 0 0 1-.084-.852 3.27 3.27 0 0 0-.56-3.058 1.03 1.03 0 0 0-.676-.468.82.82 0 0 0-.652.167.878.878 0 0 0-.117 1.312 1.78 1.78 0 0 1 .276 1.704 2.78 2.78 0 0 0 .434 2.34 8.3 8.3 0 0 1 .827 1.787 1.84 1.84 0 0 1-.35 1.68 5.32 5.32 0 0 1-3.117 2.063 1.32 1.32 0 0 1-1.261-.326c-.26-.25-.368-.426-.26-.76a2.24 2.24 0 0 0-.359-1.896 7.4 7.4 0 0 0-1.06-1.412 1.79 1.79 0 0 1-.551-1.395 3.3 3.3 0 0 0-.652-1.947 1.8 1.8 0 0 1-.25-.852c-.06-.835-.552-.994-.836-1.01a.89.89 0 0 0-.952.918 3 3 0 0 0 .568 1.98 2.05 2.05 0 0 1 .334.92 3.7 3.7 0 0 0 1.144 2.681 3.5 3.5 0 0 1 .669.994c.066.134.133.26.208.393.059.083.084.209-.1.4-.359.385-.71.77-1.06 1.145-.26.276-.51.56-.769.836-.092.092-.125.117-.15.117a7.9 7.9 0 0 1-3.626.242 2.65 2.65 0 0 1-2.223-2.682 8 8 0 0 1 .034-1.286l.016-.16a.22.22 0 0 1 .084-.125 3.75 3.75 0 0 0 2.088-1.595q.026.073.05.133a9 9 0 0 0 .535 1.254 5.8 5.8 0 0 0 1.01 1.253.8.8 0 0 0 .544.225h.025a.87.87 0 0 0 .627-.309.802.802 0 0 0-.017-1.195 4.48 4.48 0 0 1-1.236-2.69 11 11 0 0 1-.134-1.528 1.73 1.73 0 0 1 1.086-1.755 3.94 3.94 0 0 1 3.71-.041 1.74 1.74 0 0 1 .935 1.37 6.4 6.4 0 0 0 .35 1.203q.092.25.168.5c.067.2.134.402.209.602a11 11 0 0 1 .384 1.262 3.67 3.67 0 0 0 1.688 2.44.88.88 0 0 0 1.178-.251.9.9 0 0 0 .15-.685.73.73 0 0 0-.318-.476 2.6 2.6 0 0 1-1.077-1.955 6 6 0 0 0-.335-1.011 6 6 0 0 1-.2-.518c-.041-.117-.083-.243-.133-.368a8 8 0 0 1-.343-1.161 3.5 3.5 0 0 0-.935-1.863.37.37 0 0 1-.05-.267 1.37 1.37 0 0 1 .61-.827 1.3 1.3 0 0 1 .384-.15 2 2 0 0 1 .217-.042 7 7 0 0 1 1.462 0 7 7 0 0 1 .86.15 5 5 0 0 1 .494.15 6.9 6.9 0 0 1 1.913.994 1.3 1.3 0 0 1 .476 1.554 4.3 4.3 0 0 0 .025 2.556 8 8 0 0 1 .258 1.889"/><path d="M41.098 25.363a2 2 0 0 0-.218.042 2 2 0 0 1 .217-.033 7 7 0 0 1 1.462-.009 7 7 0 0 0-1.462 0M48.132 33.843a4.5 4.5 0 0 0 .209-2.189 7 7 0 0 0-.184-.852c-.059-.225-.117-.451-.159-.677l-.025-.15a2.25 2.25 0 0 1-.042-.935 3.33 3.33 0 0 0-.5-3.283 1.95 1.95 0 0 1 1.561.25 1.56 1.56 0 0 1 .518 1.312 15 15 0 0 0 .142 2.047c.042.359.075.718.109 1.077a2.44 2.44 0 0 1-.293 1.262c-.409.735-.877 1.445-1.336 2.138M21.883 47.987c-.109-.034-.2-.075-.301-.117a4.35 4.35 0 0 1-1.972-2.005 7.3 7.3 0 0 0-1.027-1.362.69.69 0 0 1-.21-.618 4.5 4.5 0 0 1 .21-.735 2.47 2.47 0 0 0-.585-2.74 2.17 2.17 0 0 1-.66-2.306c.167-.643.4-1.278.627-1.888.066-.2.142-.401.208-.593l1.822.442v.009a4.05 4.05 0 0 0-.92 3.183 4 4 0 0 0 .92 1.83 1.11 1.11 0 0 1 .225 1.077 5.4 5.4 0 0 0 .86 4.696c.226.359.476.693.727 1.027ZM37.923 52.264a6.51 6.51 0 0 1-4.035 3.1 5.16 5.16 0 0 1-3.442-.075c.1-.017.192-.034.292-.05.735-.134 1.487-.268 2.24-.468a3.8 3.8 0 0 0 1.495-.827 15.6 15.6 0 0 0 1.704-1.838 2.4 2.4 0 0 0 .342-.66 1 1 0 0 0 .034-.084ZM48.742 47.026a5.78 5.78 0 0 1-1.888 2.916 4.44 4.44 0 0 1-3.133.885 23.4 23.4 0 0 0 4.419-3.8ZM28.374 37.068a6 6 0 0 1-2.632-1.93l2.273-.97a7 7 0 0 0 .359 2.9M42.259 52.39a3.34 3.34 0 0 1-2.807.802l.008-.008a5 5 0 0 1 .318-.476.6.6 0 0 1 .2-.076c.426-.125.86-.25 1.286-.367a.9.9 0 0 1 .36-.025c.209.04.417.091.635.15M28.934 29.474a.94.94 0 0 1-.618.367.76.76 0 0 1-.569-.158c-.267-.218-.46-.2-.827.058a2.95 2.95 0 0 1-3.2.267c-.61-.3-.986-.225-1.336.26a12.5 12.5 0 0 0-1.053 1.912q-.337.717-.86.719a1 1 0 0 1-.292-.05.85.85 0 0 1-.527-.443 1.03 1.03 0 0 1 .017-.819 15 15 0 0 1 .827-1.754.4.4 0 0 0 .017-.46 3.93 3.93 0 0 0-1.663-1.729.873.873 0 1 1 .76-1.57 5.24 5.24 0 0 1 2.23 2.063c.05.075.093.15.143.226a2.71 2.71 0 0 1 2.514.067 1.22 1.22 0 0 0 1.395-.117 2.24 2.24 0 0 1 2.18-.443 2.5 2.5 0 0 1 .71.417.85.85 0 0 1 .152 1.187"/></g><path d="M54.982 41.128a9 9 0 0 0-.083-.652 5 5 0 0 1-.092-.844 4.41 4.41 0 0 0-1.821-3.692c-.1-.075-.117-.1-.084-.259l.042-.217a10.3 10.3 0 0 0 .242-1.838 3.4 3.4 0 0 1 .401-1.922 1.8 1.8 0 0 0 .226-.635 13.7 13.7 0 0 0 .259-5.296 6 6 0 0 0-1.42-3.133 5.36 5.36 0 0 0-4.988-1.57 9 9 0 0 0-1.278.284c-.3.083-.61.167-.91.225a8.9 8.9 0 0 1-3.51-.125l-.133-.025a6.8 6.8 0 0 1-2.247-.743 9.57 9.57 0 0 0-7.252-1.196 9.2 9.2 0 0 1-2.13.242 2.12 2.12 0 0 1-1.562-.626 2.08 2.08 0 0 1-.518-1.57c.008-.11.008-.218.025-.335a2 2 0 0 1 .016-.184 1 1 0 0 0-.016-.159.91.91 0 0 0-1.788 0c0 .117.008.234.008.351v.017a7.4 7.4 0 0 0 .092 1.353 3.53 3.53 0 0 0 3.191 2.866 9.1 9.1 0 0 0 2.966-.226 7.5 7.5 0 0 1 5.731.794 9.5 9.5 0 0 0 3.125 1.145 11.05 11.05 0 0 0 4.62.091l.401-.091a17 17 0 0 1 1.963-.385 4.4 4.4 0 0 1 1.387.142 2.94 2.94 0 0 1 1.938 1.546 5.3 5.3 0 0 1 .652 2.556A26 26 0 0 1 52.2 30.1a4.2 4.2 0 0 1-.41 1.22 4.4 4.4 0 0 0-.384 1.788 9.6 9.6 0 0 1-.225 2.088 2.2 2.2 0 0 1-2.172 1.73 3.11 3.11 0 0 1-2.573-.71 3.6 3.6 0 0 1-.368-.418c-.008-.008-.008-.017-.017-.017.05-.025.109-.05.159-.075a5.4 5.4 0 0 0 .752-.41 3.4 3.4 0 0 0 .576-.5.84.84 0 0 0 .059.777.815.815 0 0 0 .919.384.95.95 0 0 0 .484-.276 10.8 10.8 0 0 0 2.456-4.327 4.6 4.6 0 0 0-.025-1.855c-.033-.217-.066-.426-.083-.643a8 8 0 0 1-.05-1.053 4.02 4.02 0 0 0-.802-2.774 3.07 3.07 0 0 0-2.139-1.052 7.7 7.7 0 0 0-2.606.3 1.07 1.07 0 0 1-.602-.033 9.5 9.5 0 0 0-3.918-.668 3.43 3.43 0 0 0-1.972.727c-.1.083-.117.075-.3-.017l-.368-.2c-.952-.493-1.93-1.01-2.916-1.479a3 3 0 0 0-3.032.268 3.76 3.76 0 0 1-3.309.426 10.7 10.7 0 0 1-2.807-1.203 3.36 3.36 0 0 1-1.37-1.888 13.5 13.5 0 0 1-.61-3.35h-.008a.88.88 0 0 0-1.73 0 .23.23 0 0 0-.008.108c.009.1.017.209.034.31a26 26 0 0 0 .51 3.023 5.18 5.18 0 0 0 2.89 3.668 22 22 0 0 0 2.523.977 6.7 6.7 0 0 0 1.57.318 4.85 4.85 0 0 0 3.1-.827 1.55 1.55 0 0 1 1.646-.192q1.19.6 2.364 1.228a5.84 5.84 0 0 0-4.929 1.42 8.9 8.9 0 0 0-3.492-1.822c-.209-.066-.417-.108-.635-.158a4.3 4.3 0 0 1-.843-.242 7 7 0 0 0-4.136-.393 2.42 2.42 0 0 1-2.08-.485 2.2 2.2 0 0 0-2.28-.376c-.326.126-.66.26-.986.385l-.092.041a2.966 2.966 0 0 0-1.938 3.61 8.8 8.8 0 0 0 .651 1.762 2.07 2.07 0 0 1 .234 1.337 7.9 7.9 0 0 0 .109 3.266.77.77 0 0 1-.067.452 11.6 11.6 0 0 0-1.37 3.517 3.79 3.79 0 0 0 .877 3.55 1.25 1.25 0 0 1 .342 1.562 2.444 2.444 0 0 0 .803 3.075.9.9 0 0 1 .275.35 6.34 6.34 0 0 0 2.456 2.883l-.852.551c-.743.485-.835.794-.468 1.588.117.259.243.526.36.785l.208.451a1 1 0 0 0 .61.61 1.05 1.05 0 0 0 .853-.175 2.38 2.38 0 0 1 1.737-.334 6.33 6.33 0 0 1 3.45 1.904 8.5 8.5 0 0 0 3.141 2.106 9.4 9.4 0 0 0 3.284.643 6.95 6.95 0 0 0 4.578-1.721c.284-.234.551-.485.827-.735q.123-.126.259-.25a3.95 3.95 0 0 0 3.442.058 8.8 8.8 0 0 0 2.656-1.763 1.95 1.95 0 0 1 .911-.451 8 8 0 0 0 1.922-.694 6.66 6.66 0 0 0 3.174-4.269 1.82 1.82 0 0 1 1.345-1.478c1.98-.602 2.715-2.281 3.166-3.843a2.8 2.8 0 0 0 .042-1.062m-5.99-15.121a1.56 1.56 0 0 1 .518 1.311 15 15 0 0 0 .142 2.047q.061.54.109 1.078a2.44 2.44 0 0 1-.292 1.261c-.41.735-.878 1.446-1.337 2.139a4.5 4.5 0 0 0 .209-2.189 7 7 0 0 0-.184-.852c-.059-.225-.117-.451-.159-.677l-.025-.15a2.25 2.25 0 0 1-.042-.935 3.33 3.33 0 0 0-.5-3.283 1.95 1.95 0 0 1 1.561.25m-16.925 6.34a9 9 0 0 0 .534 1.254 5.8 5.8 0 0 0 1.011 1.253.8.8 0 0 0 .543.226h.025a.87.87 0 0 0 .627-.31.802.802 0 0 0-.017-1.194 4.48 4.48 0 0 1-1.236-2.69 11 11 0 0 1-.134-1.53 1.73 1.73 0 0 1 1.086-1.753 3.94 3.94 0 0 1 3.71-.042 1.74 1.74 0 0 1 .935 1.37 6.4 6.4 0 0 0 .35 1.203q.092.25.168.501.099.3.209.602a11 11 0 0 1 .384 1.261 3.67 3.67 0 0 0 1.688 2.44.88.88 0 0 0 1.178-.251.9.9 0 0 0 .15-.685.73.73 0 0 0-.318-.476 2.6 2.6 0 0 1-1.077-1.955 6 6 0 0 0-.335-1.011 6 6 0 0 1-.2-.518c-.041-.117-.083-.243-.133-.368a8 8 0 0 1-.343-1.161 3.5 3.5 0 0 0-.935-1.863.37.37 0 0 1-.05-.267 1.37 1.37 0 0 1 .61-.827 1.3 1.3 0 0 1 .384-.15 2 2 0 0 1 .217-.034 7 7 0 0 1 1.462-.008 7 7 0 0 1 .86.15 5 5 0 0 1 .494.15 6.9 6.9 0 0 1 1.913.994 1.3 1.3 0 0 1 .476 1.554 4.3 4.3 0 0 0 .025 2.556 8 8 0 0 1 .259 1.888 1.28 1.28 0 0 1-.31.903 6 6 0 0 0-1.277-3.2.91.91 0 0 1-.084-.853 3.27 3.27 0 0 0-.56-3.057 1.03 1.03 0 0 0-.677-.468.82.82 0 0 0-.651.167.878.878 0 0 0-.118 1.312 1.78 1.78 0 0 1 .276 1.704 2.78 2.78 0 0 0 .434 2.34 8.3 8.3 0 0 1 .827 1.787 1.84 1.84 0 0 1-.35 1.68 5.32 5.32 0 0 1-3.117 2.063 1.32 1.32 0 0 1-1.261-.326c-.26-.25-.368-.426-.26-.76a2.24 2.24 0 0 0-.359-1.896 7.4 7.4 0 0 0-1.06-1.412 1.79 1.79 0 0 1-.551-1.395 3.3 3.3 0 0 0-.652-1.947 1.8 1.8 0 0 1-.25-.852c-.06-.835-.552-.994-.836-1.01a.89.89 0 0 0-.952.918 3 3 0 0 0 .568 1.98 2.05 2.05 0 0 1 .334.92 3.7 3.7 0 0 0 1.144 2.681 3.5 3.5 0 0 1 .669.994c.066.134.133.26.208.393.059.083.084.209-.1.4-.359.385-.71.77-1.06 1.145-.26.276-.51.56-.769.836-.092.092-.125.117-.15.117a7.9 7.9 0 0 1-3.626.242 2.65 2.65 0 0 1-2.223-2.682 8 8 0 0 1 .034-1.286l.016-.16a.22.22 0 0 1 .084-.125 3.75 3.75 0 0 0 2.088-1.595q.026.073.05.134m-13.56-6.825a7.6 7.6 0 0 1 1.187-.46 1 1 0 0 1 .142-.017.58.58 0 0 1 .342.092 4.16 4.16 0 0 0 3.668.86 5.2 5.2 0 0 1 3.058.318 7.6 7.6 0 0 0 1.194.368 6.7 6.7 0 0 1 1.028.3 11 11 0 0 1 2.005 1.07 1.59 1.59 0 0 1 .526 1.763.5.5 0 0 1-.067.075l-.1.1a4 4 0 0 1-.259.284 3 3 0 0 0-.568.744 2.24 2.24 0 0 1-1.838 1.244l-.426.05a4.2 4.2 0 0 0-1.854.552 3.68 3.68 0 0 1-2.331.576l-.009-.008a6.7 6.7 0 0 0-2.44.4 7 7 0 0 1-1.846.41c-.685.042-1.053-.259-1.203-.986a6.3 6.3 0 0 1-.058-2.464 3.52 3.52 0 0 0-.318-2.23 6.9 6.9 0 0 1-.61-1.705 1.105 1.105 0 0 1 .778-1.336m9.867 11.546a6 6 0 0 1-2.632-1.93l2.273-.97a7 7 0 0 0 .359 2.9m-8.764 8.797a7.3 7.3 0 0 0-1.028-1.362.69.69 0 0 1-.208-.618 4.5 4.5 0 0 1 .208-.735 2.47 2.47 0 0 0-.584-2.74 2.17 2.17 0 0 1-.66-2.306c.167-.643.4-1.278.626-1.888.067-.2.142-.401.21-.593l1.82.442v.009a4.05 4.05 0 0 0-.919 3.183 4 4 0 0 0 .92 1.83 1.11 1.11 0 0 1 .225 1.077 5.4 5.4 0 0 0 .86 4.696c.226.359.476.693.727 1.027l.075.1c-.109-.033-.2-.075-.3-.117a4.35 4.35 0 0 1-1.972-2.005m9.215 7.636a3.5 3.5 0 0 1-2.047-.777 7.5 7.5 0 0 0-3.868-1.805 5 5 0 0 0-.585-.042 4.8 4.8 0 0 0-1.453.251l-.059-.125c.292-.176.576-.368.852-.552a5.4 5.4 0 0 1 2.465-1.12 2.77 2.77 0 0 1 2.356.81 3.8 3.8 0 0 0 3.943 1.061 3.44 3.44 0 0 0 2.181-2.02l.075-.184a3.1 3.1 0 0 1 .343-.669 1.9 1.9 0 0 1 .618-.518.92.92 0 0 0 .501-1.06.875.875 0 0 0-1.02-.619 2.3 2.3 0 0 0-.459.159c-.058.025-.108.05-.167.075a2.55 2.55 0 0 1 .017-1.796 1.64 1.64 0 0 1 1.01-.927.86.86 0 0 0 .636-1.003.81.81 0 0 0-.802-.718 1.6 1.6 0 0 0-.71.192c-.142.075-.192.067-.334-.042a6.5 6.5 0 0 0-2.657-1.387 3.9 3.9 0 0 0-2.774.326 4.96 4.96 0 0 0-1.913-3.007.882.882 0 1 0-1.11 1.353 3.03 3.03 0 0 1 1.22 3.333 4 4 0 0 1-.36.827c-.092.184-.192.368-.268.56a.94.94 0 0 0 .042.86.73.73 0 0 0 .577.36 1 1 0 0 0 .234-.008 1.2 1.2 0 0 0 .476-.184.8.8 0 0 0 .15-.134 3.7 3.7 0 0 0 .593-1.027 2.6 2.6 0 0 1 1.395-1.479 2.48 2.48 0 0 1 1.963.15 10 10 0 0 1 .978.56c.092.058.192.117.284.175a4.93 4.93 0 0 0-.117 4.336 1.03 1.03 0 0 1-.075.86 1.7 1.7 0 0 1-1.58 1.07c-.041.025-.158-.042-.183-.059a7.7 7.7 0 0 1-.96-3.509 1.91 1.91 0 0 1 1.144-1.871 1.06 1.06 0 0 0 .551-.576.84.84 0 0 0-.067-.66.9.9 0 0 0-1.236-.351 3.46 3.46 0 0 0-2.139 3.258 12 12 0 0 0 .159 1.854l.05.393a4.23 4.23 0 0 0-2.456-.518.62.62 0 0 1-.585-.25 7.9 7.9 0 0 1-1.646-2.54 3.15 3.15 0 0 1-.092-2.14 2.73 2.73 0 0 0-.476-2.572c-.894-1.187-.894-1.88.017-2.983a14.5 14.5 0 0 1 1.629-1.57l.259-.218a.42.42 0 0 1 .259-.142c.042.009.125.05.25.284a7.3 7.3 0 0 0 4.019 3.309.87.87 0 0 0 .819-.075.93.93 0 0 0 .325-.46 4.62 4.62 0 0 0 3.484 1.68 2.9 2.9 0 0 1 2.13 1.078 2.87 2.87 0 0 1 .585 2.247.3.3 0 0 1-.009.084v.058a4.8 4.8 0 0 0-.275 2.665c.033.292.058.593.067.886.025 1.069-.009 2.163-.034 3.224l-.008.21a1.95 1.95 0 0 1-.41.985 5.07 5.07 0 0 1-4.277 2.189 8 8 0 0 1-1.445-.025Zm5.063 1.863a5.16 5.16 0 0 1-3.442-.075c.1-.017.192-.034.292-.05.735-.134 1.487-.268 2.239-.468a3.8 3.8 0 0 0 1.495-.827 15.6 15.6 0 0 0 1.705-1.838 2.4 2.4 0 0 0 .342-.66 1 1 0 0 0 .034-.084l1.37.902a6.51 6.51 0 0 1-4.035 3.1Zm5.563-2.172.009-.009a5 5 0 0 1 .317-.476.6.6 0 0 1 .2-.075c.426-.125.86-.25 1.287-.368a.9.9 0 0 1 .359-.025q.312.063.635.15a3.34 3.34 0 0 1-2.806.802Zm7.402-3.25a4.44 4.44 0 0 1-3.132.885 23.4 23.4 0 0 0 4.419-3.8h.602a5.78 5.78 0 0 1-1.888 2.915Zm4.57-5.665c-.685.293-1.386.56-2.072.827l-.267.1a1 1 0 0 1-.242.042l-.15.025a.4.4 0 0 1-.2 0c-.068-.025-.093-.083-.118-.209a.874.874 0 0 0-1.036-.718.89.89 0 0 0-.576.368.95.95 0 0 0-.125.726.96.96 0 0 1-.218.844 3.8 3.8 0 0 1-.492.568l-.36.3c-.601.527-1.228 1.07-1.88 1.555a7 7 0 0 1-.977.585c-.2.108-.393.209-.585.325l-.259.15a7 7 0 0 0-1.01.66 1.955 1.955 0 0 1-2.282.168l-.551-.377c-.334-.225-.677-.459-1.02-.676a.35.35 0 0 1-.191-.343c-.025-.743-.067-1.487-.1-2.23-.034-.644-.067-1.295-.092-1.938a1.3 1.3 0 0 1 .108-.502 4.6 4.6 0 0 0-.66-4.595c-.083-.1-.175-.2-.284-.309a2.85 2.85 0 0 0 1.721-1.17l.16-.175c.15-.167.3-.334.467-.51l.083-.084a3.18 3.18 0 0 0 2.523 1.145 4.73 4.73 0 0 1-1.445 4.378.34.34 0 0 1-.209.008.897.897 0 0 0-1.22.36.82.82 0 0 0-.075.65 1.01 1.01 0 0 0 .551.585c.36.184.736.351 1.112.518l.417.193a.64.64 0 0 1 .385.35.34.34 0 0 1-.067.285.6.6 0 0 1-.368.183 4.04 4.04 0 0 0-2.272 1.021.87.87 0 0 0-.15 1.278.89.89 0 0 0 1.32.034 2.414 2.414 0 0 1 2.99-.15q.103.062.193.125c.083.058.159.117.242.167a.88.88 0 0 0 1.203-.242.9.9 0 0 0 .15-.66.87.87 0 0 0-.376-.552 10 10 0 0 0-.919-.56c-.092-.058-.184-.108-.276-.167l.11-.5a2 2 0 0 1 .233.007c.3 0 .61.009.919-.016a4.15 4.15 0 0 0 3.668-2.966 2.67 2.67 0 0 1 2.305-1.437 1.44 1.44 0 0 1 1.061.794c.159.25.644.994 1.37.543a.85.85 0 0 0 .393-.518 1.37 1.37 0 0 0-.284-.994 3.116 3.116 0 0 0-4.186-1.245c-.075.025-.142.058-.217.092a.866.866 0 0 0-.96-.694c-.268.025-.71.176-.794.903l-.009.142a10 10 0 0 1-.208 1.336 2.655 2.655 0 0 1-3.593 2.18 7 7 0 0 1-.676-.183.1.1 0 0 0-.034-.008c.075-.126.159-.243.234-.36a13 13 0 0 0 .777-1.328 6.3 6.3 0 0 0 .51-3.567c-.05-.343.017-.46.35-.635.477-.26.928-.56 1.396-.877.15-.1.292-.2.451-.301a5.093 5.093 0 0 0 7.227.384 2.6 2.6 0 0 1 1.052 1.98c.034.418.084.836.126 1.253.025.192.05.393.066.585l.026.134a1 1 0 0 1 .016.192 3.44 3.44 0 0 1-1.83 2.749Z"/><path d="M18.85 27.644a3.93 3.93 0 0 1 1.662 1.73.4.4 0 0 1-.016.459 15 15 0 0 0-.827 1.754 1.03 1.03 0 0 0-.017.82.85.85 0 0 0 .526.442 1 1 0 0 0 .293.05q.524-.002.86-.719a12.5 12.5 0 0 1 1.052-1.913c.351-.484.727-.56 1.337-.259a2.95 2.95 0 0 0 3.2-.267c.368-.259.56-.276.827-.058a.76.76 0 0 0 .568.158.94.94 0 0 0 .618-.367.85.85 0 0 0-.15-1.187 2.5 2.5 0 0 0-.71-.417 2.24 2.24 0 0 0-2.18.442 1.22 1.22 0 0 1-1.395.117 2.71 2.71 0 0 0-2.514-.066c-.05-.076-.092-.15-.142-.226a5.24 5.24 0 0 0-2.232-2.063.873.873 0 1 0-.76 1.57"/></svg>