<svg xmlns="http://www.w3.org/2000/svg" viewBox="0 0 72 72"><path fill="#fff" d="M46.355 25.522a78.5 78.5 0 0 0-20.71 0 20 20 0 0 0 0-13.463 82 82 0 0 0 20.71 0 34.8 34.8 0 0 0 0 13.463M50.306 61.536a65.5 65.5 0 0 0-28.611 0 75.3 75.3 0 0 0 0-31.001 68.4 68.4 0 0 0 28.61 0 133 133 0 0 0 0 31.001"/><path fill="#d0cfce" d="M45.193 24.387c-1.226.083-1.721-.302-3.498-.24 1.09-4.421 1.47-6.337.38-10.758 1.525.051 1.715-.068 3.18-.265-.314 1.9-.97 4.304-.061 11.263ZM49.312 60.602c-2.822-.998-2.228-.342-5.445-.883 1.507-10.279 1.507-17.274 0-27.553 2.67-.203 2.554-.025 5.445-.782-.138 10.462-1.721 11.15 0 29.218Z"/><g fill="none" stroke="#000" stroke-linecap="round" stroke-linejoin="round" stroke-width="2"><path d="M46.355 25.522a78.5 78.5 0 0 0-20.71 0 20 20 0 0 0 0-13.463 82 82 0 0 0 20.71 0 34.8 34.8 0 0 0 0 13.463M50.306 61.536a65.5 65.5 0 0 0-28.611 0 75.3 75.3 0 0 0 0-31.001 68.4 68.4 0 0 0 28.61 0 133 133 0 0 0 0 31.001"/></g></svg>