<svg xmlns="http://www.w3.org/2000/svg" viewBox="0 0 72 72"><path fill="#61b2e4" fill-rule="evenodd" d="m34 16.163-19 3.093V34h19zM15 38v14.744l19 3.093V38zm23 18.488 22 3.582V38H38zM60 34H38V15.512l22-3.582z" clip-rule="evenodd"/><path d="M34 16.163h1a1 1 0 0 0-1.16-.987zm-19 3.093-.16-.987a1 1 0 0 0-.84.987zM15 34h-1a1 1 0 0 0 1 1zm19 0v1a1 1 0 0 0 1-1zm-19 4v-1a1 1 0 0 0-1 1zm0 14.744h-1a1 1 0 0 0 .84.987zm19 3.093-.16.987a1 1 0 0 0 1.16-.987zM34 38h1a1 1 0 0 0-1-1zm4 18.488h-1a1 1 0 0 0 .84.987zm22 3.582-.16.987A1 1 0 0 0 61 60.07zM60 38h1a1 1 0 0 0-1-1zm-22 0v-1a1 1 0 0 0-1 1zm22-4v1a1 1 0 0 0 1-1zm-22 0h-1a1 1 0 0 0 1 1zm0-18.488-.16-.987a1 1 0 0 0-.84.987zm22-3.582h1a1 1 0 0 0-1.16-.987zm-26.16 3.246-19 3.093.32 1.974 19-3.093zM14 19.256V34h2V19.256zM34 33H15v2h19zm-1-16.837V34h2V16.163zM14 38v14.744h2V38zm.84 15.731 19 3.093.32-1.974-19-3.093zM33 38v17.837h2V38zm-18 1h19v-2H15zm22.84 18.475 22 3.582.32-1.974-22-3.582zM61 60.07V38h-2v22.07zM38 39h22v-2H38zm1 17.488V38h-2v18.488zM60 33H38v2h22zm-21 1V15.512h-2V34zm20.84-23.057-22 3.582.32 1.974 22-3.582zM61 34V11.93h-2V34z"/></svg>